<svg xmlns="http://www.w3.org/2000/svg" width="951" height="688" viewBox="0 0 951 688">
  <g id="Grupo_907955" data-name="Grupo 907955" transform="translate(-325 -1781)">
    <g id="Rectángulo_304074" data-name="Rectángulo 304074" transform="translate(455 2185)" fill="#feca2e" stroke="#707070" stroke-width="1">
      <rect width="168" height="74" stroke="none"/>
      <rect x="0.5" y="0.5" width="167" height="73" fill="none"/>
    </g>
    <g id="Rectángulo_304066" data-name="Rectángulo 304066" transform="translate(673 1781)" fill="#4dd0e1" stroke="#707070" stroke-width="1">
      <rect width="213" height="74" stroke="none"/>
      <rect x="0.5" y="0.5" width="212" height="73" fill="none"/>
    </g>
    <g id="Rectángulo_304068" data-name="Rectángulo 304068" transform="translate(325 1874)" fill="#feca2e" stroke="#707070" stroke-width="1">
      <rect width="186" height="74" stroke="none"/>
      <rect x="0.5" y="0.5" width="185" height="73" fill="none"/>
    </g>
    <g id="Rectángulo_304069" data-name="Rectángulo 304069" transform="translate(566 1969)" fill="#feca2e" stroke="#707070" stroke-width="1">
      <rect width="214" height="74" stroke="none"/>
      <rect x="0.5" y="0.5" width="213" height="73" fill="none"/>
    </g>
    <g id="Rectángulo_304070" data-name="Rectángulo 304070" transform="translate(1032 1867)" fill="#feca2e" stroke="#707070" stroke-width="1">
      <rect width="219" height="74" stroke="none"/>
      <rect x="0.5" y="0.5" width="218" height="73" fill="none"/>
    </g>
    <g id="Rectángulo_304071" data-name="Rectángulo 304071" transform="translate(845 1969)" fill="#feca2e" stroke="#707070" stroke-width="1">
      <rect width="133" height="74" stroke="none"/>
      <rect x="0.5" y="0.5" width="132" height="73" fill="none"/>
    </g>
    <g id="Rectángulo_304072" data-name="Rectángulo 304072" transform="translate(1009 2118)" fill="#feca2e" stroke="#707070" stroke-width="1">
      <rect width="267" height="74" stroke="none"/>
      <rect x="0.5" y="0.5" width="266" height="73" fill="none"/>
    </g>
    <g id="Rectángulo_304073" data-name="Rectángulo 304073" transform="translate(1039 2248)" fill="#feca2e" stroke="#707070" stroke-width="1">
      <rect width="204" height="74" stroke="none"/>
      <rect x="0.5" y="0.5" width="203" height="73" fill="none"/>
    </g>
    <g id="Rectángulo_304075" data-name="Rectángulo 304075" transform="translate(659 2115)" fill="#feca2e" stroke="#707070" stroke-width="1">
      <rect width="249" height="74" stroke="none"/>
      <rect x="0.5" y="0.5" width="248" height="73" fill="none"/>
    </g>
    <g id="Rectángulo_304076" data-name="Rectángulo 304076" transform="translate(659 2251)" fill="#feca2e" stroke="#707070" stroke-width="1">
      <rect width="249" height="74" stroke="none"/>
      <rect x="0.5" y="0.5" width="248" height="73" fill="none"/>
    </g>
    <g id="Rectángulo_304067" data-name="Rectángulo 304067" transform="translate(659 2395)" fill="#4dd0e1" stroke="#707070" stroke-width="1">
      <rect width="256" height="74" stroke="none"/>
      <rect x="0.5" y="0.5" width="255" height="73" fill="none"/>
    </g>
    <g id="Grupo_907941" data-name="Grupo 907941" transform="translate(1141.955 2140.151) rotate(90)">
      <g id="Polígono_28" data-name="Polígono 28" transform="translate(-21.295 -5) rotate(90)" fill="#707070">
        <path d="M 11.03773403167725 10.53586196899414 L 0.8367621898651123 10.53586196899414 L 5.937248229980469 1.055336475372314 L 11.03773403167725 10.53586196899414 Z" stroke="none"/>
        <path d="M 5.937248229980469 2.110671043395996 L 1.673525810241699 10.03586196899414 L 10.20097064971924 10.03586196899414 L 5.937248229980469 2.110671043395996 M 5.937248229980469 1.9073486328125e-06 L 11.87449836730957 11.03586196899414 L -1.9073486328125e-06 11.03586196899414 L 5.937248229980469 1.9073486328125e-06 Z" stroke="none" fill="#707070"/>
      </g>
      <path id="Trazado_183774" data-name="Trazado 183774" d="M0,0V174.685" transform="translate(-199.429 0.937) rotate(-90)" fill="none" stroke="#707070" stroke-width="1"/>
    </g>
    <g id="Grupo_907942" data-name="Grupo 907942" transform="translate(1141.955 2271.151) rotate(90)">
      <g id="Polígono_28-2" data-name="Polígono 28" transform="translate(-21.295 -5) rotate(90)" fill="#707070">
        <path d="M 11.03773403167725 10.53586196899414 L 0.8367621898651123 10.53586196899414 L 5.937248229980469 1.055336475372314 L 11.03773403167725 10.53586196899414 Z" stroke="none"/>
        <path d="M 5.937248229980469 2.110671043395996 L 1.673525810241699 10.03586196899414 L 10.20097064971924 10.03586196899414 L 5.937248229980469 2.110671043395996 M 5.937248229980469 1.9073486328125e-06 L 11.87449836730957 11.03586196899414 L -1.9073486328125e-06 11.03586196899414 L 5.937248229980469 1.9073486328125e-06 Z" stroke="none" fill="#707070"/>
      </g>
      <path id="Trazado_183774-2" data-name="Trazado 183774" d="M0,0V56.406" transform="translate(-81.15 0.937) rotate(-90)" fill="none" stroke="#707070" stroke-width="1"/>
    </g>
    <g id="Grupo_907951" data-name="Grupo 907951" transform="translate(910 1982.716) rotate(90)">
      <g id="Polígono_28-3" data-name="Polígono 28" transform="translate(-14.86 -5) rotate(90)" fill="#707070">
        <path d="M 11.03773403167725 10.53586196899414 L 0.8367621898651123 10.53586196899414 L 5.937248229980469 1.055336475372314 L 11.03773403167725 10.53586196899414 Z" stroke="none"/>
        <path d="M 5.937248229980469 2.110671043395996 L 1.673525810241699 10.03586196899414 L 10.20097064971924 10.03586196899414 L 5.937248229980469 2.110671043395996 M 5.937248229980469 1.9073486328125e-06 L 11.87449836730957 11.03586196899414 L -1.9073486328125e-06 11.03586196899414 L 5.937248229980469 1.9073486328125e-06 Z" stroke="none" fill="#707070"/>
      </g>
      <path id="Trazado_183774-3" data-name="Trazado 183774" d="M0,62.842V0H121.363" transform="translate(-81.15 0.937) rotate(-90)" fill="none" stroke="#707070" stroke-width="1"/>
    </g>
    <g id="Grupo_907952" data-name="Grupo 907952" transform="translate(1141.955 1897.979) rotate(90)">
      <g id="Polígono_28-4" data-name="Polígono 28" transform="translate(-32.123 -5) rotate(90)" fill="#707070">
        <path d="M 11.03773403167725 10.53586196899414 L 0.8367621898651123 10.53586196899414 L 5.937248229980469 1.055336475372314 L 11.03773403167725 10.53586196899414 Z" stroke="none"/>
        <path d="M 5.937248229980469 2.110671043395996 L 1.673525810241699 10.03586196899414 L 10.20097064971924 10.03586196899414 L 5.937248229980469 2.110671043395996 M 5.937248229980469 1.9073486328125e-06 L 11.87449836730957 11.03586196899414 L -1.9073486328125e-06 11.03586196899414 L 5.937248229980469 1.9073486328125e-06 Z" stroke="none" fill="#707070"/>
      </g>
      <path id="Trazado_183774-4" data-name="Trazado 183774" d="M0,45.578V0H-255.422" transform="translate(-81.15 0.937) rotate(-90)" fill="none" stroke="#707070" stroke-width="1"/>
    </g>
    <g id="Grupo_907944" data-name="Grupo 907944" transform="translate(785 2420.151) rotate(90)">
      <g id="Polígono_28-5" data-name="Polígono 28" transform="translate(-21.295 -5) rotate(90)" fill="#707070">
        <path d="M 11.03773403167725 10.53586196899414 L 0.8367621898651123 10.53586196899414 L 5.937248229980469 1.055336475372314 L 11.03773403167725 10.53586196899414 Z" stroke="none"/>
        <path d="M 5.937248229980469 2.110671043395996 L 1.673525810241699 10.03586196899414 L 10.20097064971924 10.03586196899414 L 5.937248229980469 2.110671043395996 M 5.937248229980469 1.9073486328125e-06 L 11.87449836730957 11.03586196899414 L -1.9073486328125e-06 11.03586196899414 L 5.937248229980469 1.9073486328125e-06 Z" stroke="none" fill="#707070"/>
      </g>
      <path id="Trazado_183774-5" data-name="Trazado 183774" d="M0,0V71.906" transform="translate(-96.65 0.937) rotate(-90)" fill="none" stroke="#707070" stroke-width="1"/>
    </g>
    <g id="Grupo_907945" data-name="Grupo 907945" transform="translate(785 2271.151) rotate(90)">
      <g id="Polígono_28-6" data-name="Polígono 28" transform="translate(-21.295 -5) rotate(90)" fill="#707070">
        <path d="M 11.03773403167725 10.53586196899414 L 0.8367621898651123 10.53586196899414 L 5.937248229980469 1.055336475372314 L 11.03773403167725 10.53586196899414 Z" stroke="none"/>
        <path d="M 5.937248229980469 2.110671043395996 L 1.673525810241699 10.03586196899414 L 10.20097064971924 10.03586196899414 L 5.937248229980469 2.110671043395996 M 5.937248229980469 1.9073486328125e-06 L 11.87449836730957 11.03586196899414 L -1.9073486328125e-06 11.03586196899414 L 5.937248229980469 1.9073486328125e-06 Z" stroke="none" fill="#707070"/>
      </g>
      <path id="Trazado_183774-6" data-name="Trazado 183774" d="M0,0V57" transform="translate(-81.744 0.937) rotate(-90)" fill="none" stroke="#707070" stroke-width="1"/>
    </g>
    <g id="Grupo_907943" data-name="Grupo 907943" transform="translate(886.575 2432.86) rotate(180)">
      <g id="Polígono_28-7" data-name="Polígono 28" transform="translate(-21.295 -5) rotate(90)" fill="#707070">
        <path d="M 11.03773403167725 10.53586196899414 L 0.8367621898651123 10.53586196899414 L 5.937248229980469 1.055336475372314 L 11.03773403167725 10.53586196899414 Z" stroke="none"/>
        <path d="M 5.937248229980469 2.110671043395996 L 1.673525810241699 10.03586196899414 L 10.20097064971924 10.03586196899414 L 5.937248229980469 2.110671043395996 M 5.937248229980469 1.9073486328125e-06 L 11.87449836730957 11.03586196899414 L -1.9073486328125e-06 11.03586196899414 L 5.937248229980469 1.9073486328125e-06 Z" stroke="none" fill="#707070"/>
      </g>
      <path id="Trazado_183774-7" data-name="Trazado 183774" d="M0,227.838V0H-110.722" transform="translate(-252.582 0.937) rotate(-90)" fill="none" stroke="#707070" stroke-width="1"/>
    </g>
    <g id="Grupo_907946" data-name="Grupo 907946" transform="translate(406.748 2405.86) rotate(180)">
      <g id="Polígono_28-8" data-name="Polígono 28" transform="translate(-252.582 6.874) rotate(-90)" fill="#707070">
        <path d="M 11.03773403167725 10.53586196899414 L 0.8367621898651123 10.53586196899414 L 5.937248229980469 1.055336475372314 L 11.03773403167725 10.53586196899414 Z" stroke="none"/>
        <path d="M 5.937248229980469 2.110671043395996 L 1.673525810241699 10.03586196899414 L 10.20097064971924 10.03586196899414 L 5.937248229980469 2.110671043395996 M 5.937248229980469 1.9073486328125e-06 L 11.87449836730957 11.03586196899414 L -1.9073486328125e-06 11.03586196899414 L 5.937248229980469 1.9073486328125e-06 Z" stroke="none" fill="#707070"/>
      </g>
      <path id="Trazado_183774-8" data-name="Trazado 183774" d="M110.722,0V121.977h-146.7" transform="translate(-249.133 111.659) rotate(-90)" fill="none" stroke="#707070" stroke-width="1"/>
    </g>
    <g id="Grupo_907950" data-name="Grupo 907950" transform="translate(537.362 1932.316) rotate(-90)">
      <g id="Polígono_28-9" data-name="Polígono 28" transform="translate(-252.582 6.874) rotate(-90)" fill="#707070">
        <path d="M 11.03773403167725 10.53586196899414 L 0.8367621898651123 10.53586196899414 L 5.937248229980469 1.055336475372314 L 11.03773403167725 10.53586196899414 Z" stroke="none"/>
        <path d="M 5.937248229980469 2.110671043395996 L 1.673525810241699 10.03586196899414 L 10.20097064971924 10.03586196899414 L 5.937248229980469 2.110671043395996 M 5.937248229980469 1.9073486328125e-06 L 11.87449836730957 11.03586196899414 L -1.9073486328125e-06 11.03586196899414 L 5.937248229980469 1.9073486328125e-06 Z" stroke="none" fill="#707070"/>
      </g>
      <path id="Trazado_183774-9" data-name="Trazado 183774" d="M110.722,0V176.777s-.284-.3-26.915,0" transform="translate(-249.133 111.659) rotate(-90)" fill="none" stroke="#707070" stroke-width="1"/>
    </g>
    <g id="Grupo_907947" data-name="Grupo 907947" transform="translate(406.748 2432.86) rotate(180)">
      <g id="Polígono_28-10" data-name="Polígono 28" transform="translate(-252.582 6.874) rotate(-90)" fill="#707070">
        <path d="M 11.03773403167725 10.53586196899414 L 0.8367621898651123 10.53586196899414 L 5.937248229980469 1.055336475372314 L 11.03773403167725 10.53586196899414 Z" stroke="none"/>
        <path d="M 5.937248229980469 2.110671043395996 L 1.673525810241699 10.03586196899414 L 10.20097064971924 10.03586196899414 L 5.937248229980469 2.110671043395996 M 5.937248229980469 1.9073486328125e-06 L 11.87449836730957 11.03586196899414 L -1.9073486328125e-06 11.03586196899414 L 5.937248229980469 1.9073486328125e-06 Z" stroke="none" fill="#707070"/>
      </g>
      <path id="Trazado_183774-10" data-name="Trazado 183774" d="M110.722,0l1.011,238.122H-373.687" transform="translate(-249.133 111.659) rotate(-90)" fill="none" stroke="#707070" stroke-width="1"/>
    </g>
    <g id="Grupo_907948" data-name="Grupo 907948" transform="translate(886.575 2134.866) rotate(180)">
      <g id="Polígono_28-11" data-name="Polígono 28" transform="translate(-21.295 -5) rotate(90)" fill="#707070">
        <path d="M 11.03773403167725 10.53586196899414 L 0.8367621898651123 10.53586196899414 L 5.937248229980469 1.055336475372314 L 11.03773403167725 10.53586196899414 Z" stroke="none"/>
        <path d="M 5.937248229980469 2.110671043395996 L 1.673525810241699 10.03586196899414 L 10.20097064971924 10.03586196899414 L 5.937248229980469 2.110671043395996 M 5.937248229980469 1.9073486328125e-06 L 11.87449836730957 11.03586196899414 L -1.9073486328125e-06 11.03586196899414 L 5.937248229980469 1.9073486328125e-06 Z" stroke="none" fill="#707070"/>
      </g>
      <path id="Trazado_183774-11" data-name="Trazado 183774" d="M0,0V94.865" transform="translate(-119.609 0.937) rotate(-90)" fill="none" stroke="#707070" stroke-width="1"/>
    </g>
    <g id="Grupo_907954" data-name="Grupo 907954" transform="translate(886.575 2158.439) rotate(180)">
      <g id="Polígono_28-12" data-name="Polígono 28" transform="translate(-21.295 -5) rotate(90)" fill="#707070">
        <path d="M 11.03773403167725 10.53586196899414 L 0.8367621898651123 10.53586196899414 L 5.937248229980469 1.055336475372314 L 11.03773403167725 10.53586196899414 Z" stroke="none"/>
        <path d="M 5.937248229980469 2.110671043395996 L 1.673525810241699 10.03586196899414 L 10.20097064971924 10.03586196899414 L 5.937248229980469 2.110671043395996 M 5.937248229980469 1.9073486328125e-06 L 11.87449836730957 11.03586196899414 L -1.9073486328125e-06 11.03586196899414 L 5.937248229980469 1.9073486328125e-06 Z" stroke="none" fill="#707070"/>
      </g>
      <path id="Trazado_183774-12" data-name="Trazado 183774" d="M0,94.865" transform="translate(-119.609 0.937) rotate(-90)" fill="none" stroke="#707070" stroke-width="1"/>
      <g id="Polígono_55" data-name="Polígono 55" transform="translate(97.638 42.419)" fill="#707070">
        <path d="M 11.03773403167725 10.53586196899414 L 0.8367621898651123 10.53586196899414 L 5.937248229980469 1.055336475372314 L 11.03773403167725 10.53586196899414 Z" stroke="none"/>
        <path d="M 5.937248229980469 2.110671043395996 L 1.673525810241699 10.03586196899414 L 10.20097064971924 10.03586196899414 L 5.937248229980469 2.110671043395996 M 5.937248229980469 1.9073486328125e-06 L 11.87449836730957 11.03586196899414 L -1.9073486328125e-06 11.03586196899414 L 5.937248229980469 1.9073486328125e-06 Z" stroke="none" fill="#707070"/>
      </g>
    </g>
    <g id="Grupo_907949" data-name="Grupo 907949" transform="translate(762.767 2006.866) rotate(180)">
      <g id="Polígono_28-13" data-name="Polígono 28" transform="translate(-21.295 -5) rotate(90)" fill="#707070">
        <path d="M 11.03773403167725 10.53586196899414 L 0.8367621898651123 10.53586196899414 L 5.937248229980469 1.055336475372314 L 11.03773403167725 10.53586196899414 Z" stroke="none"/>
        <path d="M 5.937248229980469 2.110671043395996 L 1.673525810241699 10.03586196899414 L 10.20097064971924 10.03586196899414 L 5.937248229980469 2.110671043395996 M 5.937248229980469 1.9073486328125e-06 L 11.87449836730957 11.03586196899414 L -1.9073486328125e-06 11.03586196899414 L 5.937248229980469 1.9073486328125e-06 Z" stroke="none" fill="#707070"/>
      </g>
      <path id="Trazado_183774-13" data-name="Trazado 183774" d="M0,0V56.245" transform="translate(-80.989 0.937) rotate(-90)" fill="none" stroke="#707070" stroke-width="1"/>
    </g>
    <g id="Grupo_907953" data-name="Grupo 907953" transform="translate(677 1897.979) rotate(90)">
      <g id="Polígono_28-14" data-name="Polígono 28" transform="translate(-21.123 254.629) rotate(90)" fill="#707070">
        <path d="M 11.03773403167725 10.53586196899414 L 0.8367621898651123 10.53586196899414 L 5.937248229980469 1.055336475372314 L 11.03773403167725 10.53586196899414 Z" stroke="none"/>
        <path d="M 5.937248229980469 2.110671043395996 L 1.673525810241699 10.03586196899414 L 10.20097064971924 10.03586196899414 L 5.937248229980469 2.110671043395996 M 5.937248229980469 1.9073486328125e-06 L 11.87449836730957 11.03586196899414 L -1.9073486328125e-06 11.03586196899414 L 5.937248229980469 1.9073486328125e-06 Z" stroke="none" fill="#707070"/>
      </g>
      <path id="Trazado_183774-14" data-name="Trazado 183774" d="M0,56.578H265.566V5.241" transform="translate(-24.572 -5) rotate(90)" fill="none" stroke="#707070" stroke-width="1"/>
    </g>
    <path id="Trazado_640024" data-name="Trazado 640024" d="M-1977.924-9659.271v37.537H-1868.1v34.514" transform="translate(2651 11700)" fill="none" stroke="#707070" stroke-width="1"/>
    <path id="Trazado_640025" data-name="Trazado 640025" d="M-1743.129-9411.353h23.661V-9542.5H-1736" transform="translate(2651 11700)" fill="none" stroke="#707070" stroke-width="1"/>
    <path id="Trazado_641900" data-name="Trazado 641900" d="M5.256,13.3A7.935,7.935,0,0,1,2.1,11.762a2.93,2.93,0,0,1-.989-2.246,3.1,3.1,0,0,1,1.208-2.5,4.8,4.8,0,0,1,3.142-.989,5.243,5.243,0,0,1,2.351.51,3.866,3.866,0,0,1,1.6,1.406A3.6,3.6,0,0,1,9.976,9.9h-1.7a2.34,2.34,0,0,0-.738-1.83,3,3,0,0,0-2.083-.666,3.074,3.074,0,0,0-1.947.55,1.836,1.836,0,0,0-.7,1.528,1.652,1.652,0,0,0,.664,1.325,6.509,6.509,0,0,0,2.259.991,10.481,10.481,0,0,1,2.5.99,3.788,3.788,0,0,1,1.336,1.261,3.219,3.219,0,0,1,.435,1.7A2.99,2.99,0,0,1,8.789,18.24a5.171,5.171,0,0,1-3.243.936,6.015,6.015,0,0,1-2.461-.505,4.142,4.142,0,0,1-1.762-1.384,3.378,3.378,0,0,1-.62-2H2.4a2.2,2.2,0,0,0,.857,1.833,3.608,3.608,0,0,0,2.29.672,3.317,3.317,0,0,0,2.048-.545,1.77,1.77,0,0,0,.712-1.485,1.738,1.738,0,0,0-.659-1.455A7.6,7.6,0,0,0,5.256,13.3ZM13.975,19H12.287V6.2h1.688Z" transform="translate(515 1785)" fill="#12263f"/>
    <path id="Trazado_641904" data-name="Trazado 641904" d="M5.256,13.3A7.935,7.935,0,0,1,2.1,11.762a2.93,2.93,0,0,1-.989-2.246,3.1,3.1,0,0,1,1.208-2.5,4.8,4.8,0,0,1,3.142-.989,5.243,5.243,0,0,1,2.351.51,3.866,3.866,0,0,1,1.6,1.406A3.6,3.6,0,0,1,9.976,9.9h-1.7a2.34,2.34,0,0,0-.738-1.83,3,3,0,0,0-2.083-.666,3.074,3.074,0,0,0-1.947.55,1.836,1.836,0,0,0-.7,1.528,1.652,1.652,0,0,0,.664,1.325,6.509,6.509,0,0,0,2.259.991,10.481,10.481,0,0,1,2.5.99,3.788,3.788,0,0,1,1.336,1.261,3.219,3.219,0,0,1,.435,1.7A2.99,2.99,0,0,1,8.789,18.24a5.171,5.171,0,0,1-3.243.936,6.015,6.015,0,0,1-2.461-.505,4.142,4.142,0,0,1-1.762-1.384,3.378,3.378,0,0,1-.62-2H2.4a2.2,2.2,0,0,0,.857,1.833,3.608,3.608,0,0,0,2.29.672,3.317,3.317,0,0,0,2.048-.545,1.77,1.77,0,0,0,.712-1.485,1.738,1.738,0,0,0-.659-1.455A7.6,7.6,0,0,0,5.256,13.3ZM13.975,19H12.287V6.2h1.688Z" transform="translate(961.184 1872)" fill="#12263f"/>
    <path id="Trazado_641901" data-name="Trazado 641901" d="M11.32,19h-1.7L3.182,9.139V19h-1.7V6.2h1.7l6.46,9.905V6.2H11.32Zm12.841-5.985a7.916,7.916,0,0,1-.633,3.283,4.793,4.793,0,0,1-1.793,2.14,4.933,4.933,0,0,1-2.707.738,4.774,4.774,0,0,1-4.5-2.861,7.6,7.6,0,0,1-.664-3.186v-.923a7.822,7.822,0,0,1,.642-3.261,4.745,4.745,0,0,1,4.5-2.918,4.961,4.961,0,0,1,2.711.743,4.784,4.784,0,0,1,1.806,2.153,7.955,7.955,0,0,1,.633,3.283Zm-1.679-.826a5.738,5.738,0,0,0-.914-3.494,3.015,3.015,0,0,0-2.558-1.217,2.982,2.982,0,0,0-2.518,1.217,5.62,5.62,0,0,0-.945,3.379v.94a5.746,5.746,0,0,0,.927,3.467,3,3,0,0,0,2.553,1.261,2.983,2.983,0,0,0,2.531-1.191,5.714,5.714,0,0,0,.923-3.415Z" transform="translate(1000 1784.819)" fill="#12263f"/>
    <path id="Trazado_641897" data-name="Trazado 641897" d="M6.891,17.031a6.871,6.871,0,0,1-.252,1.986,4.439,4.439,0,0,1-.8,1.436q-.563.691-1.641,1.822a4.011,4.011,0,0,0-1.207,2.291L2.965,25a2.629,2.629,0,0,0,.68,1.951,2.663,2.663,0,0,0,1.957.674,2.731,2.731,0,0,0,1.9-.662,2.221,2.221,0,0,0,.732-1.729h2.168a4.043,4.043,0,0,1-1.342,3.082,4.957,4.957,0,0,1-3.463,1.2,4.989,4.989,0,0,1-3.551-1.178A4.275,4.275,0,0,1,.8,25.059,6.115,6.115,0,0,1,2.672,20.98l1.277-1.324a3.956,3.956,0,0,0,.773-2.625Zm.094-3.709a1.3,1.3,0,0,1-.322.895,1.207,1.207,0,0,1-.955.365,1.226,1.226,0,0,1-.961-.365,1.29,1.29,0,0,1-.328-.895,1.232,1.232,0,0,1,.328-.871,1.248,1.248,0,0,1,.961-.353,1.229,1.229,0,0,1,.955.353A1.245,1.245,0,0,1,6.984,13.322Zm15.762,4.143h-7.16V25h-2.25V7.938h10.57v1.84h-8.32v5.848h7.16ZM38.613,7.938v11.6A5.442,5.442,0,0,1,37.1,23.488a6.115,6.115,0,0,1-4.084,1.723l-.6.023a6.386,6.386,0,0,1-4.465-1.512,5.407,5.407,0,0,1-1.687-4.16V7.938h2.227V19.492a3.9,3.9,0,0,0,1.02,2.877,3.919,3.919,0,0,0,2.906,1.025,3.945,3.945,0,0,0,2.924-1.02A3.9,3.9,0,0,0,36.352,19.5V7.938ZM55.277,25H53.016l-8.59-13.148V25H42.164V7.938h2.262l8.613,13.207V7.938h2.238Zm16.547-5.414a6.277,6.277,0,0,1-2,4.178,6.548,6.548,0,0,1-4.471,1.471,6.012,6.012,0,0,1-4.846-2.168,8.722,8.722,0,0,1-1.822-5.8V15.625a9.722,9.722,0,0,1,.85-4.184A6.346,6.346,0,0,1,61.945,8.67,6.705,6.705,0,0,1,65.555,7.7a6.165,6.165,0,0,1,4.359,1.518,6.353,6.353,0,0,1,1.91,4.2H69.563a4.9,4.9,0,0,0-1.271-2.962,3.847,3.847,0,0,0-2.736-.917,4.026,4.026,0,0,0-3.381,1.6,7.323,7.323,0,0,0-1.225,4.539v1.654a7.527,7.527,0,0,0,1.16,4.422,3.749,3.749,0,0,0,3.246,1.642,4.33,4.33,0,0,0,2.877-.85,4.715,4.715,0,0,0,1.33-2.959ZM77.309,25h-2.25V7.938h2.25Zm17.238-7.98A10.555,10.555,0,0,1,93.7,21.4a6.391,6.391,0,0,1-2.391,2.854,6.6,6.6,0,0,1-9.6-2.83,10.127,10.127,0,0,1-.885-4.248v-1.23a10.429,10.429,0,0,1,.855-4.348,6.327,6.327,0,0,1,6-3.891,6.614,6.614,0,0,1,3.615.99A6.379,6.379,0,0,1,93.7,11.564a10.606,10.606,0,0,1,.844,4.377Zm-2.238-1.1A7.65,7.65,0,0,0,91.09,11.26a4.02,4.02,0,0,0-3.41-1.623,3.977,3.977,0,0,0-3.357,1.623,7.493,7.493,0,0,0-1.26,4.506V17.02A7.661,7.661,0,0,0,84.3,21.643a4.333,4.333,0,0,0,6.779.094,7.618,7.618,0,0,0,1.23-4.553ZM111.035,25h-2.262l-8.59-13.148V25H97.922V7.938h2.262L108.8,21.145V7.938h2.238Zm13.418-4.465H117.3L115.7,25h-2.32l6.516-17.062h1.969L128.391,25h-2.309Zm-6.469-1.84h5.8l-2.906-7.98Zm14.191,1.48a6.994,6.994,0,0,1,.316-2.2,5.641,5.641,0,0,1,1.2-1.79l1.535-1.579a3.54,3.54,0,0,0,.984-2.385,2.722,2.722,0,0,0-.645-1.924,2.43,2.43,0,0,0-1.875-.7,2.822,2.822,0,0,0-1.922.633,2.14,2.14,0,0,0-.727,1.7h-2.168a3.948,3.948,0,0,1,1.354-3.064A5.061,5.061,0,0,1,133.688,7.7a4.778,4.778,0,0,1,3.451,1.188,4.306,4.306,0,0,1,1.236,3.259,5.889,5.889,0,0,1-1.9,4.037L135.2,17.449a3.935,3.935,0,0,0-.855,2.726Zm-.094,3.723a1.292,1.292,0,0,1,.322-.893,1.214,1.214,0,0,1,.955-.361,1.233,1.233,0,0,1,.961.361,1.278,1.278,0,0,1,.328.893,1.236,1.236,0,0,1-.328.881,1.256,1.256,0,0,1-.961.349,1.16,1.16,0,0,1-1.277-1.23Z" transform="translate(710 1803.477)" fill="#12263f"/>
    <path id="Trazado_641902" data-name="Trazado 641902" d="M6.891,17.031a6.871,6.871,0,0,1-.252,1.986,4.439,4.439,0,0,1-.8,1.436q-.563.691-1.641,1.822a4.011,4.011,0,0,0-1.207,2.291L2.965,25a2.629,2.629,0,0,0,.68,1.951,2.663,2.663,0,0,0,1.957.674,2.731,2.731,0,0,0,1.9-.662,2.221,2.221,0,0,0,.732-1.729h2.168a4.043,4.043,0,0,1-1.342,3.082,4.957,4.957,0,0,1-3.463,1.2,4.989,4.989,0,0,1-3.551-1.178A4.275,4.275,0,0,1,.8,25.059,6.115,6.115,0,0,1,2.672,20.98l1.277-1.324a3.956,3.956,0,0,0,.773-2.625Zm.094-3.709a1.3,1.3,0,0,1-.322.895,1.207,1.207,0,0,1-.955.365,1.226,1.226,0,0,1-.961-.365,1.29,1.29,0,0,1-.328-.895,1.232,1.232,0,0,1,.328-.871,1.248,1.248,0,0,1,.961-.353,1.229,1.229,0,0,1,.955.353A1.245,1.245,0,0,1,6.984,13.322ZM15.6,23.16h8.086V25H13.336V7.938H15.6Zm9.738-4.617a7.489,7.489,0,0,1,.732-3.352,5.464,5.464,0,0,1,2.039-2.3,5.551,5.551,0,0,1,2.982-.809,5.347,5.347,0,0,1,4.189,1.793,6.9,6.9,0,0,1,1.6,4.77V18.8a7.555,7.555,0,0,1-.709,3.322,5.383,5.383,0,0,1-2.027,2.291,5.614,5.614,0,0,1-3.029.82,5.334,5.334,0,0,1-4.178-1.793,6.863,6.863,0,0,1-1.6-4.746Zm2.18.258a5.424,5.424,0,0,0,.979,3.387,3.316,3.316,0,0,0,5.244-.018,5.932,5.932,0,0,0,.973-3.627,5.415,5.415,0,0,0-.99-3.381,3.148,3.148,0,0,0-2.631-1.295,3.113,3.113,0,0,0-2.59,1.277A5.888,5.888,0,0,0,27.516,18.8Zm20.191-4.945a4.609,4.609,0,0,1,3.75-1.77q4.02,0,4.055,4.535V25H53.344V16.609a2.919,2.919,0,0,0-.627-2.027,2.512,2.512,0,0,0-1.916-.656,3.129,3.129,0,0,0-1.852.563,3.82,3.82,0,0,0-1.242,1.477V25H45.539V7h2.168ZM66.586,25a4.554,4.554,0,0,1-.3-1.336,4.837,4.837,0,0,1-3.609,1.57A4.476,4.476,0,0,1,59.6,24.174a3.431,3.431,0,0,1-1.2-2.689A3.584,3.584,0,0,1,59.9,18.408a7.1,7.1,0,0,1,4.236-1.1h2.109v-1a2.435,2.435,0,0,0-.68-1.811,2.732,2.732,0,0,0-2-.674,3.161,3.161,0,0,0-1.945.586,1.727,1.727,0,0,0-.785,1.418h-2.18A2.992,2.992,0,0,1,59.326,14a4.6,4.6,0,0,1,1.828-1.4,6.15,6.15,0,0,1,2.537-.516,5.013,5.013,0,0,1,3.434,1.1A3.953,3.953,0,0,1,68.414,16.2v5.836a7.135,7.135,0,0,0,.445,2.777V25Zm-3.6-1.652a3.81,3.81,0,0,0,1.934-.527,3.19,3.19,0,0,0,1.324-1.371v-2.6h-1.7q-3.984,0-3.984,2.332a1.974,1.974,0,0,0,.68,1.594A2.612,2.612,0,0,0,62.988,23.348ZM79.2,21.637a1.6,1.6,0,0,0-.662-1.365,6.373,6.373,0,0,0-2.309-.838,10.915,10.915,0,0,1-2.613-.844,3.718,3.718,0,0,1-1.43-1.172,2.8,2.8,0,0,1-.463-1.617,3.289,3.289,0,0,1,1.318-2.637,5.149,5.149,0,0,1,3.369-1.078A5.3,5.3,0,0,1,79.9,13.2a3.536,3.536,0,0,1,1.342,2.848h-2.18a1.957,1.957,0,0,0-.756-1.535,2.832,2.832,0,0,0-1.9-.645,2.964,2.964,0,0,0-1.852.516,1.623,1.623,0,0,0-.668,1.348,1.315,1.315,0,0,0,.621,1.184,7.642,7.642,0,0,0,2.244.762,11.693,11.693,0,0,1,2.631.867,3.838,3.838,0,0,1,1.494,1.213,2.982,2.982,0,0,1,.486,1.729A3.245,3.245,0,0,1,80,24.209a5.7,5.7,0,0,1-3.527,1.025,6.385,6.385,0,0,1-2.7-.539,4.384,4.384,0,0,1-1.834-1.506,3.629,3.629,0,0,1-.662-2.092h2.168a2.245,2.245,0,0,0,.873,1.729,3.387,3.387,0,0,0,2.15.639,3.5,3.5,0,0,0,1.975-.5A1.53,1.53,0,0,0,79.2,21.637ZM93.07,9.25v3.07h2.367V14H93.07v7.873a1.76,1.76,0,0,0,.316,1.144,1.332,1.332,0,0,0,1.078.381,5.249,5.249,0,0,0,1.031-.141V25a6.322,6.322,0,0,1-1.664.233,2.7,2.7,0,0,1-2.191-.879,3.776,3.776,0,0,1-.738-2.5V14H88.594V12.32H90.9V9.25Zm4.09,9.293a7.489,7.489,0,0,1,.732-3.352,5.464,5.464,0,0,1,2.039-2.3,5.551,5.551,0,0,1,2.982-.809,5.347,5.347,0,0,1,4.189,1.793,6.9,6.9,0,0,1,1.6,4.77V18.8a7.555,7.555,0,0,1-.709,3.322,5.383,5.383,0,0,1-2.027,2.291,5.614,5.614,0,0,1-3.029.82,5.334,5.334,0,0,1-4.178-1.793,6.863,6.863,0,0,1-1.6-4.746Zm2.18.258a5.424,5.424,0,0,0,.979,3.387,3.316,3.316,0,0,0,5.244-.018,5.932,5.932,0,0,0,.973-3.627,5.415,5.415,0,0,0-.99-3.381,3.148,3.148,0,0,0-2.631-1.295,3.113,3.113,0,0,0-2.59,1.277A5.888,5.888,0,0,0,99.34,18.8Zm17.168,4.664a3.123,3.123,0,0,0,2.027-.7A2.474,2.474,0,0,0,119.5,21h2.051a3.931,3.931,0,0,1-.75,2.074,4.94,4.94,0,0,1-1.846,1.57,5.326,5.326,0,0,1-2.443.586,5.223,5.223,0,0,1-4.119-1.729,6.884,6.884,0,0,1-1.529-4.729v-.363a7.634,7.634,0,0,1,.68-3.293,5.177,5.177,0,0,1,1.951-2.238,5.543,5.543,0,0,1,3.006-.8,5.085,5.085,0,0,1,3.545,1.277,4.565,4.565,0,0,1,1.506,3.316H119.5a2.988,2.988,0,0,0-.932-2.021,2.9,2.9,0,0,0-2.068-.791,3.034,3.034,0,0,0-2.561,1.189,5.586,5.586,0,0,0-.908,3.439v.41a5.475,5.475,0,0,0,.9,3.375A3.049,3.049,0,0,0,116.508,23.465ZM131.813,25a4.554,4.554,0,0,1-.3-1.336,4.837,4.837,0,0,1-3.609,1.57,4.476,4.476,0,0,1-3.076-1.061,3.431,3.431,0,0,1-1.2-2.689,3.584,3.584,0,0,1,1.506-3.076,7.1,7.1,0,0,1,4.236-1.1h2.109v-1a2.435,2.435,0,0,0-.68-1.811,2.732,2.732,0,0,0-2-.674,3.161,3.161,0,0,0-1.945.586,1.727,1.727,0,0,0-.785,1.418h-2.18A2.992,2.992,0,0,1,124.553,14a4.6,4.6,0,0,1,1.828-1.4,6.15,6.15,0,0,1,2.537-.516,5.013,5.013,0,0,1,3.434,1.1,3.953,3.953,0,0,1,1.289,3.018v5.836a7.135,7.135,0,0,0,.445,2.777V25Zm-3.6-1.652a3.81,3.81,0,0,0,1.934-.527,3.19,3.19,0,0,0,1.324-1.371v-2.6h-1.7q-3.984,0-3.984,2.332a1.974,1.974,0,0,0,.68,1.594A2.612,2.612,0,0,0,128.215,23.348Zm8.3-4.793a7.428,7.428,0,0,1,1.383-4.693,4.7,4.7,0,0,1,7.148-.252V7h2.168V25h-1.992l-.105-1.359a4.415,4.415,0,0,1-3.621,1.594,4.331,4.331,0,0,1-3.592-1.8,7.512,7.512,0,0,1-1.389-4.711Zm2.168.246a5.624,5.624,0,0,0,.891,3.375,2.879,2.879,0,0,0,2.461,1.219,3.163,3.163,0,0,0,3.012-1.852V15.719a3.187,3.187,0,0,0-2.988-1.793,2.893,2.893,0,0,0-2.484,1.23A6.192,6.192,0,0,0,138.68,18.8ZM150,18.543a7.489,7.489,0,0,1,.732-3.352,5.464,5.464,0,0,1,2.039-2.3,5.551,5.551,0,0,1,2.982-.809,5.347,5.347,0,0,1,4.189,1.793,6.9,6.9,0,0,1,1.6,4.77V18.8a7.555,7.555,0,0,1-.709,3.322,5.383,5.383,0,0,1-2.027,2.291,5.614,5.614,0,0,1-3.029.82,5.334,5.334,0,0,1-4.178-1.793A6.863,6.863,0,0,1,150,18.7Zm2.18.258a5.424,5.424,0,0,0,.979,3.387,3.316,3.316,0,0,0,5.244-.018,5.932,5.932,0,0,0,.973-3.627,5.415,5.415,0,0,0-.99-3.381,3.148,3.148,0,0,0-2.631-1.295,3.113,3.113,0,0,0-2.59,1.277A5.888,5.888,0,0,0,152.18,18.8ZM166.8,20.176a6.994,6.994,0,0,1,.316-2.2,5.641,5.641,0,0,1,1.2-1.79l1.535-1.579a3.54,3.54,0,0,0,.984-2.385,2.722,2.722,0,0,0-.645-1.924,2.43,2.43,0,0,0-1.875-.7,2.822,2.822,0,0,0-1.922.633,2.14,2.14,0,0,0-.727,1.7H163.5a3.948,3.948,0,0,1,1.354-3.064A5.061,5.061,0,0,1,168.316,7.7a4.778,4.778,0,0,1,3.451,1.188A4.306,4.306,0,0,1,173,12.149a5.889,5.889,0,0,1-1.9,4.037l-1.277,1.264a3.935,3.935,0,0,0-.855,2.726Zm-.094,3.723a1.292,1.292,0,0,1,.322-.893,1.214,1.214,0,0,1,.955-.361,1.233,1.233,0,0,1,.961.361,1.278,1.278,0,0,1,.328.893,1.236,1.236,0,0,1-.328.881,1.256,1.256,0,0,1-.961.349,1.16,1.16,0,0,1-1.277-1.23Z" transform="translate(1052.425 1889.924)" fill="#12263f"/>
    <path id="Trazado_641899" data-name="Trazado 641899" d="M6.891,17.031a6.871,6.871,0,0,1-.252,1.986,4.439,4.439,0,0,1-.8,1.436q-.563.691-1.641,1.822a4.011,4.011,0,0,0-1.207,2.291L2.965,25a2.629,2.629,0,0,0,.68,1.951,2.663,2.663,0,0,0,1.957.674,2.731,2.731,0,0,0,1.9-.662,2.221,2.221,0,0,0,.732-1.729h2.168a4.043,4.043,0,0,1-1.342,3.082,4.957,4.957,0,0,1-3.463,1.2,4.989,4.989,0,0,1-3.551-1.178A4.275,4.275,0,0,1,.8,25.059,6.115,6.115,0,0,1,2.672,20.98l1.277-1.324a3.956,3.956,0,0,0,.773-2.625Zm.094-3.709a1.3,1.3,0,0,1-.322.895,1.207,1.207,0,0,1-.955.365,1.226,1.226,0,0,1-.961-.365,1.29,1.29,0,0,1-.328-.895,1.232,1.232,0,0,1,.328-.871,1.248,1.248,0,0,1,.961-.353,1.229,1.229,0,0,1,.955.353A1.245,1.245,0,0,1,6.984,13.322ZM15.6,23.16h8.086V25H13.336V7.938H15.6Zm9.738-4.617a7.489,7.489,0,0,1,.732-3.352,5.464,5.464,0,0,1,2.039-2.3,5.551,5.551,0,0,1,2.982-.809,5.347,5.347,0,0,1,4.189,1.793,6.9,6.9,0,0,1,1.6,4.77V18.8a7.555,7.555,0,0,1-.709,3.322,5.383,5.383,0,0,1-2.027,2.291,5.614,5.614,0,0,1-3.029.82,5.334,5.334,0,0,1-4.178-1.793,6.863,6.863,0,0,1-1.6-4.746Zm2.18.258a5.424,5.424,0,0,0,.979,3.387,3.316,3.316,0,0,0,5.244-.018,5.932,5.932,0,0,0,.973-3.627,5.415,5.415,0,0,0-.99-3.381,3.148,3.148,0,0,0-2.631-1.295,3.113,3.113,0,0,0-2.59,1.277A5.888,5.888,0,0,0,27.516,18.8Zm25.406,2.836a1.6,1.6,0,0,0-.662-1.365,6.373,6.373,0,0,0-2.309-.838,10.915,10.915,0,0,1-2.613-.844,3.718,3.718,0,0,1-1.43-1.172,2.8,2.8,0,0,1-.463-1.617,3.289,3.289,0,0,1,1.318-2.637,5.149,5.149,0,0,1,3.369-1.078,5.3,5.3,0,0,1,3.5,1.113,3.536,3.536,0,0,1,1.342,2.848h-2.18a1.957,1.957,0,0,0-.756-1.535,2.832,2.832,0,0,0-1.9-.645,2.964,2.964,0,0,0-1.852.516,1.623,1.623,0,0,0-.668,1.348,1.315,1.315,0,0,0,.621,1.184,7.642,7.642,0,0,0,2.244.762,11.693,11.693,0,0,1,2.631.867A3.838,3.838,0,0,1,54.6,19.756a2.982,2.982,0,0,1,.486,1.729,3.245,3.245,0,0,1-1.359,2.725A5.7,5.7,0,0,1,50.2,25.234a6.385,6.385,0,0,1-2.7-.539,4.384,4.384,0,0,1-1.834-1.506,3.629,3.629,0,0,1-.662-2.092H47.18a2.245,2.245,0,0,0,.873,1.729,3.387,3.387,0,0,0,2.15.639,3.5,3.5,0,0,0,1.975-.5A1.53,1.53,0,0,0,52.922,21.637ZM65.742,25a4.554,4.554,0,0,1-.3-1.336,4.837,4.837,0,0,1-3.609,1.57,4.476,4.476,0,0,1-3.076-1.061,3.431,3.431,0,0,1-1.2-2.689,3.584,3.584,0,0,1,1.506-3.076,7.1,7.1,0,0,1,4.236-1.1H65.4v-1a2.435,2.435,0,0,0-.68-1.811,2.732,2.732,0,0,0-2-.674,3.161,3.161,0,0,0-1.945.586,1.727,1.727,0,0,0-.785,1.418h-2.18A2.992,2.992,0,0,1,58.482,14a4.6,4.6,0,0,1,1.828-1.4,6.15,6.15,0,0,1,2.537-.516,5.013,5.013,0,0,1,3.434,1.1A3.953,3.953,0,0,1,67.57,16.2v5.836a7.135,7.135,0,0,0,.445,2.777V25Zm-3.6-1.652a3.81,3.81,0,0,0,1.934-.527A3.19,3.19,0,0,0,65.4,21.449v-2.6H63.7q-3.984,0-3.984,2.332a1.974,1.974,0,0,0,.68,1.594A2.612,2.612,0,0,0,62.145,23.348ZM81.7,18.8a7.539,7.539,0,0,1-1.336,4.67,4.269,4.269,0,0,1-3.586,1.764,4.42,4.42,0,0,1-3.715-1.7L72.961,25H70.969V7h2.168v6.715a4.4,4.4,0,0,1,3.621-1.629,4.3,4.3,0,0,1,3.627,1.746A7.766,7.766,0,0,1,81.7,18.613Zm-2.168-.246a5.858,5.858,0,0,0-.855-3.422,2.832,2.832,0,0,0-2.461-1.207,3.183,3.183,0,0,0-3.082,1.992V21.4a3.272,3.272,0,0,0,3.105,1.992,2.816,2.816,0,0,0,2.426-1.207A6.23,6.23,0,0,0,79.535,18.555Zm10.16,6.68a5.54,5.54,0,0,1-4.2-1.693,6.285,6.285,0,0,1-1.617-4.529v-.4a7.609,7.609,0,0,1,.721-3.369,5.622,5.622,0,0,1,2.016-2.32,5.068,5.068,0,0,1,2.807-.838,4.749,4.749,0,0,1,3.844,1.629,7.053,7.053,0,0,1,1.371,4.664v.9h-8.59a4.507,4.507,0,0,0,1.1,3.029,3.444,3.444,0,0,0,2.666,1.154A3.776,3.776,0,0,0,91.758,23a4.888,4.888,0,0,0,1.395-1.242l1.324,1.031A5.325,5.325,0,0,1,89.7,25.234Zm-.27-11.367a2.892,2.892,0,0,0-2.2.955,4.642,4.642,0,0,0-1.1,2.678h6.352v-.164a4.129,4.129,0,0,0-.891-2.561A2.723,2.723,0,0,0,89.426,13.867ZM110.918,25a4.554,4.554,0,0,1-.3-1.336A4.837,4.837,0,0,1,107,25.234a4.476,4.476,0,0,1-3.076-1.061,3.431,3.431,0,0,1-1.2-2.689,3.584,3.584,0,0,1,1.506-3.076,7.1,7.1,0,0,1,4.236-1.1h2.109v-1a2.435,2.435,0,0,0-.68-1.811,2.732,2.732,0,0,0-2-.674,3.161,3.161,0,0,0-1.945.586,1.727,1.727,0,0,0-.785,1.418h-2.18A2.992,2.992,0,0,1,103.658,14a4.6,4.6,0,0,1,1.828-1.4,6.15,6.15,0,0,1,2.537-.516,5.013,5.013,0,0,1,3.434,1.1,3.953,3.953,0,0,1,1.289,3.018v5.836a7.135,7.135,0,0,0,.445,2.777V25Zm-3.6-1.652a3.81,3.81,0,0,0,1.934-.527,3.19,3.19,0,0,0,1.324-1.371v-2.6h-1.7q-3.984,0-3.984,2.332a1.974,1.974,0,0,0,.68,1.594A2.612,2.612,0,0,0,107.32,23.348ZM118.5,25h-2.168V7H118.5Zm2.953-6.445a7.452,7.452,0,0,1,1.371-4.717,4.727,4.727,0,0,1,7.254-.111l.105-1.406h1.98V24.7a5.158,5.158,0,0,1-1.459,3.879,5.384,5.384,0,0,1-3.92,1.418,6.521,6.521,0,0,1-2.684-.586,4.62,4.62,0,0,1-2-1.605l1.125-1.3a4.239,4.239,0,0,0,3.41,1.723,3.322,3.322,0,0,0,2.467-.891,3.4,3.4,0,0,0,.885-2.508v-1.09a4.456,4.456,0,0,1-3.551,1.5,4.331,4.331,0,0,1-3.6-1.793A7.835,7.835,0,0,1,121.453,18.555Zm2.18.246a5.685,5.685,0,0,0,.879,3.369,2.856,2.856,0,0,0,2.461,1.225,3.176,3.176,0,0,0,3.012-1.863V15.742A3.213,3.213,0,0,0,127,13.926a2.882,2.882,0,0,0-2.473,1.23A6.192,6.192,0,0,0,123.633,18.8Zm19.629,4.945a4.6,4.6,0,0,1-3.715,1.488,3.942,3.942,0,0,1-3.088-1.178,5.1,5.1,0,0,1-1.072-3.486V12.32h2.168v8.191q0,2.883,2.344,2.883a3.245,3.245,0,0,0,3.3-1.852V12.32h2.168V25h-2.062ZM151.02,25h-2.168V12.32h2.168ZM148.676,8.957A1.294,1.294,0,0,1,149,8.066a1.21,1.21,0,0,1,.955-.363,1.229,1.229,0,0,1,.961.363,1.28,1.28,0,0,1,.328.891,1.238,1.238,0,0,1-.328.879,1.251,1.251,0,0,1-.961.352A1.232,1.232,0,0,1,149,9.836,1.251,1.251,0,0,1,148.676,8.957ZM159.75,25.234a5.54,5.54,0,0,1-4.2-1.693,6.285,6.285,0,0,1-1.617-4.529v-.4a7.609,7.609,0,0,1,.721-3.369,5.622,5.622,0,0,1,2.016-2.32,5.068,5.068,0,0,1,2.807-.838,4.749,4.749,0,0,1,3.844,1.629,7.053,7.053,0,0,1,1.371,4.664v.9h-8.59a4.507,4.507,0,0,0,1.1,3.029,3.444,3.444,0,0,0,2.666,1.154A3.776,3.776,0,0,0,161.813,23a4.888,4.888,0,0,0,1.395-1.242l1.324,1.031A5.325,5.325,0,0,1,159.75,25.234Zm-.27-11.367a2.892,2.892,0,0,0-2.2.955,4.642,4.642,0,0,0-1.1,2.678h6.352v-.164a4.129,4.129,0,0,0-.891-2.561A2.723,2.723,0,0,0,159.48,13.867Zm9.773-1.547.07,1.594a4.621,4.621,0,0,1,3.8-1.828q4.02,0,4.055,4.535V25h-2.168V16.609a2.919,2.919,0,0,0-.627-2.027,2.512,2.512,0,0,0-1.916-.656,3.129,3.129,0,0,0-1.852.563,3.82,3.82,0,0,0-1.242,1.477V25H167.2V12.32Zm13.734,7.855a6.994,6.994,0,0,1,.316-2.2,5.641,5.641,0,0,1,1.2-1.79l1.535-1.579a3.54,3.54,0,0,0,.984-2.385,2.722,2.722,0,0,0-.645-1.924,2.43,2.43,0,0,0-1.875-.7,2.822,2.822,0,0,0-1.922.633,2.14,2.14,0,0,0-.727,1.7h-2.168a3.948,3.948,0,0,1,1.354-3.064A5.061,5.061,0,0,1,184.5,7.7a4.778,4.778,0,0,1,3.451,1.188,4.306,4.306,0,0,1,1.236,3.259,5.889,5.889,0,0,1-1.9,4.037l-1.277,1.264a3.935,3.935,0,0,0-.855,2.726Zm-.094,3.723a1.292,1.292,0,0,1,.322-.893,1.214,1.214,0,0,1,.955-.361,1.233,1.233,0,0,1,.961.361,1.278,1.278,0,0,1,.328.893,1.236,1.236,0,0,1-.328.881,1.256,1.256,0,0,1-.961.349,1.16,1.16,0,0,1-1.277-1.23Z" transform="translate(576.174 1992.095)" fill="#12263f"/>
    <path id="Trazado_641914" data-name="Trazado 641914" d="M22.159,17.031a6.871,6.871,0,0,1-.252,1.986,4.439,4.439,0,0,1-.8,1.436q-.562.691-1.641,1.822a4.011,4.011,0,0,0-1.207,2.291L18.233,25a2.629,2.629,0,0,0,.68,1.951,2.663,2.663,0,0,0,1.957.674,2.731,2.731,0,0,0,1.9-.662,2.221,2.221,0,0,0,.732-1.729h2.168a4.043,4.043,0,0,1-1.342,3.082,4.957,4.957,0,0,1-3.463,1.2,4.989,4.989,0,0,1-3.551-1.178,4.275,4.275,0,0,1-1.254-3.275A6.115,6.115,0,0,1,17.94,20.98l1.277-1.324a3.956,3.956,0,0,0,.773-2.625Zm.094-3.709a1.3,1.3,0,0,1-.322.895,1.207,1.207,0,0,1-.955.365,1.226,1.226,0,0,1-.961-.365,1.29,1.29,0,0,1-.328-.895,1.232,1.232,0,0,1,.328-.871,1.248,1.248,0,0,1,.961-.353,1.229,1.229,0,0,1,.955.353A1.245,1.245,0,0,1,22.253,13.322Zm8.6,5V25H28.6V7.938H34.9a6.322,6.322,0,0,1,4.389,1.43,4.847,4.847,0,0,1,1.588,3.785,4.783,4.783,0,0,1-1.553,3.826,6.6,6.6,0,0,1-4.447,1.342Zm0-1.84H34.9a4.042,4.042,0,0,0,2.766-.851,3.112,3.112,0,0,0,.961-2.459,3.215,3.215,0,0,0-.961-2.442,3.787,3.787,0,0,0-2.637-.951H30.854Zm20.379,7.266a4.6,4.6,0,0,1-3.715,1.488,3.942,3.942,0,0,1-3.088-1.178,5.1,5.1,0,0,1-1.072-3.486V12.32h2.168v8.191q0,2.883,2.344,2.883a3.245,3.245,0,0,0,3.3-1.852V12.32h2.168V25H51.28ZM61.9,25.234a5.54,5.54,0,0,1-4.2-1.693,6.285,6.285,0,0,1-1.617-4.529v-.4a7.609,7.609,0,0,1,.721-3.369,5.622,5.622,0,0,1,2.016-2.32,5.068,5.068,0,0,1,2.807-.838,4.749,4.749,0,0,1,3.844,1.629,7.053,7.053,0,0,1,1.371,4.664v.9h-8.59a4.507,4.507,0,0,0,1.1,3.029,3.444,3.444,0,0,0,2.666,1.154A3.776,3.776,0,0,0,63.96,23a4.888,4.888,0,0,0,1.395-1.242l1.324,1.031A5.325,5.325,0,0,1,61.9,25.234Zm-.27-11.367a2.892,2.892,0,0,0-2.2.955,4.642,4.642,0,0,0-1.1,2.678h6.352v-.164a4.129,4.129,0,0,0-.891-2.561A2.723,2.723,0,0,0,61.628,13.867Zm7.2,4.688a7.428,7.428,0,0,1,1.383-4.693,4.7,4.7,0,0,1,7.148-.252V7h2.168V25H77.53l-.105-1.359A4.415,4.415,0,0,1,73.8,25.234a4.331,4.331,0,0,1-3.592-1.8,7.512,7.512,0,0,1-1.389-4.711Zm2.168.246a5.624,5.624,0,0,0,.891,3.375,2.879,2.879,0,0,0,2.461,1.219,3.163,3.163,0,0,0,3.012-1.852V15.719a3.187,3.187,0,0,0-2.988-1.793,2.893,2.893,0,0,0-2.484,1.23A6.192,6.192,0,0,0,70.991,18.8Zm17.156,6.434a5.54,5.54,0,0,1-4.2-1.693,6.285,6.285,0,0,1-1.617-4.529v-.4a7.609,7.609,0,0,1,.721-3.369,5.622,5.622,0,0,1,2.016-2.32,5.068,5.068,0,0,1,2.807-.838,4.749,4.749,0,0,1,3.844,1.629,7.053,7.053,0,0,1,1.371,4.664v.9H84.5a4.507,4.507,0,0,0,1.1,3.029,3.444,3.444,0,0,0,2.666,1.154A3.776,3.776,0,0,0,90.21,23,4.888,4.888,0,0,0,91.6,21.754l1.324,1.031A5.325,5.325,0,0,1,88.147,25.234Zm-.27-11.367a2.892,2.892,0,0,0-2.2.955,4.642,4.642,0,0,0-1.1,2.678h6.352v-.164a4.129,4.129,0,0,0-.891-2.561A2.723,2.723,0,0,0,87.878,13.867Zm15.105,7.77a1.6,1.6,0,0,0-.662-1.365,6.373,6.373,0,0,0-2.309-.838A10.915,10.915,0,0,1,97.4,18.59a3.718,3.718,0,0,1-1.43-1.172,2.8,2.8,0,0,1-.463-1.617,3.289,3.289,0,0,1,1.318-2.637,5.149,5.149,0,0,1,3.369-1.078,5.3,5.3,0,0,1,3.5,1.113,3.536,3.536,0,0,1,1.342,2.848h-2.18a1.957,1.957,0,0,0-.756-1.535,2.832,2.832,0,0,0-1.9-.645,2.964,2.964,0,0,0-1.852.516,1.623,1.623,0,0,0-.668,1.348,1.315,1.315,0,0,0,.621,1.184,7.642,7.642,0,0,0,2.244.762,11.693,11.693,0,0,1,2.631.867,3.838,3.838,0,0,1,1.494,1.213,2.982,2.982,0,0,1,.486,1.729,3.245,3.245,0,0,1-1.359,2.725,5.7,5.7,0,0,1-3.527,1.025,6.385,6.385,0,0,1-2.7-.539,4.384,4.384,0,0,1-1.834-1.506,3.629,3.629,0,0,1-.662-2.092h2.168a2.245,2.245,0,0,0,.873,1.729,3.387,3.387,0,0,0,2.15.639,3.5,3.5,0,0,0,1.975-.5A1.53,1.53,0,0,0,102.983,21.637ZM119,23.465a3.123,3.123,0,0,0,2.027-.7A2.474,2.474,0,0,0,121.991,21h2.051a3.931,3.931,0,0,1-.75,2.074,4.94,4.94,0,0,1-1.846,1.57,5.326,5.326,0,0,1-2.443.586,5.223,5.223,0,0,1-4.119-1.729,6.884,6.884,0,0,1-1.529-4.729v-.363a7.634,7.634,0,0,1,.68-3.293,5.177,5.177,0,0,1,1.951-2.238,5.543,5.543,0,0,1,3.006-.8,5.085,5.085,0,0,1,3.545,1.277,4.565,4.565,0,0,1,1.506,3.316h-2.051a2.988,2.988,0,0,0-.932-2.021,2.9,2.9,0,0,0-2.068-.791,3.034,3.034,0,0,0-2.561,1.189,5.586,5.586,0,0,0-.908,3.439v.41a5.475,5.475,0,0,0,.9,3.375A3.049,3.049,0,0,0,119,23.465Zm15.3.281a4.6,4.6,0,0,1-3.715,1.488,3.942,3.942,0,0,1-3.088-1.178,5.1,5.1,0,0,1-1.072-3.486V12.32H128.6v8.191q0,2.883,2.344,2.883a3.245,3.245,0,0,0,3.3-1.852V12.32h2.168V25h-2.062ZM142.065,25H139.9V7h2.168Zm14.18-6.2a7.592,7.592,0,0,1-1.324,4.664,4.244,4.244,0,0,1-3.586,1.77A4.65,4.65,0,0,1,147.7,23.77v6.105h-2.168V12.32h1.98l.105,1.406a4.466,4.466,0,0,1,3.68-1.641,4.324,4.324,0,0,1,3.615,1.723,7.675,7.675,0,0,1,1.33,4.793Zm-2.168-.246a5.6,5.6,0,0,0-.914-3.387,2.945,2.945,0,0,0-2.508-1.242,3.187,3.187,0,0,0-2.953,1.746V21.73a3.193,3.193,0,0,0,2.977,1.734,2.931,2.931,0,0,0,2.479-1.236A6.115,6.115,0,0,0,154.077,18.555ZM166.827,25a4.554,4.554,0,0,1-.3-1.336,4.837,4.837,0,0,1-3.609,1.57,4.476,4.476,0,0,1-3.076-1.061,3.431,3.431,0,0,1-1.2-2.689,3.584,3.584,0,0,1,1.506-3.076,7.1,7.1,0,0,1,4.236-1.1h2.109v-1a2.435,2.435,0,0,0-.68-1.811,2.732,2.732,0,0,0-2-.674,3.161,3.161,0,0,0-1.945.586,1.727,1.727,0,0,0-.785,1.418h-2.18A2.992,2.992,0,0,1,159.567,14a4.6,4.6,0,0,1,1.828-1.4,6.15,6.15,0,0,1,2.537-.516,5.013,5.013,0,0,1,3.434,1.1,3.953,3.953,0,0,1,1.289,3.018v5.836a7.135,7.135,0,0,0,.445,2.777V25Zm-3.6-1.652a3.81,3.81,0,0,0,1.934-.527,3.19,3.19,0,0,0,1.324-1.371v-2.6h-1.7q-3.984,0-3.984,2.332a1.974,1.974,0,0,0,.68,1.594A2.612,2.612,0,0,0,163.229,23.348Zm14.953-9.082a6.5,6.5,0,0,0-1.066-.082A2.857,2.857,0,0,0,174.222,16v9h-2.168V12.32h2.109l.035,1.465a3.376,3.376,0,0,1,3.023-1.7,2.215,2.215,0,0,1,.961.164ZM53.161,44.535H46.013L44.407,49h-2.32L48.6,31.938h1.969L57.1,49H54.79ZM46.692,42.7h5.8l-2.906-7.98ZM72.825,49a4.554,4.554,0,0,1-.3-1.336,4.837,4.837,0,0,1-3.609,1.57,4.476,4.476,0,0,1-3.076-1.061,3.431,3.431,0,0,1-1.2-2.689,3.584,3.584,0,0,1,1.506-3.076,7.1,7.1,0,0,1,4.236-1.1h2.109v-1a2.435,2.435,0,0,0-.68-1.811,2.732,2.732,0,0,0-2-.674,3.161,3.161,0,0,0-1.945.586,1.727,1.727,0,0,0-.785,1.418h-2.18A2.992,2.992,0,0,1,65.565,38a4.6,4.6,0,0,1,1.828-1.4,6.15,6.15,0,0,1,2.537-.516,5.013,5.013,0,0,1,3.434,1.1A3.953,3.953,0,0,1,74.653,40.2v5.836a7.135,7.135,0,0,0,.445,2.777V49Zm-3.6-1.652a3.81,3.81,0,0,0,1.934-.527,3.19,3.19,0,0,0,1.324-1.371v-2.6h-1.7q-3.984,0-3.984,2.332a1.974,1.974,0,0,0,.68,1.594A2.612,2.612,0,0,0,69.228,47.348ZM80.407,49H78.239V31h2.168Zm2.953-6.445a7.452,7.452,0,0,1,1.371-4.717,4.727,4.727,0,0,1,7.254-.111l.105-1.406h1.98V48.7a5.158,5.158,0,0,1-1.459,3.879,5.384,5.384,0,0,1-3.92,1.418,6.521,6.521,0,0,1-2.684-.586A4.62,4.62,0,0,1,84,51.8l1.125-1.3a4.239,4.239,0,0,0,3.41,1.723,3.322,3.322,0,0,0,2.467-.891,3.4,3.4,0,0,0,.885-2.508v-1.09a4.456,4.456,0,0,1-3.551,1.5,4.331,4.331,0,0,1-3.6-1.793A7.835,7.835,0,0,1,83.36,42.555Zm2.18.246a5.685,5.685,0,0,0,.879,3.369,2.856,2.856,0,0,0,2.461,1.225,3.176,3.176,0,0,0,3.012-1.863V39.742A3.213,3.213,0,0,0,88.9,37.926a2.882,2.882,0,0,0-2.473,1.23A6.192,6.192,0,0,0,85.54,42.8Zm19.629,4.945a4.6,4.6,0,0,1-3.715,1.488,3.942,3.942,0,0,1-3.088-1.178,5.1,5.1,0,0,1-1.072-3.486V36.32h2.168v8.191q0,2.883,2.344,2.883a3.245,3.245,0,0,0,3.3-1.852V36.32h2.168V49h-2.062ZM112.927,49h-2.168V36.32h2.168Zm-2.344-16.043a1.294,1.294,0,0,1,.322-.891,1.21,1.21,0,0,1,.955-.363,1.229,1.229,0,0,1,.961.363,1.28,1.28,0,0,1,.328.891,1.238,1.238,0,0,1-.328.879,1.251,1.251,0,0,1-.961.352,1.232,1.232,0,0,1-.955-.352A1.251,1.251,0,0,1,110.583,32.957Zm11.074,16.277a5.54,5.54,0,0,1-4.2-1.693,6.285,6.285,0,0,1-1.617-4.529v-.4a7.609,7.609,0,0,1,.721-3.369,5.622,5.622,0,0,1,2.016-2.32,5.068,5.068,0,0,1,2.807-.838,4.749,4.749,0,0,1,3.844,1.629,7.053,7.053,0,0,1,1.371,4.664v.9h-8.59a4.507,4.507,0,0,0,1.1,3.029,3.444,3.444,0,0,0,2.666,1.154A3.776,3.776,0,0,0,123.72,47a4.888,4.888,0,0,0,1.395-1.242l1.324,1.031A5.325,5.325,0,0,1,121.657,49.234Zm-.27-11.367a2.892,2.892,0,0,0-2.2.955,4.642,4.642,0,0,0-1.1,2.678h6.352v-.164a4.129,4.129,0,0,0-.891-2.561A2.723,2.723,0,0,0,121.388,37.867Zm9.773-1.547.07,1.594a4.621,4.621,0,0,1,3.8-1.828q4.02,0,4.055,4.535V49h-2.168V40.609a2.919,2.919,0,0,0-.627-2.027,2.512,2.512,0,0,0-1.916-.656,3.129,3.129,0,0,0-1.852.563,3.82,3.82,0,0,0-1.242,1.477V49H129.11V36.32ZM144.9,44.176a6.994,6.994,0,0,1,.316-2.2,5.641,5.641,0,0,1,1.2-1.79l1.535-1.579a3.54,3.54,0,0,0,.984-2.385,2.722,2.722,0,0,0-.645-1.924,2.43,2.43,0,0,0-1.875-.7,2.822,2.822,0,0,0-1.922.633,2.14,2.14,0,0,0-.727,1.7h-2.168a3.948,3.948,0,0,1,1.354-3.064,5.061,5.061,0,0,1,3.463-1.166,4.778,4.778,0,0,1,3.451,1.188,4.306,4.306,0,0,1,1.236,3.259,5.889,5.889,0,0,1-1.9,4.037l-1.277,1.264a3.935,3.935,0,0,0-.855,2.726ZM144.8,47.9a1.292,1.292,0,0,1,.322-.893,1.214,1.214,0,0,1,.955-.361,1.233,1.233,0,0,1,.961.361,1.278,1.278,0,0,1,.328.893,1.236,1.236,0,0,1-.328.881,1.256,1.256,0,0,1-.961.349A1.16,1.16,0,0,1,144.8,47.9Z" transform="translate(685 2258.222)" fill="#12263f"/>
    <path id="Trazado_641911" data-name="Trazado 641911" d="M27.042,17.031a6.871,6.871,0,0,1-.252,1.986,4.439,4.439,0,0,1-.8,1.436q-.562.691-1.641,1.822a4.011,4.011,0,0,0-1.207,2.291L23.116,25a2.629,2.629,0,0,0,.68,1.951,2.663,2.663,0,0,0,1.957.674,2.731,2.731,0,0,0,1.9-.662,2.221,2.221,0,0,0,.732-1.729h2.168a4.043,4.043,0,0,1-1.342,3.082,4.957,4.957,0,0,1-3.463,1.2A4.989,4.989,0,0,1,22.2,28.334a4.275,4.275,0,0,1-1.254-3.275,6.115,6.115,0,0,1,1.875-4.078L24.1,19.656a3.956,3.956,0,0,0,.773-2.625Zm.094-3.709a1.3,1.3,0,0,1-.322.895,1.207,1.207,0,0,1-.955.365,1.226,1.226,0,0,1-.961-.365,1.29,1.29,0,0,1-.328-.895,1.232,1.232,0,0,1,.328-.871,1.248,1.248,0,0,1,.961-.353,1.229,1.229,0,0,1,.955.353A1.245,1.245,0,0,1,27.136,13.322ZM45.276,9.777H39.792V25H37.554V9.777H32.081V7.938h13.2Zm7.453,15.457a5.54,5.54,0,0,1-4.2-1.693,6.285,6.285,0,0,1-1.617-4.529v-.4a7.609,7.609,0,0,1,.721-3.369,5.622,5.622,0,0,1,2.016-2.32,5.068,5.068,0,0,1,2.807-.838A4.749,4.749,0,0,1,56.3,13.715a7.053,7.053,0,0,1,1.371,4.664v.9h-8.59a4.507,4.507,0,0,0,1.1,3.029,3.444,3.444,0,0,0,2.666,1.154A3.776,3.776,0,0,0,54.792,23a4.888,4.888,0,0,0,1.395-1.242l1.324,1.031A5.325,5.325,0,0,1,52.729,25.234Zm-.27-11.367a2.892,2.892,0,0,0-2.2.955,4.642,4.642,0,0,0-1.1,2.678h6.352v-.164a4.129,4.129,0,0,0-.891-2.561A2.723,2.723,0,0,0,52.46,13.867Zm9.773-1.547.07,1.594a4.621,4.621,0,0,1,3.8-1.828q4.02,0,4.055,4.535V25H67.987V16.609a2.919,2.919,0,0,0-.627-2.027,2.512,2.512,0,0,0-1.916-.656,3.129,3.129,0,0,0-1.852.563,3.82,3.82,0,0,0-1.242,1.477V25H60.183V12.32ZM72.9,18.555a7.428,7.428,0,0,1,1.383-4.693,4.7,4.7,0,0,1,7.148-.252V7H83.6V25H81.6L81.5,23.641a4.415,4.415,0,0,1-3.621,1.594,4.331,4.331,0,0,1-3.592-1.8A7.512,7.512,0,0,1,72.9,18.719Zm2.168.246a5.624,5.624,0,0,0,.891,3.375,2.879,2.879,0,0,0,2.461,1.219,3.163,3.163,0,0,0,3.012-1.852V15.719a3.187,3.187,0,0,0-2.988-1.793,2.893,2.893,0,0,0-2.484,1.23A6.192,6.192,0,0,0,75.065,18.8Zm18.023-4.535a6.5,6.5,0,0,0-1.066-.082A2.857,2.857,0,0,0,89.128,16v9H86.96V12.32h2.109l.035,1.465a3.376,3.376,0,0,1,3.023-1.7,2.215,2.215,0,0,1,.961.164ZM102.909,25a4.554,4.554,0,0,1-.3-1.336A4.837,4.837,0,0,1,99,25.234a4.476,4.476,0,0,1-3.076-1.061,3.431,3.431,0,0,1-1.2-2.689,3.584,3.584,0,0,1,1.506-3.076,7.1,7.1,0,0,1,4.236-1.1h2.109v-1a2.435,2.435,0,0,0-.68-1.811,2.732,2.732,0,0,0-2-.674,3.161,3.161,0,0,0-1.945.586,1.727,1.727,0,0,0-.785,1.418h-2.18A2.992,2.992,0,0,1,95.649,14a4.6,4.6,0,0,1,1.828-1.4,6.15,6.15,0,0,1,2.537-.516,5.013,5.013,0,0,1,3.434,1.1,3.953,3.953,0,0,1,1.289,3.018v5.836a7.135,7.135,0,0,0,.445,2.777V25Zm-3.6-1.652a3.81,3.81,0,0,0,1.934-.527,3.19,3.19,0,0,0,1.324-1.371v-2.6h-1.7q-3.984,0-3.984,2.332a1.974,1.974,0,0,0,.68,1.594A2.612,2.612,0,0,0,99.312,23.348Zm2-16.348h2.625L100.8,10.445l-1.746-.006Zm14.2,14.637a1.6,1.6,0,0,0-.662-1.365,6.373,6.373,0,0,0-2.309-.838,10.915,10.915,0,0,1-2.613-.844,3.718,3.718,0,0,1-1.43-1.172,2.8,2.8,0,0,1-.463-1.617,3.289,3.289,0,0,1,1.318-2.637,5.149,5.149,0,0,1,3.369-1.078,5.3,5.3,0,0,1,3.5,1.113,3.536,3.536,0,0,1,1.342,2.848h-2.18a1.957,1.957,0,0,0-.756-1.535,2.832,2.832,0,0,0-1.9-.645,2.964,2.964,0,0,0-1.852.516,1.623,1.623,0,0,0-.668,1.348,1.315,1.315,0,0,0,.621,1.184,7.642,7.642,0,0,0,2.244.762,11.693,11.693,0,0,1,2.631.867,3.838,3.838,0,0,1,1.494,1.213,2.982,2.982,0,0,1,.486,1.729,3.245,3.245,0,0,1-1.359,2.725,5.7,5.7,0,0,1-3.527,1.025,6.385,6.385,0,0,1-2.7-.539,4.384,4.384,0,0,1-1.834-1.506,3.629,3.629,0,0,1-.662-2.092h2.168a2.245,2.245,0,0,0,.873,1.729,3.387,3.387,0,0,0,2.15.639,3.5,3.5,0,0,0,1.975-.5A1.53,1.53,0,0,0,115.519,21.637ZM137.163,18.8a7.592,7.592,0,0,1-1.324,4.664,4.244,4.244,0,0,1-3.586,1.77,4.65,4.65,0,0,1-3.633-1.465v6.105h-2.168V12.32h1.98l.105,1.406a4.466,4.466,0,0,1,3.68-1.641,4.324,4.324,0,0,1,3.615,1.723,7.675,7.675,0,0,1,1.33,4.793ZM135,18.555a5.6,5.6,0,0,0-.914-3.387,2.945,2.945,0,0,0-2.508-1.242,3.187,3.187,0,0,0-2.953,1.746V21.73a3.193,3.193,0,0,0,2.977,1.734,2.931,2.931,0,0,0,2.479-1.236A6.115,6.115,0,0,0,135,18.555Zm11.051-4.289a6.5,6.5,0,0,0-1.066-.082A2.857,2.857,0,0,0,142.085,16v9h-2.168V12.32h2.109l.035,1.465a3.376,3.376,0,0,1,3.023-1.7,2.215,2.215,0,0,1,.961.164Zm1.184,4.277a7.489,7.489,0,0,1,.732-3.352,5.464,5.464,0,0,1,2.039-2.3,5.551,5.551,0,0,1,2.982-.809,5.347,5.347,0,0,1,4.189,1.793,6.9,6.9,0,0,1,1.6,4.77V18.8a7.555,7.555,0,0,1-.709,3.322,5.383,5.383,0,0,1-2.027,2.291,5.614,5.614,0,0,1-3.029.82,5.334,5.334,0,0,1-4.178-1.793,6.863,6.863,0,0,1-1.6-4.746Zm2.18.258a5.424,5.424,0,0,0,.979,3.387,3.316,3.316,0,0,0,5.244-.018,5.932,5.932,0,0,0,.973-3.627,5.415,5.415,0,0,0-.99-3.381,3.148,3.148,0,0,0-2.631-1.295,3.113,3.113,0,0,0-2.59,1.277A5.888,5.888,0,0,0,149.409,18.8Zm22.816,0a7.539,7.539,0,0,1-1.336,4.67,4.269,4.269,0,0,1-3.586,1.764,4.42,4.42,0,0,1-3.715-1.7L163.483,25h-1.992V7h2.168v6.715a4.4,4.4,0,0,1,3.621-1.629,4.3,4.3,0,0,1,3.627,1.746,7.766,7.766,0,0,1,1.318,4.781Zm-2.168-.246a5.858,5.858,0,0,0-.855-3.422,2.832,2.832,0,0,0-2.461-1.207,3.183,3.183,0,0,0-3.082,1.992V21.4a3.272,3.272,0,0,0,3.105,1.992,2.816,2.816,0,0,0,2.426-1.207A6.23,6.23,0,0,0,170.058,18.555ZM177.312,25h-2.168V7h2.168Zm8.73.234a5.54,5.54,0,0,1-4.2-1.693,6.285,6.285,0,0,1-1.617-4.529v-.4a7.609,7.609,0,0,1,.721-3.369,5.622,5.622,0,0,1,2.016-2.32,5.068,5.068,0,0,1,2.807-.838,4.749,4.749,0,0,1,3.844,1.629,7.053,7.053,0,0,1,1.371,4.664v.9H182.4a4.507,4.507,0,0,0,1.1,3.029,3.444,3.444,0,0,0,2.666,1.154A3.776,3.776,0,0,0,188.1,23a4.888,4.888,0,0,0,1.395-1.242l1.324,1.031A5.325,5.325,0,0,1,186.042,25.234Zm-.27-11.367a2.892,2.892,0,0,0-2.2.955,4.642,4.642,0,0,0-1.1,2.678h6.352v-.164a4.129,4.129,0,0,0-.891-2.561A2.723,2.723,0,0,0,185.772,13.867Zm9.762-1.547.059,1.406a4.683,4.683,0,0,1,3.762-1.641,3.625,3.625,0,0,1,3.621,2.039,4.8,4.8,0,0,1,1.646-1.477,4.863,4.863,0,0,1,2.4-.562q4.172,0,4.242,4.418V25h-2.168V16.633a2.911,2.911,0,0,0-.621-2.033,2.735,2.735,0,0,0-2.086-.674,2.875,2.875,0,0,0-2,.721,2.924,2.924,0,0,0-.926,1.939V25h-2.18V16.691q0-2.766-2.707-2.766a2.9,2.9,0,0,0-2.918,1.816V25h-2.168V12.32ZM222.358,25a4.554,4.554,0,0,1-.3-1.336,4.837,4.837,0,0,1-3.609,1.57,4.476,4.476,0,0,1-3.076-1.061,3.431,3.431,0,0,1-1.2-2.689,3.584,3.584,0,0,1,1.506-3.076,7.1,7.1,0,0,1,4.236-1.1h2.109v-1a2.435,2.435,0,0,0-.68-1.811,2.732,2.732,0,0,0-2-.674,3.161,3.161,0,0,0-1.945.586,1.727,1.727,0,0,0-.785,1.418h-2.18A2.992,2.992,0,0,1,215.1,14a4.6,4.6,0,0,1,1.828-1.4,6.15,6.15,0,0,1,2.537-.516,5.013,5.013,0,0,1,3.434,1.1,3.953,3.953,0,0,1,1.289,3.018v5.836a7.135,7.135,0,0,0,.445,2.777V25Zm-3.6-1.652a3.81,3.81,0,0,0,1.934-.527,3.19,3.19,0,0,0,1.324-1.371v-2.6h-1.7q-3.984,0-3.984,2.332a1.974,1.974,0,0,0,.68,1.594A2.612,2.612,0,0,0,218.761,23.348Zm16.207-1.711a1.6,1.6,0,0,0-.662-1.365A6.373,6.373,0,0,0,232,19.434a10.915,10.915,0,0,1-2.613-.844,3.718,3.718,0,0,1-1.43-1.172,2.8,2.8,0,0,1-.463-1.617,3.289,3.289,0,0,1,1.318-2.637,5.149,5.149,0,0,1,3.369-1.078,5.3,5.3,0,0,1,3.5,1.113,3.536,3.536,0,0,1,1.342,2.848h-2.18a1.957,1.957,0,0,0-.756-1.535,2.832,2.832,0,0,0-1.9-.645,2.964,2.964,0,0,0-1.852.516,1.623,1.623,0,0,0-.668,1.348,1.315,1.315,0,0,0,.621,1.184,7.642,7.642,0,0,0,2.244.762,11.693,11.693,0,0,1,2.631.867,3.838,3.838,0,0,1,1.494,1.213,2.982,2.982,0,0,1,.486,1.729,3.245,3.245,0,0,1-1.359,2.725,5.7,5.7,0,0,1-3.527,1.025,6.385,6.385,0,0,1-2.7-.539,4.384,4.384,0,0,1-1.834-1.506,3.629,3.629,0,0,1-.662-2.092h2.168a2.245,2.245,0,0,0,.873,1.729,3.387,3.387,0,0,0,2.15.639,3.5,3.5,0,0,0,1.975-.5A1.53,1.53,0,0,0,234.968,21.637Zm7.535-1.461a6.994,6.994,0,0,1,.316-2.2,5.641,5.641,0,0,1,1.2-1.79l1.535-1.579a3.54,3.54,0,0,0,.984-2.385,2.722,2.722,0,0,0-.645-1.924,2.43,2.43,0,0,0-1.875-.7,2.822,2.822,0,0,0-1.922.633,2.14,2.14,0,0,0-.727,1.7H239.2a3.948,3.948,0,0,1,1.354-3.064A5.061,5.061,0,0,1,244.015,7.7a4.778,4.778,0,0,1,3.451,1.188,4.306,4.306,0,0,1,1.236,3.259,5.889,5.889,0,0,1-1.9,4.037l-1.277,1.264a3.935,3.935,0,0,0-.855,2.726Zm-.094,3.723a1.292,1.292,0,0,1,.322-.893,1.214,1.214,0,0,1,.955-.361,1.233,1.233,0,0,1,.961.361,1.278,1.278,0,0,1,.328.893,1.236,1.236,0,0,1-.328.881,1.256,1.256,0,0,1-.961.349,1.16,1.16,0,0,1-1.277-1.23Z" transform="translate(1006.184 2138.59)" fill="#12263f"/>
    <path id="Trazado_641915" data-name="Trazado 641915" d="M63.083,18.32V25h-2.25V7.938h6.293a6.322,6.322,0,0,1,4.389,1.43A4.847,4.847,0,0,1,73.1,13.152a4.783,4.783,0,0,1-1.553,3.826A6.6,6.6,0,0,1,67.1,18.32Zm0-1.84h4.043a4.042,4.042,0,0,0,2.766-.851,3.112,3.112,0,0,0,.961-2.459,3.215,3.215,0,0,0-.961-2.442,3.787,3.787,0,0,0-2.637-.951H63.083ZM83.333,25a4.554,4.554,0,0,1-.3-1.336,4.837,4.837,0,0,1-3.609,1.57,4.476,4.476,0,0,1-3.076-1.061,3.431,3.431,0,0,1-1.2-2.689,3.584,3.584,0,0,1,1.506-3.076,7.1,7.1,0,0,1,4.236-1.1h2.109v-1a2.435,2.435,0,0,0-.68-1.811,2.732,2.732,0,0,0-2-.674,3.161,3.161,0,0,0-1.945.586,1.727,1.727,0,0,0-.785,1.418H75.4A2.992,2.992,0,0,1,76.073,14,4.6,4.6,0,0,1,77.9,12.6a6.15,6.15,0,0,1,2.537-.516,5.013,5.013,0,0,1,3.434,1.1A3.953,3.953,0,0,1,85.161,16.2v5.836a7.135,7.135,0,0,0,.445,2.777V25Zm-3.6-1.652a3.81,3.81,0,0,0,1.934-.527,3.19,3.19,0,0,0,1.324-1.371v-2.6h-1.7q-3.984,0-3.984,2.332a1.974,1.974,0,0,0,.68,1.594A2.612,2.612,0,0,0,79.735,23.348Zm16.207-1.711a1.6,1.6,0,0,0-.662-1.365,6.373,6.373,0,0,0-2.309-.838,10.915,10.915,0,0,1-2.613-.844,3.718,3.718,0,0,1-1.43-1.172,2.8,2.8,0,0,1-.463-1.617,3.289,3.289,0,0,1,1.318-2.637,5.149,5.149,0,0,1,3.369-1.078,5.3,5.3,0,0,1,3.5,1.113,3.536,3.536,0,0,1,1.342,2.848h-2.18a1.957,1.957,0,0,0-.756-1.535,2.832,2.832,0,0,0-1.9-.645,2.964,2.964,0,0,0-1.852.516,1.623,1.623,0,0,0-.668,1.348,1.315,1.315,0,0,0,.621,1.184,7.642,7.642,0,0,0,2.244.762,11.693,11.693,0,0,1,2.631.867,3.838,3.838,0,0,1,1.494,1.213,2.982,2.982,0,0,1,.486,1.729,3.245,3.245,0,0,1-1.359,2.725,5.7,5.7,0,0,1-3.527,1.025,6.385,6.385,0,0,1-2.7-.539,4.384,4.384,0,0,1-1.834-1.506,3.629,3.629,0,0,1-.662-2.092H90.2a2.245,2.245,0,0,0,.873,1.729,3.387,3.387,0,0,0,2.15.639,3.5,3.5,0,0,0,1.975-.5A1.53,1.53,0,0,0,95.942,21.637ZM108.763,25a4.554,4.554,0,0,1-.3-1.336,4.837,4.837,0,0,1-3.609,1.57,4.476,4.476,0,0,1-3.076-1.061,3.431,3.431,0,0,1-1.2-2.689,3.584,3.584,0,0,1,1.506-3.076,7.1,7.1,0,0,1,4.236-1.1h2.109v-1a2.435,2.435,0,0,0-.68-1.811,2.732,2.732,0,0,0-2-.674,3.161,3.161,0,0,0-1.945.586,1.727,1.727,0,0,0-.785,1.418h-2.18A2.992,2.992,0,0,1,101.5,14a4.6,4.6,0,0,1,1.828-1.4,6.15,6.15,0,0,1,2.537-.516,5.013,5.013,0,0,1,3.434,1.1,3.953,3.953,0,0,1,1.289,3.018v5.836a7.135,7.135,0,0,0,.445,2.777V25Zm-3.6-1.652a3.81,3.81,0,0,0,1.934-.527,3.19,3.19,0,0,0,1.324-1.371v-2.6h-1.7q-3.984,0-3.984,2.332a1.974,1.974,0,0,0,.68,1.594A2.612,2.612,0,0,0,105.165,23.348ZM119.4,18.555a7.428,7.428,0,0,1,1.383-4.693,4.7,4.7,0,0,1,7.148-.252V7H130.1V25H128.11L128,23.641a4.415,4.415,0,0,1-3.621,1.594,4.331,4.331,0,0,1-3.592-1.8,7.512,7.512,0,0,1-1.389-4.711Zm2.168.246a5.624,5.624,0,0,0,.891,3.375,2.879,2.879,0,0,0,2.461,1.219,3.163,3.163,0,0,0,3.012-1.852V15.719a3.187,3.187,0,0,0-2.988-1.793,2.893,2.893,0,0,0-2.484,1.23A6.192,6.192,0,0,0,121.571,18.8Zm17.156,6.434a5.54,5.54,0,0,1-4.2-1.693,6.285,6.285,0,0,1-1.617-4.529v-.4a7.609,7.609,0,0,1,.721-3.369,5.622,5.622,0,0,1,2.016-2.32,5.068,5.068,0,0,1,2.807-.838,4.749,4.749,0,0,1,3.844,1.629,7.053,7.053,0,0,1,1.371,4.664v.9h-8.59a4.507,4.507,0,0,0,1.1,3.029,3.444,3.444,0,0,0,2.666,1.154A3.776,3.776,0,0,0,140.79,23a4.888,4.888,0,0,0,1.395-1.242l1.324,1.031A5.325,5.325,0,0,1,138.728,25.234Zm-.27-11.367a2.892,2.892,0,0,0-2.2.955,4.642,4.642,0,0,0-1.1,2.678H141.5v-.164a4.129,4.129,0,0,0-.891-2.561A2.723,2.723,0,0,0,138.458,13.867ZM148.536,25h-2.168V7h2.168ZM160.888,9.25v3.07h2.367V14h-2.367v7.873a1.76,1.76,0,0,0,.316,1.144,1.332,1.332,0,0,0,1.078.381,5.249,5.249,0,0,0,1.031-.141V25a6.322,6.322,0,0,1-1.664.233,2.7,2.7,0,0,1-2.191-.879,3.776,3.776,0,0,1-.738-2.5V14h-2.309V12.32h2.309V9.25Zm10.16,15.984a5.54,5.54,0,0,1-4.2-1.693,6.285,6.285,0,0,1-1.617-4.529v-.4a7.609,7.609,0,0,1,.721-3.369,5.622,5.622,0,0,1,2.016-2.32,5.068,5.068,0,0,1,2.807-.838,4.749,4.749,0,0,1,3.844,1.629,7.053,7.053,0,0,1,1.371,4.664v.9H167.4a4.507,4.507,0,0,0,1.1,3.029,3.444,3.444,0,0,0,2.666,1.154A3.776,3.776,0,0,0,173.11,23a4.888,4.888,0,0,0,1.395-1.242l1.324,1.031A5.325,5.325,0,0,1,171.048,25.234Zm-.27-11.367a2.892,2.892,0,0,0-2.2.955,4.642,4.642,0,0,0-1.1,2.678h6.352v-.164a4.129,4.129,0,0,0-.891-2.561A2.723,2.723,0,0,0,170.778,13.867Zm9.762-1.547.059,1.406a4.683,4.683,0,0,1,3.762-1.641,3.625,3.625,0,0,1,3.621,2.039,4.8,4.8,0,0,1,1.646-1.477,4.863,4.863,0,0,1,2.4-.562q4.172,0,4.242,4.418V25H194.1V16.633a2.911,2.911,0,0,0-.621-2.033,2.735,2.735,0,0,0-2.086-.674,2.875,2.875,0,0,0-2,.721,2.924,2.924,0,0,0-.926,1.939V25h-2.18V16.691q0-2.766-2.707-2.766a2.9,2.9,0,0,0-2.918,1.816V25h-2.168V12.32ZM207.364,25a4.554,4.554,0,0,1-.3-1.336,4.837,4.837,0,0,1-3.609,1.57,4.476,4.476,0,0,1-3.076-1.061,3.431,3.431,0,0,1-1.2-2.689,3.584,3.584,0,0,1,1.506-3.076,7.1,7.1,0,0,1,4.236-1.1h2.109v-1a2.435,2.435,0,0,0-.68-1.811,2.732,2.732,0,0,0-2-.674,3.161,3.161,0,0,0-1.945.586,1.727,1.727,0,0,0-.785,1.418h-2.18A2.992,2.992,0,0,1,200.1,14a4.6,4.6,0,0,1,1.828-1.4,6.15,6.15,0,0,1,2.537-.516,5.013,5.013,0,0,1,3.434,1.1,3.953,3.953,0,0,1,1.289,3.018v5.836a7.135,7.135,0,0,0,.445,2.777V25Zm-3.6-1.652a3.81,3.81,0,0,0,1.934-.527,3.19,3.19,0,0,0,1.324-1.371v-2.6h-1.7q-3.984,0-3.984,2.332a1.974,1.974,0,0,0,.68,1.594A2.612,2.612,0,0,0,203.767,23.348Z" transform="translate(1006 2272.734)" fill="#12263f"/>
    <path id="Trazado_641903" data-name="Trazado 641903" d="M1.992,16.984H3.961l.152,12.234H1.84Zm2.2-3.656a1.294,1.294,0,0,1-.322.891,1.21,1.21,0,0,1-.955.363,1.229,1.229,0,0,1-.961-.363,1.28,1.28,0,0,1-.328-.891,1.238,1.238,0,0,1,.328-.879,1.251,1.251,0,0,1,.961-.352,1.232,1.232,0,0,1,.955.352A1.251,1.251,0,0,1,4.2,13.328ZM10.242,25H7.992V7.938h2.25Zm5.813-12.68.059,1.406a4.683,4.683,0,0,1,3.762-1.641A3.625,3.625,0,0,1,23.5,14.125a4.8,4.8,0,0,1,1.646-1.477,4.863,4.863,0,0,1,2.4-.562q4.172,0,4.242,4.418V25H29.613V16.633a2.911,2.911,0,0,0-.621-2.033,2.735,2.735,0,0,0-2.086-.674,2.875,2.875,0,0,0-2,.721,2.924,2.924,0,0,0-.926,1.939V25H21.8V16.691q0-2.766-2.707-2.766a2.9,2.9,0,0,0-2.918,1.816V25H14V12.32Zm29.73,6.48a7.539,7.539,0,0,1-1.336,4.67,4.269,4.269,0,0,1-3.586,1.764,4.42,4.42,0,0,1-3.715-1.7L37.043,25H35.051V7h2.168v6.715a4.4,4.4,0,0,1,3.621-1.629,4.3,4.3,0,0,1,3.627,1.746,7.766,7.766,0,0,1,1.318,4.781Zm-2.168-.246a5.858,5.858,0,0,0-.855-3.422A2.832,2.832,0,0,0,40.3,13.926a3.183,3.183,0,0,0-3.082,1.992V21.4a3.272,3.272,0,0,0,3.105,1.992,2.816,2.816,0,0,0,2.426-1.207A6.23,6.23,0,0,0,43.617,18.555Zm10.16,6.68a5.54,5.54,0,0,1-4.2-1.693,6.285,6.285,0,0,1-1.617-4.529v-.4a7.609,7.609,0,0,1,.721-3.369,5.622,5.622,0,0,1,2.016-2.32,5.068,5.068,0,0,1,2.807-.838,4.749,4.749,0,0,1,3.844,1.629,7.053,7.053,0,0,1,1.371,4.664v.9h-8.59a4.507,4.507,0,0,0,1.1,3.029,3.444,3.444,0,0,0,2.666,1.154A3.776,3.776,0,0,0,55.84,23a4.888,4.888,0,0,0,1.395-1.242l1.324,1.031A5.325,5.325,0,0,1,53.777,25.234Zm-.27-11.367a2.892,2.892,0,0,0-2.2.955A4.642,4.642,0,0,0,50.2,17.5h6.352v-.164a4.129,4.129,0,0,0-.891-2.561A2.723,2.723,0,0,0,53.508,13.867ZM54.563,7h2.625l-3.141,3.445L52.3,10.439ZM66.316,23.465a3.123,3.123,0,0,0,2.027-.7A2.474,2.474,0,0,0,69.3,21h2.051a3.931,3.931,0,0,1-.75,2.074,4.94,4.94,0,0,1-1.846,1.57,5.326,5.326,0,0,1-2.443.586A5.223,5.223,0,0,1,62.2,23.506a6.884,6.884,0,0,1-1.529-4.729v-.363a7.634,7.634,0,0,1,.68-3.293A5.177,5.177,0,0,1,63.3,12.883a5.543,5.543,0,0,1,3.006-.8,5.085,5.085,0,0,1,3.545,1.277,4.565,4.565,0,0,1,1.506,3.316H69.3a2.988,2.988,0,0,0-.932-2.021,2.9,2.9,0,0,0-2.068-.791,3.034,3.034,0,0,0-2.561,1.189,5.586,5.586,0,0,0-.908,3.439v.41a5.475,5.475,0,0,0,.9,3.375A3.049,3.049,0,0,0,66.316,23.465ZM76.148,25H73.98V12.32h2.168ZM73.8,8.957a1.294,1.294,0,0,1,.322-.891,1.21,1.21,0,0,1,.955-.363,1.229,1.229,0,0,1,.961.363,1.28,1.28,0,0,1,.328.891,1.238,1.238,0,0,1-.328.879,1.251,1.251,0,0,1-.961.352,1.232,1.232,0,0,1-.955-.352A1.251,1.251,0,0,1,73.8,8.957ZM81.973,25H79.8V7h2.168Zm5.895-4.836H85.91L85.758,7.938h2.273ZM85.676,23.9A1.292,1.292,0,0,1,86,23.005a1.214,1.214,0,0,1,.955-.361,1.233,1.233,0,0,1,.961.361,1.278,1.278,0,0,1,.328.893,1.236,1.236,0,0,1-.328.881,1.256,1.256,0,0,1-.961.349,1.16,1.16,0,0,1-1.277-1.23Z" transform="translate(866 1991.768)" fill="#12263f"/>
    <path id="Trazado_641898" data-name="Trazado 641898" d="M1.992,16.984H3.961l.152,12.234H1.84Zm2.2-3.656a1.294,1.294,0,0,1-.322.891,1.21,1.21,0,0,1-.955.363,1.229,1.229,0,0,1-.961-.363,1.28,1.28,0,0,1-.328-.891,1.238,1.238,0,0,1,.328-.879,1.251,1.251,0,0,1,.961-.352,1.232,1.232,0,0,1,.955.352A1.251,1.251,0,0,1,4.2,13.328ZM20.941,25H18.68L10.09,11.852V25H7.828V7.938H10.09L18.7,21.145V7.938h2.238Zm3.082-6.457a7.489,7.489,0,0,1,.732-3.352,5.464,5.464,0,0,1,2.039-2.3,5.551,5.551,0,0,1,2.982-.809,5.347,5.347,0,0,1,4.189,1.793,6.9,6.9,0,0,1,1.6,4.77V18.8a7.555,7.555,0,0,1-.709,3.322,5.383,5.383,0,0,1-2.027,2.291,5.614,5.614,0,0,1-3.029.82,5.334,5.334,0,0,1-4.178-1.793,6.863,6.863,0,0,1-1.6-4.746Zm2.18.258a5.424,5.424,0,0,0,.979,3.387,3.316,3.316,0,0,0,5.244-.018,5.932,5.932,0,0,0,.973-3.627,5.415,5.415,0,0,0-.99-3.381,3.148,3.148,0,0,0-2.631-1.295,3.113,3.113,0,0,0-2.59,1.277A5.888,5.888,0,0,0,26.2,18.8ZM46.582,25H44.414V7h2.168Zm2.895-6.457a7.489,7.489,0,0,1,.732-3.352,5.464,5.464,0,0,1,2.039-2.3,5.551,5.551,0,0,1,2.982-.809,5.347,5.347,0,0,1,4.189,1.793,6.9,6.9,0,0,1,1.6,4.77V18.8a7.555,7.555,0,0,1-.709,3.322,5.383,5.383,0,0,1-2.027,2.291,5.614,5.614,0,0,1-3.029.82,5.334,5.334,0,0,1-4.178-1.793,6.863,6.863,0,0,1-1.6-4.746Zm2.18.258a5.424,5.424,0,0,0,.979,3.387,3.316,3.316,0,0,0,5.244-.018,5.932,5.932,0,0,0,.973-3.627,5.415,5.415,0,0,0-.99-3.381,3.148,3.148,0,0,0-2.631-1.295,3.113,3.113,0,0,0-2.59,1.277A5.888,5.888,0,0,0,51.656,18.8ZM72.621,9.25v3.07h2.367V14H72.621v7.873a1.76,1.76,0,0,0,.316,1.144,1.332,1.332,0,0,0,1.078.381,5.249,5.249,0,0,0,1.031-.141V25a6.322,6.322,0,0,1-1.664.233,2.7,2.7,0,0,1-2.191-.879,3.776,3.776,0,0,1-.738-2.5V14H68.145V12.32h2.309V9.25Zm4.09,9.293a7.489,7.489,0,0,1,.732-3.352,5.464,5.464,0,0,1,2.039-2.3,5.551,5.551,0,0,1,2.982-.809,5.347,5.347,0,0,1,4.189,1.793,6.9,6.9,0,0,1,1.6,4.77V18.8a7.555,7.555,0,0,1-.709,3.322,5.383,5.383,0,0,1-2.027,2.291,5.614,5.614,0,0,1-3.029.82,5.334,5.334,0,0,1-4.178-1.793,6.863,6.863,0,0,1-1.6-4.746Zm2.18.258a5.424,5.424,0,0,0,.979,3.387,3.316,3.316,0,0,0,5.244-.018,5.932,5.932,0,0,0,.973-3.627,5.415,5.415,0,0,0-.99-3.381,3.148,3.148,0,0,0-2.631-1.295,3.113,3.113,0,0,0-2.59,1.277A5.888,5.888,0,0,0,78.891,18.8Zm11.555-.246a7.442,7.442,0,0,1,1.371-4.729,4.839,4.839,0,0,1,7.23-.229l.094-1.277h1.992V29.875H98.965V23.828a4.55,4.55,0,0,1-3.492,1.406,4.373,4.373,0,0,1-3.662-1.787,7.608,7.608,0,0,1-1.365-4.74Zm2.168.246a5.642,5.642,0,0,0,.92,3.422,2.926,2.926,0,0,0,2.479,1.242,3.246,3.246,0,0,0,2.953-1.711V15.543a3.257,3.257,0,0,0-2.93-1.676,2.948,2.948,0,0,0-2.5,1.248A6.141,6.141,0,0,0,92.613,18.8Zm19.828,4.945a4.6,4.6,0,0,1-3.715,1.488,3.942,3.942,0,0,1-3.088-1.178,5.1,5.1,0,0,1-1.072-3.486V12.32h2.168v8.191q0,2.883,2.344,2.883a3.245,3.245,0,0,0,3.3-1.852V12.32h2.168V25h-2.062Zm10.664,1.488a5.54,5.54,0,0,1-4.2-1.693,6.285,6.285,0,0,1-1.617-4.529v-.4a7.609,7.609,0,0,1,.721-3.369,5.622,5.622,0,0,1,2.016-2.32,5.068,5.068,0,0,1,2.807-.838,4.749,4.749,0,0,1,3.844,1.629,7.053,7.053,0,0,1,1.371,4.664v.9h-8.59a4.507,4.507,0,0,0,1.1,3.029,3.444,3.444,0,0,0,2.666,1.154A3.776,3.776,0,0,0,125.168,23a4.888,4.888,0,0,0,1.395-1.242l1.324,1.031A5.325,5.325,0,0,1,123.105,25.234Zm-.27-11.367a2.892,2.892,0,0,0-2.2.955,4.642,4.642,0,0,0-1.1,2.678h6.352v-.164a4.129,4.129,0,0,0-.891-2.561A2.723,2.723,0,0,0,122.836,13.867Zm15.105,7.77a1.6,1.6,0,0,0-.662-1.365,6.373,6.373,0,0,0-2.309-.838,10.915,10.915,0,0,1-2.613-.844,3.718,3.718,0,0,1-1.43-1.172,2.8,2.8,0,0,1-.463-1.617,3.289,3.289,0,0,1,1.318-2.637,5.149,5.149,0,0,1,3.369-1.078,5.3,5.3,0,0,1,3.5,1.113,3.536,3.536,0,0,1,1.342,2.848h-2.18a1.957,1.957,0,0,0-.756-1.535,2.832,2.832,0,0,0-1.9-.645,2.964,2.964,0,0,0-1.852.516,1.623,1.623,0,0,0-.668,1.348,1.315,1.315,0,0,0,.621,1.184,7.642,7.642,0,0,0,2.244.762,11.693,11.693,0,0,1,2.631.867,3.838,3.838,0,0,1,1.494,1.213,2.982,2.982,0,0,1,.486,1.729,3.245,3.245,0,0,1-1.359,2.725,5.7,5.7,0,0,1-3.527,1.025,6.385,6.385,0,0,1-2.7-.539,4.384,4.384,0,0,1-1.834-1.506,3.629,3.629,0,0,1-.662-2.092H132.2a2.245,2.245,0,0,0,.873,1.729,3.387,3.387,0,0,0,2.15.639,3.5,3.5,0,0,0,1.975-.5A1.53,1.53,0,0,0,137.941,21.637Zm7.418-1.473H143.4L143.25,7.938h2.273ZM143.168,23.9a1.292,1.292,0,0,1,.322-.893,1.214,1.214,0,0,1,.955-.361,1.233,1.233,0,0,1,.961.361,1.278,1.278,0,0,1,.328.893,1.236,1.236,0,0,1-.328.881,1.256,1.256,0,0,1-.961.349,1.16,1.16,0,0,1-1.277-1.23Z" transform="translate(341.712 1898.564)" fill="#12263f"/>
    <path id="Trazado_641908" data-name="Trazado 641908" d="M1.992,16.984H3.961l.152,12.234H1.84Zm2.2-3.656a1.294,1.294,0,0,1-.322.891,1.21,1.21,0,0,1-.955.363,1.229,1.229,0,0,1-.961-.363,1.28,1.28,0,0,1-.328-.891,1.238,1.238,0,0,1,.328-.879,1.251,1.251,0,0,1,.961-.352,1.232,1.232,0,0,1,.955.352A1.251,1.251,0,0,1,4.2,13.328Zm13.277,3.785H10.078V23.16h8.59V25H7.828V7.938H18.551v1.84H10.078v5.5h7.395Zm11.039,4.523a1.6,1.6,0,0,0-.662-1.365,6.373,6.373,0,0,0-2.309-.838,10.915,10.915,0,0,1-2.613-.844,3.718,3.718,0,0,1-1.43-1.172,2.8,2.8,0,0,1-.463-1.617,3.289,3.289,0,0,1,1.318-2.637,5.149,5.149,0,0,1,3.369-1.078,5.3,5.3,0,0,1,3.5,1.113,3.536,3.536,0,0,1,1.342,2.848h-2.18a1.957,1.957,0,0,0-.756-1.535,2.832,2.832,0,0,0-1.9-.645,2.964,2.964,0,0,0-1.852.516A1.623,1.623,0,0,0,23.2,15.73a1.315,1.315,0,0,0,.621,1.184,7.642,7.642,0,0,0,2.244.762,11.693,11.693,0,0,1,2.631.867,3.838,3.838,0,0,1,1.494,1.213,2.982,2.982,0,0,1,.486,1.729,3.245,3.245,0,0,1-1.359,2.725,5.7,5.7,0,0,1-3.527,1.025,6.385,6.385,0,0,1-2.7-.539,4.384,4.384,0,0,1-1.834-1.506A3.629,3.629,0,0,1,20.6,21.1H22.77a2.245,2.245,0,0,0,.873,1.729,3.387,3.387,0,0,0,2.15.639,3.5,3.5,0,0,0,1.975-.5A1.53,1.53,0,0,0,28.512,21.637ZM38.59,23.465a3.123,3.123,0,0,0,2.027-.7A2.474,2.474,0,0,0,41.578,21h2.051a3.931,3.931,0,0,1-.75,2.074,4.94,4.94,0,0,1-1.846,1.57,5.326,5.326,0,0,1-2.443.586,5.223,5.223,0,0,1-4.119-1.729,6.884,6.884,0,0,1-1.529-4.729v-.363a7.634,7.634,0,0,1,.68-3.293,5.177,5.177,0,0,1,1.951-2.238,5.543,5.543,0,0,1,3.006-.8,5.085,5.085,0,0,1,3.545,1.277,4.565,4.565,0,0,1,1.506,3.316H41.578a2.988,2.988,0,0,0-.932-2.021,2.9,2.9,0,0,0-2.068-.791,3.034,3.034,0,0,0-2.561,1.189,5.586,5.586,0,0,0-.908,3.439v.41a5.475,5.475,0,0,0,.9,3.375A3.049,3.049,0,0,0,38.59,23.465Zm6.9-4.922a7.489,7.489,0,0,1,.732-3.352,5.464,5.464,0,0,1,2.039-2.3,5.551,5.551,0,0,1,2.982-.809,5.347,5.347,0,0,1,4.189,1.793,6.9,6.9,0,0,1,1.6,4.77V18.8a7.555,7.555,0,0,1-.709,3.322A5.383,5.383,0,0,1,54.3,24.414a5.614,5.614,0,0,1-3.029.82,5.334,5.334,0,0,1-4.178-1.793,6.863,6.863,0,0,1-1.6-4.746Zm2.18.258a5.424,5.424,0,0,0,.979,3.387,3.316,3.316,0,0,0,5.244-.018,5.932,5.932,0,0,0,.973-3.627,5.415,5.415,0,0,0-.99-3.381,3.148,3.148,0,0,0-2.631-1.295,3.113,3.113,0,0,0-2.59,1.277A5.888,5.888,0,0,0,47.672,18.8ZM52.23,7h2.625l-3.141,3.445-1.746-.006ZM61.8,12.32l.07,1.594a4.621,4.621,0,0,1,3.8-1.828q4.02,0,4.055,4.535V25H67.559V16.609a2.919,2.919,0,0,0-.627-2.027,2.512,2.512,0,0,0-1.916-.656,3.129,3.129,0,0,0-1.852.563,3.82,3.82,0,0,0-1.242,1.477V25H59.754V12.32Zm10.664,6.234a7.428,7.428,0,0,1,1.383-4.693A4.7,4.7,0,0,1,81,13.609V7h2.168V25H81.176l-.105-1.359a4.415,4.415,0,0,1-3.621,1.594,4.331,4.331,0,0,1-3.592-1.8,7.512,7.512,0,0,1-1.389-4.711Zm2.168.246a5.624,5.624,0,0,0,.891,3.375,2.879,2.879,0,0,0,2.461,1.219A3.163,3.163,0,0,0,81,21.543V15.719a3.187,3.187,0,0,0-2.988-1.793,2.893,2.893,0,0,0-2.484,1.23A6.192,6.192,0,0,0,74.637,18.8Zm17.156,6.434a5.54,5.54,0,0,1-4.2-1.693,6.285,6.285,0,0,1-1.617-4.529v-.4a7.609,7.609,0,0,1,.721-3.369,5.622,5.622,0,0,1,2.016-2.32,5.068,5.068,0,0,1,2.807-.838,4.749,4.749,0,0,1,3.844,1.629,7.053,7.053,0,0,1,1.371,4.664v.9h-8.59a4.507,4.507,0,0,0,1.1,3.029,3.444,3.444,0,0,0,2.666,1.154A3.776,3.776,0,0,0,93.855,23a4.888,4.888,0,0,0,1.395-1.242l1.324,1.031A5.325,5.325,0,0,1,91.793,25.234Zm-.27-11.367a2.892,2.892,0,0,0-2.2.955,4.642,4.642,0,0,0-1.1,2.678H94.57v-.164a4.129,4.129,0,0,0-.891-2.561A2.723,2.723,0,0,0,91.523,13.867ZM101.6,25H99.434V7H101.6Zm2.895-6.457a7.489,7.489,0,0,1,.732-3.352,5.464,5.464,0,0,1,2.039-2.3,5.551,5.551,0,0,1,2.982-.809,5.347,5.347,0,0,1,4.189,1.793,6.9,6.9,0,0,1,1.6,4.77V18.8a7.555,7.555,0,0,1-.709,3.322,5.383,5.383,0,0,1-2.027,2.291,5.614,5.614,0,0,1-3.029.82,5.334,5.334,0,0,1-4.178-1.793,6.863,6.863,0,0,1-1.6-4.746Zm2.18.258a5.424,5.424,0,0,0,.979,3.387,3.316,3.316,0,0,0,5.244-.018,5.932,5.932,0,0,0,.973-3.627,5.415,5.415,0,0,0-.99-3.381,3.148,3.148,0,0,0-2.631-1.295,3.113,3.113,0,0,0-2.59,1.277A5.888,5.888,0,0,0,106.676,18.8Zm14.508,1.363h-1.957l-.152-12.227h2.273ZM118.992,23.9a1.292,1.292,0,0,1,.322-.893,1.214,1.214,0,0,1,.955-.361,1.233,1.233,0,0,1,.961.361,1.278,1.278,0,0,1,.328.893,1.236,1.236,0,0,1-.328.881,1.256,1.256,0,0,1-.961.349,1.16,1.16,0,0,1-1.277-1.23Z" transform="translate(478 2209.252)" fill="#12263f"/>
    <path id="Trazado_641910" data-name="Trazado 641910" d="M1.992,16.984H3.961l.152,12.234H1.84Zm2.2-3.656a1.294,1.294,0,0,1-.322.891,1.21,1.21,0,0,1-.955.363,1.229,1.229,0,0,1-.961-.363,1.28,1.28,0,0,1-.328-.891,1.238,1.238,0,0,1,.328-.879,1.251,1.251,0,0,1,.961-.352,1.232,1.232,0,0,1,.955.352A1.251,1.251,0,0,1,4.2,13.328Zm5.883,4.992V25H7.828V7.938h6.293a6.322,6.322,0,0,1,4.389,1.43A4.847,4.847,0,0,1,20.1,13.152a4.783,4.783,0,0,1-1.553,3.826A6.6,6.6,0,0,1,14.1,18.32Zm0-1.84h4.043a4.042,4.042,0,0,0,2.766-.851,3.112,3.112,0,0,0,.961-2.459,3.215,3.215,0,0,0-.961-2.442,3.787,3.787,0,0,0-2.637-.951H10.078ZM21.9,18.543a7.489,7.489,0,0,1,.732-3.352,5.464,5.464,0,0,1,2.039-2.3,5.551,5.551,0,0,1,2.982-.809,5.347,5.347,0,0,1,4.189,1.793,6.9,6.9,0,0,1,1.6,4.77V18.8a7.555,7.555,0,0,1-.709,3.322,5.383,5.383,0,0,1-2.027,2.291,5.614,5.614,0,0,1-3.029.82A5.334,5.334,0,0,1,23.5,23.441,6.863,6.863,0,0,1,21.9,18.7Zm2.18.258a5.424,5.424,0,0,0,.979,3.387A3.316,3.316,0,0,0,30.3,22.17a5.932,5.932,0,0,0,.973-3.627,5.415,5.415,0,0,0-.99-3.381,3.148,3.148,0,0,0-2.631-1.295,3.113,3.113,0,0,0-2.59,1.277A5.888,5.888,0,0,0,24.082,18.8Zm22.816,0a7.539,7.539,0,0,1-1.336,4.67,4.269,4.269,0,0,1-3.586,1.764,4.42,4.42,0,0,1-3.715-1.7L38.156,25H36.164V7h2.168v6.715a4.4,4.4,0,0,1,3.621-1.629,4.3,4.3,0,0,1,3.627,1.746A7.766,7.766,0,0,1,46.9,18.613Zm-2.168-.246a5.858,5.858,0,0,0-.855-3.422,2.832,2.832,0,0,0-2.461-1.207,3.183,3.183,0,0,0-3.082,1.992V21.4a3.272,3.272,0,0,0,3.105,1.992,2.816,2.816,0,0,0,2.426-1.207A6.23,6.23,0,0,0,44.73,18.555Zm11.027-4.289a6.5,6.5,0,0,0-1.066-.082A2.857,2.857,0,0,0,51.8,16v9H49.629V12.32h2.109l.035,1.465a3.376,3.376,0,0,1,3.023-1.7,2.215,2.215,0,0,1,.961.164Zm7.254,10.969a5.54,5.54,0,0,1-4.2-1.693A6.285,6.285,0,0,1,57.2,19.012v-.4a7.609,7.609,0,0,1,.721-3.369,5.622,5.622,0,0,1,2.016-2.32,5.068,5.068,0,0,1,2.807-.838,4.749,4.749,0,0,1,3.844,1.629,7.053,7.053,0,0,1,1.371,4.664v.9h-8.59a4.507,4.507,0,0,0,1.1,3.029,3.444,3.444,0,0,0,2.666,1.154A3.776,3.776,0,0,0,65.074,23a4.888,4.888,0,0,0,1.395-1.242l1.324,1.031A5.325,5.325,0,0,1,63.012,25.234Zm-.27-11.367a2.892,2.892,0,0,0-2.2.955,4.642,4.642,0,0,0-1.1,2.678h6.352v-.164a4.129,4.129,0,0,0-.891-2.561A2.723,2.723,0,0,0,62.742,13.867Zm24.4,4.934a7.539,7.539,0,0,1-1.336,4.67,4.269,4.269,0,0,1-3.586,1.764,4.42,4.42,0,0,1-3.715-1.7L78.4,25H76.406V7h2.168v6.715A4.4,4.4,0,0,1,82.2,12.086a4.3,4.3,0,0,1,3.627,1.746,7.766,7.766,0,0,1,1.318,4.781Zm-2.168-.246a5.858,5.858,0,0,0-.855-3.422,2.832,2.832,0,0,0-2.461-1.207,3.183,3.183,0,0,0-3.082,1.992V21.4a3.272,3.272,0,0,0,3.105,1.992,2.816,2.816,0,0,0,2.426-1.207A6.23,6.23,0,0,0,84.973,18.555ZM97.7,25a4.554,4.554,0,0,1-.3-1.336,4.837,4.837,0,0,1-3.609,1.57,4.476,4.476,0,0,1-3.076-1.061,3.431,3.431,0,0,1-1.2-2.689,3.584,3.584,0,0,1,1.506-3.076,7.1,7.1,0,0,1,4.236-1.1h2.109v-1a2.435,2.435,0,0,0-.68-1.811,2.732,2.732,0,0,0-2-.674,3.161,3.161,0,0,0-1.945.586,1.727,1.727,0,0,0-.785,1.418h-2.18A2.992,2.992,0,0,1,90.439,14a4.6,4.6,0,0,1,1.828-1.4,6.15,6.15,0,0,1,2.537-.516,5.013,5.013,0,0,1,3.434,1.1A3.953,3.953,0,0,1,99.527,16.2v5.836a7.135,7.135,0,0,0,.445,2.777V25Zm-3.6-1.652a3.81,3.81,0,0,0,1.934-.527,3.19,3.19,0,0,0,1.324-1.371v-2.6h-1.7q-3.984,0-3.984,2.332a1.974,1.974,0,0,0,.68,1.594A2.612,2.612,0,0,0,94.1,23.348Zm16.207-1.711a1.6,1.6,0,0,0-.662-1.365,6.373,6.373,0,0,0-2.309-.838,10.915,10.915,0,0,1-2.613-.844,3.718,3.718,0,0,1-1.43-1.172,2.8,2.8,0,0,1-.463-1.617,3.289,3.289,0,0,1,1.318-2.637,5.149,5.149,0,0,1,3.369-1.078,5.3,5.3,0,0,1,3.5,1.113,3.536,3.536,0,0,1,1.342,2.848h-2.18a1.957,1.957,0,0,0-.756-1.535,2.832,2.832,0,0,0-1.9-.645,2.964,2.964,0,0,0-1.852.516A1.623,1.623,0,0,0,105,15.73a1.315,1.315,0,0,0,.621,1.184,7.642,7.642,0,0,0,2.244.762,11.693,11.693,0,0,1,2.631.867,3.838,3.838,0,0,1,1.494,1.213,2.982,2.982,0,0,1,.486,1.729,3.245,3.245,0,0,1-1.359,2.725,5.7,5.7,0,0,1-3.527,1.025,6.385,6.385,0,0,1-2.7-.539,4.384,4.384,0,0,1-1.834-1.506A3.629,3.629,0,0,1,102.4,21.1h2.168a2.245,2.245,0,0,0,.873,1.729,3.387,3.387,0,0,0,2.15.639,3.5,3.5,0,0,0,1.975-.5A1.53,1.53,0,0,0,110.309,21.637ZM118.242,9.25v3.07h2.367V14h-2.367v7.873a1.76,1.76,0,0,0,.316,1.144,1.332,1.332,0,0,0,1.078.381,5.249,5.249,0,0,0,1.031-.141V25a6.322,6.322,0,0,1-1.664.233,2.7,2.7,0,0,1-2.191-.879,3.776,3.776,0,0,1-.738-2.5V14h-2.309V12.32h2.309V9.25ZM130.969,25a4.554,4.554,0,0,1-.3-1.336,4.837,4.837,0,0,1-3.609,1.57,4.476,4.476,0,0,1-3.076-1.061,3.431,3.431,0,0,1-1.2-2.689,3.584,3.584,0,0,1,1.506-3.076,7.1,7.1,0,0,1,4.236-1.1h2.109v-1a2.435,2.435,0,0,0-.68-1.811,2.732,2.732,0,0,0-2-.674,3.161,3.161,0,0,0-1.945.586,1.727,1.727,0,0,0-.785,1.418h-2.18A2.992,2.992,0,0,1,123.709,14a4.6,4.6,0,0,1,1.828-1.4,6.15,6.15,0,0,1,2.537-.516,5.013,5.013,0,0,1,3.434,1.1A3.953,3.953,0,0,1,132.8,16.2v5.836a7.135,7.135,0,0,0,.445,2.777V25Zm-3.6-1.652a3.81,3.81,0,0,0,1.934-.527,3.19,3.19,0,0,0,1.324-1.371v-2.6h-1.7q-3.984,0-3.984,2.332a1.974,1.974,0,0,0,.68,1.594A2.612,2.612,0,0,0,127.371,23.348Zm14.953-9.082a6.5,6.5,0,0,0-1.066-.082A2.857,2.857,0,0,0,138.363,16v9H136.2V12.32H138.3l.035,1.465a3.376,3.376,0,0,1,3.023-1.7,2.215,2.215,0,0,1,.961.164Zm1.465,4.289a7.428,7.428,0,0,1,1.383-4.693,4.7,4.7,0,0,1,7.148-.252V7h2.168V25H152.5l-.105-1.359a4.415,4.415,0,0,1-3.621,1.594,4.331,4.331,0,0,1-3.592-1.8,7.512,7.512,0,0,1-1.389-4.711Zm2.168.246a5.624,5.624,0,0,0,.891,3.375,2.879,2.879,0,0,0,2.461,1.219,3.163,3.163,0,0,0,3.012-1.852V15.719a3.187,3.187,0,0,0-2.988-1.793,2.893,2.893,0,0,0-2.484,1.23A6.192,6.192,0,0,0,145.957,18.8Zm11.32-.258a7.489,7.489,0,0,1,.732-3.352,5.464,5.464,0,0,1,2.039-2.3,5.551,5.551,0,0,1,2.982-.809,5.347,5.347,0,0,1,4.189,1.793,6.9,6.9,0,0,1,1.6,4.77V18.8a7.555,7.555,0,0,1-.709,3.322,5.383,5.383,0,0,1-2.027,2.291,5.614,5.614,0,0,1-3.029.82,5.334,5.334,0,0,1-4.178-1.793,6.863,6.863,0,0,1-1.6-4.746Zm2.18.258a5.424,5.424,0,0,0,.979,3.387,3.316,3.316,0,0,0,5.244-.018,5.932,5.932,0,0,0,.973-3.627,5.415,5.415,0,0,0-.99-3.381,3.148,3.148,0,0,0-2.631-1.295,3.113,3.113,0,0,0-2.59,1.277A5.888,5.888,0,0,0,159.457,18.8Zm14.508,1.363h-1.957l-.152-12.227h2.273ZM171.773,23.9a1.292,1.292,0,0,1,.322-.893,1.214,1.214,0,0,1,.955-.361,1.233,1.233,0,0,1,.961.361,1.278,1.278,0,0,1,.328.893,1.236,1.236,0,0,1-.328.881,1.256,1.256,0,0,1-.961.349,1.16,1.16,0,0,1-1.277-1.23Z" transform="translate(695.197 2139.867)" fill="#12263f"/>
    <path id="Trazado_641916" data-name="Trazado 641916" d="M7.008,17.395A10.58,10.58,0,0,1,2.795,15.35a3.907,3.907,0,0,1-1.318-2.994A4.127,4.127,0,0,1,3.088,9.021,6.4,6.4,0,0,1,7.277,7.7a6.99,6.99,0,0,1,3.135.68,5.154,5.154,0,0,1,2.133,1.875,4.8,4.8,0,0,1,.756,2.613H11.039a3.12,3.12,0,0,0-.984-2.44,4,4,0,0,0-2.777-.888,4.1,4.1,0,0,0-2.6.734,2.448,2.448,0,0,0-.932,2.037,2.2,2.2,0,0,0,.885,1.767A8.678,8.678,0,0,0,7.646,15.4a13.974,13.974,0,0,1,3.328,1.319A5.05,5.05,0,0,1,12.756,18.4a4.292,4.292,0,0,1,.58,2.262,3.987,3.987,0,0,1-1.617,3.322,6.9,6.9,0,0,1-4.324,1.248,8.02,8.02,0,0,1-3.281-.674,5.522,5.522,0,0,1-2.35-1.846,4.5,4.5,0,0,1-.826-2.66H3.2A2.939,2.939,0,0,0,4.342,22.5a4.811,4.811,0,0,0,3.053.9,4.423,4.423,0,0,0,2.73-.727,2.36,2.36,0,0,0,.949-1.98,2.317,2.317,0,0,0-.879-1.939A10.133,10.133,0,0,0,7.008,17.395ZM18.633,25h-2.25V7.938h2.25Zm17.227,0H33.6l-8.59-13.148V25H22.746V7.938h2.262l8.613,13.207V7.938h2.238Zm12.188-6.68V25H45.8V7.938H52.09a6.322,6.322,0,0,1,4.389,1.43,4.847,4.847,0,0,1,1.588,3.785,4.783,4.783,0,0,1-1.553,3.826,6.6,6.6,0,0,1-4.447,1.342Zm0-1.84H52.09a4.042,4.042,0,0,0,2.766-.851,3.112,3.112,0,0,0,.961-2.459,3.215,3.215,0,0,0-.961-2.442,3.787,3.787,0,0,0-2.637-.951H48.047ZM67.2,18.1H63.188V25H60.926V7.938h5.648A6.686,6.686,0,0,1,71.01,9.25a4.722,4.722,0,0,1,1.553,3.82,4.593,4.593,0,0,1-.861,2.777,5.142,5.142,0,0,1-2.4,1.77l4.008,7.242V25H70.9Zm-4.008-1.84h3.457a3.9,3.9,0,0,0,2.666-.869,2.938,2.938,0,0,0,.99-2.325,3.094,3.094,0,0,0-.943-2.43,4,4,0,0,0-2.725-.857H63.188Zm25.652.762A10.555,10.555,0,0,1,88,21.4a6.391,6.391,0,0,1-2.391,2.854A6.6,6.6,0,0,1,76,21.42a10.127,10.127,0,0,1-.885-4.248v-1.23a10.429,10.429,0,0,1,.855-4.348,6.327,6.327,0,0,1,6-3.891,6.614,6.614,0,0,1,3.615.99A6.379,6.379,0,0,1,88,11.564a10.606,10.606,0,0,1,.844,4.377Zm-2.238-1.1a7.65,7.65,0,0,0-1.219-4.658,4.02,4.02,0,0,0-3.41-1.623,3.977,3.977,0,0,0-3.357,1.623,7.493,7.493,0,0,0-1.26,4.506V17.02a7.661,7.661,0,0,0,1.236,4.623,4.333,4.333,0,0,0,6.779.094,7.618,7.618,0,0,0,1.23-4.553ZM92.215,25V7.938h5.578a6.475,6.475,0,0,1,4.178,1.148,4.139,4.139,0,0,1,1.4,3.4,3.466,3.466,0,0,1-.68,2.115,4.406,4.406,0,0,1-1.852,1.424,3.957,3.957,0,0,1,2.186,1.471,4.221,4.221,0,0,1,.8,2.584,4.563,4.563,0,0,1-1.488,3.609A6.155,6.155,0,0,1,98.133,25Zm2.25-7.98V23.16H98.18a3.577,3.577,0,0,0,2.479-.814,2.86,2.86,0,0,0,.908-2.244q0-3.082-3.352-3.082Zm0-1.8h3.4a3.562,3.562,0,0,0,2.361-.74,2.48,2.48,0,0,0,.885-2.008,2.439,2.439,0,0,0-.82-2.049,4.028,4.028,0,0,0-2.5-.64H94.465Zm14.953,7.945H117.5V25H107.156V7.938h2.262Zm20.3-6.047H122.32V23.16h8.59V25H120.07V7.938h10.723v1.84H122.32v5.5h7.395Zm6.9-9.176L142.2,21.859l5.578-13.922h2.918V25h-2.25V18.355l.211-7.172L143.051,25h-1.723l-5.59-13.781.223,7.137V25h-2.25V7.938Zm27.469,12.6h-7.148L155.332,25h-2.32l6.516-17.062H161.5L168.023,25h-2.309Zm-6.469-1.84h5.8l-2.906-7.98Zm17.73-1.3a10.58,10.58,0,0,1-4.213-2.045,3.907,3.907,0,0,1-1.318-2.994,4.127,4.127,0,0,1,1.611-3.334A6.4,6.4,0,0,1,175.617,7.7a6.99,6.99,0,0,1,3.135.68,5.154,5.154,0,0,1,2.133,1.875,4.8,4.8,0,0,1,.756,2.613h-2.262a3.12,3.12,0,0,0-.984-2.44,4,4,0,0,0-2.777-.888,4.1,4.1,0,0,0-2.6.734,2.448,2.448,0,0,0-.932,2.037,2.2,2.2,0,0,0,.885,1.767,8.678,8.678,0,0,0,3.012,1.321,13.974,13.974,0,0,1,3.328,1.319A5.05,5.05,0,0,1,181.1,18.4a4.292,4.292,0,0,1,.58,2.262,3.987,3.987,0,0,1-1.617,3.322,6.9,6.9,0,0,1-4.324,1.248,8.02,8.02,0,0,1-3.281-.674,5.522,5.522,0,0,1-2.35-1.846,4.5,4.5,0,0,1-.826-2.66h2.262a2.939,2.939,0,0,0,1.143,2.443,4.811,4.811,0,0,0,3.053.9,4.423,4.423,0,0,0,2.73-.727,2.36,2.36,0,0,0,.949-1.98,2.317,2.317,0,0,0-.879-1.939A10.133,10.133,0,0,0,175.348,17.395Z" transform="translate(691 2419.867)" fill="#12263f"/>
    <path id="Trazado_641905" data-name="Trazado 641905" d="M11.32,19h-1.7L3.182,9.139V19h-1.7V6.2h1.7l6.46,9.905V6.2H11.32Zm12.841-5.985a7.916,7.916,0,0,1-.633,3.283,4.793,4.793,0,0,1-1.793,2.14,4.933,4.933,0,0,1-2.707.738,4.774,4.774,0,0,1-4.5-2.861,7.6,7.6,0,0,1-.664-3.186v-.923a7.822,7.822,0,0,1,.642-3.261,4.745,4.745,0,0,1,4.5-2.918,4.961,4.961,0,0,1,2.711.743,4.784,4.784,0,0,1,1.806,2.153,7.955,7.955,0,0,1,.633,3.283Zm-1.679-.826a5.738,5.738,0,0,0-.914-3.494,3.015,3.015,0,0,0-2.558-1.217,2.982,2.982,0,0,0-2.518,1.217,5.62,5.62,0,0,0-.945,3.379v.94a5.746,5.746,0,0,0,.927,3.467,3,3,0,0,0,2.553,1.261,2.983,2.983,0,0,0,2.531-1.191,5.714,5.714,0,0,0,.923-3.415Z" transform="translate(1163 2003.924)" fill="#12263f"/>
    <path id="Trazado_641912" data-name="Trazado 641912" d="M11.32,19h-1.7L3.182,9.139V19h-1.7V6.2h1.7l6.46,9.905V6.2H11.32Zm12.841-5.985a7.916,7.916,0,0,1-.633,3.283,4.793,4.793,0,0,1-1.793,2.14,4.933,4.933,0,0,1-2.707.738,4.774,4.774,0,0,1-4.5-2.861,7.6,7.6,0,0,1-.664-3.186v-.923a7.822,7.822,0,0,1,.642-3.261,4.745,4.745,0,0,1,4.5-2.918,4.961,4.961,0,0,1,2.711.743,4.784,4.784,0,0,1,1.806,2.153,7.955,7.955,0,0,1,.633,3.283Zm-1.679-.826a5.738,5.738,0,0,0-.914-3.494,3.015,3.015,0,0,0-2.558-1.217,2.982,2.982,0,0,0-2.518,1.217,5.62,5.62,0,0,0-.945,3.379v.94a5.746,5.746,0,0,0,.927,3.467,3,3,0,0,0,2.553,1.261,2.983,2.983,0,0,0,2.531-1.191,5.714,5.714,0,0,0,.923-3.415Z" transform="translate(1161 2206.995)" fill="#12263f"/>
    <path id="Trazado_641913" data-name="Trazado 641913" d="M11.32,19h-1.7L3.182,9.139V19h-1.7V6.2h1.7l6.46,9.905V6.2H11.32Zm12.841-5.985a7.916,7.916,0,0,1-.633,3.283,4.793,4.793,0,0,1-1.793,2.14,4.933,4.933,0,0,1-2.707.738,4.774,4.774,0,0,1-4.5-2.861,7.6,7.6,0,0,1-.664-3.186v-.923a7.822,7.822,0,0,1,.642-3.261,4.745,4.745,0,0,1,4.5-2.918,4.961,4.961,0,0,1,2.711.743,4.784,4.784,0,0,1,1.806,2.153,7.955,7.955,0,0,1,.633,3.283Zm-1.679-.826a5.738,5.738,0,0,0-.914-3.494,3.015,3.015,0,0,0-2.558-1.217,2.982,2.982,0,0,0-2.518,1.217,5.62,5.62,0,0,0-.945,3.379v.94a5.746,5.746,0,0,0,.927,3.467,3,3,0,0,0,2.553,1.261,2.983,2.983,0,0,0,2.531-1.191,5.714,5.714,0,0,0,.923-3.415Z" transform="translate(952 2213.995)" fill="#12263f"/>
    <path id="Trazado_641909" data-name="Trazado 641909" d="M11.32,19h-1.7L3.182,9.139V19h-1.7V6.2h1.7l6.46,9.905V6.2H11.32Zm12.841-5.985a7.916,7.916,0,0,1-.633,3.283,4.793,4.793,0,0,1-1.793,2.14,4.933,4.933,0,0,1-2.707.738,4.774,4.774,0,0,1-4.5-2.861,7.6,7.6,0,0,1-.664-3.186v-.923a7.822,7.822,0,0,1,.642-3.261,4.745,4.745,0,0,1,4.5-2.918,4.961,4.961,0,0,1,2.711.743,4.784,4.784,0,0,1,1.806,2.153,7.955,7.955,0,0,1,.633,3.283Zm-1.679-.826a5.738,5.738,0,0,0-.914-3.494,3.015,3.015,0,0,0-2.558-1.217,2.982,2.982,0,0,0-2.518,1.217,5.62,5.62,0,0,0-.945,3.379v.94a5.746,5.746,0,0,0,.927,3.467,3,3,0,0,0,2.553,1.261,2.983,2.983,0,0,0,2.531-1.191,5.714,5.714,0,0,0,.923-3.415Z" transform="translate(500.788 2127.992)" fill="#12263f"/>
    <path id="Trazado_641906" data-name="Trazado 641906" d="M5.256,13.3A7.935,7.935,0,0,1,2.1,11.762a2.93,2.93,0,0,1-.989-2.246,3.1,3.1,0,0,1,1.208-2.5,4.8,4.8,0,0,1,3.142-.989,5.243,5.243,0,0,1,2.351.51,3.866,3.866,0,0,1,1.6,1.406A3.6,3.6,0,0,1,9.976,9.9h-1.7a2.34,2.34,0,0,0-.738-1.83,3,3,0,0,0-2.083-.666,3.074,3.074,0,0,0-1.947.55,1.836,1.836,0,0,0-.7,1.528,1.652,1.652,0,0,0,.664,1.325,6.509,6.509,0,0,0,2.259.991,10.481,10.481,0,0,1,2.5.99,3.788,3.788,0,0,1,1.336,1.261,3.219,3.219,0,0,1,.435,1.7A2.99,2.99,0,0,1,8.789,18.24a5.171,5.171,0,0,1-3.243.936,6.015,6.015,0,0,1-2.461-.505,4.142,4.142,0,0,1-1.762-1.384,3.378,3.378,0,0,1-.62-2H2.4a2.2,2.2,0,0,0,.857,1.833,3.608,3.608,0,0,0,2.29.672,3.317,3.317,0,0,0,2.048-.545,1.77,1.77,0,0,0,.712-1.485,1.738,1.738,0,0,0-.659-1.455A7.6,7.6,0,0,0,5.256,13.3ZM13.975,19H12.287V6.2h1.688Z" transform="translate(955 2104.134)" fill="#12263f"/>
    <path id="Trazado_641907" data-name="Trazado 641907" d="M5.256,13.3A7.935,7.935,0,0,1,2.1,11.762a2.93,2.93,0,0,1-.989-2.246,3.1,3.1,0,0,1,1.208-2.5,4.8,4.8,0,0,1,3.142-.989,5.243,5.243,0,0,1,2.351.51,3.866,3.866,0,0,1,1.6,1.406A3.6,3.6,0,0,1,9.976,9.9h-1.7a2.34,2.34,0,0,0-.738-1.83,3,3,0,0,0-2.083-.666,3.074,3.074,0,0,0-1.947.55,1.836,1.836,0,0,0-.7,1.528,1.652,1.652,0,0,0,.664,1.325,6.509,6.509,0,0,0,2.259.991,10.481,10.481,0,0,1,2.5.99,3.788,3.788,0,0,1,1.336,1.261,3.219,3.219,0,0,1,.435,1.7A2.99,2.99,0,0,1,8.789,18.24a5.171,5.171,0,0,1-3.243.936,6.015,6.015,0,0,1-2.461-.505,4.142,4.142,0,0,1-1.762-1.384,3.378,3.378,0,0,1-.62-2H2.4a2.2,2.2,0,0,0,.857,1.833,3.608,3.608,0,0,0,2.29.672,3.317,3.317,0,0,0,2.048-.545,1.77,1.77,0,0,0,.712-1.485,1.738,1.738,0,0,0-.659-1.455A7.6,7.6,0,0,0,5.256,13.3ZM13.975,19H12.287V6.2h1.688Z" transform="translate(727.988 2050.889)" fill="#12263f"/>
    <path id="Trazado_641917" data-name="Trazado 641917" d="M5.256,13.3A7.935,7.935,0,0,1,2.1,11.762a2.93,2.93,0,0,1-.989-2.246,3.1,3.1,0,0,1,1.208-2.5,4.8,4.8,0,0,1,3.142-.989,5.243,5.243,0,0,1,2.351.51,3.866,3.866,0,0,1,1.6,1.406A3.6,3.6,0,0,1,9.976,9.9h-1.7a2.34,2.34,0,0,0-.738-1.83,3,3,0,0,0-2.083-.666,3.074,3.074,0,0,0-1.947.55,1.836,1.836,0,0,0-.7,1.528,1.652,1.652,0,0,0,.664,1.325,6.509,6.509,0,0,0,2.259.991,10.481,10.481,0,0,1,2.5.99,3.788,3.788,0,0,1,1.336,1.261,3.219,3.219,0,0,1,.435,1.7A2.99,2.99,0,0,1,8.789,18.24a5.171,5.171,0,0,1-3.243.936,6.015,6.015,0,0,1-2.461-.505,4.142,4.142,0,0,1-1.762-1.384,3.378,3.378,0,0,1-.62-2H2.4a2.2,2.2,0,0,0,.857,1.833,3.608,3.608,0,0,0,2.29.672,3.317,3.317,0,0,0,2.048-.545,1.77,1.77,0,0,0,.712-1.485,1.738,1.738,0,0,0-.659-1.455A7.6,7.6,0,0,0,5.256,13.3ZM13.975,19H12.287V6.2h1.688Z" transform="translate(802.985 2344.889)" fill="#12263f"/>
  </g>
</svg>
