<svg xmlns="http://www.w3.org/2000/svg" width="295" height="295" viewBox="0 0 295 295">
  <g id="Grupo_908336" data-name="Grupo 908336" transform="translate(-198 -1924.949)">
    <circle id="Elipse_6795" data-name="Elipse 6795" cx="147.5" cy="147.5" r="147.5" transform="translate(198 1924.949)" fill="#4dd0e1"/>
    <g id="Grupo_907965" data-name="Grupo 907965" transform="translate(134.287 1989.416)">
      <path id="Trazado_641345" data-name="Trazado 641345" d="M136.645,22.478c0-2.589-.013-5.079,0-7.569.016-2.337.982-3.311,3.329-3.312q67.709-.008,135.419,0c2.354,0,3.331.973,3.348,3.3.019,2.491,0,4.982,0,7.63,2.607,0,5.094-.011,7.582,0,2.353.014,3.344.973,3.345,3.3q.01,51.308,0,102.615c0,2.428-.971,3.369-3.445,3.374-5.169.01-10.338,0-15.406,0a37.446,37.446,0,0,1-1.034,5.571,13.861,13.861,0,0,1-2.389,4.074c-2.034,2.53-2.37,3.221-2.283,6.75.813,0,1.64-.024,2.465,0,1.833.064,2.939,1.047,2.948,2.825q.055,10.841,0,21.684c-.01,1.827-1.156,2.793-3.142,2.8-4.952.021-9.9.007-14.857.007q-16.479,0-32.958,0c-2.8,0-3.674-.869-3.676-3.656q-.007-9.818,0-19.635c0-3.282.725-4.015,3.983-4.031.443,0,.886,0,1.382,0a9.628,9.628,0,0,0-1.594-7.034c-1.839-2.666-3.667-5.345-5.373-8.1a2.491,2.491,0,0,0-2.469-1.284q-40.984.041-81.969.021c-3.409,0-4.142-.715-4.142-4.047q0-50.624,0-101.249c0-3.254.748-4,4.016-4q3.159,0,6.318,0C136.162,22.519,136.275,22.5,136.645,22.478ZM265.08,17.114c-.283-.019-.566-.054-.849-.054q-26.37,0-52.739,0c-.323,0-.645.049-.979.077v85.945l6.345,3.24,4.443,5.8v-6.96c.02-.625.057-1.249.057-1.874,0-7.8-.039-15.594.018-23.39a8.185,8.185,0,1,1,16.369.019c.038,4.652.009,9.3.009,13.77h4.557l3.8,1.834c3.732-2.655,6.478-2.655,10.817.037a4.381,4.381,0,0,0,.416-.242,7.794,7.794,0,0,1,8.805-.771,8.038,8.038,0,0,1,4.407,7.7c-.015,2.047,0,4.094,0,6.141v6.9h2.627V17.114Zm-63.925,90.111a9.933,9.933,0,0,1,2.135-1.668c1.559-.644,1.708-1.734,1.706-3.226q-.064-41.58-.031-83.16V17.159H142.11v1.609q0,43.544,0,87.088c0,.454.035.908.054,1.362v8.066h60.145C201.05,112.61,197.588,110.374,201.155,107.225Zm58.333,40.915c.611-5.824.66-5.789,4.263-10.857a6.789,6.789,0,0,0,1.27-3.612c.1-10.583.073-21.167.048-31.75a2.723,2.723,0,1,0-5.437,0c-.047,1.649.011,3.3-.02,4.95-.035,1.876-1.107,3.062-2.714,3.071s-2.7-1.179-2.737-3.045c-.031-1.593.016-3.187-.013-4.779-.035-1.88-1.1-3.066-2.7-3.083s-2.71,1.164-2.753,3.027c-.031,1.365,0,2.731-.007,4.1,0,2.481-.911,3.753-2.691,3.783s-2.766-1.266-2.773-3.7c0-1.365.02-2.731-.006-4.1-.035-1.891-1.071-3.078-2.672-3.112-1.665-.036-2.755,1.188-2.784,3.169-.024,1.707.047,3.417-.034,5.12a2.676,2.676,0,0,1-2.632,2.618,2.724,2.724,0,0,1-2.787-2.645c-.039-.452-.015-.91-.015-1.365q0-12.376,0-24.752a12.74,12.74,0,0,0-.027-1.535,2.68,2.68,0,0,0-2.781-2.458,2.631,2.631,0,0,0-2.626,2.438,9.938,9.938,0,0,0-.031,1.534q-.016,19.375-.018,38.749c0,1.593-.209,3.016-1.951,3.558-1.665.518-2.638-.494-3.513-1.733-2.461-3.483-4.994-6.916-7.432-10.413-1.848-2.65-6.172-3.086-8.021-.743.29.458.583.941.9,1.411,4.977,7.477,9.924,14.974,14.947,22.42,2.808,4.163,5.836,8.206,5.009,13.728Zm-49.776-21.861c-1.177-1.762-2.192-3.386-3.338-4.912a2.077,2.077,0,0,0-1.479-.464q-32.185-.031-64.37-.016c-3.131,0-3.881-.765-3.881-3.951q0-43.361,0-86.723v-2.1h-5.317v98.171Zm55.3,27.519H221.5v16.177h43.5Zm19.062-27.51V28.111h-5.32V87.632q0,14.771,0,29.543c0,2.894-.847,3.716-3.784,3.709-1.407,0-2.814,0-4.284,0v5.4Z" fill="#231f20"/>
      <path id="Trazado_641346" data-name="Trazado 641346" d="M161.711,113.853c-.019-.454-.054-.908-.054-1.362q0-43.544,0-87.088V23.794h62.854v2.013q0,41.58.031,83.16c0,1.491-.147,2.582-1.706,3.226a9.919,9.919,0,0,0-2.134,1.668l-7.072-.006c-.581-2.156-1.27-2.722-3.442-2.723q-19.838-.01-39.676,0c-2.174,0-2.865.57-3.44,2.723ZM186.256,33.83c-.437-.363-.6-.489-.756-.63-2.177-2.014-3.251-2.009-5.309.041q-2.843,2.831-5.675,5.672c-2.8,2.8-2.821,3.393-.241,6.3.042.047-.023.189-.038.285-3.953.184-4.383.646-4.383,4.712,0,2.39.1,4.784-.023,7.167-.173,3.455.76,4.846,4.323,4.615.049,0,.109.153.163.234-2.609,2.814-2.592,3.568.142,6.3q2.654,2.656,5.311,5.311c2.6,2.6,3.306,2.617,6.064.182.058-.051.2-.006.362-.006.017.2.047.417.052.631.077,2.915.873,3.689,3.815,3.693q4.012,0,8.023,0c3.929,0,4.309-.357,4.611-4.31,0-.057.161-.1.329-.2.335.361.656.766,1.036,1.107a2.65,2.65,0,0,0,3.955-.016q3.862-3.74,7.6-7.6a2.69,2.69,0,0,0,.014-3.97c-.354-.413-.742-.8-1.234-1.323.431-.038.646-.068.86-.073,3.035-.071,3.781-.836,3.783-3.9q0-4.1,0-8.193c0-3.63-.555-4.2-4.225-4.329-.074,0-.144-.123-.259-.229.143-.162.281-.329.431-.485,2.009-2.1,2.008-3.283-.025-5.325-1.886-1.9-3.859-3.712-5.653-5.691-2.48-2.734-4.212-2.762-6.316-.23-.035.043-.191-.014-.352-.031,0-.507.024-1.019,0-1.527a2.677,2.677,0,0,0-2.771-2.829q-5.461-.08-10.925.005a2.637,2.637,0,0,0-2.683,2.735C186.227,32.429,186.256,32.941,186.256,33.83Zm6.827,60.9q11.258,0,22.514,0c2.174,0,3.407-.986,3.434-2.691s-1.222-2.766-3.354-2.767q-22.6-.01-45.2,0a4.862,4.862,0,0,0-1.02.042,2.717,2.717,0,0,0-.078,5.359,6.933,6.933,0,0,0,1.53.06Q182,94.736,193.083,94.733Zm.011,10.929h22a13.315,13.315,0,0,0,1.364-.02,2.716,2.716,0,0,0,.058-5.421,12.125,12.125,0,0,0-1.364-.023q-22.087,0-44.175,0a7.6,7.6,0,0,0-1.531.049,2.714,2.714,0,0,0-.057,5.354,7.048,7.048,0,0,0,1.53.058Q182.007,105.665,193.094,105.663Z" transform="translate(-19.545 -6.635)" fill="#9ac8fe"/>
      <path id="Trazado_641347" data-name="Trazado 641347" d="M355.058,226.326H322.312c.828-5.522-2.2-9.564-5.009-13.728-5.023-7.446-9.97-14.943-14.947-22.42-.313-.47-.606-.953-.9-1.411,1.85-2.344,6.174-1.907,8.021.743,2.439,3.5,4.972,6.93,7.432,10.413.875,1.239,1.848,2.251,3.513,1.733,1.742-.542,1.953-1.965,1.951-3.558q-.02-19.375.018-38.749a9.934,9.934,0,0,1,.031-1.534,2.631,2.631,0,0,1,2.626-2.438,2.68,2.68,0,0,1,2.781,2.458,12.74,12.74,0,0,1,.027,1.535q0,12.376,0,24.752c0,.455-.024.913.015,1.365a2.724,2.724,0,0,0,2.787,2.645,2.676,2.676,0,0,0,2.632-2.618c.081-1.7.01-3.413.034-5.12.029-1.981,1.119-3.2,2.784-3.169,1.6.035,2.637,1.221,2.672,3.112.026,1.365,0,2.731.006,4.1.006,2.432.98,3.728,2.773,3.7s2.687-1.3,2.691-3.783c0-1.365-.024-2.732.007-4.1.043-1.863,1.138-3.044,2.753-3.027s2.666,1.2,2.7,3.083c.029,1.593-.018,3.187.013,4.779.037,1.866,1.129,3.053,2.737,3.045s2.679-1.194,2.714-3.071c.031-1.649-.027-3.3.02-4.95a2.723,2.723,0,1,1,5.437,0c.025,10.583.051,21.167-.048,31.75a6.79,6.79,0,0,1-1.27,3.612C355.718,220.537,355.669,220.5,355.058,226.326Z" transform="translate(-95.57 -78.186)" fill="#fdbbaa"/>
      <path id="Trazado_641348" data-name="Trazado 641348" d="M317.937,112.838l-6.345-3.24V23.653c.334-.027.656-.077.979-.077q26.37-.005,52.74,0c.283,0,.566.035.849.054q0,2.677,0,5.354c-.625.018-1.249.052-1.873.052q-21.753,0-43.506,0c-3,0-3.8.816-3.805,3.863q0,19.106,0,38.211c0,3.745.622,4.371,4.322,4.375q20.216.023,40.432.05a5.758,5.758,0,0,1-.361,1.627c-2.245,3.992-4.539,7.956-6.818,11.929-2.484.02-4.969,0-7.451.072a2.688,2.688,0,0,0-2.785,2.779,2.724,2.724,0,0,0,2.747,2.657c.9.056,1.8.046,2.707.066a33.475,33.475,0,0,1-2.444,2.531c-1.255,1.067-2.617,2.008-3.933,3h-4.556c0-4.465.029-9.118-.009-13.77a8.185,8.185,0,1,0-16.369-.019c-.057,7.8-.014,15.593-.018,23.39,0,.625-.037,1.249-.057,1.874Z" transform="translate(-101.08 -6.515)" fill="#bcdafe"/>
      <path id="Trazado_641349" data-name="Trazado 641349" d="M216.4,145.966H138.02V47.795h5.317v2.1q0,43.361,0,86.723c0,3.187.75,3.951,3.881,3.951q32.184,0,64.37.016a2.077,2.077,0,0,1,1.479.464C214.213,142.579,215.227,144.2,216.4,145.966Z" transform="translate(-6.692 -19.686)" fill="#004fab"/>
      <path id="Trazado_641350" data-name="Trazado 641350" d="M392.454,89.161c2.28-3.973,4.574-7.937,6.818-11.929a5.759,5.759,0,0,0,.361-1.627c1.248-.017,2.5-.036,3.743-.051,2.451-.027,3.42-.961,3.421-3.39q.013-19.839,0-39.678c0-2.166-.576-2.859-2.734-3.436q0-2.677,0-5.354h8.1V121.86h-2.627v-6.9c0-2.047-.012-4.094,0-6.141a8.038,8.038,0,0,0-4.407-7.7,7.794,7.794,0,0,0-8.805.771,4.381,4.381,0,0,1-.416.242c-4.339-2.692-7.085-2.692-10.817-.037l-3.8-1.834c1.316-.994,2.678-1.935,3.933-3a33.481,33.481,0,0,0,2.444-2.531q7.822-.027,15.643-.056c2.242-.01,3.526-1.054,3.475-2.807-.049-1.7-1.274-2.641-3.455-2.655Q397.894,89.184,392.454,89.161Z" transform="translate(-138.984 -6.582)" fill="#9ac8fe"/>
      <path id="Trazado_641351" data-name="Trazado 641351" d="M379.19,323.306v16.177h-43.5V323.306Zm-6.757,10.806c2.785,0,4.058-.837,4.089-2.689.032-1.9-1.283-2.777-4.171-2.776-2.732,0-4.031.9-4,2.771C368.376,333.272,369.651,334.112,372.433,334.112Z" transform="translate(-114.183 -169.508)" fill="#006def"/>
      <path id="Trazado_641352" data-name="Trazado 641352" d="M456.87,145.978H443.481v-5.4c1.469,0,2.877,0,4.284,0,2.937.007,3.783-.815,3.784-3.709q0-14.771,0-29.543V47.8h5.32Z" transform="translate(-172.801 -19.69)" fill="#004fab"/>
      <path id="Trazado_641353" data-name="Trazado 641353" d="M161.778,221.2h5.359c.564,2.15,1.268,2.734,3.433,2.734q19.845.011,39.689,0c2.165,0,2.865-.581,3.436-2.734l7.072.006c-3.568,3.149-.105,5.385,1.156,8.059H161.778Z" transform="translate(-19.612 -113.986)" fill="#57a3fe"/>
      <path id="Trazado_641354" data-name="Trazado 641354" d="M325.5,217.857l4.443-1.162v6.96Z" transform="translate(-108.644 -111.534)" fill="#99c5fa"/>
      <path id="Trazado_641355" data-name="Trazado 641355" d="M195.978,40.2c0-.889-.029-1.4.005-1.91a2.637,2.637,0,0,1,2.683-2.735q5.461-.093,10.925-.005a2.677,2.677,0,0,1,2.771,2.829c.028.509,0,1.02,0,1.527.161.017.317.074.352.031,2.1-2.532,3.836-2.5,6.316.23,1.794,1.979,3.767,3.795,5.653,5.691,2.032,2.042,2.034,3.224.025,5.325-.149.156-.287.323-.431.485.115.105.185.226.259.229,3.67.133,4.224.7,4.225,4.329q0,4.1,0,8.193c0,3.063-.748,3.828-3.783,3.9-.214.005-.429.036-.86.073.493.526.88.91,1.234,1.323a2.69,2.69,0,0,1-.014,3.97q-3.738,3.864-7.6,7.6a2.65,2.65,0,0,1-3.955.016c-.379-.34-.7-.745-1.036-1.107-.168.1-.325.146-.329.2-.3,3.953-.682,4.31-4.611,4.31q-4.011,0-8.023,0c-2.942,0-3.739-.778-3.815-3.693-.006-.214-.035-.428-.052-.631-.161,0-.3-.045-.362.006-2.758,2.434-3.463,2.415-6.064-.182q-2.656-2.654-5.311-5.311c-2.734-2.736-2.75-3.49-.142-6.3-.055-.082-.114-.238-.163-.234-3.563.231-4.5-1.161-4.323-4.615.12-2.384.023-4.778.023-7.167,0-4.066.43-4.528,4.383-4.712.015-.1.08-.238.038-.285-2.58-2.906-2.559-3.5.241-6.3q2.836-2.838,5.675-5.672c2.058-2.05,3.132-2.055,5.309-.041C195.375,39.711,195.541,39.837,195.978,40.2Zm27.241,17.184c-1.859,0-3.559-.032-5.257.01a2.825,2.825,0,0,1-3.051-1.693,2.864,2.864,0,0,1,.922-3.373c1.276-1.2,2.506-2.442,3.682-3.593l-3.968-3.974c-1.163,1.2-2.4,2.437-3.6,3.713a2.829,2.829,0,0,1-5.05-2.168c.043-1.738.01-3.478.01-5.223h-5.47c0,1.779-.032,3.472.01,5.162.034,1.357-.281,2.518-1.619,3.1a2.861,2.861,0,0,1-3.507-.952c-1.16-1.3-2.328-2.593-3.185-3.546l-4.444,3.746c1.135,1.11,2.135,2.12,3.171,3.091,1.156,1.083,2.28,2.2,1.594,3.966-.7,1.8-2.287,1.782-3.873,1.743-1.462-.036-2.925-.008-4.42-.008v5.469c1.822,0,3.523.033,5.221-.01a2.82,2.82,0,0,1,3.048,1.7,2.882,2.882,0,0,1-.927,3.375c-1.271,1.2-2.5,2.447-3.741,3.669l3.972,3.989c1.077-1.124,2.151-2.207,3.181-3.331,1.056-1.153,2.2-2.071,3.862-1.376,1.607.67,1.708,2.09,1.667,3.582-.043,1.566-.01,3.135-.01,4.707h5.47c0-1.838.026-3.587-.009-5.336a2.805,2.805,0,0,1,5-2.091c1.2,1.34,2.4,2.685,3.307,3.7l4.51-3.827c-1.2-1.141-2.26-2.174-3.352-3.169-1.145-1.043-2.125-2.165-1.477-3.843.659-1.707,2.15-1.792,3.7-1.745,1.518.045,3.039.01,4.635.01Z" transform="translate(-29.267 -13.005)" fill="#231f20"/>
      <path id="Trazado_641356" data-name="Trazado 641356" d="M199.634,172.774q-11.086,0-22.172,0a6.932,6.932,0,0,1-1.53-.06,2.717,2.717,0,0,1,.078-5.359,4.862,4.862,0,0,1,1.02-.042q22.6,0,45.2,0c2.132,0,3.38,1.054,3.354,2.767s-1.26,2.689-3.434,2.691Q210.891,172.782,199.634,172.774Z" transform="translate(-26.096 -84.676)" fill="#231f20"/>
      <path id="Trazado_641357" data-name="Trazado 641357" d="M199.645,196.722q-11.086,0-22.173,0a7.048,7.048,0,0,1-1.53-.058,2.714,2.714,0,0,1,.057-5.354,7.594,7.594,0,0,1,1.531-.049q22.088,0,44.175,0a12.124,12.124,0,0,1,1.364.023,2.716,2.716,0,0,1-.058,5.421,13.315,13.315,0,0,1-1.364.02Z" transform="translate(-26.096 -97.694)" fill="#231f20"/>
      <path id="Trazado_641358" data-name="Trazado 641358" d="M220.083,217.954c-.571,2.153-1.271,2.733-3.436,2.734q-19.844.01-39.689,0c-2.165,0-2.869-.584-3.433-2.734.574-2.153,1.266-2.722,3.44-2.723q19.838-.01,39.676,0C218.813,215.232,219.5,215.8,220.083,217.954Z" transform="translate(-26 -110.735)" fill="#231f20"/>
      <path id="Trazado_641359" data-name="Trazado 641359" d="M372.577,35.432c2.158.576,2.733,1.27,2.734,3.436q.011,19.839,0,39.678c0,2.429-.97,3.363-3.421,3.39-1.248.014-2.5.034-3.743.051q-20.216-.025-40.432-.05c-3.7,0-4.322-.63-4.322-4.375q0-19.105,0-38.211c0-3.047.8-3.863,3.805-3.863q21.753,0,43.506,0C371.328,35.484,371.952,35.45,372.577,35.432Zm-43.6,5.589V76.34h40.79V41.021Z" transform="translate(-107.496 -12.964)" fill="#231f20"/>
      <path id="Trazado_641360" data-name="Trazado 641360" d="M393.553,167.2q5.441.027,10.881.056c2.181.013,3.406.959,3.455,2.655.051,1.753-1.233,2.8-3.475,2.807q-7.822.034-15.643.056c-.9-.02-1.807-.01-2.707-.066a2.724,2.724,0,0,1-2.747-2.657,2.688,2.688,0,0,1,2.785-2.779C388.585,167.2,391.07,167.215,393.553,167.2Z" transform="translate(-140.084 -84.616)" fill="#231f20"/>
      <path id="Trazado_641361" data-name="Trazado 641361" d="M411.365,340.479c-2.782,0-4.057-.84-4.084-2.693-.028-1.87,1.271-2.77,4-2.771,2.887,0,4.2.874,4.171,2.776C415.424,339.642,414.15,340.479,411.365,340.479Z" transform="translate(-153.115 -175.875)" fill="#231f20"/>
      <path id="Trazado_641362" data-name="Trazado 641362" d="M229.929,64.027V69.5c-1.6,0-3.117.036-4.635-.01-1.551-.046-3.042.038-3.7,1.745-.648,1.678.333,2.8,1.477,3.843,1.092.995,2.148,2.028,3.352,3.169l-4.51,3.827c-.907-1.015-2.1-2.36-3.307-3.7a2.805,2.805,0,0,0-5,2.091c.035,1.749.009,3.5.009,5.336h-5.47c0-1.572-.033-3.141.01-4.707.041-1.491-.06-2.911-1.667-3.582-1.666-.695-2.807.223-3.862,1.376-1.029,1.125-2.1,2.208-3.181,3.331l-3.972-3.989c1.242-1.222,2.469-2.469,3.741-3.669a2.882,2.882,0,0,0,.927-3.375,2.82,2.82,0,0,0-3.048-1.7c-1.7.043-3.4.01-5.221.01V64.027c1.495,0,2.958-.028,4.42.008,1.586.039,3.175.054,3.873-1.743.686-1.766-.437-2.883-1.594-3.966-1.036-.971-2.035-1.98-3.171-3.091l4.444-3.746c.857.953,2.025,2.246,3.185,3.546a2.861,2.861,0,0,0,3.507.952c1.337-.581,1.653-1.742,1.619-3.1-.042-1.691-.01-3.384-.01-5.162h5.47c0,1.745.032,3.485-.01,5.223a2.829,2.829,0,0,0,5.05,2.168c1.2-1.276,2.439-2.517,3.6-3.713l3.968,3.974c-1.176,1.151-2.406,2.4-3.682,3.593a2.864,2.864,0,0,0-.922,3.373,2.825,2.825,0,0,0,3.051,1.693C226.37,64,228.07,64.027,229.929,64.027Zm-10.862,2.7a8.19,8.19,0,1,0-8.25,8.223A8.24,8.24,0,0,0,219.067,66.731Z" transform="translate(-35.977 -19.648)" fill="#e91c24"/>
      <path id="Trazado_641363" data-name="Trazado 641363" d="M335.626,47.684h40.79V83h-40.79Zm16.292,19.76c0,.813-.05,1.5.01,2.176a2.716,2.716,0,0,0,5.428-.1,7.823,7.823,0,0,0-.036-1.7,1.788,1.788,0,0,1,1.178-2.1,8.034,8.034,0,0,0,3.989-9.554,8.2,8.2,0,0,0-16.039,2.018,2.737,2.737,0,1,0,5.443.57c.04-.223.009-.461.068-.677a2.655,2.655,0,0,1,2.635-2.235,2.543,2.543,0,0,1,2.649,1.99,2.435,2.435,0,0,1-1.422,3.113A5.855,5.855,0,0,0,351.918,67.444ZM354.7,80.391a2.723,2.723,0,1,0-2.784-2.619A2.749,2.749,0,0,0,354.7,80.391Z" transform="translate(-114.15 -19.626)" fill="#fdcc00"/>
      <path id="Trazado_641364" data-name="Trazado 641364" d="M231.957,79.664a8.19,8.19,0,1,1-8.132-8.156A8.253,8.253,0,0,1,231.957,79.664Zm-8.154-2.7a2.728,2.728,0,1,0,2.695,2.716A2.737,2.737,0,0,0,223.8,76.968Z" transform="translate(-48.868 -32.581)" fill="#26221f"/>
      <path id="Trazado_641365" data-name="Trazado 641365" d="M364.818,70.591a5.855,5.855,0,0,1,3.9-6.5,2.435,2.435,0,0,0,1.422-3.113,2.543,2.543,0,0,0-2.649-1.99,2.655,2.655,0,0,0-2.635,2.235c-.059.216-.028.454-.068.677a2.737,2.737,0,1,1-5.443-.57,8.2,8.2,0,0,1,16.039-2.018A8.034,8.034,0,0,1,371.4,68.87a1.787,1.787,0,0,0-1.178,2.1,7.823,7.823,0,0,1,.036,1.7,2.716,2.716,0,0,1-5.428.1C364.768,72.091,364.818,71.4,364.818,70.591Z" transform="translate(-127.05 -22.773)" fill="#26221f"/>
      <path id="Trazado_641366" data-name="Trazado 641366" d="M374.117,112.887a2.723,2.723,0,1,1,2.661-2.744A2.744,2.744,0,0,1,374.117,112.887Z" transform="translate(-133.566 -52.122)" fill="#26221f"/>
      <path id="Trazado_641367" data-name="Trazado 641367" d="M230.319,83.476a2.728,2.728,0,1,1-2.759,2.654A2.733,2.733,0,0,1,230.319,83.476Z" transform="translate(-55.383 -39.09)" fill="#f4c401"/>
    </g>
  </g>
</svg>
