<svg xmlns="http://www.w3.org/2000/svg" width="295" height="295" viewBox="0 0 295 295">
  <g id="Grupo_908334" data-name="Grupo 908334" transform="translate(-198 -830)">
    <circle id="Elipse_6754" data-name="Elipse 6754" cx="147.5" cy="147.5" r="147.5" transform="translate(198 830)" fill="#4dd0e1"/>
    <g id="Grupo_907966" data-name="Grupo 907966" transform="translate(244.249 520.556)">
      <path id="Trazado_641368" data-name="Trazado 641368" d="M36.715,432.467c-1.973-.61-2.406-1.159-2.407-3.181q-.007-22.242-.024-44.483a3.6,3.6,0,0,1,1.51-3.126H137.65a4.064,4.064,0,0,1,1.372,3.5c-.071,4.474-.026,8.951-.026,13.562h1.788q12.533,0,25.065,0c2.578,0,3.317.736,3.318,3.31q.006,13.615,0,27.231c0,2.034-.455,2.607-2.415,3.167-1.685-.4-2.243-1.474-2.231-3.171.056-8.043.025-16.088.025-24.131v-1.7H159.3c-.257-.014-.514-.04-.771-.04q-44.116,0-88.233,0c-.347,0-.694.057-1.089.091V535.439h72.764v-18.65c0-3.3.514-3.8,3.884-3.805q6.732-.015,13.464-.045h5.227v-2.015q0-34.713,0-69.427c0-2.25.328-2.718,2.23-3.257,1.934.424,2.393,1.046,2.394,3.3q0,26.387,0,52.772c0,6.706-.019,13.412.017,20.118a4.1,4.1,0,0,1-1.291,3.156q-10.7,10.633-21.339,21.338a4.08,4.08,0,0,1-3.142,1.293q-37.838-.041-75.676-.021c-2.585,0-3.255-.68-3.258-3.312,0-4.533,0-9.067,0-13.752H62.722q-12.535,0-25.07,0c-2.6,0-3.343-.723-3.344-3.283q0-39.154,0-78.307c0-2.248.445-2.854,2.388-3.311,1.908.513,2.262,1.005,2.262,3.236q0,37.533,0,75.066V518.4H64.386V501.364H47.675c-.361,0-.723.013-1.083-.005-1.647-.083-2.7-1.033-2.671-2.389a2.366,2.366,0,0,1,2.623-2.256c5.365-.035,10.731-.017,16.1-.019h1.75v-5.12c-5.813,0-11.533,0-17.254,0-2.074,0-3.19-.8-3.22-2.292s1.094-2.355,3.142-2.357q6.346-.007,12.692,0h4.634v-5.165H62.62c-5.417,0-10.835.014-16.251-.015a2.292,2.292,0,0,1-2.449-2.246,2.406,2.406,0,0,1,2.225-2.357,10.679,10.679,0,0,1,1.391-.036q7.584,0,15.168,0h1.7v-5.058H62.659c-5.314,0-10.628.013-15.942-.009-1.734-.007-2.847-1.018-2.8-2.425.049-1.372,1.08-2.212,2.795-2.216,4.849-.012,9.7,0,14.549,0H64.4v-5.176H62.655c-5.314,0-10.628.009-15.942-.006-1.711,0-2.745-.862-2.793-2.231-.05-1.418,1.057-2.4,2.8-2.41,4.179-.018,8.358-.006,12.537-.006h5.114v-5.083H47.708c-.361,0-.723.013-1.083,0-1.656-.081-2.715-1.012-2.7-2.366s1.056-2.272,2.742-2.278c5.366-.019,10.731-.007,16.1-.008h1.655V442.67H47.525c-.31,0-.62.007-.929,0-1.646-.044-2.7-.979-2.68-2.362a2.364,2.364,0,0,1,2.6-2.279c5.417-.023,10.834-.01,16.251-.01h1.58v-5.152c-5.907,0-11.681.007-17.455,0-1.909,0-3.023-.91-2.975-2.36.046-1.4,1.133-2.279,2.937-2.286,4.489-.019,8.977-.006,13.466-.006h4.055v-5.083c-5.879,0-11.654,0-17.428,0-1.907,0-3.027-.881-3.032-2.339s1.09-2.306,3.029-2.309q7.893-.012,15.787,0h1.632v-5.158H59.151c-4.23,0-8.461.017-12.691-.014a2.333,2.333,0,0,1-2.544-2.321,2.433,2.433,0,0,1,2.432-2.325c.41-.033.825-.011,1.238-.011h16.9c0-2.275,0-4.331,0-6.387,0-2.912.613-3.52,3.539-3.52h66.222V386.415H38.959v1.732c0,13.723-.018,27.447.022,41.17C38.986,431.019,38.4,432.087,36.715,432.467ZM146.668,531.45l13.722-13.7H146.668Z" transform="translate(0)" fill="#070808"/>
      <path id="Trazado_641369" data-name="Trazado 641369" d="M40.134,439.184c1.688-.38,2.271-1.448,2.266-3.15-.04-13.723-.022-27.447-.022-41.17v-1.732h95.285v12.323H71.44c-2.926,0-3.536.608-3.539,3.52,0,2.056,0,4.112,0,6.387H51c-.413,0-.828-.022-1.238.011a2.433,2.433,0,0,0-2.432,2.325,2.333,2.333,0,0,0,2.544,2.321c4.23.031,8.461.013,12.691.014h5.213v5.158H66.151q-7.893,0-15.787,0c-1.939,0-3.035.853-3.029,2.309s1.126,2.337,3.032,2.339c5.775.007,11.55,0,17.428,0v5.083H63.741c-4.489,0-8.977-.012-13.466.006-1.8.007-2.891.886-2.937,2.286-.048,1.449,1.066,2.356,2.975,2.36,5.775.011,11.549,0,17.455,0v5.152h-1.58c-5.417,0-10.835-.013-16.251.01a2.364,2.364,0,0,0-2.6,2.278c-.025,1.383,1.034,2.317,2.68,2.362.309.008.619,0,.929,0H67.832v5.152H66.177c-5.366,0-10.731-.012-16.1.008-1.686.006-2.732.917-2.742,2.279s1.049,2.284,2.7,2.366c.36.017.722,0,1.083,0H67.786v5.083H62.671c-4.179,0-8.358-.012-12.537.006-1.738.007-2.846.993-2.8,2.41.048,1.369,1.082,2.226,2.793,2.231,5.314.015,10.628.006,15.942.006h1.741v5.176H64.683c-4.849,0-9.7-.007-14.549,0-1.715,0-2.746.843-2.795,2.216-.05,1.407,1.063,2.418,2.8,2.425,5.314.022,10.628.008,15.942.009h1.743v5.058h-1.7q-7.584,0-15.168,0a10.679,10.679,0,0,0-1.391.036,2.406,2.406,0,0,0-2.225,2.357,2.292,2.292,0,0,0,2.449,2.246c5.417.03,10.834.014,16.251.015H67.8v5.165H63.168q-6.346,0-12.692,0c-2.048,0-3.172.852-3.142,2.358s1.146,2.291,3.22,2.292c5.721,0,11.442,0,17.254,0v5.12h-1.75c-5.366,0-10.732-.016-16.1.019a2.366,2.366,0,0,0-2.623,2.256c-.034,1.355,1.025,2.306,2.671,2.389.36.018.722.005,1.083.005H67.8V525.12H42.378v-1.876q0-37.533,0-75.066c0-2.231-.354-2.723-2.262-3.236Z" transform="translate(-3.419 -6.717)" fill="#b2cedd"/>
      <path id="Trazado_641370" data-name="Trazado 641370" d="M336.542,434.3h5.248v1.7c0,8.044.031,16.088-.025,24.131-.012,1.7.547,2.775,2.231,3.171q.011,2.9.023,5.792c-1.9.539-2.23,1.008-2.23,3.257q0,34.713,0,69.427V543.8h-5.227c.01-.412.029-.824.029-1.236q0-53.357,0-106.714C336.589,435.334,336.558,434.819,336.542,434.3Z" transform="translate(-177.246 -30.861)" fill="#b2cedd"/>
      <path id="Trazado_641371" data-name="Trazado 641371" d="M208.805,434.246c.016.515.047,1.03.047,1.545q0,53.357,0,106.714c0,.412-.019.824-.029,1.236q-6.732.023-13.464.045c-3.37.007-3.884.5-3.884,3.805v18.65H118.712V434.3c.395-.034.742-.091,1.089-.091q44.117-.006,88.233,0C208.291,434.206,208.548,434.232,208.805,434.246ZM179.4,481.391c0,1.423-.018,2.8,0,4.179a4.22,4.22,0,0,0,4.261,4.518,44.569,44.569,0,0,0,5.256,0,4.194,4.194,0,0,0,4.195-4.425,28.715,28.715,0,0,0-.013-3.247c-.085-.99.262-1.4,1.215-1.737,4.021-1.428,5.78-4.523,5.1-8.7-.172-1.068-.339-2.137-.466-3.21-.587-4.973-2.463-9.107-7.231-11.464-.388-.192-.628-.885-.744-1.39-.485-2.106-.9-4.227-1.334-6.344-.982-4.756-4.192-7.4-9-7.4q-14.464,0-28.927,0a8.324,8.324,0,0,0-8.564,6.749c-.573,2.348-.975,4.738-1.559,7.082a2.533,2.533,0,0,1-1.082,1.468,12.283,12.283,0,0,0-6.293,8.374c-.515,2.253-.775,4.566-1.1,6.86a6.609,6.609,0,0,0,2.723,6.641,30.319,30.319,0,0,0,3.63,1.975c0,1.256-.014,2.694,0,4.131a4.308,4.308,0,0,0,4.463,4.655c1.492.066,2.991.038,4.485.011,3.118-.056,4.74-1.683,4.792-4.8.022-1.319,0-2.637,0-4.018,8.643,0,17.044,0,25.446,0A7,7,0,0,1,179.4,481.391Zm-30.732,61.791a17.673,17.673,0,1,0,17.641-17.712A17.629,17.629,0,0,0,148.664,543.182Zm17.569-33.022q14.85,0,29.7,0a8.159,8.159,0,0,0,1.843-.124,1.925,1.925,0,0,0,1.682-2.227,4.519,4.519,0,0,0-1.632-2.14c-.354-.3-1.088-.187-1.651-.187q-29.855-.011-59.711,0a7.4,7.4,0,0,0-1.536.114,2.286,2.286,0,0,0,.063,4.484,10.285,10.285,0,0,0,1.7.084Q151.46,510.164,166.233,510.16Zm.043-9.772q14.928,0,29.858,0a6.8,6.8,0,0,0,1.388-.042,2.219,2.219,0,0,0,1.984-2.376,2.182,2.182,0,0,0-2.137-2.223,11,11,0,0,0-1.237-.019H136.417c-.361,0-.724-.017-1.082.014a2.262,2.262,0,0,0-2.226,2.3,2.288,2.288,0,0,0,2.075,2.317,8.409,8.409,0,0,0,1.39.028Zm-5.491,19.539h24.272a8.783,8.783,0,0,0,1.389-.031,2.167,2.167,0,0,0,2.026-2.156,2.209,2.209,0,0,0-1.907-2.425,5.257,5.257,0,0,0-1.232-.046q-24.5,0-49.008,0a6.179,6.179,0,0,0-1.233.038,2.215,2.215,0,0,0-1.963,2.388,2.172,2.172,0,0,0,1.994,2.2,8.723,8.723,0,0,0,1.389.034Q148.649,519.929,160.785,519.928Z" transform="translate(-49.509 -30.803)" fill="#fefefe"/>
      <path id="Trazado_641372" data-name="Trazado 641372" d="M306.009,724.384v-13.7h13.722Z" transform="translate(-159.341 -192.934)" fill="#b2cedd"/>
      <path id="Trazado_641373" data-name="Trazado 641373" d="M199.705,492.68a7,7,0,0,0-.727-.089c-8.4,0-16.8,0-25.446,0,0,1.381.019,2.7,0,4.019-.052,3.114-1.674,4.742-4.792,4.8-1.495.027-2.993.055-4.485-.011a4.308,4.308,0,0,1-4.463-4.655c-.017-1.438,0-2.875,0-4.131a30.318,30.318,0,0,1-3.63-1.975,6.608,6.608,0,0,1-2.723-6.641c.323-2.293.583-4.607,1.1-6.86a12.283,12.283,0,0,1,6.293-8.374,2.533,2.533,0,0,0,1.082-1.468c.584-2.345.986-4.734,1.559-7.082a8.324,8.324,0,0,1,8.564-6.749q14.463,0,28.927,0c4.8,0,8.015,2.642,9,7.4.437,2.116.849,4.238,1.334,6.344.116.5.356,1.2.744,1.39,4.768,2.356,6.644,6.491,7.231,11.464.127,1.074.293,2.143.466,3.21.675,4.181-1.084,7.276-5.1,8.7-.953.338-1.3.747-1.215,1.737a28.723,28.723,0,0,1,.013,3.247,4.194,4.194,0,0,1-4.195,4.425,44.569,44.569,0,0,1-5.256,0,4.22,4.22,0,0,1-4.261-4.518C199.687,495.482,199.705,494.1,199.705,492.68Zm9.3-14.665,4.681-1.3c-1.674-3.432-3.749-4.589-7.543-4.323-13.613-.012-27.227-.059-40.84-.007-2.809.011-4.578,1.756-5.793,4.361,1.26.313,2.4.581,3.533.879,1.61.424,2.355,1.522,2.011,2.927a2.352,2.352,0,0,1-3.052,1.59c-1.1-.243-2.2-.512-3.448-.805-.138.9-.269,1.751-.4,2.6-.35,2.271.541,3.71,2.819,3.857,2.958.191,5.938.047,9.022.047,0-1.106-.011-2.128,0-3.15a7.035,7.035,0,0,1,7.051-7.274q9.589-.154,19.184,0a6.974,6.974,0,0,1,6.983,7.167c.028,1.068,0,2.138,0,3.268h6.019a24.561,24.561,0,0,0,3.059-.034c1.837-.239,2.95-1.317,2.894-2.807-.045-1.2-.292-2.393-.444-3.548l-5.122.747C207.765,480.9,207.6,479.819,209.007,478.015Zm-2.336-10.391c-.546-2.4-.96-4.731-1.626-6.984a3.436,3.436,0,0,0-3.62-2.539q-14.773-.011-29.547-.007a3.494,3.494,0,0,0-3.725,2.614c-.648,2.248-1.057,4.566-1.583,6.916ZM174.8,487.809h23.749c0-.819,0-1.529,0-2.24-.006-2.854-.689-3.534-3.568-3.535-5.051,0-10.105.105-15.153-.029-5.471-.146-5.33,1.077-5.14,5.529A1.5,1.5,0,0,0,174.8,487.809Zm-10.3,8.824c4.224.55,4.573.292,4.328-3.051-.007-.1.036-.244-.017-.3-.241-.258-.495-.685-.768-.7-1.156-.079-2.32-.033-3.544-.033Zm44.159.07v-4.063h-4.185V496.7Z" transform="translate(-69.818 -42.091)" fill="#010102"/>
      <path id="Trazado_641374" data-name="Trazado 641374" d="M191.131,672.581A17.673,17.673,0,1,1,208.864,690.2,17.638,17.638,0,0,1,191.131,672.581ZM209.515,659.6a12.954,12.954,0,1,0,12.3,13.017A13.014,13.014,0,0,0,209.515,659.6Z" transform="translate(-91.976 -160.201)" fill="#070808"/>
      <path id="Trazado_641375" data-name="Trazado 641375" d="M186.658,611.183q-14.773,0-29.546,0a10.285,10.285,0,0,1-1.7-.084,2.286,2.286,0,0,1-.063-4.484,7.4,7.4,0,0,1,1.536-.114q29.856-.008,59.711,0c.563,0,1.3-.11,1.651.187a4.519,4.519,0,0,1,1.632,2.14,1.925,1.925,0,0,1-1.682,2.227,8.159,8.159,0,0,1-1.843.124Q201.509,611.189,186.658,611.183Z" transform="translate(-69.935 -131.826)" fill="#070808"/>
      <path id="Trazado_641376" data-name="Trazado 641376" d="M186.683,587.606h-29.7a8.4,8.4,0,0,1-1.39-.028,2.288,2.288,0,0,1-2.075-2.317,2.262,2.262,0,0,1,2.226-2.3c.359-.031.722-.014,1.082-.014h59.716a11,11,0,0,1,1.237.019,2.182,2.182,0,0,1,2.137,2.223,2.219,2.219,0,0,1-1.984,2.376,6.8,6.8,0,0,1-1.388.042Q201.611,587.607,186.683,587.606Z" transform="translate(-69.916 -118.02)" fill="#010102"/>
      <path id="Trazado_641377" data-name="Trazado 641377" d="M181.223,634.843q-12.136,0-24.272,0a8.731,8.731,0,0,1-1.389-.034,2.172,2.172,0,0,1-1.994-2.2,2.215,2.215,0,0,1,1.963-2.388,6.174,6.174,0,0,1,1.233-.038q24.5,0,49.008,0a5.257,5.257,0,0,1,1.232.046,2.209,2.209,0,0,1,1.907,2.425,2.167,2.167,0,0,1-2.026,2.156,8.79,8.79,0,0,1-1.389.031Q193.359,634.844,181.223,634.843Z" transform="translate(-69.947 -145.718)" fill="#010102"/>
      <path id="Trazado_641378" data-name="Trazado 641378" d="M215.957,514.652h-6.019c0-1.13.024-2.2,0-3.268a6.974,6.974,0,0,0-6.983-7.167q-9.589-.167-19.184,0a7.035,7.035,0,0,0-7.051,7.274c-.013,1.022,0,2.044,0,3.15-3.084,0-6.064.144-9.022-.047-2.278-.147-3.169-1.586-2.819-3.857.131-.852.262-1.7.4-2.6,1.251.293,2.347.562,3.448.805a2.352,2.352,0,0,0,3.052-1.59c.344-1.4-.4-2.5-2.011-2.927-1.132-.3-2.273-.567-3.533-.879,1.215-2.6,2.984-4.349,5.793-4.361,13.613-.053,27.227,0,40.841.007l2.861,5.627c-1.4,1.8-1.242,2.889.621,4.2A8.041,8.041,0,0,1,215.957,514.652Z" transform="translate(-76.535 -68.891)" fill="#b2cedd"/>
      <path id="Trazado_641379" data-name="Trazado 641379" d="M225.42,474.2h-40.1c.526-2.35.935-4.667,1.583-6.916a3.494,3.494,0,0,1,3.725-2.614q14.773,0,29.547.007a3.436,3.436,0,0,1,3.62,2.539C224.461,469.468,224.874,471.8,225.42,474.2Z" transform="translate(-88.568 -48.667)" fill="#b2cedd"/>
      <path id="Trazado_641380" data-name="Trazado 641380" d="M204.978,528.269a1.5,1.5,0,0,1-.111-.276c-.19-4.451-.331-5.674,5.14-5.529,5.048.134,10.1.026,15.153.029,2.878,0,3.562.682,3.568,3.535,0,.711,0,1.422,0,2.24Z" transform="translate(-99.992 -82.551)" fill="#067ea9"/>
      <path id="Trazado_641381" data-name="Trazado 641381" d="M288.489,527.562a8.041,8.041,0,0,0,.388-5.642l5.121-.747c.152,1.155.4,2.348.444,3.548.056,1.49-1.057,2.568-2.894,2.807A24.543,24.543,0,0,1,288.489,527.562Z" transform="translate(-149.067 -81.801)" fill="#60b1f8"/>
      <path id="Trazado_641382" data-name="Trazado 641382" d="M283.87,504.807q-1.43-2.813-2.861-5.627c3.794-.266,5.869.891,7.542,4.323Z" transform="translate(-144.681 -68.883)" fill="#60b1f9"/>
      <path id="Trazado_641383" data-name="Trazado 641383" d="M180.314,552.034v-4.088c1.224,0,2.389-.046,3.544.033.273.019.527.445.768.7.053.057.009.2.017.3C184.887,552.325,184.538,552.584,180.314,552.034Z" transform="translate(-85.633 -97.493)" fill="#025878"/>
      <path id="Trazado_641384" data-name="Trazado 641384" d="M281.148,552.258h-4.185V548.2h4.185Z" transform="translate(-142.308 -97.647)" fill="#025878"/>
      <path id="Trazado_641385" data-name="Trazado 641385" d="M216.144,692.137a12.959,12.959,0,1,1,0-25.875,14.935,14.935,0,0,1,7.064,13.1A14.767,14.767,0,0,1,216.144,692.137Zm-1.489-10.708c-.775.993-1.462,1.825-2.1,2.7a2.34,2.34,0,0,0,.227,3.319,2.381,2.381,0,0,0,3.408-.5c1.309-1.588,2.6-3.194,3.833-4.84,1.149-1.532.785-2.944-.924-3.8-.912-.457-1.852-.857-2.873-1.326.369-.514.653-.927.956-1.325.343-.45.727-.871,1.051-1.333.919-1.309.8-2.578-.285-3.419a2.358,2.358,0,0,0-3.379.631c-1.268,1.555-2.518,3.126-3.729,4.725-1.182,1.562-.8,3.018.979,3.882C212.7,680.566,213.592,680.948,214.655,681.43Z" transform="translate(-98.609 -166.866)" fill="#dc626c"/>
      <path id="Trazado_641386" data-name="Trazado 641386" d="M235.571,692.177a14.767,14.767,0,0,0,7.068-12.774,14.935,14.935,0,0,0-7.064-13.1,12.954,12.954,0,0,1,0,25.874Z" transform="translate(-118.036 -166.906)" fill="#d84854"/>
      <path id="Trazado_641387" data-name="Trazado 641387" d="M225.605,687.384c-1.063-.481-1.958-.864-2.831-1.288-1.778-.865-2.16-2.321-.979-3.882,1.211-1.6,2.46-3.171,3.729-4.725a2.358,2.358,0,0,1,3.379-.631c1.089.841,1.2,2.11.285,3.419-.325.462-.708.883-1.051,1.333-.3.4-.586.812-.956,1.325,1.022.469,1.962.869,2.873,1.326,1.709.856,2.073,2.269.924,3.8-1.234,1.646-2.525,3.251-3.833,4.839a2.381,2.381,0,0,1-3.408.5,2.34,2.34,0,0,1-.227-3.319C224.143,689.209,224.83,688.377,225.605,687.384Z" transform="translate(-109.559 -172.82)" fill="#010102"/>
    </g>
  </g>
</svg>
