<svg xmlns="http://www.w3.org/2000/svg" width="295" height="295" viewBox="0 0 295 295">
  <g id="Grupo_908338" data-name="Grupo 908338" transform="translate(-198 -3428.858)">
    <circle id="Elipse_6797" data-name="Elipse 6797" cx="147.5" cy="147.5" r="147.5" transform="translate(198 3428.858)" fill="#4dd0e1"/>
    <g id="Grupo_907963" data-name="Grupo 907963" transform="translate(131.153 3496.628)">
      <path id="Trazado_641305" data-name="Trazado 641305" d="M271.633,88.87c1.814.562,2.242,1.089,2.243,2.958.009,12.423.021,24.846-.034,37.269a4.209,4.209,0,0,1-.88,2.4,12.569,12.569,0,0,0-.894,14.926,3.433,3.433,0,0,1,.4,3.75c-.741,1.331-1.985,1.607-3.414,1.606q-39.348-.024-78.7.006c-1.453,0-2.505-.4-2.988-1.85.214-2.1.835-2.634,3.091-2.634q37.563,0,75.126,0h1.75a17.972,17.972,0,0,1-.014-15.37c-.4-.022-.592-.042-.789-.042q-50.629,0-101.257.008a7.7,7.7,0,1,0,.024,15.4c4.4.026,8.809,0,13.214.008,2.1,0,2.729.571,2.945,2.633a2.61,2.61,0,0,1-2.839,1.85c-4.354-.047-8.708-.007-13.062-.019-7.51-.022-12.67-5.257-12.673-12.874q-.014-35.327-.01-70.655c0-10.687.021-21.375-.024-32.062-.008-1.764.36-3.1,2.27-3.556,2.016.779,2.176,1.016,2.176,3.314q0,46.165,0,92.329v1.5l5.9-2.254h10.022V4.189H163.188c-4.635-.274-5.889.9-5.889,5.5,0,4.791.008,9.582,0,14.373-.005,1.848-.419,2.329-2.214,2.724a2.3,2.3,0,0,1-2.2-2.629c-.007-5.425-.078-10.851.024-16.274.083-4.413,2.65-6.961,6.708-8.21H267.142c.35.127.7.266,1.052.379a8.215,8.215,0,0,1,5.677,8.177q.029,35.937.006,71.874c0,1.868-.43,2.4-2.243,2.961-1.942-.608-2.208-.989-2.208-3.255q0-35.485,0-70.97c0-3.37-1.328-4.708-4.64-4.708q-42.686,0-85.372,0h-1.5V127.352h91.517v-1.673q0-16.852,0-33.7C269.427,89.864,269.723,89.465,271.633,88.87Z" fill="#040302"/>
      <path id="Trazado_641306" data-name="Trazado 641306" d="M309.723,95.644c-1.91.6-2.206.994-2.207,3.106q-.007,16.851,0,33.7v1.673H216V10.909h1.5q42.686,0,85.372,0c3.312,0,4.639,1.339,4.64,4.708q.007,35.485,0,70.97c0,2.266.266,2.647,2.208,3.255Q309.723,92.744,309.723,95.644ZM272.391,27.311a6.866,6.866,0,0,0-.791-.345c-3.093-.66-4.374-2.353-3.937-5.676.3-2.27-1.38-3.885-3.686-3.978-3.308-.133-6.631-.135-9.939.008-2.3.1-3.648,1.7-3.721,4.016-.042,1.331-.008,2.665-.008,4.021-1.515.6-3,1.68-4.409,1.6-1.015-.06-1.937-1.669-2.9-2.586-.108-.1-.221-.2-.337-.291a3.758,3.758,0,0,0-5.245.166c-2.319,2.228-4.6,4.5-6.824,6.822a3.875,3.875,0,0,0,.109,5.593c.715.753,1.537,1.417,2.17,2.23a2.049,2.049,0,0,1,.267,1.491c-.569,2.847-2.138,4.329-5.21,3.6a1.409,1.409,0,0,0-.444.015,3.949,3.949,0,0,0-3.9,4.19q-.059,4.528,0,9.056A3.939,3.939,0,0,0,227.8,61.4c1.321.024,2.644,0,3.9,0,.1.254.133.346.171.438.525,1.278,1.638,2.672,1.416,3.8-.235,1.194-1.753,2.128-2.691,3.193a3.907,3.907,0,0,0,.088,5.6q3.26,3.352,6.617,6.609A3.816,3.816,0,0,0,243,81.02c.759-.709,1.419-1.535,2.235-2.166a2.068,2.068,0,0,1,1.491-.26c2.87.552,4.309,2.148,3.588,5.2a.576.576,0,0,0,0,.148,3.961,3.961,0,0,0,4.2,4.186q4.528.049,9.056,0a3.939,3.939,0,0,0,4.176-4.058c.048-1.037-.075-2.089.051-3.112a2.048,2.048,0,0,1,.843-1.246c2.494-1.7,4.663-1.457,6.341,1.219a1.068,1.068,0,0,0,.211.208,3.9,3.9,0,0,0,5.5-.022Q284.1,77.826,287.4,74.4a3.789,3.789,0,0,0,.033-5.576c-.728-.807-1.568-1.516-2.271-2.342a1.536,1.536,0,0,1-.358-1.225c.453-1.291,1.048-2.532,1.617-3.852,1.285,0,2.568.02,3.852,0a3.907,3.907,0,0,0,4.192-4.035q.112-4.674,0-9.352a3.835,3.835,0,0,0-3.773-3.99c-1.129-.1-2.283.04-3.407-.092a2.014,2.014,0,0,1-1.264-.846c-1.55-2.4-1.574-4.575,1.138-6.224a1.542,1.542,0,0,0,.312-.316,3.806,3.806,0,0,0,0-5.474q-3.278-3.436-6.713-6.723a3.872,3.872,0,0,0-5.7.044C274.1,25.321,273.254,26.359,272.391,27.311Zm-13.3,66.078q-12.252,0-24.5,0c-3.664,0-5.7,2.04-5.707,5.687q-.012,10.916,0,21.832c0,3.688,2.1,5.8,5.8,5.8q24.356.017,48.712,0c3.682,0,5.793-2.143,5.8-5.82q.011-10.767,0-21.534c0-4.018-1.977-5.97-6.038-5.971Q271.121,93.386,259.091,93.39Z" transform="translate(-38.09 -6.774)" fill="#fca75e"/>
      <path id="Trazado_641307" data-name="Trazado 641307" d="M188.325,350.88c-.216-2.062-.842-2.63-2.945-2.633-4.4-.006-8.809.018-13.214-.008a7.7,7.7,0,1,1-.024-15.4q50.629-.024,101.257-.008c.2,0,.393.02.789.042a17.972,17.972,0,0,0,.014,15.37h-1.75q-37.563,0-75.126,0c-2.256,0-2.877.535-3.091,2.634Z" transform="translate(-6.865 -200.945)" fill="#f5f4f5"/>
      <path id="Trazado_641308" data-name="Trazado 641308" d="M158.474,33.59c1.8-.394,2.209-.875,2.214-2.724.013-4.791,0-9.582,0-14.373,0-4.606,1.255-5.778,5.889-5.5q-.005,22.556-.009,45.112,0,39.1.015,78.2l-5.9,2.254v-1.5q0-46.164,0-92.329c0-2.3-.161-2.535-2.176-3.314Z" transform="translate(-3.394 -6.801)" fill="#6c636e"/>
      <path id="Trazado_641309" data-name="Trazado 641309" d="M178.9,134.364q-.008-39.1-.015-78.2,0-22.556.009-45.112H188.92V134.364Z" transform="translate(-15.703 -6.858)" fill="#847d86"/>
      <path id="Trazado_641310" data-name="Trazado 641310" d="M283.875,36.894c.863-.952,1.709-1.99,2.662-2.918a3.872,3.872,0,0,1,5.7-.044q3.428,3.288,6.713,6.723a3.806,3.806,0,0,1,0,5.474,1.543,1.543,0,0,1-.312.316c-2.712,1.649-2.689,3.824-1.138,6.224a2.015,2.015,0,0,0,1.264.846c1.124.131,2.278-.012,3.407.092a3.835,3.835,0,0,1,3.773,3.99q.1,4.675,0,9.352a3.907,3.907,0,0,1-4.192,4.035c-1.283.024-2.567,0-3.852,0-.569,1.32-1.164,2.561-1.617,3.852a1.537,1.537,0,0,0,.358,1.225c.7.826,1.543,1.535,2.272,2.342a3.789,3.789,0,0,1-.033,5.576q-3.295,3.421-6.717,6.719a3.9,3.9,0,0,1-5.5.022,1.069,1.069,0,0,1-.211-.208c-1.678-2.677-3.847-2.916-6.341-1.219a2.048,2.048,0,0,0-.843,1.246c-.126,1.024,0,2.075-.051,3.112a3.939,3.939,0,0,1-4.176,4.058q-4.528.051-9.056,0a3.961,3.961,0,0,1-4.2-4.186.576.576,0,0,1,0-.148c.721-3.056-.717-4.653-3.588-5.2a2.068,2.068,0,0,0-1.491.26c-.815.631-1.475,1.458-2.235,2.166a3.816,3.816,0,0,1-5.692.032q-3.362-3.25-6.617-6.609a3.907,3.907,0,0,1-.088-5.6c.939-1.065,2.457-2,2.691-3.193.222-1.131-.891-2.524-1.416-3.8-.038-.091-.072-.184-.171-.438-1.259,0-2.581.019-3.9,0a3.939,3.939,0,0,1-4.216-4.162q-.066-4.527,0-9.056a3.949,3.949,0,0,1,3.9-4.19,1.409,1.409,0,0,1,.444-.015c3.072.729,4.641-.753,5.21-3.6a2.049,2.049,0,0,0-.267-1.491c-.633-.814-1.455-1.477-2.17-2.23a3.875,3.875,0,0,1-.109-5.593c2.22-2.326,4.5-4.594,6.824-6.822a3.758,3.758,0,0,1,5.245-.166c.116.092.229.189.337.291.965.917,1.888,2.526,2.9,2.586,1.413.084,2.894-.991,4.409-1.6,0-1.356-.035-2.69.008-4.021.073-2.316,1.422-3.918,3.721-4.016,3.308-.142,6.631-.141,9.939-.008,2.306.093,3.985,1.708,3.686,3.978-.437,3.322.844,5.015,3.937,5.676A6.869,6.869,0,0,1,283.875,36.894ZM301.51,66.533V58.015c-1.438,0-2.714.025-3.989-.006a3.88,3.88,0,0,1-3.907-2.816c-.529-1.379-1.066-2.758-1.676-4.1a3.954,3.954,0,0,1,.889-5.107c.858-.86,1.781-1.654,2.426-2.248l-6.011-6.275c-.883.912-1.755,1.854-2.673,2.75a3.913,3.913,0,0,1-4.643.756c-1.448-.622-2.9-1.233-4.369-1.8a3.885,3.885,0,0,1-2.774-3.937c-.024-1.269,0-2.539,0-3.859H266.25c0,1.208.006,2.335,0,3.463-.015,2.495-.8,3.566-3.116,4.427-1.292.481-2.562,1.028-3.814,1.6a3.993,3.993,0,0,1-5.113-.878c-.85-.869-1.578-1.86-2.389-2.83-1.333,1.347-2.276,2.364-3.289,3.305s-2.071,1.786-3.181,2.733c1.227,1.19,2.1,2,2.928,2.846a3.959,3.959,0,0,1,.848,4.993c-.605,1.347-1.158,2.72-1.681,4.1a3.925,3.925,0,0,1-4,2.9c-1.271.03-2.543.006-3.82.006v8.489c1.269,0,2.451-.008,3.633,0a3.964,3.964,0,0,1,4.174,2.869q.822,2.136,1.751,4.231a3.9,3.9,0,0,1-.769,4.76c-.892.919-1.881,1.745-2.962,2.737,1.5,1.452,2.821,2.7,4.1,3.992.656.66,1.239,1.394,1.981,2.239,1.016-1.052,1.819-1.916,2.656-2.745a3.91,3.91,0,0,1,5.091-.9c1.347.607,2.721,1.158,4.1,1.686a3.864,3.864,0,0,1,2.87,4.007c.019,1.266,0,2.533,0,3.786h8.53c0-1.358-.023-2.635.005-3.911a3.765,3.765,0,0,1,2.706-3.812c1.374-.542,2.752-1.08,4.093-1.7,2.209-1.016,3.606-.833,5.331.952.808.836,1.47,1.814,2.178,2.7L295.531,81c-.989-.888-2.022-1.736-2.961-2.678a3.894,3.894,0,0,1-.741-4.645c.621-1.448,1.237-2.9,1.813-4.365a3.914,3.914,0,0,1,3.939-2.777C298.853,66.519,300.125,66.533,301.51,66.533Z" transform="translate(-49.574 -16.357)" fill="#040302"/>
      <path id="Trazado_641311" data-name="Trazado 641311" d="M278.663,218.75q12.03,0,24.059,0c4.061,0,6.035,1.954,6.038,5.971q.005,10.768,0,21.534c0,3.676-2.114,5.817-5.8,5.82q-24.356.018-48.712,0c-3.7,0-5.794-2.116-5.8-5.8q-.011-10.916,0-21.832c0-3.647,2.043-5.683,5.707-5.687Q266.411,218.738,278.663,218.75Zm.04,4.456c-8.066,0-16.132.017-24.2-.018-1.2-.006-1.626.342-1.616,1.606q.086,10.613,0,21.228c-.01,1.27.44,1.609,1.638,1.607q24.049-.041,48.1,0c1.31,0,1.7-.436,1.689-1.723-.048-6.977-.061-13.955.021-20.931.017-1.5-.508-1.812-1.883-1.8C294.538,223.231,286.62,223.2,278.7,223.206Z" transform="translate(-57.661 -132.135)" fill="#040302"/>
      <path id="Trazado_641312" data-name="Trazado 641312" d="M308.47,73.478c-1.385,0-2.658-.015-3.929,0a3.914,3.914,0,0,0-3.939,2.777c-.576,1.466-1.191,2.918-1.813,4.365a3.894,3.894,0,0,0,.741,4.645c.939.942,1.972,1.791,2.961,2.678l-6.438,6.418c-.708-.889-1.37-1.867-2.178-2.7-1.725-1.785-3.122-1.968-5.331-.952-1.341.617-2.719,1.154-4.093,1.7a3.765,3.765,0,0,0-2.706,3.812c-.028,1.276-.005,2.554-.005,3.911h-8.53c0-1.253.016-2.52,0-3.786a3.864,3.864,0,0,0-2.87-4.007c-1.38-.529-2.754-1.079-4.1-1.686a3.91,3.91,0,0,0-5.091.9c-.837.829-1.641,1.693-2.656,2.745-.743-.845-1.325-1.579-1.981-2.239-1.283-1.291-2.606-2.541-4.1-3.992,1.082-.992,2.071-1.818,2.962-2.737a3.9,3.9,0,0,0,.769-4.76q-.927-2.093-1.751-4.231a3.964,3.964,0,0,0-4.174-2.869c-1.181-.009-2.363,0-3.633,0V64.978c1.277,0,2.549.024,3.82-.006a3.925,3.925,0,0,0,4-2.9c.523-1.381,1.076-2.754,1.681-4.1a3.959,3.959,0,0,0-.848-4.993c-.83-.848-1.7-1.656-2.928-2.846,1.11-.948,2.18-1.8,3.181-2.733s1.956-1.958,3.289-3.305c.812.97,1.539,1.961,2.389,2.83a3.993,3.993,0,0,0,5.113.878c1.252-.577,2.522-1.124,3.814-1.6,2.314-.86,3.1-1.932,3.116-4.427.007-1.127,0-2.255,0-3.463h8.529c0,1.321-.019,2.59,0,3.859a3.885,3.885,0,0,0,2.774,3.937c1.468.572,2.921,1.183,4.369,1.8a3.913,3.913,0,0,0,4.643-.756c.918-.9,1.791-1.839,2.674-2.75l6.011,6.275c-.645.595-1.568,1.389-2.426,2.248a3.954,3.954,0,0,0-.889,5.107c.61,1.344,1.148,2.723,1.676,4.1a3.88,3.88,0,0,0,3.907,2.816c1.275.031,2.551.006,3.989.006v8.519ZM277.6,89.051A19.936,19.936,0,0,0,291.026,54.4a19.649,19.649,0,0,0-14.237-5.222c-1.88.054-2.986,1.3-2.558,2.791.4,1.4,1.443,1.678,2.765,1.664a15.487,15.487,0,1,1-2.1,30.73c-8.4-1.573-14.1-9.65-12.594-17.8a15.705,15.705,0,0,1,5.46-9.415c1.262-1.066,1.413-2.486.458-3.478-.981-1.018-2.206-.9-3.655.352A19.937,19.937,0,0,0,277.6,89.051Zm-.039-9.29a10.664,10.664,0,1,0-10.631-10.67A10.694,10.694,0,0,0,277.557,79.761Z" transform="translate(-56.533 -23.302)" fill="#f5f4f5"/>
      <path id="Trazado_641313" data-name="Trazado 641313" d="M285.457,229.936c7.917,0,15.835.027,23.752-.028,1.375-.009,1.9.3,1.883,1.8-.081,6.976-.068,13.954-.021,20.931.009,1.287-.379,1.725-1.689,1.723q-24.049-.051-48.1,0c-1.2,0-1.648-.337-1.638-1.607q.08-10.613,0-21.228c-.01-1.264.419-1.612,1.616-1.606C269.325,229.955,277.392,229.938,285.457,229.936Zm.071,5.389c-6.229,0-12.458-.01-18.686.008a2.177,2.177,0,0,0-2.421,2.056,2.252,2.252,0,0,0,2.291,2.385c.245.023.494.012.741.012q17.871,0,35.741-.01a5.1,5.1,0,0,0,1.739-.246,2.093,2.093,0,0,0,1.2-2.8,2.348,2.348,0,0,0-2.511-1.414C297.591,235.337,291.56,235.326,285.528,235.326Zm-10.578,9.164c-2.674,0-5.347-.025-8.02.01-1.562.02-2.473.841-2.511,2.137a2.226,2.226,0,0,0,2.515,2.3q7.871.044,15.742,0c1.65-.008,2.571-.86,2.572-2.235s-.893-2.189-2.576-2.209C280.1,244.466,277.525,244.489,274.951,244.49Zm23.883,0c-1.727,0-3.454-.032-5.18.01a2.228,2.228,0,1,0-.017,4.434q5.106.062,10.212,0a2.24,2.24,0,0,0,2.448-2.219,2.217,2.217,0,0,0-2.431-2.215C302.19,244.458,300.511,244.493,298.834,244.491Z" transform="translate(-64.415 -138.867)" fill="#f5f4f5"/>
      <path id="Trazado_641314" data-name="Trazado 641314" d="M294.414,105.561a19.937,19.937,0,0,1-13.037-35.028c1.449-1.252,2.674-1.37,3.655-.352.956.991.8,2.411-.458,3.478a15.705,15.705,0,0,0-5.46,9.415c-1.511,8.155,4.2,16.232,12.594,17.8a15.487,15.487,0,1,0,2.1-30.73c-1.322.013-2.364-.264-2.765-1.664-.427-1.489.679-2.737,2.558-2.791a19.951,19.951,0,0,1,19.345,27.2A19.894,19.894,0,0,1,294.414,105.561Z" transform="translate(-73.351 -39.813)" fill="#070707"/>
      <path id="Trazado_641315" data-name="Trazado 641315" d="M308.489,110.346a10.664,10.664,0,0,1,.051-21.328,10.664,10.664,0,1,1-.051,21.328Zm-.032-4.458a6.238,6.238,0,0,0,6.293-6.132,6.318,6.318,0,0,0-6.18-6.285,6.227,6.227,0,0,0-6.255,6.171A6.158,6.158,0,0,0,308.457,105.888Z" transform="translate(-87.465 -53.887)" fill="#040302"/>
      <path id="Trazado_641316" data-name="Trazado 641316" d="M292.784,243.543c6.031,0,12.062.011,18.093-.01a2.348,2.348,0,0,1,2.511,1.414,2.093,2.093,0,0,1-1.2,2.8,5.1,5.1,0,0,1-1.739.246q-17.87.02-35.741.01c-.247,0-.5.012-.741-.012a2.252,2.252,0,0,1-2.291-2.385,2.177,2.177,0,0,1,2.421-2.056C280.326,243.533,286.555,243.544,292.784,243.543Z" transform="translate(-71.671 -147.084)" fill="#070707"/>
      <path id="Trazado_641317" data-name="Trazado 641317" d="M282.208,266.638c2.574,0,5.149-.023,7.722.007,1.683.02,2.577.824,2.576,2.209s-.922,2.227-2.572,2.235q-7.871.037-15.742,0a2.226,2.226,0,0,1-2.515-2.3c.038-1.3.949-2.117,2.511-2.137C276.861,266.613,279.534,266.638,282.208,266.638Z" transform="translate(-71.673 -161.015)" fill="#070707"/>
      <path id="Trazado_641318" data-name="Trazado 641318" d="M346.79,266.639c1.677,0,3.356-.033,5.032.011a2.216,2.216,0,0,1,2.431,2.215,2.24,2.24,0,0,1-2.448,2.219q-5.106.06-10.212,0a2.228,2.228,0,1,1,.017-4.434C343.336,266.607,345.064,266.638,346.79,266.639Z" transform="translate(-112.372 -161.014)" fill="#070707"/>
      <path id="Trazado_641319" data-name="Trazado 641319" d="M315.231,112.658a6.158,6.158,0,0,1-6.142-6.245,6.227,6.227,0,0,1,6.255-6.171,6.318,6.318,0,0,1,6.18,6.285A6.238,6.238,0,0,1,315.231,112.658Z" transform="translate(-94.239 -60.656)" fill="#fba65d"/>
    </g>
  </g>
</svg>
