<svg xmlns="http://www.w3.org/2000/svg" width="295" height="295" viewBox="0 0 295 295">
  <g id="Grupo_908335" data-name="Grupo 908335" transform="translate(-198 -1322.975)">
    <circle id="Elipse_6794" data-name="Elipse 6794" cx="147.5" cy="147.5" r="147.5" transform="translate(198 1322.975)" fill="#fd9927"/>
    <g id="Grupo_907964" data-name="Grupo 907964" transform="translate(136.25 981.167)">
      <path id="Trazado_641320" data-name="Trazado 641320" d="M286.033,440.88v68.255l-2.367.047-2.361-.144v-2.06q0-31.381,0-62.762c0-.591.019-1.183-.021-1.772a6.909,6.909,0,0,0-7.08-6.451v65.98l-2.355.118-2.427-.125V426.387c-10.29.116-20.4.605-30.381,2.614a72.4,72.4,0,0,0-25.033,9.625,2.412,2.412,0,0,0-1.279,2.349q.052,47.636.028,95.272v1.513l8.392-4.327,1.314,2.426.512,1.776-8.051,4.557c-.716.547-1.944,1.01-2.05,1.657a34.849,34.849,0,0,0-.1,5.512H224.5c.043.864.08,1.591.117,2.318-.039.766-.077,1.531-.12,2.363H222.93q-37.67,0-75.34,0c-7.965,0-12.835-4.9-12.836-12.911q0-20.312,0-40.625,0-28.585.008-57.17a11.487,11.487,0,0,1,7.05-11.15,30.1,30.1,0,0,1,4.762-1.335c0-1.9,0-3.964,0-6.024.006-2.4.765-3.222,3.195-3.134,6.787.246,13.591.332,20.352.9,14.066,1.189,27.547,4.445,39.588,12.275a1.567,1.567,0,0,0,1.392-.017,74.393,74.393,0,0,1,24.583-9.989c11.894-2.66,23.974-3.192,36.1-3.17a2.309,2.309,0,0,1,2.416,2.576c.033,2.255.008,4.511.008,6.818.355.03.591.049.826.071a11.877,11.877,0,0,1,10.625,8.847A7.054,7.054,0,0,0,286.033,440.88ZM151.362,525.645c19.684.3,39.074,1.755,56.665,12.166v-.938q0-48.156.021-96.312a1.836,1.836,0,0,0-.995-1.752,66.609,66.609,0,0,0-18.668-8.247c-12.01-3.318-24.318-4.069-36.7-4.138-.125,0-.25.114-.326.15Zm-4.794-89.723c-4.249.1-7.086,3.17-7.087,7.489q-.008,49.111,0,98.223c0,4.782,2.937,7.681,7.771,7.682q29.541.006,59.082,0h1.575v-4.726H180.325q-11.816,0-23.632,0c-2.225,0-3.023-.8-3.031-3.026-.01-3.2,0-6.4-.006-9.6,0-.474-.049-.947-.082-1.551-1.245,0-2.368.007-3.492,0-2.906-.021-3.514-.641-3.514-3.583q0-44.459,0-88.918Zm54.832,103.9c-13.485-6.968-28.008-8.77-42.89-9.228v9.228Z" transform="translate(0 0)" fill="#3a3145"/>
      <path id="Trazado_641321" data-name="Trazado 641321" d="M423.684,661.583l-2.367,1.521a16.313,16.313,0,0,1-2.492-.064c-2.433-.426-3.939.349-4.521,2.9-.177.776-.206,1.209.369,1.765,1.371,1.325,2.676,2.717,4.007,4.081a3.619,3.619,0,0,1-1.314,3.255c-1.929,1.826-3.755,3.76-5.653,5.62-1.485,1.455-2.6,1.452-4.066.01-1.228-1.206-2.419-2.449-3.669-3.718-1.163.473-2.308.884-3.393,1.416a1.325,1.325,0,0,0-.521,1c-.056,1.523-.008,3.05-.029,4.575-.026,1.845-.883,2.733-2.7,2.749q-4.355.038-8.709,0c-1.9-.014-2.738-.89-2.756-2.841-.015-1.721,0-3.442,0-5.246-1.11-.481-2.2-1.009-3.338-1.409a1.316,1.316,0,0,0-1.076.326c-1.151,1.073-2.218,2.235-3.362,3.316-1.294,1.223-2.45,1.211-3.746-.035-2.054-1.976-4.078-3.983-6.116-5.977-1.462-1.99-1.414-2.714.3-4.446a27.509,27.509,0,0,1,2.314-2.279c1.045-.829,1.246-1.661.4-2.709-.813-2.33-.813-2.33-3.169-2.33-.882,0-1.764,0-2.647,0-2.423-.01-3.184-.758-3.2-3.132-.005-.636-.033-1.273-.05-1.909.017-2.116.025-4.232.054-6.348.027-1.926.874-2.769,2.813-2.788,1.769-.018,3.539,0,5.29,0,.473-1.109.97-2.125,1.324-3.188a1.459,1.459,0,0,0-.256-1.215c-1.024-1.129-2.154-2.161-3.214-3.26-1.357-1.408-1.35-2.546.036-3.964,1.513-1.55,3.059-3.068,4.591-4.6,3.36-3.36,3.518-3.36,6.9.044,2.241,2.254,2.232,2.229,5.208,1.089a1.2,1.2,0,0,0,.959-1.359c-.068-1.474-.036-2.954-.015-4.431.026-1.852.876-2.731,2.7-2.747q4.357-.037,8.715,0c1.9.014,2.739.888,2.757,2.844.017,1.769,0,3.538,0,5.312a5.36,5.36,0,0,1,1.312.49c1.993,1.466,3.335.6,4.744-1.017a22.464,22.464,0,0,1,3.4-2.689,10.035,10.035,0,0,1,2.282,1.186c1.571,1.415,3.018,2.967,4.513,4.466,3.3,3.313,3.3,3.638-.087,6.918-2.238,2.168-2.207,2.156-1.1,5.1a1.3,1.3,0,0,0,1.481,1.041c1.572-.078,3.149-.047,4.723-.062l2.369,1.523Zm-14.266-25.688c-1.024,1.11-2.088,2.26-3.15,3.412a2.663,2.663,0,0,1-3.577.518,42.048,42.048,0,0,0-5.143-2.158c-1.669-.585-2.213-1.174-2.227-2.986-.011-1.553,0-3.106,0-4.637h-4.73c0,1.588.009,3.1,0,4.616-.013,1.822-.53,2.4-2.208,3.005a44.762,44.762,0,0,0-5.146,2.151,2.669,2.669,0,0,1-3.58-.5c-1.069-1.151-2.149-2.29-3.177-3.385l-3.658,3.465c1.206,1.129,2.351,2.2,3.5,3.277a2.676,2.676,0,0,1,.475,3.584,38.691,38.691,0,0,0-2.139,5.15,2.715,2.715,0,0,1-2.879,2.2c-1.561-.037-3.124-.008-4.734-.008v4.73c1.606,0,3.123-.01,4.64,0,1.806.014,2.379.542,2.975,2.242a47.774,47.774,0,0,0,2.081,5.019c.827,1.707.817,2.437-.572,3.794-1.083,1.057-2.24,2.039-3.275,2.975l3.465,3.668c1.152-1.192,2.251-2.315,3.334-3.454a2.624,2.624,0,0,1,3.456-.5,44.316,44.316,0,0,0,5.286,2.2,2.719,2.719,0,0,1,2.166,2.906c-.042,1.558-.009,3.118-.009,4.688h4.73c0-1.622.036-3.143-.009-4.661a2.712,2.712,0,0,1,2.151-2.917,47.211,47.211,0,0,0,5.158-2.123c1.651-.791,2.406-.8,3.678.514,1.083,1.116,2.078,2.318,2.921,3.266l3.776-3.345c-1.176-1.157-2.274-2.213-3.343-3.3-1.274-1.292-1.29-2.022-.488-3.687a48.773,48.773,0,0,0,2.084-5.019c.6-1.712,1.172-2.248,2.957-2.263,1.555-.013,3.11,0,4.639,0V653.6c-1.687,0-3.261-.015-4.833,0a2.636,2.636,0,0,1-2.7-2.04,56.721,56.721,0,0,0-2.251-5.422,2.615,2.615,0,0,1,.527-3.451c1.15-1.071,2.3-2.146,3.495-3.265Z" transform="translate(-137.651 -123.197)" fill="#3a3145"/>
      <path id="Trazado_641322" data-name="Trazado 641322" d="M176.833,532.909V433.838c.075-.037.2-.151.326-.15,12.38.069,24.688.819,36.7,4.138a66.608,66.608,0,0,1,18.668,8.247,1.836,1.836,0,0,1,.995,1.752q-.038,48.156-.021,96.312v.938C215.907,534.664,196.516,533.209,176.833,532.909Zm48.14-73.055c-12.457-5.25-25.436-6.634-38.7-7.281v4.721c12.615.681,25.052,1.927,36.833,6.894Zm-1.894,16.151c.33-.735.653-1.436.961-2.145s.6-1.416.921-2.185c-12.419-5.258-25.406-6.626-38.673-7.286v4.723C198.837,469.8,211.246,471.016,223.079,476.005Zm1.9,7.491c-12.419-5.248-25.407-6.63-38.684-7.288v4.724c12.556.682,25,1.914,36.809,6.895Zm-.008,11.822c-12.407-5.259-25.4-6.626-38.751-7.3v4.725c12.629.686,25.072,1.918,36.791,6.86a3.431,3.431,0,0,0,.317-.46C223.855,497.935,224.373,496.719,224.972,495.318Zm0,11.822c-12.383-5.262-25.377-6.618-38.585-7.3a8.8,8.8,0,0,0-.123.961c-.012,1.218-.005,2.435-.005,3.76,12.555.694,25,1.9,36.843,6.907Zm0,11.811c-12.415-5.245-25.4-6.627-38.679-7.284v4.724c12.56.682,25,1.915,36.718,6.856a3.482,3.482,0,0,0,.318-.465C223.857,521.568,224.374,520.352,224.974,518.95Z" transform="translate(-25.471 -7.264)" fill="#f4f8fb"/>
      <path id="Trazado_641323" data-name="Trazado 641323" d="M391.417,514.2a22.46,22.46,0,0,0-3.4,2.689c-1.409,1.617-2.751,2.482-4.744,1.017a5.355,5.355,0,0,0-1.312-.489c0-1.775.013-3.544,0-5.312-.018-1.957-.853-2.83-2.757-2.844q-4.357-.033-8.715,0c-1.826.016-2.676.9-2.7,2.747-.021,1.477-.053,2.957.015,4.431a1.2,1.2,0,0,1-.959,1.359c-2.976,1.139-2.967,1.164-5.208-1.089-3.386-3.4-3.543-3.4-6.9-.044-1.532,1.532-3.077,3.05-4.591,4.6-1.385,1.418-1.393,2.556-.035,3.964,1.059,1.1,2.189,2.131,3.214,3.26a1.46,1.46,0,0,1,.256,1.215c-.353,1.063-.851,2.079-1.324,3.188-1.751,0-3.521-.014-5.29,0-1.939.02-2.786.863-2.813,2.788-.03,2.116-.037,4.232-.054,6.348l-2.062,1.038-1.314-2.426-8.392,4.328v-1.513q0-47.636-.028-95.272a2.412,2.412,0,0,1,1.279-2.349,72.394,72.394,0,0,1,25.033-9.625c9.983-2.009,20.091-2.5,30.381-2.614v75.578l2.427.125Q391.414,511.748,391.417,514.2Zm-11.886-61.67c-13.348.642-26.326,2.05-38.67,7.273.345.821.623,1.5.913,2.167.308.709.629,1.412.966,2.166,11.856-4.986,24.3-6.227,36.791-6.88Zm.067,16.554v-4.737c-13.409.64-26.386,2.053-38.74,7.273.343.813.621,1.487.912,2.156.308.71.629,1.414.969,2.176C354.559,470.993,366.95,469.715,379.6,469.081Zm0,11.81c0-.926.013-1.659,0-2.391-.018-.76-.065-1.519-.1-2.335-13.343.645-26.313,2.055-38.658,7.285l1.9,4.322C354.6,482.8,366.994,481.541,379.6,480.892ZM340.84,495.247l1.89,4.352c11.909-5.01,24.35-6.231,36.817-6.894,0-1.472,0-2.747,0-4.022a4.451,4.451,0,0,0-.128-.682C366.271,488.594,353.343,490.041,340.84,495.247Zm1.876,16.175c11.9-5.006,24.339-6.238,36.755-6.891v-4.644c-11.057-.414-33.416,3.873-38.545,7.375Z" transform="translate(-119.565 -7.208)" fill="#dfe2eb"/>
      <path id="Trazado_641324" data-name="Trazado 641324" d="M153.816,457.751v1.987q0,44.459,0,88.918c0,2.942.608,3.562,3.514,3.583,1.124.008,2.247,0,3.492,0,.034.6.081,1.077.082,1.551.007,3.2,0,6.4.006,9.6.007,2.222.806,3.023,3.031,3.026q11.816.011,23.632,0h27.582v4.726H213.58q-29.541,0-59.082,0c-4.834,0-7.77-2.9-7.771-7.682q-.005-49.111,0-98.223C146.73,460.921,149.566,457.848,153.816,457.751Z" transform="translate(-7.248 -21.828)" fill="#5cdfbe"/>
      <path id="Trazado_641325" data-name="Trazado 641325" d="M482.068,528.911q0-2.449,0-4.9l2.355-.118v-65.98a6.909,6.909,0,0,1,7.08,6.451c.041.588.021,1.181.021,1.772q0,31.381,0,62.762v2.06l2.361.144q0,8.227,0,16.455c-1.575.015-3.152-.016-4.723.062a1.3,1.3,0,0,1-1.481-1.041c-1.107-2.941-1.138-2.929,1.1-5.1,3.387-3.281,3.391-3.606.087-6.919-1.495-1.5-2.942-3.051-4.513-4.466A10.035,10.035,0,0,0,482.068,528.911Z" transform="translate(-210.216 -21.922)" fill="#43c6b4"/>
      <path id="Trazado_641326" data-name="Trazado 641326" d="M237.831,706.819h-42.89v-9.228C209.823,698.049,224.347,699.852,237.831,706.819Z" transform="translate(-36.431 -166.995)" fill="#aeb2c6"/>
      <path id="Trazado_641327" data-name="Trazado 641327" d="M353.134,726.97c.85,1.048.649,1.88-.4,2.709a27.518,27.518,0,0,0-2.314,2.279c-1.717,1.732-1.766,2.456-.3,4.445l-5.957.053c-.037-.727-.073-1.455-.117-2.318H332.315a34.846,34.846,0,0,1,.1-5.512c.106-.647,1.334-1.11,2.05-1.656Z" transform="translate(-119.542 -184.777)" fill="#43c6b4"/>
      <path id="Trazado_641328" data-name="Trazado 641328" d="M356.522,715.667h-18.67l8.051-4.558-.512-1.776,2.062-1.038c.017.636.045,1.273.05,1.909.019,2.374.78,3.122,3.2,3.132.883,0,1.765,0,2.647,0C355.709,713.337,355.709,713.337,356.522,715.667Z" transform="translate(-122.93 -173.474)" fill="#adb2c6"/>
      <path id="Trazado_641329" data-name="Trazado 641329" d="M498.444,729.592c-1.331-1.365-2.636-2.756-4.007-4.081-.575-.556-.546-.988-.369-1.765.581-2.55,2.087-3.324,4.521-2.9a16.3,16.3,0,0,0,2.492.064c.058,2.517.061,5.03-1.423,7.236A17.008,17.008,0,0,1,498.444,729.592Z" transform="translate(-217.414 -181.004)" fill="#44c4b3"/>
      <path id="Trazado_641330" data-name="Trazado 641330" d="M416.884,643.277l3.658,3.534c-1.2,1.119-2.344,2.194-3.495,3.265a2.615,2.615,0,0,0-.527,3.451,56.729,56.729,0,0,1,2.251,5.422,2.636,2.636,0,0,0,2.7,2.04c1.572-.019,3.145,0,4.833,0v4.731c-1.529,0-3.084-.01-4.639,0-1.785.015-2.357.552-2.957,2.263A48.78,48.78,0,0,1,416.627,673c-.8,1.664-.786,2.394.488,3.686,1.069,1.084,2.168,2.14,3.343,3.3l-3.776,3.345c-.843-.949-1.838-2.151-2.921-3.266-1.272-1.311-2.027-1.3-3.678-.514a47.187,47.187,0,0,1-5.158,2.123,2.712,2.712,0,0,0-2.151,2.917c.045,1.519.009,3.04.009,4.661h-4.73c0-1.571-.033-3.131.009-4.688a2.719,2.719,0,0,0-2.166-2.906,44.319,44.319,0,0,1-5.286-2.2,2.624,2.624,0,0,0-3.456.5c-1.083,1.139-2.182,2.262-3.334,3.454l-3.465-3.668c1.035-.935,2.192-1.917,3.275-2.975,1.389-1.357,1.4-2.087.572-3.794a47.767,47.767,0,0,1-2.081-5.019c-.6-1.7-1.169-2.228-2.975-2.242-1.517-.012-3.034,0-4.641,0v-4.73c1.61,0,3.173-.028,4.734.008a2.714,2.714,0,0,0,2.879-2.2,38.689,38.689,0,0,1,2.139-5.151,2.676,2.676,0,0,0-.475-3.584c-1.149-1.072-2.3-2.148-3.5-3.277l3.658-3.465c1.029,1.095,2.109,2.234,3.177,3.385a2.669,2.669,0,0,0,3.58.5,44.776,44.776,0,0,1,5.146-2.151c1.678-.6,2.195-1.183,2.208-3.005.011-1.514,0-3.028,0-4.616h4.73c0,1.532-.009,3.084,0,4.637.013,1.812.558,2.4,2.227,2.986a42.048,42.048,0,0,1,5.143,2.158,2.663,2.663,0,0,0,3.577-.518C414.8,645.537,415.859,644.387,416.884,643.277Zm-30.646,20.01a14.181,14.181,0,1,0,14.241-14.117A14.195,14.195,0,0,0,386.238,663.287Z" transform="translate(-145.117 -130.579)" fill="#fcc76a"/>
      <path id="Trazado_641331" data-name="Trazado 641331" d="M239.456,488.813l-1.862,4.334c-11.781-4.967-24.217-6.213-36.833-6.894v-4.721C214.02,482.179,227,483.563,239.456,488.813Z" transform="translate(-39.954 -36.222)" fill="#3c3348"/>
      <path id="Trazado_641332" data-name="Trazado 641332" d="M237.577,523.081c-11.833-4.989-24.242-6.205-36.792-6.893v-4.723c13.268.66,26.254,2.028,38.673,7.286-.323.769-.614,1.481-.921,2.185S237.907,522.346,237.577,523.081Z" transform="translate(-39.968 -54.34)" fill="#3c3348"/>
      <path id="Trazado_641333" data-name="Trazado 641333" d="M239.491,548.695l-1.875,4.331c-11.81-4.98-24.253-6.213-36.809-6.895v-4.724C214.084,542.065,227.072,543.447,239.491,548.695Z" transform="translate(-39.982 -72.462)" fill="#3c3348"/>
      <path id="Trazado_641334" data-name="Trazado 641334" d="M239.368,578.631c-.6,1.4-1.117,2.617-1.643,3.829a3.431,3.431,0,0,1-.317.46c-11.719-4.942-24.161-6.174-36.791-6.86v-4.725C213.969,572,226.96,573.371,239.368,578.631Z" transform="translate(-39.867 -90.577)" fill="#3c3348"/>
      <path id="Trazado_641335" data-name="Trazado 641335" d="M239.426,608.579l-1.871,4.332c-11.839-5-24.288-6.213-36.843-6.907,0-1.324-.007-2.542.005-3.76a8.794,8.794,0,0,1,.123-.961C214.049,601.962,227.043,603.317,239.426,608.579Z" transform="translate(-39.923 -108.704)" fill="#3c3348"/>
      <path id="Trazado_641336" data-name="Trazado 641336" d="M239.483,638.516c-.6,1.4-1.117,2.618-1.642,3.831a3.482,3.482,0,0,1-.318.465c-11.717-4.941-24.159-6.174-36.718-6.856v-4.724C214.08,631.889,227.067,633.272,239.483,638.516Z" transform="translate(-39.98 -126.83)" fill="#3c3348"/>
      <path id="Trazado_641337" data-name="Trazado 641337" d="M392.668,481.556v4.726c-12.5.652-24.935,1.894-36.791,6.88-.337-.754-.658-1.457-.966-2.166-.291-.67-.568-1.346-.913-2.167C366.342,483.606,379.32,482.2,392.668,481.556Z" transform="translate(-132.703 -36.237)" fill="#3c3348"/>
      <path id="Trazado_641338" data-name="Trazado 641338" d="M392.732,516.231c-12.648.634-25.039,1.911-36.86,6.868-.34-.762-.66-1.466-.969-2.176-.291-.669-.569-1.343-.912-2.156,12.354-5.22,25.331-6.633,38.74-7.273v4.737Z" transform="translate(-132.699 -54.357)" fill="#3c3348"/>
      <path id="Trazado_641339" data-name="Trazado 641339" d="M392.7,546.167c-12.6.649-25,1.9-36.861,6.881l-1.9-4.322c12.345-5.23,25.315-6.64,38.658-7.285.037.816.084,1.575.1,2.335C392.708,544.508,392.7,545.242,392.7,546.167Z" transform="translate(-132.663 -72.483)" fill="#3c3348"/>
      <path id="Trazado_641340" data-name="Trazado 641340" d="M353.947,578.669c12.5-5.206,25.431-6.652,38.574-7.246a4.46,4.46,0,0,1,.128.682c.009,1.275,0,2.549,0,4.022-12.466.662-24.908,1.884-36.817,6.894Z" transform="translate(-132.672 -90.63)" fill="#3c3348"/>
      <path id="Trazado_641341" data-name="Trazado 641341" d="M355.954,613.025l-1.791-4.16c5.129-3.5,27.489-7.79,38.545-7.375v4.644C380.293,606.787,367.852,608.019,355.954,613.025Z" transform="translate(-132.803 -108.811)" fill="#3c3348"/>
      <path id="Trazado_641342" data-name="Trazado 641342" d="M404.224,681.294a14.181,14.181,0,1,1,14.117,14.241A14.205,14.205,0,0,1,404.224,681.294Zm5.389-3.211a9.287,9.287,0,0,0,3.44,11.053,9.42,9.42,0,0,0,11.814-.892,9.325,9.325,0,0,0,1.605-11.7,9.362,9.362,0,0,0-16.859,1.535Z" transform="translate(-163.103 -148.586)" fill="#3c3348"/>
      <path id="Trazado_641343" data-name="Trazado 641343" d="M433.748,690.919a9.325,9.325,0,0,1-1.605,11.7,9.42,9.42,0,0,1-11.814.892,9.287,9.287,0,0,1-3.44-11.053c4.963-.391,9.926-.774,14.888-1.182C432.439,691.217,433.092,691.039,433.748,690.919Z" transform="translate(-170.379 -162.957)" fill="#aeb2c6"/>
      <path id="Trazado_641344" data-name="Trazado 641344" d="M434.734,683.833c-.657.12-1.309.3-1.971.353-4.962.408-9.925.791-14.888,1.182a9.362,9.362,0,0,1,16.859-1.535Z" transform="translate(-171.365 -155.87)" fill="#dfe2eb"/>
    </g>
  </g>
</svg>
