<svg id="Grupo_906651" data-name="Grupo 906651" xmlns="http://www.w3.org/2000/svg" width="86.874" height="58.917" viewBox="0 0 86.874 58.917">
  <path id="Trazado_631562" data-name="Trazado 631562" d="M404.162,425.107c-16.975,9.794-44.473,9.794-61.422,0-16.978-9.783-16.978-25.668,0-35.463,16.949-9.795,44.446-9.795,61.422,0C421.121,399.439,421.121,415.324,404.162,425.107Z" transform="translate(-330.007 -373.535)" opacity="0.2"/>
  <path id="Trazado_631563" data-name="Trazado 631563" d="M379.081,391.324c-5.526-5.059-17.986-5.121-23.564-.128-2.809,2.515-2.809,5.875-.029,8.432a11.986,11.986,0,0,0,1.648,1.224c5.517-3.351,14.757-3.3,20.218.116a11.033,11.033,0,0,0,1.675-1.208C381.857,397.233,381.871,393.881,379.081,391.324Z" transform="translate(-323.695 -372.135)" fill="#ba6000"/>
  <path id="Trazado_631564" data-name="Trazado 631564" d="M358.112,384.937l-9.208-5.375-8.891,5.084,9.183,5.37c-.183.159-.338.336-.494.494a13.73,13.73,0,0,0-3.1,4.458l-4.668-.029-8.375-.046-.03,7.25,13.051.067a9.828,9.828,0,0,0,.919,1.818,14.791,14.791,0,0,0,2.6,3.178l-9.248,5.267.98.584,7.7,4.495.183.094,9.241-5.269c.829.307,1.7.578,2.557.832a42.587,42.587,0,0,0,6.034,1.267l-.019,2.209-.014,5.32,12.551.072.032-5.328.015-2.206a44.425,44.425,0,0,0,6.045-1.2c.879-.244,1.728-.508,2.559-.806l9.185,5.381.174-.088,7.756-4.429.99-.566-9.192-5.371a15,15,0,0,0,2.637-3.151,10.593,10.593,0,0,0,.954-1.8l13.052.066.029-7.245-8.382-.048-4.668-.02a13.315,13.315,0,0,0-3.036-4.481c-.17-.171-.325-.35-.509-.505L405.964,385l-8.837-5.174-9.253,5.276a40.4,40.4,0,0,0-8.606-2.1l.047-7.539-12.555-.065-.042,7.536A41.232,41.232,0,0,0,358.112,384.937Zm26.549,18.086a11.034,11.034,0,0,1-1.675,1.208c-5.494,3.357-14.739,3.3-20.218-.116a11.986,11.986,0,0,1-1.648-1.224c-2.78-2.557-2.78-5.917.029-8.432,5.578-4.993,18.038-4.93,23.564.128C387.5,397.143,387.489,400.495,384.661,403.023Z" transform="translate(-329.326 -375.397)" fill="#ff9d26"/>
  <path id="Trazado_631565" data-name="Trazado 631565" d="M338.313,404.6l8.86,5.173-.074,10.87-8.847-5.171Z" transform="translate(-327.783 -367.52)" fill="#ff8400"/>
  <path id="Trazado_631566" data-name="Trazado 631566" d="M354.534,404.521l-.062,10.867-9.253,5.272.074-10.87Z" transform="translate(-325.903 -367.541)" fill="#ba6000"/>
  <path id="Trazado_631567" data-name="Trazado 631567" d="M371.858,412.176l-.043,10.861-12.565-.057.057-10.876Z" transform="translate(-322.118 -365.495)" fill="#ff8400"/>
  <path id="Trazado_631568" data-name="Trazado 631568" d="M361.159,406.62l-.062,10.861a41.553,41.553,0,0,1-8.591-2.094l.062-10.866A54.226,54.226,0,0,0,361.159,406.62Z" transform="translate(-323.938 -367.541)" fill="#ff8400"/>
  <path id="Trazado_631569" data-name="Trazado 631569" d="M345.594,396.528l-.052,7.031-5.672,3.233v.58l-7.39-.047.065-10.864Z" transform="translate(-329.34 -369.715)" fill="#ba6000"/>
  <path id="Trazado_631570" data-name="Trazado 631570" d="M342.819,396.514a13.978,13.978,0,0,0,3.524,5l-3.576,2.034Z" transform="translate(-326.565 -369.701)" fill="#ff8400"/>
  <path id="Trazado_631571" data-name="Trazado 631571" d="M385.188,410.026l-.042,10.861-9.188-5.373.046-10.87Z" transform="translate(-317.612 -367.508)" fill="#ff8400"/>
  <path id="Trazado_631572" data-name="Trazado 631572" d="M392.156,404.88l-.047,10.875-8.915,5.069.042-10.861Z" transform="translate(-315.66 -367.444)" fill="#ba6000"/>
  <path id="Trazado_631573" data-name="Trazado 631573" d="M377.834,404.652c.048-.71-.046,10.869-.046,10.869a38.749,38.749,0,0,1-8.62,2.006c0-.65.062-10.865.062-10.865A46.583,46.583,0,0,0,377.834,404.652Z" transform="translate(-319.443 -367.514)" fill="#ba6000"/>
  <path id="Trazado_631574" data-name="Trazado 631574" d="M398.9,396.816l-.066,10.87-7.385-.041v-.572l-5.648-3.3.047-7.022Z" transform="translate(-314.956 -369.637)" fill="#ff8400"/>
  <path id="Trazado_631575" data-name="Trazado 631575" d="M386.6,396.75l-.047,7.022-3.544-2.07A15.891,15.891,0,0,0,386.6,396.75Z" transform="translate(-315.708 -369.637)" fill="#ba6000"/>
  <path id="Trazado_631576" data-name="Trazado 631576" d="M392.329,382.96l-.047,10.318-5.663-.056a14.286,14.286,0,0,0-3.545-4.986Z" transform="translate(-315.692 -373.357)" fill="#ba6000"/>
  <path id="Trazado_631577" data-name="Trazado 631577" d="M347.62,388.051A15.036,15.036,0,0,0,344.028,393l-5.658-.03.067-10.291Z" transform="translate(-327.751 -373.432)" fill="#ba6000"/>
</svg>
