<svg xmlns="http://www.w3.org/2000/svg" width="92.549" height="59.849" viewBox="0 0 92.549 59.849">
  <g id="Grupo_901665" data-name="Grupo 901665" transform="translate(-12.26 -117.793)">
    <path id="Trazado_629168" data-name="Trazado 629168" d="M101.7,159.466l-60.782-35.1L12.26,140.912l60.784,35.095Z" transform="translate(0 -2.461)" opacity="0.3"/>
    <path id="Trazado_629169" data-name="Trazado 629169" d="M102.374,164.3v-1.177L12.26,144.431v1.182L73.5,180.975Z" transform="translate(0 -9.97)" fill="#0a8074"/>
    <path id="Trazado_629170" data-name="Trazado 629170" d="M102.374,153.153,41.137,117.792,12.26,134.461,73.5,169.819Z" transform="translate(0 0)" fill="#16a89f"/>
    <path id="Trazado_629171" data-name="Trazado 629171" d="M134.838,179.683l-3.326-1.913-3.884,2.238,3.319,1.919Z" transform="translate(-43.178 -22.448)" fill="#0a8074"/>
    <path id="Trazado_629172" data-name="Trazado 629172" d="M96.761,165.964,82.795,157.9l-16.351,9.436L80.416,175.4Z" transform="translate(-20.279 -15.011)" fill="#24d2c1"/>
    <path id="Trazado_629173" data-name="Trazado 629173" d="M46.239,137.633l-13.961-8.066L15.929,139l13.979,8.064Z" transform="translate(-1.373 -4.407)" fill="#24d2c1"/>
    <g id="Grupo_901625" data-name="Grupo 901625" transform="translate(79.629 157.844)">
      <path id="Trazado_629174" data-name="Trazado 629174" d="M122.772,186.52l-2.849-1.643.017.68,2.841,1.65Z" transform="translate(-119.924 -182.952)" fill="#535359"/>
      <path id="Trazado_629175" data-name="Trazado 629175" d="M127.8,184.432l-3.2,1.244-.126.678.01.688,3.329-1.923Z" transform="translate(-121.628 -182.785)" fill="#121214"/>
      <path id="Trazado_629176" data-name="Trazado 629176" d="M126.1,183.447l-2.843-1.647-3.331,1.926,2.849,1.643Z" transform="translate(-119.924 -181.8)" fill="#303033"/>
      <path id="Trazado_629177" data-name="Trazado 629177" d="M125.439,185.092l-.547-.311,1.431-.826.545.314Z" transform="translate(-121.783 -182.606)" fill="#e6dab0"/>
    </g>
    <g id="Grupo_901626" data-name="Grupo 901626" transform="translate(78.367 148.77)">
      <path id="Trazado_629178" data-name="Trazado 629178" d="M122.424,172.945l-4.516-2.581.019.683,4.512,2.584Z" transform="translate(-117.908 -168.446)" fill="#535359"/>
      <path id="Trazado_629179" data-name="Trazado 629179" d="M128.456,171.418l-3.205,1.24-.125.681.014.685,3.331-1.917Z" transform="translate(-120.609 -168.841)" fill="#121214"/>
      <path id="Trazado_629180" data-name="Trazado 629180" d="M125.754,169.877l-4.511-2.578-3.336,1.918,4.516,2.581Z" transform="translate(-117.908 -167.299)" fill="#303033"/>
      <path id="Trazado_629181" data-name="Trazado 629181" d="M126.092,172.083l-.548-.315,1.435-.831.544.324Z" transform="translate(-120.766 -168.66)" fill="#e6dab0"/>
    </g>
    <g id="Grupo_901627" data-name="Grupo 901627" transform="translate(43.925 127.598)">
      <path id="Trazado_629182" data-name="Trazado 629182" d="M65.716,138.184l-2.851-1.643.011.68,2.846,1.65Z" transform="translate(-62.865 -134.615)" fill="#535359"/>
      <path id="Trazado_629183" data-name="Trazado 629183" d="M70.744,136.093l-3.2,1.241-.122.682.007.686,3.329-1.921Z" transform="translate(-64.57 -134.448)" fill="#121214"/>
      <path id="Trazado_629184" data-name="Trazado 629184" d="M69.039,135.109,66.2,133.463l-3.331,1.925,2.851,1.643Z" transform="translate(-62.865 -133.463)" fill="#303033"/>
      <path id="Trazado_629185" data-name="Trazado 629185" d="M68.384,136.757l-.546-.317,1.43-.825.548.315Z" transform="translate(-64.726 -134.268)" fill="#e6dab0"/>
    </g>
    <g id="Grupo_901628" data-name="Grupo 901628" transform="translate(88.004 149.905)">
      <path id="Trazado_629186" data-name="Trazado 629186" d="M137.968,176.838l-4.66-2.692.019,1.126,4.654,2.69Z" transform="translate(-133.309 -170.997)" fill="#535359"/>
      <path id="Trazado_629187" data-name="Trazado 629187" d="M137.98,177.8l-4.66-2.691.012.523,4.654,2.69Z" transform="translate(-133.313 -171.357)" fill="#bcbec0"/>
      <path id="Trazado_629188" data-name="Trazado 629188" d="M146.2,173.41l-5.249,2.042-.2,1.11.012,1.124,5.453-3.15Z" transform="translate(-136.096 -170.721)" fill="#121214"/>
      <path id="Trazado_629189" data-name="Trazado 629189" d="M146.218,174.382l-5.451,3.147.005.522,5.453-3.15Z" transform="translate(-136.1 -171.085)" fill="#939598"/>
      <path id="Trazado_629190" data-name="Trazado 629190" d="M143.417,171.8l-4.66-2.689-5.448,3.149,4.66,2.692Z" transform="translate(-133.309 -169.113)" fill="#303033"/>
      <path id="Trazado_629191" data-name="Trazado 629191" d="M139.659,175.022l-1.529-.88,3.993-2.3,1.526.881Z" transform="translate(-135.113 -170.135)" fill="#e6dab0"/>
    </g>
    <g id="Grupo_901629" data-name="Grupo 901629" transform="translate(52.193 128.283)">
      <path id="Trazado_629192" data-name="Trazado 629192" d="M87.231,146.042,76.078,139.6l.011,1.116,11.161,6.446Z" transform="translate(-76.078 -136.443)" fill="#535359"/>
      <path id="Trazado_629193" data-name="Trazado 629193" d="M87.242,147l-11.154-6.442.006.516,11.161,6.446Z" transform="translate(-76.082 -136.802)" fill="#bcbec0"/>
      <path id="Trazado_629194" data-name="Trazado 629194" d="M99.353,144.862l-5.248,2.031-.2,1.12.02,1.116,5.449-3.142Z" transform="translate(-82.749 -138.415)" fill="#121214"/>
      <path id="Trazado_629195" data-name="Trazado 629195" d="M99.369,145.818l-5.456,3.148.013.52,5.449-3.142Z" transform="translate(-82.753 -138.772)" fill="#939598"/>
      <path id="Trazado_629196" data-name="Trazado 629196" d="M92.682,141.006l-11.158-6.448-5.447,3.152,11.153,6.446Z" transform="translate(-76.078 -134.558)" fill="#303033"/>
      <path id="Trazado_629197" data-name="Trazado 629197" d="M92.807,146.47l-1.537-.884,4-2.3,1.533.882Z" transform="translate(-81.764 -137.824)" fill="#e6dab0"/>
    </g>
    <g id="Grupo_901630" data-name="Grupo 901630" transform="translate(62.682 157.368)">
      <path id="Trazado_629198" data-name="Trazado 629198" d="M97.5,188.757l-4.654-2.688.026,1.121,4.656,2.693Z" transform="translate(-92.841 -182.922)" fill="#303033"/>
      <path id="Trazado_629199" data-name="Trazado 629199" d="M105.739,185.327l-5.249,2.038-.21,1.114.027,1.127,5.446-3.151Z" transform="translate(-95.625 -182.644)"/>
      <path id="Trazado_629200" data-name="Trazado 629200" d="M102.955,183.722l-4.667-2.683-5.447,3.148,4.654,2.688Z" transform="translate(-92.841 -181.039)" fill="#121214"/>
      <path id="Trazado_629201" data-name="Trazado 629201" d="M99.358,184.372l-1.532-.882,2.286-1.318,1.536.879Z" transform="translate(-94.707 -181.463)" fill="#e6dab0"/>
    </g>
    <g id="Grupo_901631" data-name="Grupo 901631" transform="translate(70.306 150.885)">
      <path id="Trazado_629202" data-name="Trazado 629202" d="M111.536,181.455l-6.512-3.757.032,1.569,6.5,3.762Z" transform="translate(-105.024 -173.305)" fill="#303033"/>
      <path id="Trazado_629203" data-name="Trazado 629203" d="M123.043,176.674l-7.329,2.847-.282,1.552.021,1.573,7.611-4.4Z" transform="translate(-108.919 -172.922)"/>
      <path id="Trazado_629204" data-name="Trazado 629204" d="M119.148,174.43l-6.511-3.752-7.612,4.393,6.512,3.757Z" transform="translate(-105.024 -170.678)" fill="#121214"/>
    </g>
    <g id="Grupo_901632" data-name="Grupo 901632" transform="translate(39.956 133.86)">
      <path id="Trazado_629205" data-name="Trazado 629205" d="M63.035,154.248l-6.513-3.756.03,1.573,6.509,3.76Z" transform="translate(-56.521 -146.098)" fill="#303033"/>
      <path id="Trazado_629206" data-name="Trazado 629206" d="M74.548,149.475l-7.333,2.84-.284,1.553.025,1.577,7.612-4.4Z" transform="translate(-60.417 -145.718)"/>
      <path id="Trazado_629207" data-name="Trazado 629207" d="M70.652,147.228l-6.523-3.757-7.607,4.394,6.513,3.756Z" transform="translate(-56.521 -143.47)" fill="#121214"/>
    </g>
    <g id="Grupo_901633" data-name="Grupo 901633" transform="translate(68.22 139.342)">
      <path id="Trazado_629208" data-name="Trazado 629208" d="M106.227,159.75l-4.536-2.619.015,1.093,4.54,2.623Z" transform="translate(-101.691 -154.065)" fill="#303033"/>
      <path id="Trazado_629209" data-name="Trazado 629209" d="M114.253,156.411l-5.117,1.985-.2,1.084.019,1.1,5.311-3.064Z" transform="translate(-104.404 -153.796)"/>
      <path id="Trazado_629210" data-name="Trazado 629210" d="M111.54,154.847,107,152.232l-5.307,3.065,4.536,2.619Z" transform="translate(-101.691 -152.232)" fill="#121214"/>
    </g>
    <g id="Grupo_901634" data-name="Grupo 901634" transform="translate(38.506 144.347)">
      <path id="Trazado_629211" data-name="Trazado 629211" d="M58.863,167.944,54.2,165.257l.016,1.121,4.661,2.688Z" transform="translate(-54.204 -162.111)" fill="#303033"/>
      <path id="Trazado_629212" data-name="Trazado 629212" d="M67.1,164.526l-5.249,2.031-.2,1.114.018,1.121,5.452-3.144Z" transform="translate(-56.991 -161.837)"/>
      <path id="Trazado_629213" data-name="Trazado 629213" d="M64.317,162.918l-4.659-2.689L54.2,163.375l4.659,2.688Z" transform="translate(-54.204 -160.229)" fill="#121214"/>
      <path id="Trazado_629214" data-name="Trazado 629214" d="M60.716,163.561l-1.527-.892,2.285-1.316,1.529.891Z" transform="translate(-56.07 -160.649)" fill="#e6dab0"/>
    </g>
    <g id="Grupo_901635" data-name="Grupo 901635" transform="translate(70.301 160.736)">
      <path id="Trazado_629215" data-name="Trazado 629215" d="M107.867,193.044l-2.851-1.64.015.688,2.845,1.641Z" transform="translate(-105.016 -188.286)" fill="#303033"/>
      <path id="Trazado_629216" data-name="Trazado 629216" d="M114.963,189.049l-4.523,2.011-.867,1.1.009.689,5.4-3.112Z" transform="translate(-106.722 -187.405)"/>
      <path id="Trazado_629217" data-name="Trazado 629217" d="M113.258,188.066l-2.846-1.644-5.4,3.118,2.851,1.64Z" transform="translate(-105.016 -186.421)" fill="#121214"/>
    </g>
    <g id="Grupo_901636" data-name="Grupo 901636" transform="translate(35.74 118.533)">
      <path id="Trazado_629218" data-name="Trazado 629218" d="M52.631,125.6l-2.848-1.646.014.688,2.845,1.643Z" transform="translate(-49.783 -120.838)" fill="#303033"/>
      <path id="Trazado_629219" data-name="Trazado 629219" d="M59.729,121.6,55.2,123.609l-.861,1.11.012.685,5.395-3.114Z" transform="translate(-51.486 -119.959)"/>
      <path id="Trazado_629220" data-name="Trazado 629220" d="M58.026,120.62l-2.845-1.644-5.4,3.114,2.848,1.646Z" transform="translate(-49.783 -118.976)" fill="#121214"/>
    </g>
    <g id="Grupo_901637" data-name="Grupo 901637" transform="translate(78.978 142.765)">
      <path id="Trazado_629221" data-name="Trazado 629221" d="M132.151,167.862l4.374-2.517-.028,1.049-4.362,2.524Z" transform="translate(-123.843 -160.562)" fill="#303033"/>
      <path id="Trazado_629222" data-name="Trazado 629222" d="M118.9,161.73l6.952,3.084,1.336,1.7-.016,1.056-8.292-4.782Z" transform="translate(-118.884 -159.209)"/>
      <path id="Trazado_629223" data-name="Trazado 629223" d="M118.916,160.222l4.371-2.521,8.29,4.783L127.2,165Z" transform="translate(-118.896 -157.701)" fill="#121214"/>
    </g>
    <g id="Grupo_901638" data-name="Grupo 901638" transform="translate(38.956 121.3)">
      <path id="Trazado_629224" data-name="Trazado 629224" d="M59.595,131.111l-4.67-2.694.026,1.126,4.655,2.691Z" transform="translate(-54.924 -125.276)" fill="#303033"/>
      <path id="Trazado_629225" data-name="Trazado 629225" d="M67.835,127.69l-5.248,2.031-.2,1.118.011,1.123,5.454-3.148Z" transform="translate(-57.718 -125.004)"/>
      <path id="Trazado_629226" data-name="Trazado 629226" d="M65.042,126.084,60.378,123.4l-5.453,3.141,4.67,2.694Z" transform="translate(-54.924 -123.398)" fill="#121214"/>
      <path id="Trazado_629227" data-name="Trazado 629227" d="M61.452,126.723l-1.526-.878,2.282-1.319,1.532.88Z" transform="translate(-56.796 -123.82)" fill="#e6dab0"/>
    </g>
    <g id="Grupo_901639" data-name="Grupo 901639" transform="translate(33.052 141.758)">
      <path id="Trazado_629228" data-name="Trazado 629228" d="M48.335,162.728l-2.847-1.638.012.677,2.844,1.65Z" transform="translate(-45.488 -157.963)" fill="#303033"/>
      <path id="Trazado_629229" data-name="Trazado 629229" d="M55.435,158.732,50.9,160.739l-.862,1.107.009.689,5.394-3.116Z" transform="translate(-47.191 -157.081)"/>
      <path id="Trazado_629230" data-name="Trazado 629230" d="M53.732,157.744l-2.85-1.651-5.394,3.127,2.847,1.638Z" transform="translate(-45.488 -156.093)" fill="#121214"/>
    </g>
    <g id="Grupo_901640" data-name="Grupo 901640" transform="translate(29.341 139.59)">
      <path id="Trazado_629231" data-name="Trazado 629231" d="M42.405,159.25l-2.847-1.644.01.691,2.847,1.638Z" transform="translate(-39.558 -154.491)" fill="#303033"/>
      <path id="Trazado_629232" data-name="Trazado 629232" d="M49.5,155.255l-4.525,2.008-.865,1.107.01.685,5.4-3.111Z" transform="translate(-41.261 -153.611)"/>
      <path id="Trazado_629233" data-name="Trazado 629233" d="M47.8,154.272l-2.845-1.644-5.392,3.115,2.847,1.644Z" transform="translate(-39.558 -152.627)" fill="#121214"/>
    </g>
    <path id="Trazado_629234" data-name="Trazado 629234" d="M119.7,190.7l-1.332-.769-4.2,2.424,1.338.77Z" transform="translate(-38.138 -27)" fill="#0a8074"/>
    <g id="Grupo_901641" data-name="Grupo 901641" transform="translate(49.618 142.526)">
      <path id="Trazado_629235" data-name="Trazado 629235" d="M82.645,175.013l-10.681-6.171.046,2.578,10.677,6.162Z" transform="translate(-71.963 -161.632)" fill="#535359"/>
      <path id="Trazado_629236" data-name="Trazado 629236" d="M82.678,177.223,72,171.055l.024,1.194L82.7,178.41Z" transform="translate(-71.977 -162.46)" fill="#bcbec0"/>
      <path id="Trazado_629237" data-name="Trazado 629237" d="M101.53,167.178,89.5,171.842l-.467,2.548.042,2.569,12.484-7.218Z" transform="translate(-78.352 -161.009)" fill="#121214"/>
      <path id="Trazado_629238" data-name="Trazado 629238" d="M101.565,169.368l-12.5,7.224.023,1.188,12.484-7.218Z" transform="translate(-78.364 -161.829)" fill="#939598"/>
      <path id="Trazado_629239" data-name="Trazado 629239" d="M95.142,163.488l-10.687-6.169L71.963,164.53,82.645,170.7Z" transform="translate(-71.963 -157.319)" fill="#303033"/>
      <path id="Trazado_629240" data-name="Trazado 629240" d="M84.193,169.477l-3.513-2.021,9.152-5.284,3.521,2.018Z" transform="translate(-75.226 -159.136)" fill="#535359"/>
    </g>
    <g id="Grupo_901642" data-name="Grupo 901642" transform="translate(17.735 125.16)">
      <path id="Trazado_629241" data-name="Trazado 629241" d="M31.69,147.261l-10.68-6.166.047,2.572,10.676,6.172Z" transform="translate(-21.01 -133.881)" fill="#535359"/>
      <path id="Trazado_629242" data-name="Trazado 629242" d="M31.73,149.466,21.046,143.3l.024,1.195,10.676,6.172Z" transform="translate(-21.023 -134.705)" fill="#bcbec0"/>
      <path id="Trazado_629243" data-name="Trazado 629243" d="M50.576,139.429l-12.03,4.66-.469,2.548.043,2.578L50.612,142Z" transform="translate(-27.398 -133.258)" fill="#121214"/>
      <path id="Trazado_629244" data-name="Trazado 629244" d="M50.612,141.621,38.12,148.839l.016,1.2,12.491-7.218Z" transform="translate(-27.414 -134.078)" fill="#939598"/>
      <path id="Trazado_629245" data-name="Trazado 629245" d="M44.189,135.738l-10.68-6.171-12.5,7.214,10.68,6.166Z" transform="translate(-21.01 -129.566)" fill="#303033"/>
    </g>
    <g id="Grupo_901643" data-name="Grupo 901643" transform="translate(57.641 138.723)">
      <path id="Trazado_629246" data-name="Trazado 629246" d="M86.55,155.326a1.6,1.6,0,0,1-1.46,0,.445.445,0,0,1,0-.845,1.637,1.637,0,0,1,1.46,0A.447.447,0,0,1,86.55,155.326Z" transform="translate(-84.784 -152.39)" opacity="0.3"/>
      <path id="Trazado_629247" data-name="Trazado 629247" d="M85.117,152.012v1.982h0a.426.426,0,0,0,.247.341,1.307,1.307,0,0,0,1.176,0,.423.423,0,0,0,.245-.341h0v-1.982Z" transform="translate(-84.909 -151.531)" fill="#ba6000"/>
      <path id="Trazado_629248" data-name="Trazado 629248" d="M86.544,152.059a1.3,1.3,0,0,1-1.176,0,.357.357,0,0,1,0-.675,1.291,1.291,0,0,1,1.176,0C86.874,151.572,86.874,151.876,86.544,152.059Z" transform="translate(-84.912 -151.242)" fill="#ff8400"/>
    </g>
    <g id="Grupo_901644" data-name="Grupo 901644" transform="translate(55.682 139.783)">
      <path id="Trazado_629249" data-name="Trazado 629249" d="M83.422,157.009a1.606,1.606,0,0,1-1.465,0,.447.447,0,0,1,0-.845,1.657,1.657,0,0,1,1.465,0A.448.448,0,0,1,83.422,157.009Z" transform="translate(-81.654 -154.08)" opacity="0.3"/>
      <path id="Trazado_629250" data-name="Trazado 629250" d="M81.992,153.7v1.977h0a.411.411,0,0,0,.246.344,1.293,1.293,0,0,0,1.173,0,.4.4,0,0,0,.247-.344h0V153.7Z" transform="translate(-81.781 -153.221)" fill="#ba6000"/>
      <path id="Trazado_629251" data-name="Trazado 629251" d="M83.413,153.746a1.285,1.285,0,0,1-1.173,0c-.324-.181-.324-.482,0-.667a1.27,1.27,0,0,1,1.173,0C83.743,153.264,83.74,153.565,83.413,153.746Z" transform="translate(-81.782 -152.935)" fill="#ff8400"/>
    </g>
    <g id="Grupo_901645" data-name="Grupo 901645" transform="translate(53.618 141.027)">
      <path id="Trazado_629252" data-name="Trazado 629252" d="M80.114,158.995a1.59,1.59,0,0,1-1.458,0,.445.445,0,0,1,0-.843,1.6,1.6,0,0,1,1.458,0A.447.447,0,0,1,80.114,158.995Z" transform="translate(-78.354 -156.066)" opacity="0.3"/>
      <path id="Trazado_629253" data-name="Trazado 629253" d="M78.68,155.686v1.984h0a.408.408,0,0,0,.252.334,1.3,1.3,0,0,0,1.173,0,.408.408,0,0,0,.243-.334h0v-1.984Z" transform="translate(-78.476 -155.209)" fill="#ba6000"/>
      <path id="Trazado_629254" data-name="Trazado 629254" d="M80.109,155.735a1.27,1.27,0,0,1-1.173,0c-.329-.185-.329-.489,0-.671a1.3,1.3,0,0,1,1.173,0A.353.353,0,0,1,80.109,155.735Z" transform="translate(-78.48 -154.924)" fill="#ff8400"/>
    </g>
    <g id="Grupo_901646" data-name="Grupo 901646" transform="translate(51.656 142.077)">
      <path id="Trazado_629255" data-name="Trazado 629255" d="M76.983,160.678a1.6,1.6,0,0,1-1.462,0,.443.443,0,0,1,0-.838,1.581,1.581,0,0,1,1.462,0A.442.442,0,0,1,76.983,160.678Z" transform="translate(-75.22 -157.747)" opacity="0.3"/>
      <path id="Trazado_629256" data-name="Trazado 629256" d="M75.56,157.374v1.975h0a.4.4,0,0,0,.245.34,1.309,1.309,0,0,0,1.18,0,.411.411,0,0,0,.242-.34h0v-1.975Z" transform="translate(-75.347 -156.891)" fill="#ba6000"/>
      <path id="Trazado_629257" data-name="Trazado 629257" d="M76.982,157.425a1.323,1.323,0,0,1-1.18,0c-.332-.191-.332-.492,0-.681a1.294,1.294,0,0,1,1.18,0A.361.361,0,0,1,76.982,157.425Z" transform="translate(-75.345 -156.602)" fill="#ff8400"/>
    </g>
    <g id="Grupo_901647" data-name="Grupo 901647" transform="translate(35.106 121.842)">
      <path id="Trazado_629258" data-name="Trazado 629258" d="M50.535,128.337a1.616,1.616,0,0,1-1.467,0,.449.449,0,0,1,0-.845,1.635,1.635,0,0,1,1.467,0C50.938,127.73,50.938,128.108,50.535,128.337Z" transform="translate(-48.77 -125.407)" opacity="0.3"/>
      <path id="Trazado_629259" data-name="Trazado 629259" d="M49.106,125.031v1.98h0a.409.409,0,0,0,.247.335,1.3,1.3,0,0,0,1.174,0,.4.4,0,0,0,.243-.335h0v-1.98Z" transform="translate(-48.896 -124.551)" fill="#ba6000"/>
      <path id="Trazado_629260" data-name="Trazado 629260" d="M50.529,125.079a1.26,1.26,0,0,1-1.174,0c-.325-.184-.325-.487,0-.676a1.309,1.309,0,0,1,1.174,0C50.856,124.592,50.856,124.9,50.529,125.079Z" transform="translate(-48.898 -124.264)" fill="#ff8400"/>
    </g>
    <g id="Grupo_901648" data-name="Grupo 901648" transform="translate(33.146 122.898)">
      <path id="Trazado_629261" data-name="Trazado 629261" d="M47.4,130.029a1.6,1.6,0,0,1-1.461,0,.446.446,0,0,1,0-.845,1.631,1.631,0,0,1,1.461,0A.446.446,0,0,1,47.4,130.029Z" transform="translate(-45.638 -127.096)" opacity="0.3"/>
      <path id="Trazado_629262" data-name="Trazado 629262" d="M45.986,126.718V128.7h0a.4.4,0,0,0,.242.328,1.3,1.3,0,0,0,1.178,0,.406.406,0,0,0,.238-.328h0v-1.987Z" transform="translate(-45.768 -126.238)" fill="#ba6000"/>
      <path id="Trazado_629263" data-name="Trazado 629263" d="M47.4,126.771a1.321,1.321,0,0,1-1.178,0c-.329-.189-.329-.493,0-.679a1.3,1.3,0,0,1,1.178,0A.36.36,0,0,1,47.4,126.771Z" transform="translate(-45.765 -125.951)" fill="#ff8400"/>
    </g>
    <g id="Grupo_901649" data-name="Grupo 901649" transform="translate(76.423 145.41)">
      <path id="Trazado_629264" data-name="Trazado 629264" d="M116.568,166a1.6,1.6,0,0,1-1.464,0,.443.443,0,0,1,0-.841,1.591,1.591,0,0,1,1.464,0A.443.443,0,0,1,116.568,166Z" transform="translate(-114.801 -163.072)" opacity="0.3"/>
      <path id="Trazado_629265" data-name="Trazado 629265" d="M115.151,162.7v1.976h0a.433.433,0,0,0,.242.344,1.334,1.334,0,0,0,1.176,0,.429.429,0,0,0,.245-.344h0V162.7Z" transform="translate(-114.932 -162.217)" fill="#ba6000"/>
      <path id="Trazado_629266" data-name="Trazado 629266" d="M116.569,162.744a1.271,1.271,0,0,1-1.176,0,.358.358,0,0,1,0-.676,1.317,1.317,0,0,1,1.176,0C116.9,162.258,116.895,162.558,116.569,162.744Z" transform="translate(-114.932 -161.929)" fill="#ff8400"/>
    </g>
    <g id="Grupo_901650" data-name="Grupo 901650" transform="translate(74.467 146.464)">
      <path id="Trazado_629267" data-name="Trazado 629267" d="M113.437,167.691a1.628,1.628,0,0,1-1.459,0,.447.447,0,0,1,0-.847,1.608,1.608,0,0,1,1.459,0C113.85,167.081,113.85,167.46,113.437,167.691Z" transform="translate(-111.674 -164.756)" opacity="0.3"/>
      <path id="Trazado_629268" data-name="Trazado 629268" d="M112.011,164.378v1.979h0a.423.423,0,0,0,.25.342,1.3,1.3,0,0,0,1.175,0,.411.411,0,0,0,.238-.342h0v-1.979Z" transform="translate(-111.8 -163.899)" fill="#ba6000"/>
      <path id="Trazado_629269" data-name="Trazado 629269" d="M113.438,164.431a1.281,1.281,0,0,1-1.175,0,.358.358,0,0,1,0-.68,1.308,1.308,0,0,1,1.175,0A.358.358,0,0,1,113.438,164.431Z" transform="translate(-111.803 -163.612)" fill="#ff8400"/>
    </g>
    <g id="Grupo_901651" data-name="Grupo 901651" transform="translate(71.676 134.561)">
      <path id="Trazado_629270" data-name="Trazado 629270" d="M108.979,148.668a1.625,1.625,0,0,1-1.458,0,.446.446,0,0,1,0-.847,1.6,1.6,0,0,1,1.458,0A.448.448,0,0,1,108.979,148.668Z" transform="translate(-107.214 -145.733)" opacity="0.3"/>
      <path id="Trazado_629271" data-name="Trazado 629271" d="M107.553,145.357v1.981h0a.425.425,0,0,0,.243.337,1.311,1.311,0,0,0,1.182,0,.408.408,0,0,0,.24-.337h0v-1.981Z" transform="translate(-107.341 -144.877)" fill="#ba6000"/>
      <path id="Trazado_629272" data-name="Trazado 629272" d="M108.981,145.41a1.3,1.3,0,0,1-1.182,0,.363.363,0,0,1,0-.682,1.339,1.339,0,0,1,1.182,0A.362.362,0,0,1,108.981,145.41Z" transform="translate(-107.344 -144.59)" fill="#ff8400"/>
    </g>
    <g id="Grupo_901652" data-name="Grupo 901652" transform="translate(69.721 135.616)">
      <path id="Trazado_629273" data-name="Trazado 629273" d="M105.846,150.358a1.6,1.6,0,0,1-1.45,0c-.408-.241-.408-.617,0-.848a1.564,1.564,0,0,1,1.45,0C106.257,149.741,106.257,150.121,105.846,150.358Z" transform="translate(-104.09 -147.42)" opacity="0.3"/>
      <path id="Trazado_629274" data-name="Trazado 629274" d="M104.416,147.044v1.98h0a.42.42,0,0,0,.253.339,1.317,1.317,0,0,0,1.176,0,.414.414,0,0,0,.24-.339h0v-1.98Z" transform="translate(-104.212 -146.564)" fill="#ba6000"/>
      <path id="Trazado_629275" data-name="Trazado 629275" d="M105.849,147.1a1.309,1.309,0,0,1-1.176,0,.357.357,0,0,1,0-.68,1.3,1.3,0,0,1,1.176,0A.36.36,0,0,1,105.849,147.1Z" transform="translate(-104.216 -146.277)" fill="#ff8400"/>
    </g>
    <g id="Grupo_901653" data-name="Grupo 901653" transform="translate(54.188 123.923)">
      <path id="Trazado_629276" data-name="Trazado 629276" d="M81.028,131.671a1.588,1.588,0,0,1-1.457,0,.446.446,0,0,1,0-.845,1.614,1.614,0,0,1,1.457,0A.446.446,0,0,1,81.028,131.671Z" transform="translate(-79.266 -128.735)" opacity="0.3"/>
      <path id="Trazado_629277" data-name="Trazado 629277" d="M79.6,128.355v1.981h0a.429.429,0,0,0,.244.342,1.311,1.311,0,0,0,1.176,0,.416.416,0,0,0,.243-.342h0v-1.981Z" transform="translate(-79.392 -127.876)" fill="#ba6000"/>
      <path id="Trazado_629278" data-name="Trazado 629278" d="M81.024,128.41a1.319,1.319,0,0,1-1.176,0,.361.361,0,0,1,0-.682,1.315,1.315,0,0,1,1.176,0A.359.359,0,0,1,81.024,128.41Z" transform="translate(-79.393 -127.589)" fill="#ff8400"/>
    </g>
    <g id="Grupo_901654" data-name="Grupo 901654" transform="translate(52.227 124.981)">
      <path id="Trazado_629279" data-name="Trazado 629279" d="M77.9,133.355a1.6,1.6,0,0,1-1.461,0c-.409-.23-.409-.608,0-.845a1.64,1.64,0,0,1,1.461,0A.447.447,0,0,1,77.9,133.355Z" transform="translate(-76.132 -130.425)" opacity="0.3"/>
      <path id="Trazado_629280" data-name="Trazado 629280" d="M76.477,130.041v1.985h0a.425.425,0,0,0,.24.339,1.3,1.3,0,0,0,1.179,0,.42.42,0,0,0,.245-.339h0v-1.985Z" transform="translate(-76.261 -129.565)" fill="#ba6000"/>
      <path id="Trazado_629281" data-name="Trazado 629281" d="M77.9,130.1a1.278,1.278,0,0,1-1.179,0,.357.357,0,0,1,0-.675,1.308,1.308,0,0,1,1.179,0A.355.355,0,0,1,77.9,130.1Z" transform="translate(-76.261 -129.281)" fill="#ff8400"/>
    </g>
    <g id="Grupo_901655" data-name="Grupo 901655" transform="translate(64.6 149.573)">
      <path id="Trazado_629282" data-name="Trazado 629282" d="M95.9,194.3a5.733,5.733,0,0,1,2.594-4.49l36.774-21.231.841.5L98.5,195.8a2.3,2.3,0,0,1-1.091.344l-.071.238-.869-.561A1.959,1.959,0,0,1,95.9,194.3Z" transform="translate(-95.905 -168.582)" fill="#939598"/>
      <path id="Trazado_629283" data-name="Trazado 629283" d="M99.843,190.606l36.773-21.232v5.986L99.84,196.593c-1.43.829-2.594.155-2.594-1.5A5.728,5.728,0,0,1,99.843,190.606Z" transform="translate(-96.407 -168.878)" fill="#bcbec0"/>
    </g>
    <g id="Grupo_901656" data-name="Grupo 901656" transform="translate(85.933 156.676)">
      <path id="Trazado_629284" data-name="Trazado 629284" d="M130.59,189.095l-.006,3.283-.582-.348,0-3.284Z" transform="translate(-129.999 -183.231)" fill="#121214"/>
      <path id="Trazado_629285" data-name="Trazado 629285" d="M140.115,180.278l-4,2.926L130.59,185.8l-.591-.35,9.528-5.514Z" transform="translate(-129.999 -179.933)" fill="#535359"/>
      <path id="Trazado_629286" data-name="Trazado 629286" d="M140.465,180.485l0,3.3-9.533,5.5L130.94,186Z" transform="translate(-130.349 -180.14)" fill="#303033"/>
      <path id="Trazado_629287" data-name="Trazado 629287" d="M140.089,182.708v1.576l-7.639,4.421v-1.57Z" transform="translate(-130.916 -180.972)" fill="#121214"/>
    </g>
    <g id="Grupo_901657" data-name="Grupo 901657" transform="translate(76.83 163.742)">
      <path id="Trazado_629288" data-name="Trazado 629288" d="M116.043,197.48l-.007,3.282-.579-.347-.006-3.287Z" transform="translate(-115.451 -193.434)" fill="#121214"/>
      <path id="Trazado_629289" data-name="Trazado 629289" d="M122.434,191.568l-4,2.925-2.388.778-.592-.353,6.391-3.693Z" transform="translate(-115.451 -191.225)" fill="#535359"/>
      <path id="Trazado_629290" data-name="Trazado 629290" d="M122.784,191.772l0,3.3-6.4,3.69.007-3.282Z" transform="translate(-115.801 -191.43)" fill="#303033"/>
      <path id="Trazado_629291" data-name="Trazado 629291" d="M122.406,193.994v1.579l-4.5,2.606,0-1.572Z" transform="translate(-116.368 -192.261)" fill="#121214"/>
    </g>
  </g>
</svg>
