<svg xmlns="http://www.w3.org/2000/svg" width="92.499" height="82.914" viewBox="0 0 92.499 82.914">
  <g id="Grupo_901666" data-name="Grupo 901666" transform="translate(-27.785 -270.479)">
    <path id="Trazado_629292" data-name="Trazado 629292" d="M82.078,366.365,27.785,335.018l38.206-22.075,54.293,31.345Z" transform="translate(0 -12.971)" opacity="0.3"/>
    <g id="Grupo_901659" data-name="Grupo 901659" transform="translate(29.868 270.478)">
      <path id="Trazado_629293" data-name="Trazado 629293" d="M82.993,361.37,30.784,331.227v-30.7l52.209,30.144Z" transform="translate(-30.784 -279.658)" fill="#303033"/>
      <path id="Trazado_629294" data-name="Trazado 629294" d="M41.507,310.935,32.258,305.6v-1.83l9.249,5.34Z" transform="translate(-31.234 -280.647)" fill="#3576ab"/>
      <path id="Trazado_629295" data-name="Trazado 629295" d="M82.993,321.494,30.784,291.35l36.123-20.871,52.21,30.143Z" transform="translate(-30.784 -270.478)" fill="#535359"/>
      <path id="Trazado_629296" data-name="Trazado 629296" d="M57.57,307.764,40.189,297.728l9.843-5.682,17.383,10.035Z" transform="translate(-33.657 -277.067)" fill="#303033"/>
      <path id="Trazado_629297" data-name="Trazado 629297" d="M99.751,332.117,82.369,322.081l9.843-5.682,17.382,10.035Z" transform="translate(-46.541 -284.506)" fill="#303033"/>
      <path id="Trazado_629298" data-name="Trazado 629298" d="M85.888,291.393,68.506,281.356l9.842-5.681L95.731,285.71Z" transform="translate(-42.307 -272.066)" fill="#303033"/>
      <path id="Trazado_629299" data-name="Trazado 629299" d="M128.068,315.747l-17.381-10.038,9.842-5.681,17.384,10.035Z" transform="translate(-55.192 -279.505)" fill="#303033"/>
      <path id="Trazado_629300" data-name="Trazado 629300" d="M105.955,365.447v-30.7l36.124-20.873v30.7Z" transform="translate(-53.746 -283.735)" fill="#121214"/>
      <path id="Trazado_629301" data-name="Trazado 629301" d="M150.657,352.738l-10.477,6.049v-9.774l10.477-6.049Z" transform="translate(-64.201 -292.62)" fill="#303033"/>
      <path id="Trazado_629302" data-name="Trazado 629302" d="M150.312,346.047l-9.246,5.338v-.758l9.246-5.338Z" transform="translate(-64.471 -293.33)"/>
      <path id="Trazado_629303" data-name="Trazado 629303" d="M150.312,355.115l-9.246,5.337v-.758l9.246-5.338Z" transform="translate(-64.471 -296.1)"/>
      <path id="Trazado_629304" data-name="Trazado 629304" d="M150.312,352.186l-9.246,5.338v-.758l9.246-5.339Z" transform="translate(-64.471 -295.205)"/>
      <path id="Trazado_629305" data-name="Trazado 629305" d="M150.312,349.258l-9.246,5.339v-.759l9.246-5.338Z" transform="translate(-64.471 -294.311)"/>
    </g>
    <path id="Trazado_629306" data-name="Trazado 629306" d="M97.55,368.156,84.458,360.6V336.19l13.092,7.558Z" transform="translate(-17.311 -20.072)" fill="#535359"/>
    <path id="Trazado_629307" data-name="Trazado 629307" d="M96.625,352.281l-9.6-5.542v-6.176l9.6,5.54Z" transform="translate(-18.096 -21.408)" fill="#3576ab"/>
    <path id="Trazado_629308" data-name="Trazado 629308" d="M95.615,373.218l-5.991-3.461v-6.62l5.991,3.461Z" transform="translate(-18.89 -28.304)" fill="#303033"/>
    <path id="Trazado_629309" data-name="Trazado 629309" d="M96.625,357.179l-9.6-5.54v-.966l9.6,5.541Z" transform="translate(-18.096 -24.496)" fill="#3576ab"/>
    <path id="Trazado_629310" data-name="Trazado 629310" d="M89.64,340.736,85.3,338.227v-.437L89.64,340.3Z" transform="translate(-17.568 -20.561)" fill="#bcbec0"/>
    <path id="Trazado_629311" data-name="Trazado 629311" d="M37.725,334.353l-5.467-3.15V308.456l5.467,3.145Z" transform="translate(-1.366 -11.601)" fill="#535359"/>
    <path id="Trazado_629312" data-name="Trazado 629312" d="M36.539,318.34l-1.236-.714v-1.034l1.236.714Z" transform="translate(-2.296 -14.086)" fill="#ff8400"/>
    <path id="Trazado_629313" data-name="Trazado 629313" d="M36.539,330.086l-1.236-.714v-1.035l1.236.714Z" transform="translate(-2.296 -17.674)" fill="#ff8400"/>
    <path id="Trazado_629314" data-name="Trazado 629314" d="M34.13,327.482l-1.06-.612V312.327l1.059.613Z" transform="translate(-1.614 -12.783)" fill="#121214"/>
    <path id="Trazado_629315" data-name="Trazado 629315" d="M38.968,330.29l-1.059-.612V315.137l1.059.61Z" transform="translate(-3.093 -13.641)" fill="#121214"/>
    <path id="Trazado_629316" data-name="Trazado 629316" d="M37.454,341.82l-4.5-2.6v-2.2l4.5,2.591Z" transform="translate(-1.578 -20.327)" fill="#121214"/>
    <g id="Grupo_901660" data-name="Grupo 901660" transform="translate(59.74 313.383)">
      <path id="Trazado_629317" data-name="Trazado 629317" d="M79.692,354.152l-5.9-3.4v-15l5.9,3.4Z" transform="translate(-73.794 -333.32)" fill="#121214"/>
      <path id="Trazado_629318" data-name="Trazado 629318" d="M79.692,366.567l-5.9-3.4v-4.13l5.9,3.4Z" transform="translate(-73.794 -340.433)" fill="#535359"/>
      <path id="Trazado_629319" data-name="Trazado 629319" d="M77.258,335.468l-3.463-2v-1.213l3.463,2Z" transform="translate(-73.794 -332.252)" fill="#535359"/>
      <path id="Trazado_629320" data-name="Trazado 629320" d="M81.445,337.884l-1.912-1.1v-1.213l1.912,1.095Z" transform="translate(-75.547 -333.267)" fill="#16a89f"/>
      <path id="Trazado_629321" data-name="Trazado 629321" d="M78.787,364.469c0,.851-.6,1.2-1.334.77a2.943,2.943,0,0,1-1.333-2.309c0-.85.6-1.2,1.333-.77A2.948,2.948,0,0,1,78.787,364.469Z" transform="translate(-74.505 -341.332)" fill="#bcbec0"/>
      <path id="Trazado_629322" data-name="Trazado 629322" d="M78.37,364.463c0,.376-.265.529-.59.339a1.3,1.3,0,0,1-.59-1.02c0-.376.265-.529.59-.34A1.3,1.3,0,0,1,78.37,364.463Z" transform="translate(-74.832 -341.755)" fill="#121214"/>
    </g>
    <g id="Grupo_901661" data-name="Grupo 901661" transform="translate(52.181 309.02)">
      <path id="Trazado_629323" data-name="Trazado 629323" d="M68.809,347.87l-5.9-3.4v-15l5.9,3.4Z" transform="translate(-62.911 -327.039)" fill="#121214"/>
      <path id="Trazado_629324" data-name="Trazado 629324" d="M68.809,360.286l-5.9-3.4v-4.131l5.9,3.4Z" transform="translate(-62.911 -334.151)" fill="#535359"/>
      <path id="Trazado_629325" data-name="Trazado 629325" d="M66.374,329.186l-3.463-2v-1.212l3.463,2Z" transform="translate(-62.911 -325.971)" fill="#535359"/>
      <path id="Trazado_629326" data-name="Trazado 629326" d="M70.562,331.6l-1.913-1.095V329.3l1.913,1.094Z" transform="translate(-64.664 -326.986)" fill="#16a89f"/>
      <path id="Trazado_629327" data-name="Trazado 629327" d="M67.9,358.187c0,.851-.6,1.195-1.334.77a2.942,2.942,0,0,1-1.332-2.309c0-.849.6-1.2,1.332-.77A2.95,2.95,0,0,1,67.9,358.187Z" transform="translate(-63.622 -335.051)" fill="#bcbec0"/>
      <path id="Trazado_629328" data-name="Trazado 629328" d="M67.485,358.181c0,.376-.263.53-.589.34a1.3,1.3,0,0,1-.59-1.02c0-.375.265-.529.59-.341A1.3,1.3,0,0,1,67.485,358.181Z" transform="translate(-63.948 -335.473)" fill="#121214"/>
    </g>
    <g id="Grupo_901662" data-name="Grupo 901662" transform="translate(44.687 304.694)">
      <path id="Trazado_629329" data-name="Trazado 629329" d="M58.019,341.642l-5.9-3.4v-15l5.9,3.4Z" transform="translate(-52.121 -320.81)" fill="#121214"/>
      <path id="Trazado_629330" data-name="Trazado 629330" d="M58.019,354.056l-5.9-3.4v-4.13l5.9,3.4Z" transform="translate(-52.121 -327.923)" fill="#535359"/>
      <path id="Trazado_629331" data-name="Trazado 629331" d="M55.586,322.958l-3.465-2v-1.212l3.465,2Z" transform="translate(-52.121 -319.742)" fill="#535359"/>
      <path id="Trazado_629332" data-name="Trazado 629332" d="M59.772,325.374l-1.911-1.095v-1.213l1.911,1.095Z" transform="translate(-53.875 -320.758)" fill="#16a89f"/>
      <path id="Trazado_629333" data-name="Trazado 629333" d="M57.114,351.959c0,.85-.6,1.195-1.333.769a2.941,2.941,0,0,1-1.334-2.308c0-.849.6-1.2,1.334-.771A2.95,2.95,0,0,1,57.114,351.959Z" transform="translate(-52.832 -328.822)" fill="#bcbec0"/>
      <path id="Trazado_629334" data-name="Trazado 629334" d="M56.7,351.953c0,.375-.265.528-.59.34a1.3,1.3,0,0,1-.59-1.02c0-.376.264-.53.59-.341A1.305,1.305,0,0,1,56.7,351.953Z" transform="translate(-53.159 -329.245)" fill="#121214"/>
    </g>
    <g id="Grupo_901663" data-name="Grupo 901663" transform="translate(37.31 300.434)">
      <path id="Trazado_629335" data-name="Trazado 629335" d="M47.4,335.509l-5.9-3.4v-15l5.9,3.4Z" transform="translate(-41.5 -314.677)" fill="#121214"/>
      <path id="Trazado_629336" data-name="Trazado 629336" d="M47.4,347.924l-5.9-3.4v-4.129l5.9,3.4Z" transform="translate(-41.5 -321.789)" fill="#535359"/>
      <path id="Trazado_629337" data-name="Trazado 629337" d="M44.963,316.824l-3.464-2v-1.213l3.464,2Z" transform="translate(-41.5 -313.608)" fill="#535359"/>
      <path id="Trazado_629338" data-name="Trazado 629338" d="M49.151,319.241l-1.911-1.095v-1.212l1.911,1.094Z" transform="translate(-43.253 -314.624)" fill="#16a89f"/>
      <path id="Trazado_629339" data-name="Trazado 629339" d="M46.493,345.826c0,.851-.6,1.2-1.334.77a2.943,2.943,0,0,1-1.333-2.309c0-.85.6-1.2,1.333-.77A2.947,2.947,0,0,1,46.493,345.826Z" transform="translate(-42.21 -322.689)" fill="#bcbec0"/>
      <path id="Trazado_629340" data-name="Trazado 629340" d="M46.076,345.82c0,.376-.265.529-.59.34a1.3,1.3,0,0,1-.59-1.021c0-.376.265-.529.59-.34A1.306,1.306,0,0,1,46.076,345.82Z" transform="translate(-42.537 -323.111)" fill="#121214"/>
    </g>
  </g>
</svg>
