<svg xmlns="http://www.w3.org/2000/svg" xmlns:xlink="http://www.w3.org/1999/xlink" width="315" height="203" viewBox="0 0 315 203">
  <defs>
    <clipPath id="clip-path">
      <path id="Trazado_638305" data-name="Trazado 638305" d="M172.868,79.615c-.977,8.267-14.048,20.006-18.958,25.966A34.5,34.5,0,0,1,92.771,83.66c0-19.053,16.3-47.751,35.351-47.751,11.641,0,23.149,15.883,29.4,24.715C161.5,66.247,175.166,60.169,172.868,79.615Z" transform="translate(-92.771 -35.909)" fill="none"/>
    </clipPath>
    <clipPath id="clip-path-2">
      <path id="Trazado_638326" data-name="Trazado 638326" d="M458.916,199.45l4.737,14.294s1.258,4.244,6.552,10.671a44.3,44.3,0,0,0,78.506-28.147c0-24.465-20.927-61.315-45.393-61.315-14.947,0-29.725,20.395-37.747,31.734C460.464,173.909,434.786,149.337,458.916,199.45Z" transform="translate(-448.738 -134.954)" fill="none"/>
    </clipPath>
    <linearGradient id="linear-gradient" x1="1.115" y1="0.842" x2="1.908" y2="0.247" gradientUnits="objectBoundingBox">
      <stop offset="0" stop-color="#304260"/>
      <stop offset="1" stop-color="#272438"/>
    </linearGradient>
    <linearGradient id="linear-gradient-2" x1="1.44" y1="0.934" x2="0.745" y2="-0.229" xlink:href="#linear-gradient"/>
    <linearGradient id="linear-gradient-3" x1="0.089" y1="1.825" x2="0.855" y2="0.206" xlink:href="#linear-gradient"/>
    <linearGradient id="linear-gradient-4" x1="0.354" y1="0.5" x2="1.354" y2="0.5" gradientUnits="objectBoundingBox">
      <stop offset="0" stop-color="#e3e2e6"/>
      <stop offset="0.449" stop-color="#cfd2e4"/>
      <stop offset="1" stop-color="#bbc3e2"/>
    </linearGradient>
    <linearGradient id="linear-gradient-5" x1="-0.931" y1="0.5" x2="0.069" y2="0.5" xlink:href="#linear-gradient-4"/>
    <clipPath id="clip-path-3">
      <circle id="Elipse_6775" data-name="Elipse 6775" cx="36.981" cy="36.981" r="36.981" fill="none"/>
    </clipPath>
  </defs>
  <g id="Grupo_907279" data-name="Grupo 907279" transform="translate(0.349 -3.435)">
    <g id="BACKGROUND" transform="translate(-0.349 3.303)">
      <g id="Grupo_907250" data-name="Grupo 907250" transform="translate(0 0.131)">
        <rect id="Rectángulo_303986" data-name="Rectángulo 303986" width="315" height="203" transform="translate(0 0)" fill="#eef1ff"/>
        <path id="Trazado_638264" data-name="Trazado 638264" d="M261.609,79.535c30.3,4.592,59.08,16.373,59.7,56.414S267.763,207.186,200.682,212.2,55.53,213.567,47.443,137.791C41.289,80.122,70.191,40.055,120.063,36.158c34.463-2.693,56.618,17.112,84.927,28.658S243.8,76.837,261.609,79.535Z" transform="translate(-26.806 -21.334)" fill="#fff"/>
      </g>
    </g>
    <g id="OBJECTS" transform="translate(15.679 15.141)">
      <g id="Grupo_907258" data-name="Grupo 907258" transform="translate(103.487 18.469)">
        <g id="Grupo_907253" data-name="Grupo 907253">
          <g id="Grupo_907251" data-name="Grupo 907251">
            <path id="Trazado_638265" data-name="Trazado 638265" d="M364.362,233.683l-72.925.486a6.2,6.2,0,0,1-6.238-6.156L284.492,86.7a6.2,6.2,0,0,1,6.155-6.238l72.925-.486a6.2,6.2,0,0,1,6.238,6.155l.707,141.316A6.2,6.2,0,0,1,364.362,233.683Z" transform="translate(-284.492 -79.974)" fill="#b6c8e1"/>
            <path id="Trazado_638266" data-name="Trazado 638266" d="M384.674,424.524a3.164,3.164,0,1,1-3.185-3.143A3.164,3.164,0,0,1,384.674,424.524Z" transform="translate(-339.009 -278.287)" fill="#e7e8eb"/>
            <path id="Trazado_638267" data-name="Trazado 638267" d="M379.738,99.662l-23.862.159a.977.977,0,0,1-.983-.97h0a.977.977,0,0,1,.97-.983l23.862-.159a.977.977,0,0,1,.983.97h0A.977.977,0,0,1,379.738,99.662Z" transform="translate(-325.386 -90.275)" fill="#cfcfcf" style="mix-blend-mode: multiply;isolation: isolate"/>
          </g>
          <g id="Grupo_907252" data-name="Grupo 907252" transform="translate(2.965 14.003)">
            <path id="Trazado_638268" data-name="Trazado 638268" d="M371.966,238.06l-79.8.531-.6-124.677,79.8-.531Z" transform="translate(-291.567 -113.383)" fill="#fff"/>
          </g>
        </g>
        <g id="Grupo_907254" data-name="Grupo 907254" transform="translate(18.969 25.891)">
          <path id="Trazado_638269" data-name="Trazado 638269" d="M334.068,153.062l40.608-.352a4.289,4.289,0,0,0,4.26-4.317h0a4.289,4.289,0,0,0-4.318-4.26l-40.608.351a4.289,4.289,0,0,0-4.26,4.318h0A4.29,4.29,0,0,0,334.068,153.062Z" transform="translate(-329.751 -144.133)" fill="#fd9927"/>
        </g>
        <text id="FEEDBACK" transform="translate(27.854 31.988)" fill="#fff" font-size="5" font-family="Poppins-Bold, Poppins" font-weight="700"><tspan x="0" y="0">FEEDBACK</tspan></text>
        <path id="Trazado_638270" data-name="Trazado 638270" d="M319.229,203.424h0a5.834,5.834,0,0,1-5.834-5.834h0a5.834,5.834,0,0,1,5.834-5.834h0a5.834,5.834,0,0,1,5.834,5.834h0A5.834,5.834,0,0,1,319.229,203.424Z" transform="translate(-301.281 -144.905)" fill="#4dd0e1"/>
        <g id="Grupo_907255" data-name="Grupo 907255" transform="translate(27.854 46.7)">
          <path id="Trazado_638271" data-name="Trazado 638271" d="M352.9,202.345l.6,1.221,1.348.2-.975.951.23,1.342-1.206-.634-1.206.634.23-1.342-.975-.951,1.348-.2Z" transform="translate(-350.949 -197.755)" fill="#ff9f3e"/>
          <path id="Trazado_638272" data-name="Trazado 638272" d="M365.183,202.345l.6,1.221,1.348.2-.975.951.23,1.342-1.206-.634-1.206.634.23-1.342-.975-.951,1.348-.2Z" transform="translate(-358.084 -197.755)" fill="#ff9f3e"/>
          <path id="Trazado_638273" data-name="Trazado 638273" d="M377.466,202.345l.6,1.221,1.348.2-.975.951.23,1.342-1.206-.634-1.206.634.23-1.342-.975-.951,1.348-.2Z" transform="translate(-365.219 -197.755)" fill="#ff9f3e"/>
          <path id="Trazado_638274" data-name="Trazado 638274" d="M389.75,202.345l.6,1.221,1.348.2-.975.951.23,1.342-1.206-.634-1.206.634.23-1.342-.975-.951,1.348-.2Z" transform="translate(-372.354 -197.755)" fill="#c9cdd8"/>
          <path id="Trazado_638275" data-name="Trazado 638275" d="M402.033,202.345l.6,1.221,1.348.2-.975.951.23,1.342-1.206-.634-1.206.634.23-1.342-.975-.951,1.348-.2Z" transform="translate(-379.489 -197.755)" fill="#c9cdd8"/>
          <rect id="Rectángulo_303987" data-name="Rectángulo 303987" width="2.054" height="2.035" transform="translate(0.975 11.489)" fill="#c9cdd8"/>
          <rect id="Rectángulo_303988" data-name="Rectángulo 303988" width="31.362" height="2.035" transform="translate(5.488 11.489)" fill="#c9cdd8"/>
          <rect id="Rectángulo_303989" data-name="Rectángulo 303989" width="37.611" height="2.035" transform="translate(5.488 15.799)" fill="#c9cdd8"/>
          <rect id="Rectángulo_303990" data-name="Rectángulo 303990" width="26.222" height="2.035" transform="translate(5.488 20.11)" fill="#c9cdd8"/>
          <rect id="Rectángulo_303991" data-name="Rectángulo 303991" width="13.627" height="1.426" transform="translate(5.86 24.98)" fill="#ff9f3e"/>
          <rect id="Rectángulo_303992" data-name="Rectángulo 303992" width="18.554" height="1.426" transform="translate(22.432 24.98)" fill="#ff9f3e"/>
          <rect id="Rectángulo_303993" data-name="Rectángulo 303993" width="26.972" height="3.02" transform="translate(0.975)" fill="#c9cdd8"/>
        </g>
        <path id="Trazado_638276" data-name="Trazado 638276" d="M319.229,291.352h0a5.833,5.833,0,0,1-5.834-5.834h0a5.834,5.834,0,0,1,5.834-5.834h0a5.834,5.834,0,0,1,5.834,5.834h0A5.834,5.834,0,0,1,319.229,291.352Z" transform="translate(-301.281 -195.979)" fill="#fd9927"/>
        <g id="Grupo_907256" data-name="Grupo 907256" transform="translate(27.854 83.553)">
          <path id="Trazado_638277" data-name="Trazado 638277" d="M352.9,290.273l.6,1.221,1.348.2-.975.951.23,1.342-1.206-.634-1.206.634.23-1.342-.975-.951,1.348-.2Z" transform="translate(-350.949 -285.683)" fill="#ff9f3e"/>
          <path id="Trazado_638278" data-name="Trazado 638278" d="M365.183,290.273l.6,1.221,1.348.2-.975.951.23,1.342-1.206-.634-1.206.634.23-1.342-.975-.951,1.348-.2Z" transform="translate(-358.084 -285.683)" fill="#ff9f3e"/>
          <path id="Trazado_638279" data-name="Trazado 638279" d="M377.466,290.273l.6,1.221,1.348.2-.975.951.23,1.342-1.206-.634-1.206.634.23-1.342-.975-.951,1.348-.2Z" transform="translate(-365.219 -285.683)" fill="#ff9f3e"/>
          <path id="Trazado_638280" data-name="Trazado 638280" d="M389.75,290.273l.6,1.221,1.348.2-.975.951.23,1.342-1.206-.634-1.206.634.23-1.342-.975-.951,1.348-.2Z" transform="translate(-372.354 -285.683)" fill="#ff9f3e"/>
          <path id="Trazado_638281" data-name="Trazado 638281" d="M402.033,290.273l.6,1.221,1.348.2-.975.951.23,1.342-1.206-.634-1.206.634.23-1.342-.975-.951,1.348-.2Z" transform="translate(-379.489 -285.683)" fill="#ff9f3e"/>
          <rect id="Rectángulo_303994" data-name="Rectángulo 303994" width="2.054" height="2.035" transform="translate(0.975 11.489)" fill="#c9cdd8"/>
          <rect id="Rectángulo_303995" data-name="Rectángulo 303995" width="31.362" height="2.035" transform="translate(5.488 11.489)" fill="#c9cdd8"/>
          <rect id="Rectángulo_303996" data-name="Rectángulo 303996" width="40.125" height="2.035" transform="translate(5.488 15.799)" fill="#c9cdd8"/>
          <rect id="Rectángulo_303997" data-name="Rectángulo 303997" width="26.972" height="3.02" transform="translate(0.975)" fill="#c9cdd8"/>
        </g>
        <path id="Trazado_638282" data-name="Trazado 638282" d="M319.229,358.761h0a5.834,5.834,0,0,1-5.834-5.834h0a5.834,5.834,0,0,1,5.834-5.834h0a5.834,5.834,0,0,1,5.834,5.834h0A5.834,5.834,0,0,1,319.229,358.761Z" transform="translate(-301.281 -235.135)" fill="#0b5999"/>
        <g id="Grupo_907257" data-name="Grupo 907257" transform="translate(27.854 111.806)">
          <path id="Trazado_638283" data-name="Trazado 638283" d="M352.9,357.681l.6,1.221,1.348.2-.975.951.23,1.342-1.206-.634-1.206.634.23-1.342-.975-.951,1.348-.2Z" transform="translate(-350.949 -353.091)" fill="#ff9f3e"/>
          <path id="Trazado_638284" data-name="Trazado 638284" d="M365.183,357.681l.6,1.221,1.348.2-.975.951.23,1.342-1.206-.634-1.206.634.23-1.342-.975-.951,1.348-.2Z" transform="translate(-358.084 -353.091)" fill="#ff9f3e"/>
          <path id="Trazado_638285" data-name="Trazado 638285" d="M377.466,357.681l.6,1.221,1.348.2-.975.951.23,1.342-1.206-.634-1.206.634.23-1.342-.975-.951,1.348-.2Z" transform="translate(-365.219 -353.091)" fill="#ff9f3e"/>
          <path id="Trazado_638286" data-name="Trazado 638286" d="M389.75,357.681l.6,1.221,1.348.2-.975.951.23,1.342-1.206-.634-1.206.634.23-1.342-.975-.951,1.348-.2Z" transform="translate(-372.354 -353.091)" fill="#ff9f3e"/>
          <path id="Trazado_638287" data-name="Trazado 638287" d="M402.033,357.681l.6,1.221,1.348.2-.975.951.23,1.342-1.206-.634-1.206.634.23-1.342-.975-.951,1.348-.2Z" transform="translate(-379.489 -353.091)" fill="#c9cdd8"/>
          <rect id="Rectángulo_303998" data-name="Rectángulo 303998" width="2.054" height="2.035" transform="translate(0.975 11.489)" fill="#c9cdd8"/>
          <rect id="Rectángulo_303999" data-name="Rectángulo 303999" width="31.362" height="2.035" transform="translate(5.488 11.489)" fill="#c9cdd8"/>
          <rect id="Rectángulo_304000" data-name="Rectángulo 304000" width="26.972" height="3.02" transform="translate(0.975 0)" fill="#c9cdd8"/>
        </g>
      </g>
      <g id="Grupo_907263" data-name="Grupo 907263" transform="translate(23.131)">
        <g id="Grupo_907262" data-name="Grupo 907262" clip-path="url(#clip-path)">
          <path id="Trazado_638356" data-name="Trazado 638356" d="M34.5,0A34.5,34.5,0,1,1,0,34.5,34.5,34.5,0,0,1,34.5,0Z" transform="translate(-14.29 47.751) rotate(-45)" fill="#fd9927"/>
          <path id="Trazado_638288" data-name="Trazado 638288" d="M215.357,153.654s7.124,3.955,8.563,4.391,3.137.99,5.044,0,6.124-5.4,6.928-8.164l-4.035-2.152-6.308,5.435-7.431-3.66Z" transform="translate(-163.977 -100.862)" fill="#fec4ad"/>
          <path id="Trazado_638289" data-name="Trazado 638289" d="M186.558,124.468l8.14-3.249a12.393,12.393,0,0,1,4.465,5.087,46.565,46.565,0,0,0,5.716,7.835l-6.706,7.824a52.858,52.858,0,0,1-6.949-8.815C188.957,129.106,186.558,124.468,186.558,124.468Z" transform="translate(-147.249 -85.463)" fill="#0b5999"/>
          <path id="Trazado_638290" data-name="Trazado 638290" d="M182,55.966a41.054,41.054,0,0,1,.355,9.344,8.965,8.965,0,0,1-3.681,6.587c-1.955,1.208-5.742-.638-7.594-2.339s-2.167-4.381-2.761-6.838a15.626,15.626,0,0,1-.2-5.165s-1.157-4.045.853-5.771C176.679,45.172,181.561,53.787,182,55.966Z" transform="translate(-136.349 -43.706)" fill="#fec4ad"/>
          <path id="Trazado_638291" data-name="Trazado 638291" d="M172.606,51.01c-1.572-.6-4.1-.938-8.376-.077a6.867,6.867,0,0,1-4.328-.993c-.018.627,1.182,3.085,1.33,3.727.237,1.031-.678,2.217-.58,3.065.16,1.375-1.325,1.988-1.325,1.988a1.436,1.436,0,0,1-.038,1.486c-.511.657-.99,5.269-.99,5.269s-2.358-3.747-2.6-4.376-2.425-1.612-3.679-3.584-1.99-10.707,3.363-11.495c0,0,4.707-5.224,12.724-1.435C171.189,46.04,172.606,51.01,172.606,51.01Z" transform="translate(-126.666 -40.148)" fill="#613531"/>
          <path id="Trazado_638292" data-name="Trazado 638292" d="M166.565,73.551c-.125-1.017-.2-3.612-2.505-3.464s-1.326,3.549-.448,4.24a16.684,16.684,0,0,1,2.095,2.273A5.138,5.138,0,0,0,166.565,73.551Z" transform="translate(-133.352 -55.758)" fill="#fec4ad"/>
          <path id="Trazado_638293" data-name="Trazado 638293" d="M157.532,83.5s-.523,4.035-.952,6.089a5.507,5.507,0,0,1-1.643,3.256c-.5.5-6.142,4.319-6.142,4.319s12.312,22.944,15.862,10.995c1.121-3.773,5.707-10,5.707-10s-4.292-3.363-4.931-5.061a37.89,37.89,0,0,1-1-6.62Z" transform="translate(-125.314 -63.551)" fill="#fec4ad"/>
          <g id="Grupo_907259" data-name="Grupo 907259" transform="translate(14.335 31.253)">
            <path id="Trazado_638294" data-name="Trazado 638294" d="M151.111,165.333c6.177-.247,14.885-3.045,14.308-3.622-1.286-1.286-2.862-20.383-2.9-24.065a155.738,155.738,0,0,0-2.428-22.667l-5.932-4.322a5,5,0,0,1-4.884,4.5c-10.1.815-9.715-4.683-9.715-4.683s-8.042,2.7-10.577,4.792c-3.418,2.816-1.852,6.175.153,19.795.827,5.621.705,12.443,1.331,17.607.506,4.175-.333,14.576,2.743,14.326C138.347,164.973,145.4,165.136,151.111,165.333Z" transform="translate(-126.973 -110.475)" fill="#4dd0e1"/>
          </g>
          <path id="Trazado_638295" data-name="Trazado 638295" d="M137.408,140.507s7.106,5.8,10.017,7.608c4.194,2.6,4.762,3.493,6.676,2.966s22.1-17.234,22.1-17.234l-1.008-3.8s-8.448,5.61-14.26,8.7c-3.338,1.776-7.616,4.095-7.616,4.095l-7.5-6.411Z" transform="translate(-118.699 -90.592)" fill="#fec4ad"/>
          <path id="Trazado_638296" data-name="Trazado 638296" d="M145.845,135.845s-10.3-10.1-11.619-11.32c-6.811-6.328-9.92-.2-6.528,8.01,1.067,2.582,5.6,8.64,10.374,11.331C141.061,142.848,144.286,137.832,145.845,135.845Z" transform="translate(-112.256 -85.864)" fill="#33a18f"/>
          <path id="Trazado_638297" data-name="Trazado 638297" d="M145.845,135.845s-10.3-10.1-11.619-11.32c-6.811-6.328-9.92-.2-6.528,8.01,1.067,2.582,5.6,8.64,10.374,11.331C141.061,142.848,144.286,137.832,145.845,135.845Z" transform="translate(-112.256 -85.864)" fill="#0b5999"/>
          <g id="Grupo_907260" data-name="Grupo 907260" transform="translate(48.337 28.272)">
            <path id="Trazado_638298" data-name="Trazado 638298" d="M210.034,131.352l11.522,3.329a2.694,2.694,0,0,0,3.073-1.358l11.221-23.973a1.793,1.793,0,0,0-1.189-2.563l-11.421-3.374c-2.08-.2-3.119.2-3.646,1.3l-11.246,23.792C207.816,129.622,208.018,130.4,210.034,131.352Z" transform="translate(-208.097 -103.362)" fill="#97a3cc"/>
            <path id="Trazado_638299" data-name="Trazado 638299" d="M212.2,131.707l11.578,3.351a2.7,2.7,0,0,0,3.09-1.36l11.264-24.08a1.8,1.8,0,0,0-1.2-2.571l-11.48-3.384a2.785,2.785,0,0,0-3.2,1.361l-11.341,24.01A1.88,1.88,0,0,0,212.2,131.707Z" transform="translate(-209.614 -103.477)" fill="#cad2ea"/>
          </g>
          <g id="Grupo_907261" data-name="Grupo 907261" transform="translate(66.119 44.47)">
            <path id="Trazado_638300" data-name="Trazado 638300" d="M254.91,148.916l.614-1.412c-.768-.329-1.822-.915-2.419-1.187a7.71,7.71,0,0,0-2.26-.674l-.321,1.191a10.121,10.121,0,0,1,2.253.847C253.417,148.03,254.311,148.558,254.91,148.916Z" transform="translate(-250.525 -144.12)" fill="#fec4ad"/>
            <path id="Trazado_638301" data-name="Trazado 638301" d="M257.711,145.227c.23-.529.441-1.016.621-1.431a34.056,34.056,0,0,0-3.469-1.786l-.7.972s1.687.917,2.322,1.386C256.806,144.6,257.3,144.943,257.711,145.227Z" transform="translate(-252.64 -142.01)" fill="#fec4ad"/>
            <path id="Trazado_638302" data-name="Trazado 638302" d="M254.265,153.084l.6-1.381a25.519,25.519,0,0,1-2.721-.992,12.338,12.338,0,0,0-1.161-.547l-.413,1.085a9.4,9.4,0,0,0,2.42,1.326C253.548,152.775,253.947,152.942,254.265,153.084Z" transform="translate(-250.552 -146.746)" fill="#fec4ad"/>
            <path id="Trazado_638303" data-name="Trazado 638303" d="M254.707,156.279a9.328,9.328,0,0,1-2.1-.58,2.643,2.643,0,0,0-.932-.387l-.192.882s1.234.656,2.657,1.375Z" transform="translate(-251.084 -149.737)" fill="#fec4ad"/>
            <path id="Trazado_638304" data-name="Trazado 638304" d="M255.327,149.307l1.048.535,1.938-1.128,1.535-4.344-1.108-2.36Z" transform="translate(-253.314 -142.01)" fill="#fec4ad"/>
          </g>
        </g>
      </g>
      <g id="Grupo_907268" data-name="Grupo 907268" transform="translate(172.328 41.513)">
        <g id="Grupo_907267" data-name="Grupo 907267" clip-path="url(#clip-path-2)">
          <path id="Trazado_638358" data-name="Trazado 638358" d="M44.3,0A44.3,44.3,0,1,1,0,44.3,44.3,44.3,0,0,1,44.3,0Z" transform="translate(-6.971 61.314) rotate(-45)" fill="#0b5999"/>
          <path id="Trazado_638306" data-name="Trazado 638306" d="M493.9,261.743l11.635-3.154s5.039-11.349,8.393-19.6,6.52-8.543,6.52-8.543c4.972,4.356,2.027,9.059,2.027,9.059l-9.25,25.614-18.105,2.7C494.771,265.786,494.355,263.76,493.9,261.743Z" transform="translate(-474.973 -190.42)" fill="#fec1b2"/>
          <path id="Trazado_638307" data-name="Trazado 638307" d="M544.173,245.88a38.452,38.452,0,0,0-8.954-.384c.939-2.213,1.877-4.457,2.711-6.511,3.354-8.255,6.52-8.543,6.52-8.543,4.972,4.356,2.027,9.059,2.027,9.059Z" transform="translate(-498.972 -190.42)" fill="#fcfbff"/>
          <g id="Grupo_907264" data-name="Grupo 907264" transform="translate(-0.643 40.7)">
            <path id="Trazado_638308" data-name="Trazado 638308" d="M580.184,311.883s3.216-8.567,3.27-33.378a166,166,0,0,1,5.107-39.191,5.584,5.584,0,0,0-3.761-6.6l-2.074-.655H549.854s-14.155,25.318-16.011,33.995-4.45,44.24-4.45,44.24Z" transform="translate(-494.945 -232.06)" fill="#feca2e"/>
            <path id="Trazado_638309" data-name="Trazado 638309" d="M572.455,311.883s3.216-8.567,3.27-33.378c.043-20.173,4-36.837,5.229-43.507a2.492,2.492,0,0,0-2.46-2.938H542.125s-14.154,25.318-16.011,33.995-4.45,44.24-4.45,44.24Z" transform="translate(-490.456 -232.06)" fill="#fd9927"/>
            <path id="Trazado_638310" data-name="Trazado 638310" d="M521.378,349.586l-15.26-1.392s-21.687,9.583-24.065,13.744-7.486,7.771,1.647,22.438c9.332,14.986,12.571,34.939,12.571,34.939l-1.4,1.964q2.357.927,4.767,1.677l1.96-1.882s-1.258-13.57-2.881-22.825-3.078-19.23-3.9-25.836c0,0,10.116-3.894,20.592-3.671S525.389,370.187,521.378,349.586Z" transform="translate(-465.365 -299.519)" fill="url(#linear-gradient)"/>
            <path id="Trazado_638311" data-name="Trazado 638311" d="M525.965,352.288,494.9,345.439s-29.619.9-32,5.06-2.761,7.715-6.036,18.892c-3.978,13.579-7.684,23.7-9.664,28.834,2.034.291,4.064.618,6.095.94,3.316-5.325,7.135-11.467,9.517-15.324a94.986,94.986,0,0,0,10.412-24.393s19.63,8.863,30.107,9.085S529.978,372.889,525.965,352.288Z" transform="translate(-447.204 -297.918)" fill="url(#linear-gradient-2)"/>
            <path id="Trazado_638312" data-name="Trazado 638312" d="M542.046,366.527l-.237-7.263s-.988-10.492,17.393-12.139c5.344-.479,22.169,6.128,22.169,6.128s2.753,9.329-.324,15.262-19.731-2.091-31.837.747Z" transform="translate(-502.152 -298.883)" fill="url(#linear-gradient-3)"/>
          </g>
          <path id="Trazado_638313" data-name="Trazado 638313" d="M575.537,152.4c-1.161-.575-6.617-.7-9.892,1.6-6.262,4.392-2.486,15.175-1.929,17.677s-1.5,7.193-1.284,10.208,1,4.065,3.429,6.852a5.6,5.6,0,0,1,.979,2.282,21.574,21.574,0,0,0,2.493-9.1c.223-5.221,1.4-4.077,3.654-9.932s1.858-14.446,1.858-14.446Z" transform="translate(-514.575 -144.883)" fill="#f28551"/>
          <path id="Trazado_638314" data-name="Trazado 638314" d="M564.181,178.895c-.06-.271-.16-.645-.279-1.092a18.449,18.449,0,0,1,.578-9.11c.206-.567,1.068-3.3,1.882-3.626,1.827-.728,7.134-.692,8.961-.393l-.012.089s.4,8.59-1.858,14.446-3.431,4.711-3.653,9.932a21.577,21.577,0,0,1-2.493,9.1,5.6,5.6,0,0,0-.979-2.282c-2.427-2.788-3.211-3.838-3.429-6.852S564.739,181.4,564.181,178.895Z" transform="translate(-515.04 -152.101)" fill="#c65c30"/>
          <path id="Trazado_638315" data-name="Trazado 638315" d="M581.817,156.811,587,152.769a7.92,7.92,0,0,1,7.51,3.055c2.927,3.949,2.38,9.964,3.25,14.4s6.007,8.919,6.1,12.26-5.155,7.741-5.155,7.741l-13.935-5.066a40.409,40.409,0,0,0-.756-14.764A73.328,73.328,0,0,1,581.817,156.811Z" transform="translate(-526.04 -145.252)" fill="#f28551"/>
          <path id="Trazado_638316" data-name="Trazado 638316" d="M569.607,164.382c-.181,1.707-1.2,6.751-1.136,9.944s.752,8.419,2.949,9.741,6.089-.07,8.917-1.443,3.407-3.449,3.861-5.353-.042-6.856-.916-10.375-3.5-3.215-6.144-3.55S569.607,164.382,569.607,164.382Z" transform="translate(-518.286 -151.416)" fill="#fec1b2"/>
          <path id="Trazado_638317" data-name="Trazado 638317" d="M576.9,192.48s-.269,7.961,1.619,11.588c1.3,2.5,6.023,3.315,6.023,3.315a26.3,26.3,0,0,1-3.661,14.264c-4.261,7.154-18.716,10.57-18.716,10.57s.256-1.847-1.636-8.189-.807-15.637-.807-15.637,3.12-1.167,4.973-1.994c4.5-2.008,3.523-9.292,3.523-9.292Z" transform="translate(-513.027 -168.369)" fill="#fec1b2"/>
          <path id="Trazado_638318" data-name="Trazado 638318" d="M559.681,239c8.253.9,10.565-11.33,13.294-13.342l6.84,1.475s1.483,15.479.107,22.812c0,0-3.875,10.916,3.231,32.712,0,0-.481,5.125-9.435,2.612-7.707-2.163-9.414-4.467-16.129-5.75-9.914-1.894-9.9-4.1-9.9-4.1a22.235,22.235,0,0,0,2.105-16.355s-6.149-5.219-4-11.058c3.108-8.428,4.532-20.344,4.532-20.344l6.193-1.994S549.413,237.879,559.681,239Z" transform="translate(-504.85 -187.641)" fill="#fcfbff"/>
          <path id="Trazado_638319" data-name="Trazado 638319" d="M589.154,161.819c.916,0,1.847,2.608,2.083,5.01s3.953,4.086,2.679,9.477-.754,10.493-2.54,16.424,3.712,6.586,4.983,8.516a7.585,7.585,0,0,1,.531-5.354,18.622,18.622,0,0,0,2.279-7.779s-1.29-9.857-1.273-13.52.329-9.274-2.774-12.432A4.075,4.075,0,0,0,589.154,161.819Z" transform="translate(-530.301 -149.888)" fill="#f28551"/>
          <path id="Trazado_638320" data-name="Trazado 638320" d="M607.858,216.283c-1.086.788-.044,5.428.575,9.3,0,0,5.006-4.32,7.424-7.036,1.6-1.8-5.52-7.67-5.52-7.67Z" transform="translate(-540.892 -179.054)" fill="#f28551"/>
          <path id="Trazado_638321" data-name="Trazado 638321" d="M547.779,266.866c.92-.132,6.723.356,7.875.136,8.417-1.607,9.135-2.98,13.868-4.919,0,0,2.219-10.761,2.761-15.281.9-7.525,4.505-15.016,8.452-14.065,4.3,1.036,4.663,5.285.689,17.769-1.416,4.448-4.323,16.964-5.646,17.6s-13.39,1.941-19.293,1.941l-14.967,1.025C543.4,269.811,545.552,268.121,547.779,266.866Z" transform="translate(-502.631 -191.705)" fill="#fec1b2"/>
          <path id="Trazado_638322" data-name="Trazado 638322" d="M611.876,245.809c1.91-7.521,4.692-17.629,8.662-16.654,4.251,1.044,7.542,3.963,2.443,19.26A101.694,101.694,0,0,1,611.876,245.809Z" transform="translate(-543.5 -189.634)" fill="#fcfbff"/>
          <g id="Grupo_907265" data-name="Grupo 907265" transform="translate(4.404 45.456)">
            <path id="Trazado_638323" data-name="Trazado 638323" d="M550.081,275.647h-9.214l-9.214-32.239h5.655a1.911,1.911,0,0,1,1.8,1.273Z" transform="translate(-501.305 -243.408)" fill="#cad2ea"/>
            <path id="Trazado_638324" data-name="Trazado 638324" d="M505.377,275.647H469.416l-10.081-30.019a1.684,1.684,0,0,1,1.6-2.22h33.437a2.38,2.38,0,0,1,2.288,1.726Z" transform="translate(-459.246 -243.408)" fill="#cad2ea"/>
            <rect id="Rectángulo_304001" data-name="Rectángulo 304001" width="41.251" height="2.405" transform="translate(10.17 31.508)" fill="#aeb5c9"/>
            <rect id="Rectángulo_304002" data-name="Rectángulo 304002" width="20.626" height="2.405" transform="translate(51.421 31.508)" fill="#cad2ea"/>
            <path id="Trazado_638325" data-name="Trazado 638325" d="M511.773,281.139c1.041,2.468.308,5.133-1.636,5.953s-4.364-.516-5.405-2.984-.308-5.134,1.636-5.953S510.733,278.671,511.773,281.139Z" transform="translate(-485.392 -263.451)" fill="#cad2ea" style="mix-blend-mode: multiply;isolation: isolate"/>
          </g>
          <g id="Grupo_907266" data-name="Grupo 907266" transform="translate(-36.915 78.791)">
            <rect id="Rectángulo_304003" data-name="Rectángulo 304003" width="147.778" height="4.665" fill="url(#linear-gradient-4)"/>
            <rect id="Rectángulo_304004" data-name="Rectángulo 304004" width="51.743" height="4.665" transform="translate(98.264)" fill="url(#linear-gradient-5)"/>
          </g>
        </g>
      </g>
      <g id="Grupo_907272" data-name="Grupo 907272" transform="translate(22.065 88.069)">
        <g id="Grupo_907271" data-name="Grupo 907271" clip-path="url(#clip-path-3)">
          <path id="Trazado_638357" data-name="Trazado 638357" d="M0,0H84.529V84.529H0Z" transform="translate(79.246 80.236) rotate(180)" fill="#4dd0e1"/>
          <g id="Grupo_907270" data-name="Grupo 907270" transform="translate(17.763 6.852)">
            <path id="Trazado_638327" data-name="Trazado 638327" d="M214.179,381.312c-.117,1.969.757,6.116,2.855,5.76s2.811-4.307,2.4-8.165-3.632-6.126-4.607-3.148A14.269,14.269,0,0,0,214.179,381.312Z" transform="translate(-179.976 -327.445)" fill="#c05141"/>
            <path id="Trazado_638328" data-name="Trazado 638328" d="M214.3,376.307s3.474-3.329,5.333-5.076c2.918-2.743,6.5-5.966,6.5-5.966l-3.084-2.4s-3.769,2.115-7.844,4.151a5.7,5.7,0,0,0-3.563,5.541C211.614,375.211,213.441,376.616,214.3,376.307Z" transform="translate(-178.517 -320.748)" fill="#ffd0c5"/>
            <path id="Trazado_638329" data-name="Trazado 638329" d="M194.757,330.822c.029-.477.021-5.75.021-5.75s3.746,1.5,5.009,4.45,2.244,13.393,2.6,15.491l.355,2.1,2.8-1.432s-2.3,6.414-2,9.467,1.4,3.278,1.4,3.278-5.957.766-6.818-.883a60.65,60.65,0,0,1-4.594-14.171C192.732,338.051,194.757,330.822,194.757,330.822Z" transform="translate(-167.889 -298.796)" fill="#fd9927"/>
            <path id="Trazado_638330" data-name="Trazado 638330" d="M178.935,284.264a7.86,7.86,0,0,1-4.957,2.314c-.655-2.816-1.631-2.547-3.793-6.789-2.488-4.884-2.919-12.384-2.919-12.384L166.2,263c.956-.6,5.687-1.2,8.74.5,5.838,3.25,3.531,12.96,3.273,15.185A19.114,19.114,0,0,0,178.935,284.264Z" transform="translate(-152.12 -262.381)" fill="#7a3e3a"/>
            <path id="Trazado_638331" data-name="Trazado 638331" d="M168.6,273.767c1.547.263,3.089.553,4.626.887a4.522,4.522,0,0,0,2.917-.372c2.385,3.533,2.428,5.709,3.544,10.445-.034.218-.062.412-.08.564a19.113,19.113,0,0,0,.722,5.586c-1.431,2.045-4.8,3.741-6.535,2.314-.655-2.816-.052-2.547-2.214-6.789-2.488-4.884-2.919-12.384-2.919-12.384Z" transform="translate(-153.514 -268.995)" fill="#562715"/>
            <path id="Trazado_638332" data-name="Trazado 638332" d="M154.914,289.142c-5.177-1.324-7.245-1.5-7.678-7.4-.288-3.937-.9-11.144,1.29-14.84a6.783,6.783,0,0,1,6.483-3.1l4.871,3.043a64.079,64.079,0,0,1-.682,12C158.668,282.392,154.589,286.725,154.914,289.142Z" transform="translate(-140.93 -263.186)" fill="#7a3e3a"/>
            <g id="Grupo_907269" data-name="Grupo 907269" transform="translate(7.083 14.053)">
              <path id="Trazado_638333" data-name="Trazado 638333" d="M154.94,295.91s.507,6.94-1.017,10.17c-1.052,2.229-4.254,3.4-4.254,3.4a17.6,17.6,0,0,0,2.793,12.029c3.963,6.1,16.7,8.587,16.7,8.587s.43-.771,1.864-6.372-3.142-14.471-3.142-14.471-.167-.95-1.812-1.609c-4-1.6-3.393-7.99-3.393-7.99Z" transform="translate(-149.508 -295.91)" fill="#fec4ad"/>
              <path id="Trazado_638334" data-name="Trazado 638334" d="M164.906,306.874c-4.472,2.673-9.8,3.5-15.25,3.366.046-.488.1-.763.1-.763s3.2-1.168,4.254-3.4c1.524-3.23,1.017-10.17,1.017-10.17l7.737,3.74S162.3,304.595,164.906,306.874Z" transform="translate(-149.594 -295.91)" fill="#e8b09e"/>
            </g>
            <path id="Trazado_638335" data-name="Trazado 638335" d="M170.779,270.753a76.778,76.778,0,0,1,1.635,8.5,20.651,20.651,0,0,1-.626,5.178,6.208,6.208,0,0,1-2.049,3.641,3.991,3.991,0,0,1-2.9.456,13,13,0,0,1-3.733-.952c-2.581-.937-3.272-2.689-3.839-4.3s-.583-5.961-.141-9.1a5.544,5.544,0,0,1,4.632-5.006C166.026,268.638,170.779,270.753,170.779,270.753Z" transform="translate(-147.83 -266.274)" fill="#fec4ad"/>
            <path id="Trazado_638336" data-name="Trazado 638336" d="M159.333,289.9s-1.776-1.78-2.882-1.448-1.1,2.012-.191,3.348,4.1,1.973,4.1,1.973Z" transform="translate(-145.962 -277.498)" fill="#fec4ad"/>
            <path id="Trazado_638337" data-name="Trazado 638337" d="M169.644,268.37c1.542.072,3.193,2.152,5.955,3.543a7.4,7.4,0,0,0,4.765.884l-1.386-5.056s-3.693-2.046-6.211-1.705A3.679,3.679,0,0,0,169.644,268.37Z" transform="translate(-154.121 -264.482)" fill="#7a3e3a"/>
            <path id="Trazado_638338" data-name="Trazado 638338" d="M159.819,282.677c.368,3.724.641,5.815,4,8.642-3.012.532-7.422-.1-8.881-1.441.024-2.713.008-6.586-.182-8.329-.346-3.181-3.493-8.572,3.47-13.24a3.252,3.252,0,0,1,4.937,1.13C162.372,269.525,159.153,275.933,159.819,282.677Z" transform="translate(-144.89 -265.399)" fill="#7a3e3a"/>
            <path id="Trazado_638339" data-name="Trazado 638339" d="M169.618,368.99a133.528,133.528,0,0,1-30.753.048c.766-4.68,3.315-14.833,3.448-18.671.227-6.537-5.287-22.053-5.287-22.053l6.411-3.5s5.513,5.526,10.317,5.714c8.706.341,5.83-6.66,5.83-6.66l2.477.5s2.19,8.907,3.911,12.2a13.461,13.461,0,0,1,.755,9.756C166.243,347.883,168.485,360.992,169.618,368.99Z" transform="translate(-135.174 -298.1)" fill="#feca2e"/>
            <path id="Trazado_638340" data-name="Trazado 638340" d="M231.468,358.239l-5.034.838c-.47.078-.772-.267-.674-.771l2.325-11.964a1.389,1.389,0,0,1,1.029-1.055l5.034-.838c.47-.078,1.73.391,1.632.9l-3.284,11.84A1.389,1.389,0,0,1,231.468,358.239Z" transform="translate(-186.706 -310.047)" fill="#cad2ea"/>
            <path id="Trazado_638341" data-name="Trazado 638341" d="M233.732,359.188l-5.034.838c-.47.078-.772-.267-.674-.771l2.325-11.964a1.389,1.389,0,0,1,1.029-1.055l5.034-.838c.47-.078.772.267.674.771l-2.325,11.964A1.388,1.388,0,0,1,233.732,359.188Z" transform="translate(-188.021 -310.597)" fill="#97a3cc"/>
            <path id="Trazado_638342" data-name="Trazado 638342" d="M172.527,396.068c.36,1.083,1.324,3.273,2.851,3.124s1.425-3.83,1.168-6.242-.64-4.032-1.881-3.307S172.255,395.254,172.527,396.068Z" transform="translate(-155.772 -336.203)" fill="#c05141"/>
            <path id="Trazado_638343" data-name="Trazado 638343" d="M157.526,376.409a63.8,63.8,0,0,1,6.257-3.145s8.414-1.369,11.014-2.544a29.094,29.094,0,0,0,7.072-5.453,10.552,10.552,0,0,1,4.295-3.061c1.4-.636,2.552-1.287,2.758-.715s-.539,1.007-1.2,1.446-2.581,1.765-3.166,2.209a1.062,1.062,0,0,0-.309,1.18s.88-.028,1.915.034,3.512.048,3.713.7-1.349,1.2-2.459,1.053a6.082,6.082,0,0,0-2.332.262,3.281,3.281,0,0,0,2.126.525c1.363-.079,1.751.1,1.484.567s-1.494.95-1.494.95a.716.716,0,0,1-.225,1.1,8.361,8.361,0,0,1-3.657,1.062c-1.114-.066-4.042,2.158-5.872,2.049s-9.877,4.928-13.8,6.374a68.252,68.252,0,0,1-9.89,2.451Z" transform="translate(-144.891 -319.823)" fill="#ffd0c5"/>
            <path id="Trazado_638344" data-name="Trazado 638344" d="M135.424,332.934c-2.9,1.083-2.936,4.929-2.755,9.075.282,6.423,3.454,21.682,4.746,24.154s3.68,1.607,6.256,1.28,8.541-1.252,8.541-1.252-1.053-1.1-1.164-4.622a13.718,13.718,0,0,1,.451-4.926l-7.66,1.108a105.538,105.538,0,0,1-1.454-10.95C142.217,342.814,141.478,330.675,135.424,332.934Z" transform="translate(-132.607 -303.201)" fill="#fd9927"/>
            <path id="Trazado_638345" data-name="Trazado 638345" d="M244.734,350.178a3.527,3.527,0,0,0-2.75,1.914c-.375.937.1.965.585.913a6.678,6.678,0,0,1,.96-.023,6.1,6.1,0,0,1-1.841,1.409c-.984.421-1.578,1.025-1.138,1.69s.609.515,1.264.235c0,0-.922.744-.492,1.568s1.517.01,1.517.01-1.073.576-.8,1.391.955.056,1.686-.14a3.121,3.121,0,0,0,1.8-2.13l-.084-1.283a6.571,6.571,0,0,0,.244-1.423l.047-.8-.342-.979S246.017,350.094,244.734,350.178Z" transform="translate(-195.223 -313.378)" fill="#ffd0c5"/>
          </g>
        </g>
      </g>
      <g id="Grupo_907274" data-name="Grupo 907274" transform="translate(1.152 14.432)">
        <path id="Trazado_638346" data-name="Trazado 638346" d="M45.33,75.008H70.591a5,5,0,0,1,5,5v7.427a5,5,0,0,1-5,5H65.334a21.017,21.017,0,0,0,4.7,5.516.377.377,0,0,1-.359.649c-2.183-.728-8.621-2.572-11.712-6.165H45.33a5,5,0,0,1-5-5V80.008A5,5,0,0,1,45.33,75.008Z" transform="translate(-40.33 -73.052)" fill="#7385c9" opacity="0.39" style="mix-blend-mode: multiply;isolation: isolate"/>
        <path id="Trazado_638347" data-name="Trazado 638347" d="M51.623,70.342H76.884a5,5,0,0,1,5,5v7.427a5,5,0,0,1-5,5H71.627a21.027,21.027,0,0,0,4.7,5.515.377.377,0,0,1-.359.649c-2.183-.728-8.621-2.572-11.712-6.165H51.623a5,5,0,0,1-5-5V75.342A5,5,0,0,1,51.623,70.342Z" transform="translate(-43.985 -70.342)" fill="#0b5999"/>
        <g id="Grupo_907273" data-name="Grupo 907273" transform="translate(10.099 7.026)">
          <path id="Trazado_638348" data-name="Trazado 638348" d="M105.32,88.7a1.6,1.6,0,1,0,1.6-1.6A1.6,1.6,0,0,0,105.32,88.7Z" transform="translate(-88.179 -87.105)" fill="#fff"/>
          <path id="Trazado_638349" data-name="Trazado 638349" d="M84.872,88.7a1.6,1.6,0,1,0,1.6-1.6A1.6,1.6,0,0,0,84.872,88.7Z" transform="translate(-76.302 -87.105)" fill="#fff"/>
          <path id="Trazado_638350" data-name="Trazado 638350" d="M64.424,88.7a1.6,1.6,0,1,0,1.6-1.6A1.6,1.6,0,0,0,64.424,88.7Z" transform="translate(-64.424 -87.105)" fill="#fff"/>
        </g>
      </g>
      <g id="Grupo_907276" data-name="Grupo 907276" transform="translate(0 100.189)">
        <path id="Trazado_638351" data-name="Trazado 638351" d="M42.683,279.71H68.456a5.1,5.1,0,0,1,5.1,5.1v7.577a5.1,5.1,0,0,1-5.1,5.1H63.092a21.447,21.447,0,0,0,4.793,5.627.384.384,0,0,1-.366.662c-2.227-.742-8.8-2.624-11.949-6.289H42.683a5.1,5.1,0,0,1-5.1-5.1v-7.577A5.1,5.1,0,0,1,42.683,279.71Z" transform="translate(-37.582 -277.715)" fill="#7385c9" opacity="0.39" style="mix-blend-mode: multiply;isolation: isolate"/>
        <path id="Trazado_638352" data-name="Trazado 638352" d="M49.1,274.95H74.877a5.1,5.1,0,0,1,5.1,5.1v7.577a5.1,5.1,0,0,1-5.1,5.1H69.513a21.452,21.452,0,0,0,4.792,5.627.384.384,0,0,1-.366.662c-2.227-.742-8.8-2.624-11.949-6.289H49.1a5.1,5.1,0,0,1-5.1-5.1v-7.577A5.1,5.1,0,0,1,49.1,274.95Z" transform="translate(-41.312 -274.95)" fill="#fd9927"/>
        <g id="Grupo_907275" data-name="Grupo 907275" transform="translate(10.303 7.168)">
          <circle id="Elipse_6776" data-name="Elipse 6776" cx="1.632" cy="1.632" r="1.632" transform="translate(17.488)" fill="#fff"/>
          <circle id="Elipse_6777" data-name="Elipse 6777" cx="1.632" cy="1.632" r="1.632" transform="translate(8.744)" fill="#fff"/>
          <circle id="Elipse_6778" data-name="Elipse 6778" cx="1.632" cy="1.632" r="1.632" fill="#fff"/>
        </g>
      </g>
      <g id="Grupo_907278" data-name="Grupo 907278" transform="translate(244.511 30.4)">
        <path id="Trazado_638353" data-name="Trazado 638353" d="M662.336,113.721H633.743a5.66,5.66,0,0,0-5.66,5.66v8.406a5.66,5.66,0,0,0,5.66,5.66h5.95a23.786,23.786,0,0,1-5.317,6.243.426.426,0,0,0,.406.735c2.471-.824,9.758-2.911,13.258-6.978h14.3a5.66,5.66,0,0,0,5.66-5.66v-8.406A5.66,5.66,0,0,0,662.336,113.721Z" transform="translate(-625.098 -111.508)" fill="#7385c9" opacity="0.39" style="mix-blend-mode: multiply;isolation: isolate"/>
        <path id="Trazado_638354" data-name="Trazado 638354" d="M655.213,108.44H626.62a5.659,5.659,0,0,0-5.659,5.66v8.406a5.659,5.659,0,0,0,5.659,5.66h5.95a23.8,23.8,0,0,1-5.317,6.243.426.426,0,0,0,.406.735c2.471-.824,9.758-2.911,13.257-6.978h14.3a5.659,5.659,0,0,0,5.659-5.66V114.1A5.659,5.659,0,0,0,655.213,108.44Z" transform="translate(-620.96 -108.44)" fill="#0b5999"/>
        <g id="Grupo_907277" data-name="Grupo 907277" transform="translate(8.445 7.952)">
          <circle id="Elipse_6779" data-name="Elipse 6779" cx="1.81" cy="1.81" r="1.81" fill="#fff"/>
          <path id="Trazado_638355" data-name="Trazado 638355" d="M667.874,129.223a1.81,1.81,0,1,1-1.81-1.81A1.81,1.81,0,0,1,667.874,129.223Z" transform="translate(-654.553 -127.413)" fill="#fff"/>
          <circle id="Elipse_6780" data-name="Elipse 6780" cx="1.81" cy="1.81" r="1.81" transform="translate(19.402)" fill="#fff"/>
        </g>
      </g>
    </g>
  </g>
</svg>
