<svg xmlns="http://www.w3.org/2000/svg" width="295" height="295" viewBox="0 0 295 295">
  <g id="Grupo_908337" data-name="Grupo 908337" transform="translate(-198 -2603.884)">
    <circle id="Elipse_6796" data-name="Elipse 6796" cx="147.5" cy="147.5" r="147.5" transform="translate(198 2603.884)" fill="#fd9927"/>
    <g id="Grupo_907967" data-name="Grupo 907967" transform="translate(149.101 2674.578)">
      <path id="Trazado_641388" data-name="Trazado 641388" d="M134.674-.323h109.24c.517.169,1.026.361,1.55.5,6.868,1.853,11.212,7.67,11.216,15.122q.02,33.041-.02,66.083c0,1.179.2,1.887,1.421,2.376a8.769,8.769,0,0,1,4.709,4.73c.166.361.365.707.541,1.045,7.882-2.858,15.041,2.182,14.713,10.828-.251,6.625.052,13.27-.083,19.9-.221,10.838-3.179,20.792-10.084,29.349-10.662,13.213-27.342,16.823-41.742,8.952a10.358,10.358,0,0,0-5.24-1.32q-40.207.058-80.414.037a7.948,7.948,0,0,1-6.635-2.779,8.459,8.459,0,0,1-1.6-5.683q.017-58.2.008-116.4V30.378c-1.208,0-2.258.051-3.3-.009a7.154,7.154,0,0,1-7.011-7.354c-.026-2.866-.081-5.735.02-8.6A14.373,14.373,0,0,1,129.2,1.929,37.822,37.822,0,0,1,134.674-.323ZM193.23,27.058c.711-2.42,1.53-3.046,4.125-3.048q13.452-.014,26.9,0c2.334,0,2.334,0,2.335-2.406,0-2.229.012-4.458,0-6.686a14.874,14.874,0,0,1,2.271-8.152,4.355,4.355,0,0,0,.276-.708H187.613q-25.073,0-50.146,0c-5.5,0-9.135,3.674-9.155,9.193-.008,2.176,0,4.351,0,6.527,0,2.225,0,2.229,2.172,2.229q18.227,0,36.455,0c2.6,0,3.485.679,4.107,3.05-.4,2.481-1.375,3.326-3.971,3.33q-13.3.018-26.593,0h-1.853v1.892q0,58.122,0,116.244c0,2.364,0,2.365,2.4,2.365h74.948c-2.5-3.166-4.87-6.129-7.2-9.117q-8.863-11.349-17.708-22.713c-2.658-3.4-3.923-7.162-2.869-11.438,1.116-4.529,3.782-7.85,8.356-9.177,4.439-1.288,8.107.357,11.164,3.609,2.036,2.165,4.056,4.346,6.089,6.513.3.317.631.6,1.078,1.019,0-6.546,0-12.853,0-19.16.007-10.616-.056-21.232.058-31.847a10.2,10.2,0,0,1,20.39-.12c.122,2.968.054,5.943.061,8.915.007,3.273,0,6.547,0,9.865,6.381-1.595,11.079.226,14.047,6.375a2.993,2.993,0,0,0,.839-1.679q.047-33.44.02-66.88c0-5.112-3.673-8.95-8.524-9.009-4.961-.06-8.708,3.719-8.788,8.9-.039,2.547.012,5.1-.012,7.644-.045,4.787-2.97,7.769-7.734,7.785-9.342.032-18.684.017-28.026,0C194.628,30.387,193.7,29.587,193.23,27.058ZM221.264,86.3h.041c0,8.333.014,16.666-.013,25a19.976,19.976,0,0,1-.316,4.108c-.667,3.1-3.482,4.33-6.222,2.705a15.016,15.016,0,0,1-3.058-2.51c-3.022-3.132-5.934-6.369-8.961-9.494-2.477-2.557-5.556-2.166-7.463.84-1.573,2.481-1.368,5.365.668,7.986,7.354,9.467,14.676,18.96,22.138,28.341a45.907,45.907,0,0,0,6.458,6.557c9.689,8.106,22.206,8.681,32.337,1.506,7.776-5.507,11.966-13.348,13.742-22.5,1.938-9.984.77-20.112.923-30.176.033-2.14-1.5-3.414-3.56-3.56-2.405-.17-4,1.285-4.149,3.959-.119,2.117,0,4.248-.124,6.364a3.044,3.044,0,0,1-2.959,2.8,3.141,3.141,0,0,1-3.206-2.532,10.039,10.039,0,0,1-.136-1.9c-.031-3.715.029-7.432-.092-11.144a3.539,3.539,0,0,0-3.842-3.585,3.648,3.648,0,0,0-3.816,3.648c-.055.793-.027,1.591-.028,2.387,0,3.291.04,6.583-.023,9.872a3.178,3.178,0,1,1-6.35-.092c-.016-.477,0-.956,0-1.433,0-5.308.024-10.616-.01-15.923-.019-3-1.539-4.59-4.154-4.476-2.387.1-3.667,1.668-3.681,4.633-.026,5.732.012,11.465-.024,17.2a3.162,3.162,0,0,1-3.1,3.352,3.28,3.28,0,0,1-3.249-3.254c-.037-.475-.014-.955-.014-1.433q0-21.416,0-42.833a19.6,19.6,0,0,0-.069-2.226,3.446,3.446,0,0,0-2.38-3.083c-2.854-1.017-5.276.755-5.288,3.98C221.242,68.357,221.264,77.327,221.264,86.3Z" fill="#060606"/>
      <path id="Trazado_641389" data-name="Trazado 641389" d="M215.82,35.666c.474,2.528,1.4,3.328,3.987,3.331,9.342.012,18.684.028,28.026,0,4.764-.017,7.69-3,7.734-7.785.024-2.548-.027-5.1.012-7.644.08-5.185,3.827-8.963,8.788-8.9,4.851.058,8.521,3.9,8.524,9.009q.022,33.44-.02,66.88a2.994,2.994,0,0,1-.839,1.679c-2.969-6.15-7.666-7.97-14.047-6.375,0-3.319.006-6.592,0-9.865-.007-2.972.061-5.948-.061-8.915a10.2,10.2,0,0,0-20.39.12c-.114,10.615-.051,21.231-.058,31.847,0,6.307,0,12.614,0,19.16-.447-.42-.781-.7-1.078-1.019-2.034-2.167-4.053-4.348-6.089-6.513-3.057-3.251-6.725-4.9-11.164-3.609-4.575,1.327-7.24,4.648-8.356,9.177-1.054,4.277.211,8.04,2.869,11.438q8.872,11.342,17.708,22.713c2.334,2.989,4.7,5.952,7.2,9.117H163.619c-2.4,0-2.4,0-2.4-2.365q0-58.122,0-116.244V39h1.853q13.3,0,26.593,0c2.6,0,3.571-.849,3.971-3.33l7.854,0c.427,2.273,1.51,3.349,3.331,3.311,1.756-.036,2.814-1.148,3.151-3.308ZM173.53,62.627c0,1.962-.014,3.925,0,5.886.034,3.844,2.5,6.436,6.312,6.5q6.044.1,12.09,0a6.062,6.062,0,0,0,6.3-6.189q.138-6.122,0-12.249A6.037,6.037,0,0,0,192.25,50.4q-6.36-.167-12.726,0a6.076,6.076,0,0,0-5.985,6.183C173.5,58.6,173.532,60.612,173.53,62.627Zm27.507,24.312H182.742c-2.015,0-4.031-.039-6.045.017a3.166,3.166,0,0,0-3.151,3.134A3.251,3.251,0,0,0,176.5,93.28a14.765,14.765,0,0,0,1.59.027h38.5c2.863,0,5.728.039,8.59-.014a3.174,3.174,0,0,0,3.25-4.024c-.458-1.541-1.619-2.325-3.531-2.327Q212.967,86.931,201.036,86.939Zm-7.365,54.78c-5.458,0-10.916-.008-16.374,0-2.27,0-3.759,1.293-3.751,3.191s1.513,3.168,3.777,3.171q8.346.013,16.692,0c5.4,0,10.81.008,16.215,0a3.213,3.213,0,0,0,3.424-2.256c.642-2.17-.85-4.082-3.291-4.1C204.8,141.7,199.236,141.721,193.672,141.719Zm-3.808-30.184c4.193,0,8.386.026,12.577-.023a5.033,5.033,0,0,0,2.266-.528,3.059,3.059,0,0,0,1.28-3.612c-.437-1.395-1.654-2.2-3.489-2.206q-12.578-.022-25.155,0c-2.286,0-3.782,1.286-3.8,3.178-.019,1.93,1.422,3.18,3.745,3.189C181.479,111.546,185.671,111.535,189.864,111.535Zm31.4-54.8c4.029,0,8.059.008,12.088,0,2.3-.006,3.777-1.252,3.781-3.152s-1.5-3.211-3.767-3.214q-12.168-.023-24.335,0c-2.321,0-3.725,1.244-3.73,3.2,0,2,1.342,3.158,3.716,3.165C213.1,56.745,217.186,56.737,221.269,56.737ZM188.26,123.468c-3.713,0-7.425-.022-11.138.009-1.971.016-3.166.93-3.518,2.561-.452,2.094,1.182,3.793,3.735,3.8q10.9.028,21.8,0c2.418,0,3.927-1.273,3.908-3.226s-1.489-3.133-3.966-3.143C195.474,123.455,191.867,123.466,188.26,123.468Zm30.146-54.815c-3.074,0-6.149-.029-9.222.02a5.731,5.731,0,0,0-2.3.451,3.043,3.043,0,0,0-1.516,3.515c.349,1.458,1.631,2.378,3.509,2.384q9.54.034,19.08,0c2.307-.007,3.773-1.29,3.769-3.193s-1.455-3.15-3.785-3.171C224.767,68.631,221.587,68.653,218.406,68.652Z" transform="translate(-22.59 -8.608)" fill="#fcfcfc"/>
      <path id="Trazado_641390" data-name="Trazado 641390" d="M318.938,161.163c0-8.97-.022-17.941.012-26.91.012-3.225,2.434-5,5.288-3.98a3.446,3.446,0,0,1,2.38,3.083,19.6,19.6,0,0,1,.069,2.226q.006,21.416,0,42.833c0,.478-.023.958.014,1.433a3.28,3.28,0,0,0,3.249,3.254,3.162,3.162,0,0,0,3.1-3.352c.035-5.732,0-11.465.024-17.2.014-2.964,1.294-4.529,3.681-4.633,2.615-.113,4.135,1.474,4.154,4.476.034,5.307.01,10.616.01,15.923,0,.477-.011.956,0,1.433a3.178,3.178,0,1,0,6.35.092c.063-3.29.02-6.581.023-9.872,0-.8-.027-1.595.028-2.387a3.648,3.648,0,0,1,3.816-3.648,3.539,3.539,0,0,1,3.842,3.585c.12,3.711.061,7.429.092,11.144a10.044,10.044,0,0,0,.136,1.9,3.141,3.141,0,0,0,3.206,2.532,3.044,3.044,0,0,0,2.959-2.8c.126-2.116,0-4.247.124-6.364.15-2.674,1.744-4.13,4.149-3.959,2.058.146,3.592,1.42,3.56,3.56-.154,10.064,1.015,20.192-.923,30.176-1.776,9.149-5.966,16.99-13.742,22.5-10.131,7.175-22.648,6.6-32.337-1.506a45.907,45.907,0,0,1-6.458-6.557c-7.462-9.381-14.784-18.874-22.138-28.341-2.036-2.621-2.242-5.5-.668-7.986,1.907-3.006,4.986-3.4,7.463-.84,3.028,3.125,5.94,6.363,8.961,9.494a15.019,15.019,0,0,0,3.058,2.51c2.74,1.625,5.555.4,6.222-2.705a19.979,19.979,0,0,0,.316-4.108c.027-8.333.013-16.666.013-25Z" transform="translate(-97.674 -74.866)" fill="#fddad3"/>
      <path id="Trazado_641391" data-name="Trazado 641391" d="M201.885,35.666l-7.849,0c-.518-2-1.536-2.979-3.152-3.02-1.665-.043-2.71.9-3.331,3.018l-7.854,0c-.621-2.371-1.505-3.049-4.107-3.05q-18.227-.011-36.455,0c-2.17,0-2.171,0-2.172-2.229,0-2.175-.006-4.351,0-6.527.02-5.519,3.656-9.189,9.155-9.193q25.073-.016,50.146,0H237.8a4.354,4.354,0,0,1-.276.708,14.873,14.873,0,0,0-2.271,8.152c.011,2.229,0,4.457,0,6.686,0,2.4,0,2.406-2.335,2.406q-13.452,0-26.9,0C203.415,32.62,202.6,33.246,201.885,35.666Z" transform="translate(-8.654 -8.608)" fill="#fddad3"/>
      <path id="Trazado_641392" data-name="Trazado 641392" d="M190.139,110.775c0-2.015-.035-4.031.009-6.045a6.076,6.076,0,0,1,5.985-6.183q6.359-.167,12.726,0a6.037,6.037,0,0,1,5.987,6.177q.136,6.122,0,12.249a6.062,6.062,0,0,1-6.3,6.189q-6.044.1-12.09,0c-3.814-.065-6.278-2.658-6.312-6.5C190.124,114.7,190.139,112.737,190.139,110.775Zm6.508-5.811V116.7h11.77V104.964Z" transform="translate(-39.198 -56.756)" fill="#060606"/>
      <path id="Trazado_641393" data-name="Trazado 641393" d="M217.683,184.523q11.931,0,23.862,0c1.912,0,3.073.786,3.531,2.327a3.174,3.174,0,0,1-3.25,4.024c-2.863.053-5.727.014-8.59.014h-38.5a14.767,14.767,0,0,1-1.59-.027,3.251,3.251,0,0,1-2.956-3.189,3.166,3.166,0,0,1,3.151-3.134c2.013-.056,4.03-.017,6.045-.017Z" transform="translate(-39.236 -106.191)" fill="#010101"/>
      <path id="Trazado_641394" data-name="Trazado 641394" d="M210.319,313.283c5.564,0,11.128-.021,16.692.011,2.442.014,3.933,1.926,3.291,4.1a3.213,3.213,0,0,1-3.424,2.256c-5.405.013-10.81,0-16.215,0q-8.346,0-16.692,0c-2.264,0-3.769-1.283-3.777-3.171s1.481-3.186,3.751-3.191C199.4,313.274,204.86,313.282,210.319,313.283Z" transform="translate(-39.237 -180.171)" fill="#010101"/>
      <path id="Trazado_641395" data-name="Trazado 641395" d="M206.5,233.731c-4.193,0-8.385.011-12.577,0-2.322-.009-3.763-1.259-3.745-3.189.018-1.892,1.515-3.174,3.8-3.178q12.578-.019,25.155,0c1.835,0,3.052.811,3.489,2.206a3.059,3.059,0,0,1-1.28,3.612,5.033,5.033,0,0,1-2.266.528C214.891,233.757,210.7,233.731,206.5,233.731Z" transform="translate(-39.231 -130.805)" fill="#060606"/>
      <path id="Trazado_641396" data-name="Trazado 641396" d="M280.8,104.939c-4.082,0-8.165.008-12.247,0-2.374-.007-3.72-1.168-3.716-3.165,0-1.958,1.408-3.2,3.73-3.2q12.168-.023,24.335,0c2.266,0,3.771,1.324,3.767,3.214s-1.482,3.146-3.781,3.152C288.86,104.947,284.83,104.939,280.8,104.939Z" transform="translate(-82.122 -56.81)" fill="#060606"/>
      <path id="Trazado_641397" data-name="Trazado 641397" d="M204.884,270.382c3.607,0,7.213-.012,10.82,0,2.477.01,3.948,1.193,3.966,3.143s-1.49,3.222-3.908,3.226q-10.9.018-21.8,0c-2.553-.006-4.188-1.706-3.735-3.8.352-1.631,1.547-2.545,3.518-2.561C197.459,270.361,201.171,270.383,204.884,270.382Z" transform="translate(-39.213 -155.523)" fill="#060606"/>
      <path id="Trazado_641398" data-name="Trazado 641398" d="M277.9,141.549c3.18,0,6.361-.022,9.54.008,2.33.021,3.78,1.27,3.785,3.171s-1.462,3.186-3.769,3.193q-9.54.031-19.08,0c-1.878-.006-3.16-.926-3.509-2.384a3.043,3.043,0,0,1,1.516-3.515,5.731,5.731,0,0,1,2.3-.451C271.753,141.52,274.828,141.549,277.9,141.549Z" transform="translate(-82.085 -81.504)" fill="#060606"/>
      <path id="Trazado_641399" data-name="Trazado 641399" d="M255.866,59.954c.621-2.114,1.666-3.06,3.331-3.018,1.616.041,2.634,1.017,3.152,3.02-.337,2.161-1.4,3.272-3.151,3.308C257.376,63.3,256.293,62.227,255.866,59.954Z" transform="translate(-76.967 -32.896)" fill="#060606"/>
      <path id="Trazado_641400" data-name="Trazado 641400" d="M205.452,113.742h11.77v11.731h-11.77Z" transform="translate(-48.003 -65.533)" fill="#9bc1f6"/>
    </g>
  </g>
</svg>
