<svg xmlns="http://www.w3.org/2000/svg" width="294.667" height="289.788" viewBox="0 0 294.667 289.788">
  <g id="Grupo_908325" data-name="Grupo 908325" transform="translate(-1125 -391.212)">
    <path id="Trazado_114005" data-name="Trazado 114005" d="M199.278,0V171.111s2.976,59.559-56.194,59.231S0,230.343,0,230.343" transform="translate(1344.296 631.98) rotate(180)" fill="none" stroke="#0b5999" stroke-width="4"/>
    <path id="Trazado_114006" data-name="Trazado 114006" d="M39.254,25.83l-13.5,13.538a7.166,7.166,0,0,1-10.154,0L2.1,25.83a7.217,7.217,0,0,1,0-10.184L15.6,2.109a7.166,7.166,0,0,1,10.154,0l13.5,13.537A7.215,7.215,0,0,1,39.254,25.83Z" transform="translate(1166.357 655.355) rotate(180)" fill="#0b5999" opacity="0.999"/>
    <path id="Trazado_114007" data-name="Trazado 114007" d="M19.627,12.915l-6.749,6.769a3.583,3.583,0,0,1-5.077,0L1.051,12.915a3.608,3.608,0,0,1,0-5.092L7.8,1.055a3.583,3.583,0,0,1,5.077,0l6.749,6.769A3.608,3.608,0,0,1,19.627,12.915Z" transform="translate(1363.763 411.95) rotate(180)" fill="#0b5999" opacity="0.999"/>
    <g id="Rectángulo_303867" data-name="Rectángulo 303867" transform="translate(1166.667 419)" fill="none" stroke="#4dd0e1" stroke-width="4">
      <rect width="253" height="262" rx="33" stroke="none"/>
      <rect x="2" y="2" width="249" height="258" rx="31" fill="none"/>
    </g>
    <g id="Grupo_906682" data-name="Grupo 906682" transform="translate(1165.147 464.798)">
      <g id="Grupo_906654" data-name="Grupo 906654" transform="translate(161.185 7.36)">
        <path id="Trazado_637941" data-name="Trazado 637941" d="M2051.158,293.381a24.63,24.63,0,1,0,29.938-17.8A24.658,24.658,0,0,0,2051.158,293.381Zm6.083.714h0a18.576,18.576,0,0,1,23.141-12.435h0a18.576,18.576,0,0,1,12.435,23.141h0a18.576,18.576,0,0,1-23.141,12.435h0A18.576,18.576,0,0,1,2057.241,294.095Z" transform="translate(-2034.09 -258.541)" fill="#f7cc7f"/>
        <path id="Trazado_637942" data-name="Trazado 637942" d="M1862.493,122.154c.116.588.648.794,1.962,1.315,2.35.932,4.7,1.865,7.017,2.878a1.632,1.632,0,0,1,.774,1.141c.268,2.46.387,4.938.68,7.394a1.342,1.342,0,0,1-.668,1.6c-2.735,1.719-5.422,3.514-8.1,5.261.669,2.868,4.038,9.316,5.839,11.118,2.837-1.194,5.754-2.369,8.62-3.657a1.556,1.556,0,0,1,2.091.387,64.8,64.8,0,0,0,5.505,4.6c.769.587,1.179,1.047.93,2.105-.646,2.742-1.126,5.523-1.726,8.277-.161.74-.021,1.2.71,1.429q5.157,1.6,10.315,3.187c.845.261.976-.434,1.187-.931,1.068-2.519,2.15-5.033,3.133-7.586a1.769,1.769,0,0,1,1.9-1.306c2.755-.086,5.505-.352,8.468-.562l5.677,8.62a36.885,36.885,0,0,0,11-5.921l-3.887-9.34c2.04-2.584,3.982-4.935,5.781-7.392a1.391,1.391,0,0,1,1.711-.656c2.712.6,5.444,1.107,8.16,1.684.587.125,1.018.148,1.319-.494a35.279,35.279,0,0,0,3.242-10.145,1.109,1.109,0,0,0-.832-1.383c-2.643-1.092-5.265-2.234-7.912-3.315a1.289,1.289,0,0,1-.968-1.316c-.2-2.714-.521-5.422-.909-8.116a1.1,1.1,0,0,1,.6-1.275c2.7-1.778,5.384-3.575,8.143-5.411a39.569,39.569,0,0,0-5.743-10.933l-9.733,4.051-7.957-6.6c.486-2.426,1.066-5.216,1.6-8.016.438-2.3.767-2-1.542-2.964a3.886,3.886,0,0,1-.609-.4l-6.194-1.864a7.68,7.68,0,0,1-1.444-.179c-1.182-.375-1.847-.106-2.318,1.16-.981,2.638-2.128,5.216-3.27,7.791a1.5,1.5,0,0,1-1.01.736c-2.416.306-4.865.4-7.256.833a1.829,1.829,0,0,1-2.239-1.021c-1.637-2.586-3.38-5.105-5.253-7.907l-10.97,5.76c.287.728.445,1.15.618,1.565,1.067,2.563,2.111,5.136,3.224,7.68a1.4,1.4,0,0,1-.339,1.716c-1.7,2.019-3.268,4.147-4.953,6.177a1.65,1.65,0,0,1-1.317.465c-2.244-.39-4.465-.9-6.7-1.338-1.809-.352-2.483-.476-3.056.115Zm16.221-.253a25.5,25.5,0,1,1,2.8,19.317A25.336,25.336,0,0,1,1878.714,121.9Z" transform="translate(-1862.493 -87.276)" fill="#feca2e"/>
      </g>
      <path id="Trazado_637943" data-name="Trazado 637943" d="M208.655,352.62c.38.3.811.141,1.883-.233,1.917-.669,3.835-1.339,5.774-1.941a1.311,1.311,0,0,1,1.07.286c1.456,1.353,2.83,2.795,4.3,4.133a1.078,1.078,0,0,1,.434,1.32c-.757,2.481-1.445,4.984-2.151,7.451,1.914,1.39,7.349,3.534,9.39,3.682,1.1-2.216,2.248-4.463,3.312-6.752a1.25,1.25,0,0,1,1.473-.865,52.049,52.049,0,0,0,5.759-.1c.776-.048,1.267.016,1.671.79,1.049,2,2.22,3.945,3.3,5.933.291.534.62.741,1.182.494q3.97-1.741,7.939-3.487c.651-.286.364-.776.231-1.189-.676-2.091-1.34-4.187-2.085-6.253a1.421,1.421,0,0,1,.47-1.795c1.628-1.5,3.157-3.108,4.847-4.793l7.979,2.25A29.627,29.627,0,0,0,269,342.172l-7.271-3.628c-.12-2.641-.176-5.09-.375-7.528a1.117,1.117,0,0,1,.694-1.3c1.96-1.064,3.887-2.189,5.841-3.267.422-.233.7-.446.541-.993a28.337,28.337,0,0,0-3.365-7.864.891.891,0,0,0-1.232-.4c-2.179.727-4.371,1.411-6.547,2.147a1.035,1.035,0,0,1-1.28-.29c-1.549-1.542-3.167-3.018-4.818-4.45a.879.879,0,0,1-.3-1.092c.7-2.5,1.39-5,2.1-7.567a31.782,31.782,0,0,0-9.235-3.62l-3.781,7.577-8.3.175c-.98-1.729-2.095-3.728-3.243-5.709-.942-1.625-.583-1.615-2.494-.99a3.129,3.129,0,0,1-.58.077l-4.741,2.124a6.168,6.168,0,0,1-.97.65,1.276,1.276,0,0,0-.8,1.923c.791,2.118,1.449,4.286,2.11,6.449a1.2,1.2,0,0,1-.227.978c-1.306,1.456-2.743,2.8-3.968,4.32a1.469,1.469,0,0,1-1.9.557c-2.354-.71-4.736-1.323-7.346-2.04l-3.633,9.264c.557.291.875.464,1.2.625,2,1,3.982,2.009,5.995,2.968a1.121,1.121,0,0,1,.7,1.22c.03,2.119.2,4.236.24,6.355a1.325,1.325,0,0,1-.555.975c-1.567.943-3.187,1.8-4.773,2.711-1.284.738-1.758,1.016-1.795,1.676Zm9.717-8.681A20.483,20.483,0,1,1,230.226,354.2,20.349,20.349,0,0,1,218.372,343.939Z" transform="translate(-186.624 -276.298)" fill="#4dd0e1"/>
      <path id="Trazado_637944" data-name="Trazado 637944" d="M531.929,192.218l.779-1.43-.733-1.454a.224.224,0,0,1,.241-.321l1.6.3,1.153-1.149a.223.223,0,0,1,.379.13l.208,1.616,1.446.745a.224.224,0,0,1-.006.4l-1.469.7-.259,1.609a.223.223,0,0,1-.383.118l-1.116-1.185-1.606.25A.224.224,0,0,1,531.929,192.218Z" transform="translate(-486.181 -171.99)" fill="#f7cc7f"/>
      <path id="Trazado_637945" data-name="Trazado 637945" d="M1511.566,271.05l.665-1.08-.534-.217a.229.229,0,0,1-.126-.3h0a.229.229,0,0,1,.3-.126l.616.25.595-.97-.571-.231a.228.228,0,0,1-.126-.3h0a.228.228,0,0,1,.3-.126l.652.265.691-1.111a.229.229,0,0,1,.28-.091l.1.04a.228.228,0,0,1,.109.331l-.642,1.048.946.384.691-1.111a.229.229,0,0,1,.28-.091l.109.044a.228.228,0,0,1,.109.331l-.642,1.048.534.217a.228.228,0,0,1,.126.3h0a.228.228,0,0,1-.3.126l-.616-.25-.586.974.571.231a.228.228,0,0,1,.126.3h0a.228.228,0,0,1-.3.126l-.652-.265-.705,1.146a.228.228,0,0,1-.28.092l-.116-.047a.228.228,0,0,1-.109-.331l.665-1.08-.946-.384-.706,1.146a.228.228,0,0,1-.28.092l-.116-.047A.228.228,0,0,1,1511.566,271.05Zm2.41-.866.595-.97-.946-.384-.595.97Z" transform="translate(-1380.802 -244.044)" fill="#07345a"/>
      <path id="Trazado_637946" data-name="Trazado 637946" d="M1453.256,403.46l-.9,4.787c.075.243.309.306.887.466,1.034.287,2.068.575,3.09.9a.693.693,0,0,1,.378.447c.224,1.026.385,2.066.62,3.09a.569.569,0,0,1-.21.7c-1.077.848-2.13,1.727-3.18,2.585a15.011,15.011,0,0,0,2.964,4.429c1.143-.631,2.321-1.259,3.473-1.931a.66.66,0,0,1,.9.069,27.489,27.489,0,0,0,2.53,1.691c.351.213.545.389.487.846-.149,1.186-.226,2.381-.355,3.57-.035.32.045.508.364.571l4.5.88c.369.072.392-.227.459-.446.337-1.111.681-2.221.98-3.342a.751.751,0,0,1,.745-.637c1.159-.16,2.307-.4,3.548-.618l2.784,3.382a15.648,15.648,0,0,0,4.373-2.994l-2.061-3.766c.744-1.182,1.458-2.262,2.107-3.379a.59.59,0,0,1,.692-.354c1.171.129,2.347.222,3.519.343.253.026.436.016.534-.268a14.969,14.969,0,0,0,.911-4.427.471.471,0,0,0-.414-.546c-1.164-.342-2.322-.706-3.488-1.042a.547.547,0,0,1-.468-.512c-.207-1.136-.464-2.264-.749-3.384a.465.465,0,0,1,.2-.565c1.059-.872,2.111-1.751,3.193-2.65a16.8,16.8,0,0,0-2.916-4.355l-3.925,2.148-3.654-2.427c.1-1.046.215-2.249.314-3.455.081-.989.234-.877-.784-1.181a1.657,1.657,0,0,1-.275-.141l-2.7-.508a3.254,3.254,0,0,1-.617-.01c-.516-.1-.784.039-.926.594-.3,1.157-.663,2.3-1.029,3.435a.635.635,0,0,1-.393.356c-1.005.238-2.035.389-3.024.678a.776.776,0,0,1-.991-.33c-.807-1.018-1.656-2-2.572-3.1l-4.37,2.924c.154.294.24.465.331.633.566,1.033,1.122,2.072,1.706,3.1a.592.592,0,0,1-.066.739c-.626.928-1.192,1.9-1.812,2.83a.7.7,0,0,1-.535.256c-.964-.064-1.925-.18-2.888-.263C1453.761,403.206,1453.471,403.184,1453.256,403.46Zm8.9,4.029a7.883,7.883,0,0,1,9.2-6.289h0a7.883,7.883,0,0,1,6.289,9.2h0a7.883,7.883,0,0,1-9.2,6.289h0a7.883,7.883,0,0,1-6.289-9.2Z" transform="translate(-1326.76 -357.644)" fill="#f47458"/>
      <path id="Trazado_637947" data-name="Trazado 637947" d="M1102.084,208.5l2.834.342-1.209-2.2Z" transform="translate(-1006.885 -188.919)" fill="#355389"/>
      <g id="Grupo_906655" data-name="Grupo 906655" transform="translate(105.602 42.275)">
        <path id="Trazado_637948" data-name="Trazado 637948" d="M1221.972,491.364a1.98,1.98,0,0,0,1.648,1.993,1.942,1.942,0,0,0,2.114-1.322c.642-1.719-1.239-3.075-2.259-2.035-.952.971-.651,2.414.377,2.414.388,0,1.012-.325.764-.8a.157.157,0,0,0-.269,0c-.125.212-.115.22-.174.268a.529.529,0,0,1-.337.1c-1.047-.018-.351-2.413.883-1.833a1.381,1.381,0,0,1,.642,1.761,1.577,1.577,0,0,1-1.536,1.1,1.8,1.8,0,0,1-1.6-1.652.128.128,0,0,0-.256,0Z" transform="translate(-1221.965 -489.636)" fill="#f47458"/>
      </g>
      <g id="Grupo_906657" data-name="Grupo 906657" transform="translate(156.237 7.377)">
        <g id="Grupo_906656" data-name="Grupo 906656">
          <path id="Trazado_637949" data-name="Trazado 637949" d="M1806.62,88.623l.847.364s1.415-.316,1.573-.582.25-.937.448-.938a.6.6,0,0,1,.625.568c.039.341-.535,1.265-.466,1.376a4.879,4.879,0,0,0,.879.449.686.686,0,0,1,.406.583h0a.365.365,0,0,1-.265.376l-.258.073.059.263a.366.366,0,0,1-.273.436l-.2.046.049.161a.365.365,0,0,1-.28.466l-.173.033,0,.045a.365.365,0,0,1-.3.388l-.172.028-2.257-.969a1.688,1.688,0,0,1-.56-.391l-.737-.473a.191.191,0,0,1-.071-.238l.876-1.968A.19.19,0,0,1,1806.62,88.623Z" transform="translate(-1805.479 -87.467)" fill="#4dd0e1"/>
        </g>
      </g>
      <path id="Rectángulo_303929" data-name="Rectángulo 303929" d="M5.347,0h10.3A5.347,5.347,0,0,1,20.99,5.347v0a5.347,5.347,0,0,1-5.347,5.347H5.347A5.347,5.347,0,0,1,0,5.347v0A5.347,5.347,0,0,1,5.347,0Z" transform="translate(115.408 48.909)" fill="#5184ce"/>
      <path id="Trazado_637950" data-name="Trazado 637950" d="M1139.659,1780.813l-16.22,7.476v1.656H1181.2v-1.656l-16.366-7.476Z" transform="translate(-1026.387 -1626.494)" fill="#466eb6"/>
      <rect id="Rectángulo_303930" data-name="Rectángulo 303930" width="25.189" height="32.058" transform="translate(113.272 122.274)" fill="#466eb6"/>
      <path id="Trazado_637951" data-name="Trazado 637951" d="M727.86,701.2V628.911a6.219,6.219,0,0,0-6.219-6.219H581.475a6.219,6.219,0,0,0-6.219,6.219V701.2Z" transform="translate(-525.773 -568.871)" fill="#466eb6"/>
      <rect id="Rectángulo_303931" data-name="Rectángulo 303931" width="57.765" height="1.656" transform="translate(97.052 161.795)" fill="#184655" opacity="0.3" style="mix-blend-mode: multiply;isolation: isolate"/>
      <rect id="Rectángulo_303932" data-name="Rectángulo 303932" width="25.178" height="3.762" transform="translate(113.272 150.557)" fill="#184655" opacity="0.3" style="mix-blend-mode: multiply;isolation: isolate"/>
      <path id="Trazado_637952" data-name="Trazado 637952" d="M575.256,1527.43v11.584c0,2.41,1.593,4.363,3.557,4.363H724.3c1.965,0,3.557-1.953,3.557-4.363V1527.43Z" transform="translate(-525.773 -1395.099)" fill="#5184ce"/>
      <path id="Trazado_637953" data-name="Trazado 637953" d="M1443.828,583.9a1.417,1.417,0,1,1-1.417-1.417A1.417,1.417,0,0,1,1443.828,583.9Z" transform="translate(-1316.386 -532.147)" fill="#184655"/>
      <path id="Trazado_637954" data-name="Trazado 637954" d="M761.88,731.1V662.142a3.333,3.333,0,0,0-3.391-3.273H619.812a3.334,3.334,0,0,0-3.391,3.273V731.1Z" transform="translate(-563.366 -601.908)" fill="#cce6ff"/>
      <rect id="Rectángulo_303933" data-name="Rectángulo 303933" width="87.428" height="61.005" transform="translate(59.443 62.527)" fill="#e9ffff"/>
      <rect id="Rectángulo_303934" data-name="Rectángulo 303934" width="87.428" height="7.143" transform="translate(59.443 62.527)" fill="#5184ce"/>
      <rect id="Rectángulo_303935" data-name="Rectángulo 303935" width="5.968" height="46.192" transform="translate(177.984 77.79)" fill="#9bc1f9" opacity="0.6"/>
      <rect id="Rectángulo_303936" data-name="Rectángulo 303936" width="5.968" height="32.102" transform="translate(169.65 91.88)" fill="#9bc1f9" opacity="0.6"/>
      <rect id="Rectángulo_303937" data-name="Rectángulo 303937" width="5.968" height="36.184" transform="translate(186.439 87.798)" fill="#9bc1f9" opacity="0.6"/>
      <rect id="Rectángulo_303938" data-name="Rectángulo 303938" width="5.968" height="37.607" transform="translate(161.316 86.375)" fill="#9bc1f9" opacity="0.6"/>
      <rect id="Rectángulo_303939" data-name="Rectángulo 303939" width="5.968" height="26.457" transform="translate(152.982 97.525)" fill="#9bc1f9" opacity="0.6"/>
      <g id="Grupo_906658" data-name="Grupo 906658" transform="translate(152.982 88.436)">
        <rect id="Rectángulo_303940" data-name="Rectángulo 303940" width="5.968" height="35.546" transform="translate(25.003)" fill="#9bc1f9" opacity="0.3" style="mix-blend-mode: multiply;isolation: isolate"/>
        <rect id="Rectángulo_303941" data-name="Rectángulo 303941" width="5.968" height="24.704" transform="translate(16.668 10.842)" fill="#9bc1f9" opacity="0.3" style="mix-blend-mode: multiply;isolation: isolate"/>
        <rect id="Rectángulo_303942" data-name="Rectángulo 303942" width="5.968" height="27.845" transform="translate(33.457 7.701)" fill="#9bc1f9" opacity="0.3" style="mix-blend-mode: multiply;isolation: isolate"/>
        <rect id="Rectángulo_303943" data-name="Rectángulo 303943" width="5.968" height="28.94" transform="translate(8.334 6.606)" fill="#9bc1f9" opacity="0.3" style="mix-blend-mode: multiply;isolation: isolate"/>
        <rect id="Rectángulo_303944" data-name="Rectángulo 303944" width="5.968" height="20.359" transform="translate(0 15.187)" fill="#9bc1f9" opacity="0.3" style="mix-blend-mode: multiply;isolation: isolate"/>
      </g>
      <rect id="Rectángulo_303945" data-name="Rectángulo 303945" width="80.696" height="10.357" transform="translate(62.46 72.611)" fill="#9bc1f9" opacity="0.6"/>
      <rect id="Rectángulo_303946" data-name="Rectángulo 303946" width="51.939" height="2.655" transform="translate(91.217 85.91)" fill="#9bc1f9" opacity="0.6"/>
      <rect id="Rectángulo_303947" data-name="Rectángulo 303947" width="25.551" height="30.636" transform="translate(62.46 85.91)" fill="#5184ce"/>
      <rect id="Rectángulo_303948" data-name="Rectángulo 303948" width="51.939" height="2.655" transform="translate(91.217 91.506)" fill="#9bc1f9" opacity="0.6"/>
      <rect id="Rectángulo_303949" data-name="Rectángulo 303949" width="51.939" height="2.655" transform="translate(91.217 108.295)" fill="#9bc1f9" opacity="0.6"/>
      <rect id="Rectángulo_303950" data-name="Rectángulo 303950" width="51.939" height="2.655" transform="translate(91.217 113.891)" fill="#9bc1f9" opacity="0.6"/>
      <path id="Trazado_637955" data-name="Trazado 637955" d="M290.593,1118.16l48.511-.087a1.319,1.319,0,0,1,1.321,1.317l.115,63.922a1.319,1.319,0,0,1-1.317,1.322l-48.511.087a1.319,1.319,0,0,1-1.322-1.317l-.115-63.922A1.319,1.319,0,0,1,290.593,1118.16Z" transform="translate(-264.609 -1021.264)" fill="#f7cc7f"/>
      <rect id="Rectángulo_303951" data-name="Rectángulo 303951" width="45.824" height="62.479" transform="translate(27.33 98.751) rotate(-0.103)" fill="#fff"/>
      <path id="Trazado_637956" data-name="Trazado 637956" d="M485.234,1102.855a.509.509,0,0,0-.51-.508l-19.241.035a.509.509,0,0,0-.508.51l0,2,20.258-.036Z" transform="translate(-425.063 -1006.903)" fill="#13375b"/>
      <path id="Trazado_637957" data-name="Trazado 637957" d="M549.765,1074.527a3.034,3.034,0,1,0,3.04,3.029A3.035,3.035,0,0,0,549.765,1074.527Zm.009,4.981a1.946,1.946,0,1,1,1.943-1.95A1.946,1.946,0,0,1,549.774,1079.508Z" transform="translate(-499.728 -981.497)" fill="#13375b"/>
      <g id="Grupo_906659" data-name="Grupo 906659" transform="translate(39.917 95.479)">
        <path id="Trazado_637958" data-name="Trazado 637958" d="M484.961,1102.8a.509.509,0,0,1,.312.468l0,2-20.258.036a2.508,2.508,0,0,0,2.513,2.5l15.241-.027a2.509,2.509,0,0,0,2.5-2.513l0-2A.509.509,0,0,0,484.961,1102.8Z" transform="translate(-465.018 -1102.799)" fill="#355389"/>
        <path id="Trazado_637959" data-name="Trazado 637959" d="M466.393,1102.746h0a.509.509,0,0,0-.422.225A.509.509,0,0,1,466.393,1102.746Z" transform="translate(-465.888 -1102.746)" fill="#9bc1f9"/>
        <path id="Trazado_637960" data-name="Trazado 637960" d="M465.236,1105.915a.509.509,0,0,1,.038-.091A.509.509,0,0,0,465.236,1105.915Z" transform="translate(-465.217 -1105.557)" fill="#9bc1f9"/>
      </g>
      <g id="Grupo_906660" data-name="Grupo 906660" transform="translate(61.374 110.585)">
        <path id="Trazado_637961" data-name="Trazado 637961" d="M718.807,1283.346l-6.514.012-.012-6.514,6.514-.012Zm-6.248-.255,5.982-.011-.011-5.982-5.982.011Z" transform="translate(-712.281 -1276.832)" fill="#184655"/>
      </g>
      <g id="Grupo_906661" data-name="Grupo 906661" transform="translate(61.393 121.424)">
        <path id="Trazado_637962" data-name="Trazado 637962" d="M719.032,1408.254l-6.514.012-.012-6.514,6.514-.012Zm-6.248-.255,5.982-.011-.011-5.982-5.982.011Z" transform="translate(-712.506 -1401.74)" fill="#184655"/>
      </g>
      <g id="Grupo_906662" data-name="Grupo 906662" transform="translate(61.413 132.264)">
        <path id="Trazado_637963" data-name="Trazado 637963" d="M719.257,1533.164l-6.514.012-.012-6.514,6.514-.012Zm-6.248-.255,5.982-.011-.011-5.982-5.982.011Z" transform="translate(-712.731 -1526.65)" fill="#184655"/>
      </g>
      <g id="Grupo_906663" data-name="Grupo 906663" transform="translate(61.432 143.103)">
        <path id="Trazado_637964" data-name="Trazado 637964" d="M719.482,1658.073l-6.514.012-.012-6.514,6.514-.012Zm-6.248-.255,5.982-.011-.011-5.982-5.982.011Z" transform="translate(-712.956 -1651.559)" fill="#184655"/>
      </g>
      <rect id="Rectángulo_303952" data-name="Rectángulo 303952" width="27.879" height="0.938" transform="translate(30.766 110.785) rotate(-0.103)" fill="#9bc1f9"/>
      <rect id="Rectángulo_303953" data-name="Rectángulo 303953" width="27.879" height="0.938" transform="matrix(1, -0.002, 0.002, 1, 30.771, 113.441)" fill="#9bc1f9"/>
      <rect id="Rectángulo_303954" data-name="Rectángulo 303954" width="27.879" height="0.938" transform="matrix(1, -0.002, 0.002, 1, 30.775, 116.096)" fill="#9bc1f9"/>
      <rect id="Rectángulo_303955" data-name="Rectángulo 303955" width="27.879" height="0.938" transform="matrix(1, -0.002, 0.002, 1, 30.786, 121.995)" fill="#9bc1f9"/>
      <rect id="Rectángulo_303956" data-name="Rectángulo 303956" width="27.879" height="0.938" transform="translate(30.791 124.65) rotate(-0.103)" fill="#9bc1f9"/>
      <rect id="Rectángulo_303957" data-name="Rectángulo 303957" width="27.879" height="0.938" transform="matrix(1, -0.002, 0.002, 1, 30.796, 127.305)" fill="#9bc1f9"/>
      <rect id="Rectángulo_303958" data-name="Rectángulo 303958" width="27.879" height="0.938" transform="matrix(1, -0.002, 0.002, 1, 30.805, 132.615)" fill="#9bc1f9"/>
      <rect id="Rectángulo_303959" data-name="Rectángulo 303959" width="27.879" height="0.938" transform="matrix(1, -0.002, 0.002, 1, 30.81, 135.27)" fill="#9bc1f9"/>
      <rect id="Rectángulo_303960" data-name="Rectángulo 303960" width="27.879" height="0.938" transform="translate(30.815 137.926) rotate(-0.103)" fill="#9bc1f9"/>
      <rect id="Rectángulo_303961" data-name="Rectángulo 303961" width="27.879" height="0.938" transform="translate(30.824 143.236) rotate(-0.103)" fill="#9bc1f9"/>
      <rect id="Rectángulo_303962" data-name="Rectángulo 303962" width="27.879" height="0.938" transform="translate(30.829 145.891) rotate(-0.103)" fill="#9bc1f9"/>
      <rect id="Rectángulo_303963" data-name="Rectángulo 303963" width="27.879" height="0.938" transform="translate(30.834 148.546) rotate(-0.103)" fill="#9bc1f9"/>
      <rect id="Rectángulo_303964" data-name="Rectángulo 303964" width="32.163" height="0.938" transform="translate(30.846 155.411) rotate(-0.103)" fill="#9bc1f9"/>
      <rect id="Rectángulo_303965" data-name="Rectángulo 303965" width="38.505" height="0.938" transform="translate(30.85 157.683) rotate(-0.103)" fill="#9bc1f9"/>
      <g id="Grupo_906664" data-name="Grupo 906664" transform="translate(62.587 109.558)">
        <path id="Trazado_637965" data-name="Trazado 637965" d="M728.29,1271.469,726.267,1268l.724-.422,1.174,2.015,1.917-4.6.773.322Z" transform="translate(-726.267 -1264.992)" fill="#f47458"/>
      </g>
      <g id="Grupo_906665" data-name="Grupo 906665" transform="translate(62.607 120.539)">
        <path id="Trazado_637966" data-name="Trazado 637966" d="M728.518,1398.015l-2.023-3.471.724-.422,1.174,2.015,1.917-4.6.773.322Z" transform="translate(-726.495 -1391.538)" fill="#f47458"/>
      </g>
      <g id="Grupo_906666" data-name="Grupo 906666" transform="translate(62.646 142.009)">
        <path id="Trazado_637967" data-name="Trazado 637967" d="M728.964,1645.426l-2.023-3.471.724-.422,1.174,2.015,1.917-4.6.773.322Z" transform="translate(-726.94 -1638.949)" fill="#f47458"/>
      </g>
      <path id="Trazado_637968" data-name="Trazado 637968" d="M728.872,1539.12l-.583-.589-1.665,1.65-1.67-1.644-.581.591,1.663,1.636-1.657,1.642.583.589,1.665-1.649,1.67,1.643.581-.591-1.663-1.636Z" transform="translate(-661.95 -1405.237)" fill="#f47458"/>
      <path id="Trazado_637969" data-name="Trazado 637969" d="M325.492,1618.92a11.985,11.985,0,0,0-4.643.937l0,1.527a10.618,10.618,0,0,1,10.4,18.477l2.287,0q.246-.222.482-.458a12.005,12.005,0,0,0-8.526-20.479Z" transform="translate(-293.443 -1478.649)" fill="#9bc1f9" opacity="0.3" style="mix-blend-mode: multiply;isolation: isolate"/>
      <path id="Trazado_637970" data-name="Trazado 637970" d="M325.568,1656.427a8.7,8.7,0,0,0-4.643,1.346v.831a8.058,8.058,0,1,1,.024,13.162l0,.831a8.749,8.749,0,1,0,4.616-16.171Z" transform="translate(-293.512 -1512.902)" fill="#9bc1f9" opacity="0.3" style="mix-blend-mode: multiply;isolation: isolate"/>
      <g id="Grupo_906667" data-name="Grupo 906667" transform="translate(39.266 104.255)">
        <path id="Trazado_637971" data-name="Trazado 637971" d="M458.758,1208.017V1204.9h-1.244v-.273h2.88v.273H459.15v3.121Z" transform="translate(-457.514 -1204.559)" fill="#184655"/>
        <path id="Trazado_637972" data-name="Trazado 637972" d="M501.054,1207.744v.273h-2.5v-3.394h2.408v.273h-2.019v1.189h1.462v.273h-1.462v1.386Z" transform="translate(-494.995 -1204.559)" fill="#184655"/>
        <path id="Trazado_637973" data-name="Trazado 637973" d="M531.91,1206.625l.338-.113a1.253,1.253,0,0,0,.436.536,1.167,1.167,0,0,0,.652.173,1.043,1.043,0,0,0,.641-.182.567.567,0,0,0,.243-.477.516.516,0,0,0-.159-.389,1.453,1.453,0,0,0-.54-.279q-.207-.067-.55-.161a3.412,3.412,0,0,1-.439-.14,1.19,1.19,0,0,1-.432-.3.618.618,0,0,1-.128-.4.787.787,0,0,1,.321-.664,1.436,1.436,0,0,1,.883-.242,1.563,1.563,0,0,1,.825.2,1.246,1.246,0,0,1,.5.609l-.329.085a1.106,1.106,0,0,0-.4-.468,1.137,1.137,0,0,0-.606-.151.921.921,0,0,0-.567.163.507.507,0,0,0-.217.424.444.444,0,0,0,.141.333,1.037,1.037,0,0,0,.436.22q.114.034.329.094a4.528,4.528,0,0,1,.8.269,1.177,1.177,0,0,1,.416.332.711.711,0,0,1,.129.426.844.844,0,0,1-.348.709,1.521,1.521,0,0,1-.941.264,1.661,1.661,0,0,1-.879-.211A1.431,1.431,0,0,1,531.91,1206.625Z" transform="translate(-525.454 -1203.979)" fill="#184655"/>
        <path id="Trazado_637974" data-name="Trazado 637974" d="M568.666,1208.017V1204.9h-1.244v-.273h2.88v.273h-1.244v3.121Z" transform="translate(-557.885 -1204.559)" fill="#184655"/>
        <path id="Trazado_637975" data-name="Trazado 637975" d="M609.186,1208.017v-3.394h.389v3.394Z" transform="translate(-596.024 -1204.559)" fill="#184655"/>
        <path id="Trazado_637976" data-name="Trazado 637976" d="M627.73,1204.869v3.149h-.378v-3.394h.633l2.014,2.864v-2.864h.378v3.394h-.415Z" transform="translate(-612.614 -1204.559)" fill="#184655"/>
        <path id="Trazado_637977" data-name="Trazado 637977" d="M674.2,1206.961a1.332,1.332,0,0,1-.5.336,1.841,1.841,0,0,1-.667.111,1.525,1.525,0,0,1-1.19-.451,2.274,2.274,0,0,1,.009-2.614,1.768,1.768,0,0,1,2.085-.217,1.424,1.424,0,0,1,.5.766l-.366.062a1.223,1.223,0,0,0-.391-.606,1.04,1.04,0,0,0-.652-.195,1.068,1.068,0,0,0-.878.38,1.665,1.665,0,0,0-.31,1.078,1.76,1.76,0,0,0,.314,1.136,1.135,1.135,0,0,0,.933.383,1.2,1.2,0,0,0,.75-.217.685.685,0,0,0,.284-.573v-.363h-1.045v-.255h1.466v1.618H674.2Z" transform="translate(-652.875 -1203.883)" fill="#184655"/>
      </g>
      <g id="Grupo_906675" data-name="Grupo 906675" transform="translate(70.656 17.887)">
        <g id="Grupo_906672" data-name="Grupo 906672" transform="translate(20.611 3.335)">
          <g id="Grupo_906668" data-name="Grupo 906668" transform="translate(16.285)">
            <path id="Trazado_637978" data-name="Trazado 637978" d="M1262.282,262.193l-.884,3.449,2.706-1.52,8.084-2.981-5.958-.165s-3.089.37-3.269.5A7.348,7.348,0,0,0,1262.282,262.193Z" transform="translate(-1259.926 -259.765)" fill="#4dd0e1"/>
            <path id="Trazado_637979" data-name="Trazado 637979" d="M1244.431,247.025l12.263,1.376-9.906,1.052Z" transform="translate(-1244.431 -247.025)" fill="#4dd0e1"/>
            <path id="Trazado_637980" data-name="Trazado 637980" d="M1281.576,267.927l-2.9-2.963,9.292-2.086Z" transform="translate(-1275.703 -261.503)" fill="#4dd0e1"/>
          </g>
          <g id="Grupo_906671" data-name="Grupo 906671" transform="translate(0 3.453)">
            <g id="Grupo_906669" data-name="Grupo 906669" transform="translate(0 0.634)">
              <path id="Trazado_637981" data-name="Trazado 637981" d="M1056.824,303.017a7.872,7.872,0,0,1,.259-.818c.093-.247.2-.495.32-.735l.26.129c-.115.232-.219.471-.309.709a7.514,7.514,0,0,0-.249.788q-.03.117-.056.234l-.284-.063C1056.785,303.178,1056.8,303.1,1056.824,303.017Zm1.6-3.158a11.046,11.046,0,0,1,1.3-1.379l.194.217a10.77,10.77,0,0,0-1.27,1.343Zm9.219.518-.046-.038.189-.221.038.032a.164.164,0,0,0,.028.013,1.34,1.34,0,0,0,.813,0,1.232,1.232,0,0,0,.53-.473l.244.158a1.536,1.536,0,0,1-.656.581,1.618,1.618,0,0,1-1.034.01A.378.378,0,0,1,1067.643,300.377Zm-6.412-3.054a15.151,15.151,0,0,1,1.641-.945l.129.26a14.849,14.849,0,0,0-1.609.926Zm5.529.665a3.543,3.543,0,0,1,.206-.835,4.2,4.2,0,0,1,.2-.447l.258.134a3.93,3.93,0,0,0-.186.416,3.235,3.235,0,0,0-.189.766,2.663,2.663,0,0,0-.008.546l-.29.025A2.97,2.97,0,0,1,1066.76,297.989Zm1.562-1.3-.035-.022.154-.246.037.024a2.923,2.923,0,0,1,1.191,1.475l-.275.093A2.629,2.629,0,0,0,1068.321,296.685Zm-3.611-.828a6.651,6.651,0,0,1,1.244-.134c.24.017.458.041.668.072l-.043.287c-.2-.03-.414-.053-.646-.07a6.007,6.007,0,0,0-1.172.13Zm3.636-.66a6.494,6.494,0,0,1,1.581-1.075l.126.262a6.212,6.212,0,0,0-1.51,1.027Z" transform="translate(-1056.766 -294.122)" fill="#4dd0e1"/>
            </g>
            <g id="Grupo_906670" data-name="Grupo 906670" transform="translate(14.989)">
              <path id="Trazado_637982" data-name="Trazado 637982" d="M1229.535,287.173a5.6,5.6,0,0,1,.932-.063l.005-.291a5.891,5.891,0,0,0-.98.066Z" transform="translate(-1229.492 -286.819)" fill="#4dd0e1"/>
            </g>
          </g>
        </g>
        <g id="Grupo_906674" data-name="Grupo 906674">
          <path id="Trazado_637983" data-name="Trazado 637983" d="M963.218,340.724c.175.007.654.168,1.355,1.493a49.663,49.663,0,0,1,2.2,6.8l-3.906,1.455-.5-1.067-.826-8.213S963.169,340.722,963.218,340.724Z" transform="translate(-949.195 -329.258)" fill="#a34b3d"/>
          <path id="Trazado_637984" data-name="Trazado 637984" d="M848.442,332.233a23.863,23.863,0,0,1,5.163.737s.942,8.1-.848,14.253c-.4,1.378.331,5.711.331,5.711l-11.574-.153s1.371-10.475.854-12.167-.529-7.589-.529-7.589.079-.012,2.6-.448A26.217,26.217,0,0,1,848.442,332.233Z" transform="translate(-839.583 -321.504)" fill="#b75742"/>
          <path id="Trazado_637985" data-name="Trazado 637985" d="M871.185,744.007a15.582,15.582,0,0,0,.727,3.774c.471.818-.025,2.21-.05,2.4s-.991.464-2.527.3-1.511-.518-1.387-1.091.941-1.309.991-1.855a14.238,14.238,0,0,0-.471-2.51Z" transform="translate(-863.674 -697.546)" fill="#f7a491"/>
          <path id="Trazado_637986" data-name="Trazado 637986" d="M849.705,540.767s7.989-.444,9.773.637-1.268,6.383-1.268,6.383-5.559-.256-16.448.372c-2.579.149-2.8-6.723-2.319-7.292S849.705,540.767,849.705,540.767Z" transform="translate(-837.505 -511.777)" fill="#e0973f"/>
          <path id="Trazado_637987" data-name="Trazado 637987" d="M868.152,792.294c-1.582-.169-1.386-.946-1.259-1.536a5.226,5.226,0,0,1,.8-1.217,2.636,2.636,0,0,0,1.058.514,3.957,3.957,0,0,0,2.314-.467,7.637,7.637,0,0,1,.211,2.041A4.6,4.6,0,0,1,868.152,792.294Z" transform="translate(-862.682 -739.129)" fill="#dd513a"/>
          <path id="Trazado_637988" data-name="Trazado 637988" d="M828.623,547.318c.319,2.415,1.9,14.439,1.9,14.439l-3.667.455s-4.51-15.694-4.278-18.095,1.919-2.6,1.919-2.6S827.778,540.924,828.623,547.318Z" transform="translate(-822.281 -512.612)" fill="#f7cc7f"/>
          <path id="Trazado_637989" data-name="Trazado 637989" d="M824.824,351.6c1.082-.406,1.611,9.344,1.757,13.357a47.158,47.158,0,0,0,6.088-.061c.391-.029,1.293-.36,1.682-.411a3.9,3.9,0,0,1,.956-.045,18.065,18.065,0,0,1,2.24,1.009c.212.222.785.782.688,1.025s-1.1-.675-1.1-.675l-.491-.276c.611.6,1.778,1.384,1.61,1.671s-1.216-.519-1.966-1.063c.643.581,1.442,1.62,1.258,1.782-.165.146-1.074-1.058-2.046-1.4-.36-.128-.719.227-1,.27a2.034,2.034,0,0,1-.733.041l-1.052-.3c-.358.032-.367.244-.729.321-.42.089-1.109.183-1.644.314-3.08.753-4.107,1.1-5.05,1.1C822.432,368.257,822.266,352.56,824.824,351.6Z" transform="translate(-822.692 -339.18)" fill="#f7a491"/>
          <path id="Trazado_637990" data-name="Trazado 637990" d="M819.327,351.166c-.2-4.111-.173-9.177,2.131-10.042.909-.341,2.512,1.71,2.224,10.125A17.315,17.315,0,0,1,819.327,351.166Z" transform="translate(-819.249 -329.592)" fill="#a34b3d"/>
          <path id="Trazado_637991" data-name="Trazado 637991" d="M995.527,776.056a2,2,0,0,0-.113,1.719c.417.784,2.6,1.938,2.831,2.363a1.03,1.03,0,0,1,.139.726l-6.492-1.592.5-1.957.607-1.352Z" transform="translate(-976.91 -726.729)" fill="#f7a491"/>
          <path id="Trazado_637992" data-name="Trazado 637992" d="M993.083,792.428s-1.825.316-2.549-.261-.675-.683-.942-.584c-.172.064-.433.843-.6,1.392a.534.534,0,0,0,.384.671l6.76,1.671c.514.1.854-.222.508-.634a6.122,6.122,0,0,0-.7-.649A23.5,23.5,0,0,0,993.083,792.428Z" transform="translate(-974.244 -740.963)" fill="#dd513a"/>
          <path id="Trazado_637993" data-name="Trazado 637993" d="M1000.233,544.39a2.769,2.769,0,0,1,3.758-1.65c1.971.813,2.5,2.811,1.878,4.856s-4.716,14.071-4.859,15.724l-3.269.022s.594-9.522.74-11.823A22.286,22.286,0,0,1,1000.233,544.39Z" transform="translate(-982.252 -513.506)" fill="#f7cc7f"/>
          <path id="Trazado_637994" data-name="Trazado 637994" d="M863.658,436.861H852.731a.712.712,0,0,0-.659.444l-3.365,8.234h-6.024a.305.305,0,0,0-.305.306h0a.305.305,0,0,0,.305.306h17.146a1.2,1.2,0,0,0,1.092-.709l3.388-7.573A.715.715,0,0,0,863.658,436.861Z" transform="translate(-840.371 -417.053)" fill="#184655"/>
          <path id="Trazado_637995" data-name="Trazado 637995" d="M1007.351,483.726a.6.6,0,1,1-.451-.787A.643.643,0,0,1,1007.351,483.726Z" transform="translate(-989.947 -459.123)" fill="#fff"/>
          <g id="Grupo_906673" data-name="Grupo 906673" transform="translate(5.374)">
            <path id="Trazado_637996" data-name="Trazado 637996" d="M887.261,209.432a8.382,8.382,0,0,1-.967-.387,4.855,4.855,0,0,0-1.1-.415,2.657,2.657,0,0,0-2.236.6c-.721.782-2,.141-1.744,4.236.292,4.635,2.869,4.126,2.932,4.048s2.3-2.965,2.3-2.965.782,1.71.782,1.647S891.217,210.764,887.261,209.432Z" transform="translate(-881.178 -208.594)" fill="#0e2e35"/>
            <path id="Trazado_637997" data-name="Trazado 637997" d="M900.865,287.829l.223,1.656s.5,2.386-.143,2.846-2.727-2.914-2.727-2.914l.22-4.2Z" transform="translate(-896.739 -278.571)" fill="#f7a491"/>
            <path id="Trazado_637998" data-name="Trazado 637998" d="M899.936,286.58a4.752,4.752,0,0,0,2.687,2.653l-.189-1.4-2.427-2.609Z" transform="translate(-898.308 -278.571)" fill="#f47458"/>
            <path id="Trazado_637999" data-name="Trazado 637999" d="M897.734,232.295a2.208,2.208,0,0,1,2.543,2.233,16.782,16.782,0,0,1-.186,2.124c-.3,1.912-1.6,3.6-2.462,3.445a4.145,4.145,0,0,1-2.651-4.52A3.658,3.658,0,0,1,897.734,232.295Z" transform="translate(-893.74 -230.212)" fill="#f7a491"/>
            <path id="Trazado_638000" data-name="Trazado 638000" d="M889.141,264.931a.643.643,0,1,1-.489-.869A.711.711,0,0,1,889.141,264.931Z" transform="translate(-887.304 -259.241)" fill="#f7a491"/>
            <path id="Trazado_638001" data-name="Trazado 638001" d="M893.249,228.356s1.043.259,1.43-.412a3.149,3.149,0,0,1,3.53-1.518c1.759.6-1.548-1.459-1.689-1.459l-1.83-.012s-1.3,1.071-1.349,1.188-.422,1.4-.422,1.4Z" transform="translate(-891.901 -223.535)" fill="#0e2e35"/>
          </g>
          <path id="Trazado_638002" data-name="Trazado 638002" d="M918.627,296.392l1.9.363a.845.845,0,0,1-1.02.579C918.481,297.169,918.627,296.392,918.627,296.392Z" transform="translate(-909.997 -288.773)" fill="#fff"/>
        </g>
      </g>
      <g id="Grupo_906676" data-name="Grupo 906676" transform="translate(97.229 92.348)">
        <path id="Trazado_638003" data-name="Trazado 638003" d="M1152.51,1801.972a10.184,10.184,0,0,1-.945,3.2,6.188,6.188,0,0,0-.807,1.069,3.158,3.158,0,0,0,.109,2.442c.142.311-.01.31.313.41a1.98,1.98,0,0,0,2.379-1.123,5.737,5.737,0,0,0,.467-2.064,7.508,7.508,0,0,1,.782-3.318Z" transform="translate(-1148.378 -1738.165)" fill="#f7a491"/>
        <path id="Trazado_638004" data-name="Trazado 638004" d="M1289.379,1814.741a22.979,22.979,0,0,1,.04,3.62c-.093.475-.612,1.454-.374,1.9a1.2,1.2,0,0,0,.51.559l6.17.1c.336.005.114-.212-.157-.413a12.44,12.44,0,0,0-2.218-1.234c-.092-.045-.429-.26-.55-.335a4.281,4.281,0,0,1-.882-.784c-.443-.5-.482-2.9-.482-2.9Z" transform="translate(-1274.794 -1749.826)" fill="#f7a491"/>
        <path id="Trazado_638005" data-name="Trazado 638005" d="M1287.094,1389.083a26.843,26.843,0,0,1,.267,7.343c-.51,2.908-2.959,29.861-2.959,29.861l-2.721.154s-.57-11.259-.468-12.825a24.4,24.4,0,0,1,.91-4.186l-.271-9.09,3.434-11.942Z" transform="translate(-1267.686 -1360.479)" fill="#e25a44"/>
        <path id="Trazado_638006" data-name="Trazado 638006" d="M1176.793,1374.945a20.326,20.326,0,0,0-2.653,5.927c-.51,2.684.374,10.933-.607,14.45-.531,1.9-2.545,4.844-2.851,7.305s-1.507,8.905-1.507,8.905l2.72.542,6.321-16.1,4.958-14.548,1.27-7.493Z" transform="translate(-1165.383 -1347.274)" fill="#f47458"/>
        <path id="Trazado_638007" data-name="Trazado 638007" d="M1151.538,1852.371a3.033,3.033,0,0,1-2.982-1.253,3.305,3.305,0,0,0-.283,2.451c.244.535.958.52,1.519.541a1.466,1.466,0,0,0,1.348-.83A4.975,4.975,0,0,0,1151.538,1852.371Z" transform="translate(-1146.172 -1783.047)" fill="#f7cc7f"/>
        <path id="Trazado_638008" data-name="Trazado 638008" d="M1292.655,1861.661a5.557,5.557,0,0,1-3.513-.139,2.867,2.867,0,0,0-.282,1.477c.15.439.363.539.551.544,1.49.039,5.46.093,6.6.108a.187.187,0,0,0,.144-.307A29.79,29.79,0,0,0,1292.655,1861.661Z" transform="translate(-1274.65 -1792.548)" fill="#f7cc7f"/>
        <path id="Trazado_638009" data-name="Trazado 638009" d="M1316.521,1266.126c.114-.242-1.085-.571-1.124-.831s1.568-.114,1.649-.331c.148-.4-1.75-.269-1.693-.457s2.008-.419,1.836-.77-2,.451-2.027.222,1.765-.593,1.785-1.086c.01-.264-2.988,1.01-3.3.834s.5-1.337.253-1.547-1.3,2.217-1.485,2.288-4.3,1.315-5.7,1.521c-.118-.474-1.17-3.081-1.271-3.527-.821.465-1.868-.095-2.709.32.423,1.493,1.374,6.408,1.753,6.63,1.156.674,7.24-2.54,8.245-3.108s1.521-.3,2.176-.442S1316.407,1266.367,1316.521,1266.126Z" transform="translate(-1287.347 -1245.184)" fill="#f38b80"/>
        <path id="Trazado_638010" data-name="Trazado 638010" d="M1143.818,1073.13a5.84,5.84,0,0,0-.2-4.319,3.923,3.923,0,0,0-3.088-2.1c-3.7-.439-2.91,3.016-8.083,3.764a11.613,11.613,0,0,0-4.442,1.255c-2.423,1.443-3.338,3.759-1.731,7.531,3.935,9.237,13.35,1.21,14.786-.423A16.76,16.76,0,0,0,1143.818,1073.13Z" transform="translate(-1125.469 -1066.669)" fill="#0e2e35"/>
        <path id="Trazado_638011" data-name="Trazado 638011" d="M1235.693,1191.718a5.371,5.371,0,0,0-2.986,1.428c-1.118,1.216,1.807,10.989,2.01,12.537s-1.943,5.83-1.943,5.83,7.3,1.451,9.194.2c0,0,.167-11.961-.036-13.066a32.659,32.659,0,0,0-2.3-6.043C1239.22,1192.16,1235.693,1191.718,1235.693,1191.718Z" transform="translate(-1223.169 -1180.867)" fill="#f7cc7f"/>
        <path id="Trazado_638012" data-name="Trazado 638012" d="M1269.726,1147.637s-.015.083-.041.224a21.37,21.37,0,0,1-.939,3.545c-.4.747,1.356,3.13,3.042,2.839.5-.086-.424-2.189-.38-2.412.085-.427.2-1.008.319-1.6.067-.336.134-.678.2-1l.328-1.656Z" transform="translate(-1256.261 -1140.553)" fill="#f7a491"/>
        <path id="Trazado_638013" data-name="Trazado 638013" d="M1279.354,1147.861c.026-.141.041-.224.041-.224l2.527-.063-.327,1.656-.2.993a2.369,2.369,0,0,1-1.206-.6,3.18,3.18,0,0,1-.914-1.356C1279.308,1148.1,1279.334,1147.966,1279.354,1147.861Z" transform="translate(-1265.93 -1140.553)" fill="#f47458" opacity="0.5"/>
        <path id="Trazado_638014" data-name="Trazado 638014" d="M1270.685,1079.081a2.982,2.982,0,0,0-1.777,1.107c-.746.964-1.551,3.943.3,5.563s3.687-.214,3.958-2.158S1273.387,1079.011,1270.685,1079.081Z" transform="translate(-1255.701 -1078.003)" fill="#f7a491"/>
        <path id="Trazado_638015" data-name="Trazado 638015" d="M1322.554,1115.012c-.117.469-.424.785-.686.707s-.379-.522-.262-.99.424-.786.686-.707S1322.671,1114.544,1322.554,1115.012Z" transform="translate(-1304.545 -1109.902)" fill="#f7a491"/>
        <path id="Trazado_638016" data-name="Trazado 638016" d="M1260.322,1078.671s-2.422,2.78-3.56,2.911-1.288,1.637-1.288,1.637.407-3.469,1.534-4.139A6.664,6.664,0,0,1,1260.322,1078.671Z" transform="translate(-1244.193 -1077.584)" fill="#0e2e35"/>
        <path id="Trazado_638017" data-name="Trazado 638017" d="M1262.072,1112.107c.093.5-.094.965-.416,1.031s-.659-.288-.751-.792.094-.965.416-1.031S1261.979,1111.6,1262.072,1112.107Z" transform="translate(-1249.131 -1107.433)" fill="#f7a491"/>
        <path id="Trazado_638018" data-name="Trazado 638018" d="M1252.945,1283.073l7.825,1.145a.43.43,0,0,1,.364.488l-1.527,10.439a.431.431,0,0,1-.488.364l-7.825-1.145a.431.431,0,0,1-.364-.488l1.527-10.439A.431.431,0,0,1,1252.945,1283.073Z" transform="translate(-1240.038 -1264.29)" fill="#184655"/>
        <path id="Trazado_638019" data-name="Trazado 638019" d="M1304.773,1282.9a.087.087,0,0,0-.074-.1l-3.264-.477a.087.087,0,0,0-.1.074l-.05.339,3.437.5Z" transform="translate(-1286.03 -1263.606)" fill="#13375b"/>
        <path id="Trazado_638020" data-name="Trazado 638020" d="M1316.233,1280.27a.52.52,0,1,0,.439.59A.521.521,0,0,0,1316.233,1280.27Zm-.124.845a.334.334,0,1,1,.378-.282A.334.334,0,0,1,1316.109,1281.115Z" transform="translate(-1299.135 -1261.73)" fill="#13375b"/>
        <path id="Trazado_638021" data-name="Trazado 638021" d="M1304.684,1287.165a.087.087,0,0,1,.041.087l-.05.339-3.437-.5a.43.43,0,0,0,.363.488l2.586.378a.43.43,0,0,0,.488-.363l.05-.339A.087.087,0,0,0,1304.684,1287.165Z" transform="translate(-1285.982 -1267.962)" fill="#355389"/>
        <path id="Trazado_638022" data-name="Trazado 638022" d="M1294.887,1142.09l-1.761-.009a.77.77,0,0,0,.811.7C1294.881,1142.809,1294.887,1142.09,1294.887,1142.09Z" transform="translate(-1278.577 -1135.537)" fill="#fff"/>
        <path id="Trazado_638023" data-name="Trazado 638023" d="M1210.8,1313.885l2.835.29s-.046,2.406,0,2.683c0,0,4.848,1.344,6.875,1.709,0,0,.922-.523,1.3-.689a9.051,9.051,0,0,1,1.6-.377c.222-.029.146.214-.044.3a1.842,1.842,0,0,0-.823.6,1.54,1.54,0,0,0,.612-.051c.212-.094.5-.294.508-.4s.053-.353.122-.34c.018,0,.041.085.065.171s.047.165.066.247c.036.148.077.363.093.46a6.68,6.68,0,0,1-.118,1.047c-.035.4-.147.571-.356.672a5.155,5.155,0,0,1-1.219.246,8.19,8.19,0,0,1-2.238-.221c-.387-.043-6.56-.656-6.56-.656s-2.454-.353-2.617-.776S1210.8,1313.885,1210.8,1313.885Z" transform="translate(-1203.386 -1292.432)" fill="#f7a491"/>
        <path id="Trazado_638024" data-name="Trazado 638024" d="M1211.45,1203.67a4.318,4.318,0,0,0-1.682,2.257c-.747,1.742-.967,10.433-.967,10.433l2.966-.494,1.507-4.053a7.432,7.432,0,0,0-.768-7.391C1212.088,1203.85,1211.7,1203.505,1211.45,1203.67Z" transform="translate(-1201.57 -1191.744)" fill="#f7cc7f"/>
      </g>
      <rect id="Rectángulo_303966" data-name="Rectángulo 303966" width="12.588" height="12.588" transform="translate(153.874 62.521)" fill="#9bc1f9" opacity="0.6"/>
      <rect id="Rectángulo_303967" data-name="Rectángulo 303967" width="24.558" height="1.71" transform="translate(168.69 62.521)" fill="#9bc1f9" opacity="0.6"/>
      <rect id="Rectángulo_303968" data-name="Rectángulo 303968" width="16.573" height="1.71" transform="translate(168.69 66.147)" fill="#9bc1f9" opacity="0.6"/>
      <rect id="Rectángulo_303969" data-name="Rectángulo 303969" width="22.059" height="1.71" transform="translate(168.69 69.773)" fill="#9bc1f9" opacity="0.6"/>
      <g id="Grupo_906681" data-name="Grupo 906681" transform="translate(150.923 66.089)">
        <path id="Trazado_638025" data-name="Trazado 638025" d="M2159.232,1203.85c-.515-.418-4.494,1.328-4.444,1.936s-2.777,6.5-2.777,6.5l-4.886-3.9h0c-.043-.141-.506-1.656-.529-1.927s-.849-.782-1.233-.708.328.554.375.643c.127.24-.364.33-.364.33s-1.4-.447-1.425-.9-.984.8-.872.971,2.389,2.007,2.718,2.406c0,0,6.319,7.224,6.769,7.413.4.166,1.8-2.324,3.133-3.977S2160.84,1205.158,2159.232,1203.85Z" transform="translate(-2108.458 -1165.629)" fill="#f7a491"/>
        <path id="Trazado_638026" data-name="Trazado 638026" d="M2470.871,1791.724s.869.847.888,1.158.077,3.642-.277,3.953-1.4.531-1.061.881c.253.265,2.2.208,3.49.137.377-.021.849-3.026,1-3.467.217-.641.743-2.086.546-2.533a3.756,3.756,0,0,0-1.2-1.083,5.912,5.912,0,0,1-1.332-1.418Z" transform="translate(-2407.345 -1700.381)" fill="#f48c7f"/>
        <path id="Trazado_638027" data-name="Trazado 638027" d="M2338.239,1838.927s.777,2.2.778,2.2c.058.348.285,1.207.285,1.523,0,1.188-5.357-1.008-4.156-1.535a1.267,1.267,0,0,0,.485-.833,2.778,2.778,0,0,0-.451-1.4Z" transform="translate(-2283.709 -1745.611)" fill="#f7a491"/>
        <g id="Grupo_906677" data-name="Grupo 906677" transform="translate(44.683 52.435)">
          <path id="Trazado_638028" data-name="Trazado 638028" d="M2260.607,1368.321s-.391,3.936-.391,3.994c0,6.366-1.262,18.8-1.022,20,.586,2.919,6.887,17.812,6.887,17.812l3.406-.407-3.656-18,.851-7.011,2.311-14.187Z" transform="translate(-2259.164 -1368.321)" fill="#0b5999"/>
          <path id="Trazado_638029" data-name="Trazado 638029" d="M2297.581,1377.713l.646,3.73,1.748,15.352,6.659,15s-.937,2.183-2.319,2.49l-10.6-15.4-6.583-19.712.231-4.379Z" transform="translate(-2284.708 -1374.231)" fill="#0b5999"/>
        </g>
        <path id="Trazado_638030" data-name="Trazado 638030" d="M2260.139,1151.919l4.723.482s.217-3.872.217-5.719c0-2.241-.191-5.127-.461-5.065a4.117,4.117,0,0,0-2.391,1.43C2260.119,1145.943,2260.139,1151.919,2260.139,1151.919Z" transform="translate(-2215.371 -1108.854)" fill="#b75742"/>
        <path id="Trazado_638031" data-name="Trazado 638031" d="M2266.729,1144.719c-.1.683-1.914,19.256-1.914,19.256,8.6,4.153,13.344.74,13.344.74s-.281-13.042.056-14.817c.223-1.174.5-8.978-.26-9.2a19.06,19.06,0,0,0-3.317-.705,31.731,31.731,0,0,0-5.813.073A9.219,9.219,0,0,0,2266.729,1144.719Z" transform="translate(-2219.641 -1107.286)" fill="#f47458"/>
        <path id="Trazado_638032" data-name="Trazado 638032" d="M2470.539,1805.449s-2,5.635-2.785,5.907c-.208.072-1.206.255-1.395.7a1.9,1.9,0,0,0,0,.577h4.172s.527-2.483.736-3.574a16.218,16.218,0,0,0,.982-2.908C2472.126,1805.907,2470.539,1805.449,2470.539,1805.449Z" transform="translate(-2403.673 -1715.081)" fill="#f47458"/>
        <path id="Trazado_638033" data-name="Trazado 638033" d="M2295.923,1866.463l-.613-1.938a5.332,5.332,0,0,1-1.933.454c-.644-.091-1.9-.454-1.9-.454-2.571.846-4.677,1.257-4.294,1.938h8.742Z" transform="translate(-2240.025 -1769.031)" fill="#f47458"/>
        <g id="Grupo_906678" data-name="Grupo 906678" transform="translate(43.53 46.144)">
          <path id="Trazado_638034" data-name="Trazado 638034" d="M2246.445,1300.661a1.124,1.124,0,0,1-.13-.1c.153-1.82.125-3.583-.446-4.179l.269-.569c.662.512.976,1.872.853,4.079a3.77,3.77,0,0,1-.087.457C2246.712,1300.564,2246.538,1300.7,2246.445,1300.661Z" transform="translate(-2245.869 -1295.817)" fill="#f7a491"/>
        </g>
        <path id="Trazado_638035" data-name="Trazado 638035" d="M2330.477,1097.352l.554,3.653s-2.024,4.35-3.233,3.973c-1.014-.316-.39-4.165-.39-4.165a10.551,10.551,0,0,0,.387-3.1C2327.63,1096.677,2330.477,1097.352,2330.477,1097.352Z" transform="translate(-2276.63 -1068.233)" fill="#f7a491"/>
        <path id="Trazado_638036" data-name="Trazado 638036" d="M2333.12,1097.711c-.166-1.034,2.681-.359,2.681-.359l.046.3a1.682,1.682,0,0,1-.309.509,3.748,3.748,0,0,1-2.489,1.127A5.646,5.646,0,0,0,2333.12,1097.711Z" transform="translate(-2281.954 -1068.233)" fill="#f47458"/>
        <g id="Grupo_906679" data-name="Grupo 906679" transform="translate(49.452 20.926)">
          <path id="Trazado_638037" data-name="Trazado 638037" d="M2318.983,1028.059c.081-.029.645,4.161-.426,5.314s-3.159,1.53-3.908.622c-.828-1-.786-5.508.879-6.694S2318.983,1028.059,2318.983,1028.059Z" transform="translate(-2314.121 -1025.034)" fill="#f7a491"/>
          <path id="Trazado_638038" data-name="Trazado 638038" d="M2322.423,1005.236a4.626,4.626,0,0,1,2.428,1.385c.584.069,1.379.392,2.2,1.751a3.4,3.4,0,0,1-.911,4.429,2.647,2.647,0,0,0-1.158,1.957l-.186-.543a3.036,3.036,0,0,1-.147-1.278,2.5,2.5,0,0,1,.19-.768c.282-.606-.607-1.009-.856-1.514-.192-.389-.2-1.277-.5-1.919l-.361-.49a2.3,2.3,0,0,0-1.649-.465C2320.654,1007.962,2320.771,1004.9,2322.423,1005.236Z" transform="translate(-2320.381 -1005.21)" fill="#0e2e35"/>
          <path id="Trazado_638039" data-name="Trazado 638039" d="M2356.251,1066.9c-.009.511.224.93.519.935s.542-.405.55-.916-.224-.93-.519-.935S2356.26,1066.391,2356.251,1066.9Z" transform="translate(-2352.595 -1060.712)" fill="#f7a491"/>
        </g>
        <path id="Trazado_638040" data-name="Trazado 638040" d="M2319.209,1089.281l-1.615-.083a.707.707,0,0,0,.715.672C2319.173,1089.94,2319.209,1089.281,2319.209,1089.281Z" transform="translate(-2267.84 -1060.983)" fill="#fff"/>
        <g id="Grupo_906680" data-name="Grupo 906680" transform="translate(0 0)">
          <path id="Trazado_638041" data-name="Trazado 638041" d="M2171.578,1187.633q.569-.583,1.063-1.2l7.049,6.884c.433.423.284,1.278-.333,1.91s-1.469.8-1.9.379l-7.049-6.883Q2171.007,1188.216,2171.578,1187.633Z" transform="translate(-2133.424 -1149.783)" fill="#0e2e35"/>
          <ellipse id="Elipse_6772" data-name="Elipse 6772" cx="17.778" cy="17.889" rx="17.778" ry="17.889" transform="matrix(0.699, -0.715, 0.715, 0.699, 0, 25.434)" fill="#c5ddf9" opacity="0.6"/>
          <path id="Trazado_638042" data-name="Trazado 638042" d="M1860.524,929.283a17.762,17.762,0,0,1-11.319,5.54l-19.284-19.6c0-.037.006-.074.01-.111a17.884,17.884,0,0,1,5.609-11.223Z" transform="translate(-1822.486 -891.755)" fill="#fff" style="mix-blend-mode: soft-light;isolation: isolate"/>
          <path id="Trazado_638043" data-name="Trazado 638043" d="M1942.7,848.938l17.833,18.126c-.009.548-.041,1.1-.1,1.657a17.923,17.923,0,0,1-2.24,6.964l-24.084-24.48A17.613,17.613,0,0,1,1942.7,848.938Z" transform="translate(-1917.631 -841.573)" fill="#fff" style="mix-blend-mode: soft-light;isolation: isolate"/>
          <path id="Trazado_638044" data-name="Trazado 638044" d="M1808.633,856.891a20.1,20.1,0,1,0-.426-28.509A20.161,20.161,0,0,0,1808.633,856.891Zm1.621-1.66a17.779,17.779,0,1,1,25.22-.22A17.834,17.834,0,0,1,1810.254,855.23Z" transform="translate(-1797.456 -817.293)" fill="#184655"/>
          <path id="Trazado_638045" data-name="Trazado 638045" d="M1822.362,868.893a18.879,18.879,0,1,0-.4-26.779A18.938,18.938,0,0,0,1822.362,868.893Zm.769-.787a17.779,17.779,0,1,1,25.22-.221A17.834,17.834,0,0,1,1823.131,868.106Z" transform="translate(-1810.333 -830.168)" fill="#50bfa5" opacity="0.5" style="mix-blend-mode: multiply;isolation: isolate"/>
          <path id="Trazado_638046" data-name="Trazado 638046" d="M2263.816,1277.847l1.1-1.136a2.856,2.856,0,0,0-.074-4.038l-20.35-19.73a2.856,2.856,0,0,0-4.038.074l-1.1,1.136a2.856,2.856,0,0,0,.073,4.038l20.35,19.73A2.856,2.856,0,0,0,2263.816,1277.847Z" transform="translate(-2195.659 -1209.79)" fill="#184655"/>
        </g>
        <path id="Trazado_638047" data-name="Trazado 638047" d="M2425.407,1209.864a.5.5,0,0,0,0-.12c-.127-1.286-1.195-12.087-1.374-12.546-.163-.414-4.952-7.265-4.952-7.265l-2.354,3.207,4.606,6.144c.1.391,1.765,7.681,1.765,7.681s.341,1.329.494,2.125c-.07.192-.138.373-.2.522a4.756,4.756,0,0,1-.5.8,5.466,5.466,0,0,0-.588,1.041c-.049.188-.137.577-.187.813s-.118.509-.129.637a1.232,1.232,0,0,1-.149.342.205.205,0,0,0,.242.3c.167-.055.3-.272.378-.407.226-.381.347-1.077.4-1.04s.255,1.217.286,1.35a14.5,14.5,0,0,0,.4,1.755c.134.25.312.209.36.052.04-.135-.149-2.053-.149-2.053s-.024-.245.083-.168.282,1.817.357,2.072.244.39.389.185a7.723,7.723,0,0,0-.126-2.1s-.034-.232.065-.211.223,1.505.3,1.633a.2.2,0,0,0,.365-.04,9.119,9.119,0,0,0-.174-1.9s.014-.131.076-.088.258,1.3.386,1.417a.135.135,0,0,0,.2,0c.235-.16-.125-1.356-.122-1.951a14.655,14.655,0,0,1-.19-1.971C2425.384,1210.041,2425.4,1209.932,2425.407,1209.864Z" transform="translate(-2358.373 -1152.978)" fill="#f8a492"/>
        <path id="Trazado_638048" data-name="Trazado 638048" d="M2400.836,1157.108l-4.091,2.747a44.4,44.4,0,0,0-3.544-4.653c-1.551-1.53.565-6.218,1.564-5.953C2397,1149.843,2400.836,1157.108,2400.836,1157.108Z" transform="translate(-2336.384 -1115.814)" fill="#f47458"/>
      </g>
      <rect id="Rectángulo_303970" data-name="Rectángulo 303970" width="203.495" height="1.033" transform="translate(20.286 163.009)" fill="#0e2e35"/>
    </g>
  </g>
</svg>
